<?xml version="1.0" encoding="utf-8"?>
<!-- Generator: Adobe Illustrator 15.0.0, SVG Export Plug-In . SVG Version: 6.00 Build 0)  -->
<!DOCTYPE svg PUBLIC "-//W3C//DTD SVG 1.1//EN" "http://www.w3.org/Graphics/SVG/1.1/DTD/svg11.dtd">
<svg version="1.1" id="Layer_1" xmlns="http://www.w3.org/2000/svg" xmlns:xlink="http://www.w3.org/1999/xlink" x="0px" y="0px"
	 width="800px" height="600px" viewBox="0 0 800 600" enable-background="new 0 0 800 600" xml:space="preserve">
<g>
	<path fill="none" d="M453.588,362.882c-13.55,3.656-25.593,10.964-35.03,20.797"/>
	<path fill="none" d="M398.648,450.396c6.581,35.355,37.572,62.129,74.833,62.129c42.055,0,76.144-34.091,76.144-76.143
		c0-42.053-34.089-76.145-76.144-76.145c-6.886,0-13.551,0.931-19.895,2.645"/>
	<path fill="none" d="M418.557,383.679c-13.131,13.682-21.218,32.243-21.218,52.704c0,4.788,0.463,9.469,1.309,14.014"/>
	<path opacity="0.2" fill="#8BD0EC" enable-background="new    " d="M453.588,362.882l-45.639-101.38
		c-8.062,22.729-28.309,72.807-44.379,90.132l54.987,32.045C427.995,373.846,440.038,366.538,453.588,362.882z"/>
	<path opacity="0.47" fill="#8BD0EC" enable-background="new    " d="M397.339,436.381c0-20.46,8.087-39.023,21.218-52.705
		l-54.986-32.042c-26.184,28.231-61.538,47.838-101.333,54.066c3.798,23.02,12.605,44.344,25.255,62.832l111.157-18.135
		C397.802,445.85,397.339,441.171,397.339,436.381z"/>
	<path fill="#8BD0EC" d="M417.162,222.901c-2.359,0-4.704,0.062-7.038,0.166c0.16,3.071,0.242,6.163,0.242,9.274
		c0,20.578,4.089,10.815-2.419,29.161l45.64,101.38c6.344-1.713,13.009-2.646,19.895-2.646c42.055,0,76.144,34.091,76.144,76.145
		c0,42.053-34.089,76.145-76.144,76.145c-37.262,0-68.253-26.775-74.833-62.131l-111.157,18.137
		c28.285,41.335,75.807,68.462,129.671,68.462c86.733,0,157.046-70.312,157.046-157.046S503.896,222.901,417.162,222.901z"/>
</g>
<g>
	<path fill="none" d="M287.725,153.346c-13.521-43.645-54.206-75.349-102.295-75.349c-59.136,0-107.077,47.941-107.077,107.078
		c0,35.84,17.611,67.563,44.649,86.999"/>
	<path fill="none" d="M123.002,272.074c17.574,12.635,39.131,20.079,62.428,20.079c2.743,0,5.461-0.105,8.152-0.308"/>
	<path fill="none" d="M193.581,291.848c55.329-4.166,98.925-50.377,98.925-106.771c0-11.046-1.674-21.703-4.782-31.729"/>
	<path opacity="0.76" fill="#F792A6" enable-background="new    " d="M287.725,153.346c3.106,10.026,4.782,20.683,4.782,31.729
		c0,56.395-43.598,102.605-98.926,106.771l8.255,112.686c10.551,1.979,21.431,3.025,32.556,3.025c9.306,0,18.442-0.729,27.356-2.126
		c-1.381-8.382-2.112-16.981-2.112-25.753c0-84.375,66.54-153.198,150.001-156.881c-1.84-35.339-14.146-67.903-33.856-94.674
		L287.725,153.346z"/>
	<path fill="#F792A6" d="M78.353,185.075c0-59.136,47.941-107.078,107.077-107.078c48.091,0,88.775,31.702,102.295,75.349
		l88.054-25.224c-31.95-43.384-83.376-71.54-141.387-71.54c-96.919,0-175.488,78.567-175.488,175.488
		c0,34.28,9.838,66.259,26.832,93.283l37.266-53.279C95.963,252.639,78.353,220.916,78.353,185.075z"/>
	<path opacity="0.15" fill="#F792A6" enable-background="new    " d="M185.43,292.153c-23.296,0-44.852-7.444-62.428-20.079
		l-37.266,53.279c25.537,40.609,67.246,70.014,116.099,79.178l-8.255-112.686C190.889,292.048,188.172,292.153,185.43,292.153z"/>
</g>
<circle fill="none" stroke="#F792A6" stroke-width="7.0829" stroke-miterlimit="10" cx="231.756" cy="232.116" r="176.422"/>
<circle fill="none" stroke="#8BD0EC" stroke-width="8.3282" stroke-miterlimit="10" cx="419.865" cy="379.611" r="156.207"/>
<circle fill="#F792A6" cx="185.679" cy="185.18" r="107.077"/>
<circle fill="#FFFFFF" stroke="#F792A6" stroke-width="1.1897" stroke-miterlimit="10" cx="185.679" cy="185.18" r="107.077"/>
<path fill="#FF0642" d="M136.5,87.794c0.649,1.397,0.045,3.057-1.354,3.707l-10.552,4.907c-1.396,0.649-3.06,0.043-3.71-1.354
	l-4.908-10.551c-0.649-1.399-0.042-3.062,1.355-3.711l10.552-4.906c1.399-0.651,3.058-0.043,3.709,1.356L136.5,87.794z"/>
<path fill="#FF0642" d="M153.028,80.109c0.65,1.397,0.044,3.057-1.354,3.708l-10.551,4.905c-1.398,0.651-3.06,0.043-3.71-1.354
	l-4.906-10.551c-0.651-1.399-0.044-3.061,1.356-3.711l10.55-4.906c1.398-0.65,3.059-0.043,3.71,1.356L153.028,80.109z"/>
<rect x="135.706" y="76.889" transform="matrix(0.9068 -0.4217 0.4217 0.9068 -19.7735 67.5147)" fill="#FFFFFF" width="14.117" height="3.154"/>
<rect x="119.177" y="84.568" transform="matrix(0.9068 -0.4216 0.4216 0.9068 -24.5521 61.2568)" fill="#FFFFFF" width="14.118" height="3.153"/>
<path fill="#8BD0EC" d="M473.848,357.45c0,1.543-1.248,2.796-2.791,2.796h-11.636c-1.542,0-2.796-1.253-2.796-2.796v-11.635
	c0-1.543,1.254-2.795,2.796-2.795h11.636c1.543,0,2.791,1.252,2.791,2.795V357.45z"/>
<path fill="#8BD0EC" d="M492.075,357.45c0,1.543-1.251,2.796-2.794,2.796h-11.634c-1.544,0-2.794-1.253-2.794-2.796v-11.635
	c0-1.543,1.25-2.795,2.794-2.795h11.634c1.543,0,2.794,1.252,2.794,2.795V357.45z"/>
<path fill="#0074FF" d="M473.848,357.45c0,1.543-1.248,2.796-2.791,2.796h-11.636c-1.542,0-2.796-1.253-2.796-2.796v-11.635
	c0-1.543,1.254-2.795,2.796-2.795h11.636c1.543,0,2.791,1.252,2.791,2.795V357.45z"/>
<path fill="#0074FF" d="M492.075,357.45c0,1.543-1.251,2.796-2.794,2.796h-11.634c-1.544,0-2.794-1.253-2.794-2.796v-11.635
	c0-1.543,1.25-2.795,2.794-2.795h11.634c1.543,0,2.794,1.252,2.794,2.795V357.45z"/>
<path fill="#FFFFFF" d="M458.18,350.186h5.48v-5.742h3.152v5.742h5.481v3.149h-5.481v5.483h-3.152v-5.483h-5.48V350.186z"/>
<path fill="#FFFFFF" d="M476.314,350.186h5.481v-5.742h3.152v5.742h5.479v3.149h-5.479v5.483h-3.152v-5.483h-5.481V350.186z"/>
<path fill="#FFFFFF" d="M476.314,350.186h5.481v-5.742h3.152v5.742h5.479v3.149h-5.479v5.483h-3.152v-5.483h-5.481V350.186z"/>
<path fill="#F792A6" d="M259.884,52.038c0,3.6-2.917,6.518-6.519,6.518h-27.149c-3.601,0-6.52-2.917-6.52-6.518v-27.15
	c0-3.601,2.917-6.519,6.52-6.519h27.149c3.601,0,6.519,2.917,6.519,6.519V52.038z"/>
<rect x="223.317" y="34.783" fill="#FFFFFF" width="32.947" height="7.354"/>
<path fill="#8BD0EC" d="M435.363,564.554c0,3.037-2.463,5.498-5.499,5.498h-22.897c-3.039,0-5.5-2.461-5.5-5.498v-22.9
	c0-3.037,2.461-5.497,5.5-5.497h22.897c3.036,0,5.499,2.46,5.499,5.497V564.554z"/>
<path fill="#FFFFFF" d="M404.342,550.256h10.789v-11.3h6.203v11.3h10.789v6.205h-10.789v10.791h-6.203v-10.791h-10.789V550.256z"/>
<g>
	<path opacity="0.67" fill="#FF0642" enable-background="new    " d="M204.986,79.778c-6.157-1.1-12.496-1.675-18.97-1.675
		c-50.642,0-93.069,35.157-104.213,82.395l104.213,24.682L204.986,79.778z"/>
	<path opacity="0.79" fill="#FF0642" enable-background="new    " d="M292.049,200.137c0.682-4.888,1.044-9.881,1.044-14.957
		c0-52.664-38.018-96.446-88.107-105.401l-18.97,105.4L292.049,200.137z"/>
	<path opacity="0.38" fill="#FF0642" enable-background="new    " d="M81.804,160.498c-1.871,7.925-2.865,16.187-2.865,24.682
		c0,19.716,5.333,38.184,14.629,54.049l92.448-54.049L81.804,160.498z"/>
	<path fill="#FF0642" d="M186.017,185.18l-92.448,54.049c18.586,31.723,53.026,53.028,92.448,53.028
		c54.06,0,98.756-40.064,106.033-92.121L186.017,185.18z"/>
</g>
<circle fill="none" stroke="#FF0642" stroke-width="1.1897" stroke-miterlimit="10" cx="186.017" cy="185.18" r="107.077"/>
<g>
	<path fill="#0074FF" d="M540.733,400.885c-12.738-24.11-38.056-40.551-67.223-40.551c-41.965,0-75.986,34.023-75.986,75.991h75.992
		L540.733,400.885z"/>
	<path opacity="0.41" fill="#0074FF" enable-background="new    " d="M397.524,436.327c0,30.101,17.501,56.108,42.88,68.414
		l33.112-68.414H397.524z"/>
	<path opacity="0.84" fill="#0074FF" enable-background="new    " d="M549.503,436.327c0-12.803-3.179-24.858-8.77-35.438
		l-67.217,35.438l34.789,67.549C532.767,491.253,549.503,465.751,549.503,436.327z"/>
	<path opacity="0.26" fill="#0074FF" enable-background="new    " d="M440.404,504.741c10.008,4.852,21.24,7.575,33.106,7.575
		c12.544,0,24.364-3.058,34.795-8.441l-34.789-67.55L440.404,504.741z"/>
</g>
<circle fill="none" stroke="#0074FF" stroke-width="4.759" stroke-miterlimit="10" cx="473.517" cy="436.326" r="75.992"/>
<text transform="matrix(1 0 0 1 460.8672 53.9014)" font-family="'Univers-CondensedBold'" font-size="26.0276">#praticg12</text>
<text transform="matrix(1 0 0 1 589.6543 53.9014)" font-family="'Univers-CondensedBold'" font-size="26.0276">#conf1</text>
<g>
	<g enable-background="new    ">
		<path fill="#FF0642" d="M281.967,108.34h-1.17v-0.942h1.284l0.271-2.198h-1.241v-0.942h1.37l0.357-2.897h0.941l-0.356,2.897h1.513
			l0.357-2.897h0.942l-0.357,2.897h1.113v0.942h-1.242l-0.271,2.198h1.185v0.942h-1.299l-0.371,2.926h-0.942l0.371-2.926h-1.513
			l-0.371,2.926h-0.942L281.967,108.34z M283.022,107.398h1.513l0.271-2.198h-1.513L283.022,107.398z"/>
		<path fill="#FF0642" d="M291.388,105.856c0-0.97-0.257-1.499-1.127-1.499c-0.385,0-1.241,0.1-1.241,1.17
			c0,0.899,0.941,1.07,1.884,1.385c0.927,0.313,1.87,0.642,1.87,2.155c0,1.612-1.042,2.397-2.469,2.397
			c-2.597,0-2.626-1.926-2.626-2.712h1.199c0,0.928,0.256,1.77,1.427,1.77c0.385,0,1.271-0.186,1.271-1.271
			c0-1.027-0.942-1.241-1.87-1.555c-0.928-0.314-1.884-0.585-1.884-2.169c0-1.427,1.113-2.112,2.44-2.112
			c2.227,0,2.312,1.542,2.326,2.44H291.388z"/>
		<path fill="#FF0642" d="M298.955,111.266h-1.142v-0.899h-0.028c-0.314,0.699-1.113,1.099-1.855,1.099
			c-2.012,0-2.012-1.527-2.012-2.426v-5.424h1.199v5.281c0,0.585,0.043,1.542,1.127,1.542c0.643,0,1.513-0.428,1.513-1.542v-5.281
			h1.199V111.266z"/>
		<path fill="#FF0642" d="M301.797,112.008c0,1.256-0.529,1.884-1.827,1.884c-0.186,0-0.371-0.029-0.557-0.043v-1.027
			c0.143,0.014,0.3,0.043,0.442,0.043c0.742,0,0.742-0.571,0.742-1.285v-7.963h1.199V112.008z M301.797,102.446h-1.199v-1.37h1.199
			V102.446z"/>
		<path fill="#FF0642" d="M304.438,107.583c0,1.17,0,2.94,1.47,2.94c1.142,0,1.298-1.199,1.298-1.77h1.199
			c0,0.814-0.485,2.712-2.569,2.712c-1.869,0-2.654-1.299-2.654-3.924c0-1.913,0.371-4.125,2.726-4.125
			c2.34,0,2.555,2.041,2.555,3.682v0.485H304.438z M307.207,106.642v-0.414c0-0.856-0.271-1.87-1.327-1.87
			c-1.255,0-1.398,1.542-1.398,1.998v0.286H307.207z"/>
		<path fill="#FF0642" d="M310.135,101.39h1.199v2.226h1.327v0.942h-1.327v4.909c0,0.614,0.157,0.856,0.785,0.856
			c0.257,0,0.399-0.029,0.528-0.043v0.985c-0.157,0.028-0.471,0.085-0.971,0.085c-1.241,0-1.541-0.514-1.541-1.513v-5.28h-1.114
			v-0.942h1.114V101.39z"/>
		<path fill="#FF0642" d="M313.461,106.656h3.483v1.113h-3.483V106.656z"/>
	</g>
</g>
<g>
	<g enable-background="new    ">
		<path fill="#0074FF" d="M387.374,346.686h-1.17v-0.941h1.284l0.271-2.198h-1.242v-0.942h1.37l0.356-2.896h0.942l-0.356,2.896
			h1.512l0.357-2.896h0.941l-0.356,2.896h1.113v0.942h-1.242l-0.271,2.198h1.185v0.941h-1.299l-0.371,2.926h-0.942l0.371-2.926
			h-1.513l-0.371,2.926h-0.941L387.374,346.686z M388.43,345.744h1.513l0.271-2.198h-1.513L388.43,345.744z"/>
		<path fill="#0074FF" d="M396.796,344.203c0-0.971-0.257-1.499-1.127-1.499c-0.386,0-1.242,0.101-1.242,1.17
			c0,0.899,0.942,1.07,1.884,1.385c0.927,0.314,1.869,0.643,1.869,2.154c0,1.613-1.042,2.398-2.469,2.398
			c-2.597,0-2.626-1.927-2.626-2.712h1.199c0,0.928,0.257,1.77,1.427,1.77c0.386,0,1.271-0.186,1.271-1.27
			c0-1.027-0.942-1.242-1.869-1.556c-0.928-0.313-1.884-0.585-1.884-2.17c0-1.427,1.113-2.111,2.44-2.111
			c2.227,0,2.312,1.541,2.326,2.44H396.796z"/>
		<path fill="#0074FF" d="M404.361,349.611h-1.142v-0.898h-0.028c-0.313,0.698-1.113,1.099-1.855,1.099
			c-2.012,0-2.012-1.527-2.012-2.426v-5.424h1.199v5.281c0,0.584,0.043,1.541,1.128,1.541c0.643,0,1.513-0.429,1.513-1.541v-5.281
			h1.198V349.611z"/>
		<path fill="#0074FF" d="M407.204,350.354c0,1.256-0.528,1.884-1.827,1.884c-0.185,0-0.371-0.028-0.556-0.042v-1.028
			c0.142,0.015,0.3,0.043,0.442,0.043c0.742,0,0.742-0.57,0.742-1.284v-7.964h1.198V350.354z M407.204,340.792h-1.198v-1.37h1.198
			V340.792z"/>
		<path fill="#0074FF" d="M409.846,345.93c0,1.17,0,2.939,1.471,2.939c1.141,0,1.298-1.199,1.298-1.77h1.198
			c0,0.813-0.484,2.712-2.568,2.712c-1.869,0-2.654-1.299-2.654-3.925c0-1.912,0.371-4.124,2.727-4.124
			c2.34,0,2.554,2.041,2.554,3.682v0.485H409.846z M412.614,344.988v-0.414c0-0.856-0.271-1.87-1.327-1.87
			c-1.256,0-1.398,1.542-1.398,1.998v0.286H412.614z"/>
		<path fill="#0074FF" d="M415.542,339.736h1.199v2.226h1.327v0.942h-1.327v4.909c0,0.613,0.157,0.855,0.785,0.855
			c0.257,0,0.399-0.027,0.528-0.042v0.984c-0.157,0.029-0.472,0.086-0.971,0.086c-1.242,0-1.542-0.514-1.542-1.513v-5.28h-1.112
			v-0.942h1.112V339.736z"/>
		<path fill="#0074FF" d="M421.908,346.472h-3.139v-0.941h3.139v-3.14h0.942v3.14h3.14v0.941h-3.14v3.14h-0.942V346.472z"/>
	</g>
</g>
<g enable-background="new    ">
	<path fill="#8BD0EC" d="M354.604,257.145h-1.17v-0.942h1.284l0.271-2.198h-1.242v-0.941h1.37l0.357-2.897h0.941l-0.356,2.897h1.513
		l0.357-2.897h0.942l-0.357,2.897h1.113v0.941h-1.242l-0.271,2.198h1.185v0.942H358l-0.371,2.926h-0.942l0.371-2.926h-1.513
		l-0.371,2.926h-0.942L354.604,257.145z M355.659,256.203h1.513l0.271-2.198h-1.513L355.659,256.203z"/>
	<path fill="#8BD0EC" d="M364.025,254.662c0-0.97-0.257-1.499-1.127-1.499c-0.385,0-1.242,0.1-1.242,1.17
		c0,0.899,0.942,1.07,1.884,1.384c0.927,0.314,1.87,0.642,1.87,2.155c0,1.613-1.042,2.397-2.469,2.397
		c-2.597,0-2.626-1.926-2.626-2.711h1.199c0,0.927,0.256,1.77,1.427,1.77c0.385,0,1.271-0.186,1.271-1.271
		c0-1.027-0.942-1.242-1.87-1.556c-0.928-0.314-1.884-0.585-1.884-2.169c0-1.427,1.113-2.112,2.44-2.112
		c2.227,0,2.312,1.542,2.326,2.44H364.025z"/>
	<path fill="#8BD0EC" d="M371.591,260.071h-1.142v-0.899h-0.028c-0.314,0.699-1.113,1.099-1.855,1.099
		c-2.012,0-2.012-1.527-2.012-2.426v-5.423h1.199v5.281c0,0.585,0.042,1.541,1.127,1.541c0.642,0,1.513-0.428,1.513-1.541v-5.281
		h1.199V260.071z"/>
	<path fill="#8BD0EC" d="M374.433,260.813c0,1.256-0.528,1.884-1.827,1.884c-0.185,0-0.371-0.029-0.556-0.043v-1.027
		c0.143,0.014,0.3,0.042,0.442,0.042c0.742,0,0.742-0.57,0.742-1.284v-7.963h1.199V260.813z M374.433,251.251h-1.199v-1.37h1.199
		V251.251z"/>
	<path fill="#8BD0EC" d="M377.075,256.389c0,1.17,0,2.94,1.47,2.94c1.142,0,1.298-1.199,1.298-1.77h1.199
		c0,0.813-0.485,2.711-2.569,2.711c-1.87,0-2.654-1.299-2.654-3.924c0-1.912,0.371-4.125,2.726-4.125
		c2.34,0,2.554,2.041,2.554,3.682v0.486H377.075z M379.843,255.447v-0.414c0-0.856-0.271-1.87-1.327-1.87
		c-1.255,0-1.398,1.541-1.398,1.998v0.285H379.843z"/>
	<path fill="#8BD0EC" d="M382.771,250.195h1.199v2.226h1.327v0.942h-1.327v4.909c0,0.614,0.157,0.857,0.785,0.857
		c0.257,0,0.399-0.029,0.528-0.043v0.984c-0.157,0.029-0.471,0.086-0.971,0.086c-1.241,0-1.541-0.514-1.541-1.513v-5.28h-1.113
		v-0.942h1.113V250.195z"/>
	<path fill="#8BD0EC" d="M386.098,255.461h3.482v1.113h-3.482V255.461z"/>
	<path fill="#8BD0EC" d="M394.163,256.932h-3.14v-0.942h3.14v-3.14h0.942v3.14h3.14v0.942h-3.14v3.139h-0.942V256.932z"/>
</g>
<g>
	<g enable-background="new    ">
		<path fill="#FF0642" d="M67.628,275.891h-1.17v-0.942h1.284l0.271-2.198h-1.242v-0.942h1.37l0.357-2.897h0.941l-0.356,2.897h1.513
			l0.357-2.897h0.942l-0.357,2.897h1.113v0.942H71.41l-0.271,2.198h1.185v0.942h-1.299l-0.371,2.926h-0.942l0.371-2.926H68.57
			l-0.371,2.926h-0.942L67.628,275.891z M68.684,274.949h1.513l0.271-2.198h-1.512L68.684,274.949z"/>
		<path fill="#FF0642" d="M74.125,268.94h1.199v2.226h1.327v0.942h-1.327v4.909c0,0.614,0.157,0.856,0.785,0.856
			c0.257,0,0.399-0.028,0.528-0.042v0.984c-0.157,0.028-0.471,0.086-0.971,0.086c-1.242,0-1.541-0.515-1.541-1.514v-5.28h-1.114
			v-0.942h1.114V268.94z"/>
		<path fill="#FF0642" d="M78.464,275.134c0,1.17,0,2.94,1.47,2.94c1.142,0,1.298-1.199,1.298-1.77h1.199
			c0,0.813-0.485,2.711-2.569,2.711c-1.87,0-2.654-1.299-2.654-3.924c0-1.912,0.371-4.125,2.726-4.125
			c2.34,0,2.554,2.041,2.554,3.682v0.485H78.464z M81.232,274.192v-0.414c0-0.856-0.271-1.87-1.327-1.87
			c-1.256,0-1.398,1.542-1.398,1.998v0.285H81.232z"/>
		<path fill="#FF0642" d="M83.918,271.167h1.142v0.899h0.028c0.314-0.7,1.113-1.099,1.855-1.099c0.885,0,1.413,0.343,1.656,1.213
			c0.342-0.671,1.027-1.213,1.812-1.213c2.012,0,2.012,1.527,2.012,2.426v5.423h-1.199v-5.281c0-0.585-0.043-1.542-1.027-1.542
			c-0.557,0-1.427,0.343-1.427,1.542v5.281h-1.199v-5.281c0-0.585-0.043-1.542-1.027-1.542c-0.557,0-1.427,0.343-1.427,1.542v5.281
			h-1.199V271.167z"/>
		<path fill="#FF0642" d="M94.111,271.167h1.142v0.942h0.028c0.157-0.571,0.828-1.142,1.655-1.142c1.812,0,2.498,1.613,2.498,3.882
			c0,1.741-0.514,4.167-2.498,4.167c-0.685,0-1.327-0.414-1.598-1.07H95.31v3.383h-1.199V271.167z M96.78,277.988
			c1.113,0,1.398-1.17,1.398-3.139c0-1.685-0.285-2.855-1.398-2.855c-1.327,0-1.542,1.256-1.542,2.997
			C95.239,276.476,95.496,277.988,96.78,277.988z"/>
		<path fill="#FF0642" d="M104.004,273.407c0-0.97-0.257-1.499-1.127-1.499c-0.385,0-1.241,0.1-1.241,1.17
			c0,0.899,0.941,1.07,1.884,1.384c0.927,0.314,1.87,0.642,1.87,2.155c0,1.613-1.042,2.397-2.469,2.397
			c-2.597,0-2.626-1.926-2.626-2.711h1.199c0,0.928,0.256,1.77,1.427,1.77c0.385,0,1.271-0.186,1.271-1.271
			c0-1.027-0.942-1.242-1.87-1.555c-0.928-0.314-1.884-0.585-1.884-2.169c0-1.427,1.113-2.112,2.44-2.112
			c2.227,0,2.312,1.542,2.327,2.44H104.004z"/>
		<path fill="#FF0642" d="M106.518,274.207H110v1.113h-3.483V274.207z"/>
	</g>
</g>
<g>
	<g enable-background="new    ">
		<path fill="#0074FF" d="M354.604,496.395h-1.17v-0.941h1.284l0.271-2.198h-1.242v-0.941h1.37l0.357-2.897h0.941l-0.356,2.897
			h1.513l0.357-2.897h0.942l-0.357,2.897h1.113v0.941h-1.242l-0.271,2.198h1.185v0.941H358l-0.371,2.926h-0.942l0.371-2.926h-1.513
			l-0.371,2.926h-0.942L354.604,496.395z M355.659,495.453h1.513l0.271-2.198h-1.513L355.659,495.453z"/>
		<path fill="#0074FF" d="M361.099,489.445h1.199v2.226h1.327v0.942h-1.327v4.909c0,0.613,0.157,0.856,0.785,0.856
			c0.257,0,0.399-0.028,0.528-0.043v0.984c-0.157,0.029-0.471,0.086-0.971,0.086c-1.242,0-1.542-0.514-1.542-1.513v-5.28h-1.113
			v-0.942h1.113V489.445z"/>
		<path fill="#0074FF" d="M365.439,495.639c0,1.17,0,2.94,1.47,2.94c1.142,0,1.298-1.2,1.298-1.771h1.199
			c0,0.813-0.485,2.712-2.569,2.712c-1.87,0-2.654-1.299-2.654-3.925c0-1.912,0.371-4.124,2.726-4.124
			c2.34,0,2.554,2.041,2.554,3.682v0.485H365.439z M368.208,494.697v-0.414c0-0.856-0.271-1.87-1.327-1.87
			c-1.256,0-1.398,1.542-1.398,1.998v0.286H368.208z"/>
		<path fill="#0074FF" d="M370.893,491.671h1.142v0.899h0.028c0.314-0.699,1.113-1.099,1.855-1.099c0.885,0,1.413,0.342,1.656,1.213
			c0.342-0.671,1.027-1.213,1.812-1.213c2.012,0,2.012,1.526,2.012,2.426v5.423H378.2v-5.279c0-0.586-0.043-1.542-1.027-1.542
			c-0.556,0-1.427,0.343-1.427,1.542v5.279h-1.199v-5.279c0-0.586-0.043-1.542-1.027-1.542c-0.557,0-1.427,0.343-1.427,1.542v5.279
			h-1.199V491.671z"/>
		<path fill="#0074FF" d="M381.086,491.671h1.142v0.942h0.028c0.157-0.57,0.828-1.142,1.655-1.142c1.812,0,2.498,1.612,2.498,3.882
			c0,1.741-0.514,4.167-2.498,4.167c-0.685,0-1.327-0.413-1.598-1.071h-0.029v3.384h-1.199V491.671z M383.755,498.493
			c1.113,0,1.398-1.171,1.398-3.14c0-1.685-0.286-2.854-1.398-2.854c-1.327,0-1.542,1.256-1.542,2.997
			C382.214,496.98,382.471,498.493,383.755,498.493z"/>
		<path fill="#0074FF" d="M390.979,493.912c0-0.971-0.257-1.499-1.127-1.499c-0.385,0-1.241,0.101-1.241,1.171
			c0,0.898,0.941,1.069,1.884,1.384c0.927,0.314,1.87,0.643,1.87,2.154c0,1.613-1.042,2.398-2.469,2.398
			c-2.597,0-2.626-1.927-2.626-2.712h1.199c0,0.928,0.256,1.771,1.427,1.771c0.385,0,1.271-0.187,1.271-1.271
			c0-1.027-0.942-1.242-1.87-1.556c-0.928-0.313-1.884-0.585-1.884-2.169c0-1.428,1.113-2.112,2.44-2.112
			c2.227,0,2.312,1.541,2.326,2.44H390.979z"/>
		<path fill="#0074FF" d="M396.533,496.182h-3.14v-0.942h3.14v-3.14h0.942v3.14h3.139v0.942h-3.139v3.139h-0.942V496.182z"/>
	</g>
</g>
<g enable-background="new    ">
	<path fill="#8BD0EC" d="M278.418,370.354h-1.17v-0.94h1.285l0.271-2.198h-1.242v-0.942h1.37l0.356-2.897h0.942l-0.357,2.897h1.513
		l0.357-2.897h0.942l-0.356,2.897h1.113v0.942H282.2l-0.271,2.198h1.185v0.94h-1.299l-0.371,2.927h-0.941l0.371-2.927h-1.513
		l-0.371,2.927h-0.942L278.418,370.354z M279.474,369.414h1.513l0.271-2.198h-1.513L279.474,369.414z"/>
	<path fill="#8BD0EC" d="M284.914,363.405h1.2v2.226h1.327v0.942h-1.327v4.91c0,0.612,0.157,0.855,0.785,0.855
		c0.257,0,0.399-0.028,0.528-0.043v0.985c-0.157,0.028-0.471,0.085-0.971,0.085c-1.242,0-1.542-0.514-1.542-1.513v-5.28h-1.113
		v-0.942h1.113V363.405z"/>
	<path fill="#8BD0EC" d="M289.253,369.599c0,1.17,0,2.94,1.47,2.94c1.142,0,1.298-1.199,1.298-1.771h1.199
		c0,0.813-0.485,2.713-2.569,2.713c-1.87,0-2.654-1.3-2.654-3.926c0-1.912,0.371-4.124,2.726-4.124c2.34,0,2.555,2.041,2.555,3.682
		v0.485H289.253z M292.022,368.657v-0.414c0-0.856-0.271-1.87-1.327-1.87c-1.255,0-1.398,1.542-1.398,1.998v0.286H292.022z"/>
	<path fill="#8BD0EC" d="M294.708,365.631h1.142v0.899h0.028c0.314-0.699,1.113-1.099,1.855-1.099c0.885,0,1.413,0.342,1.656,1.213
		c0.342-0.671,1.028-1.213,1.812-1.213c2.012,0,2.012,1.526,2.012,2.426v5.424h-1.199v-5.28c0-0.585-0.043-1.542-1.028-1.542
		c-0.556,0-1.427,0.343-1.427,1.542v5.28h-1.199v-5.28c0-0.585-0.042-1.542-1.027-1.542c-0.556,0-1.427,0.343-1.427,1.542v5.28
		h-1.199V365.631z"/>
	<path fill="#8BD0EC" d="M304.901,365.631h1.142v0.942h0.028c0.157-0.57,0.828-1.142,1.656-1.142c1.812,0,2.498,1.612,2.498,3.882
		c0,1.741-0.514,4.168-2.498,4.168c-0.685,0-1.328-0.414-1.598-1.071H306.1v3.383h-1.199V365.631z M307.57,372.453
		c1.113,0,1.398-1.17,1.398-3.14c0-1.685-0.285-2.854-1.398-2.854c-1.327,0-1.541,1.256-1.541,2.997
		C306.029,370.94,306.286,372.453,307.57,372.453z"/>
	<path fill="#8BD0EC" d="M314.794,367.872c0-0.971-0.257-1.499-1.127-1.499c-0.386,0-1.242,0.101-1.242,1.171
		c0,0.898,0.942,1.07,1.884,1.384c0.928,0.314,1.87,0.643,1.87,2.155c0,1.612-1.042,2.398-2.469,2.398
		c-2.597,0-2.626-1.927-2.626-2.713h1.199c0,0.928,0.257,1.771,1.427,1.771c0.386,0,1.271-0.187,1.271-1.271
		c0-1.027-0.942-1.242-1.87-1.556c-0.928-0.313-1.884-0.585-1.884-2.169c0-1.428,1.113-2.112,2.44-2.112
		c2.227,0,2.312,1.541,2.326,2.44H314.794z"/>
	<path fill="#8BD0EC" d="M317.308,368.672h3.482v1.112h-3.482V368.672z"/>
	<path fill="#8BD0EC" d="M325.373,370.142h-3.14v-0.942h3.14v-3.14h0.942v3.14h3.14v0.942h-3.14v3.14h-0.942V370.142z"/>
</g>
<g>
	<g enable-background="new    ">
		<path fill="#FFFFFF" d="M130.005,129.201h-0.977v-0.786h1.071l0.226-1.833h-1.035v-0.786h1.143l0.297-2.416h0.785l-0.297,2.416
			h1.262l0.297-2.416h0.786l-0.297,2.416h0.928v0.786h-1.036l-0.226,1.833h0.988v0.786h-1.083l-0.309,2.44h-0.786l0.309-2.44h-1.261
			l-0.31,2.44h-0.785L130.005,129.201z M130.886,128.416h1.262l0.226-1.833h-1.262L130.886,128.416z"/>
		<path fill="#FFFFFF" d="M135.418,123.406h1v1.856h1.107v0.786h-1.107v4.093c0,0.512,0.131,0.714,0.655,0.714
			c0.214,0,0.333-0.024,0.44-0.036v0.821c-0.131,0.023-0.393,0.071-0.809,0.071c-1.036,0-1.285-0.428-1.285-1.261v-4.403h-0.928
			v-0.786h0.928V123.406z"/>
		<path fill="#FFFFFF" d="M139.035,128.57c0,0.976,0,2.452,1.226,2.452c0.952,0,1.083-1,1.083-1.476h1
			c0,0.679-0.404,2.261-2.142,2.261c-1.559,0-2.214-1.083-2.214-3.272c0-1.595,0.31-3.439,2.273-3.439c1.952,0,2.13,1.702,2.13,3.07
			v0.404H139.035z M141.344,127.785v-0.345c0-0.714-0.226-1.559-1.107-1.559c-1.047,0-1.166,1.286-1.166,1.667v0.238H141.344z"/>
		<path fill="#FFFFFF" d="M143.58,125.262h0.952v0.75h0.024c0.262-0.583,0.928-0.916,1.547-0.916c0.738,0,1.178,0.285,1.38,1.011
			c0.286-0.559,0.857-1.011,1.512-1.011c1.678,0,1.678,1.273,1.678,2.023v4.522h-1v-4.403c0-0.488-0.036-1.286-0.857-1.286
			c-0.464,0-1.19,0.286-1.19,1.286v4.403h-1v-4.403c0-0.488-0.036-1.286-0.857-1.286c-0.464,0-1.19,0.286-1.19,1.286v4.403h-1
			V125.262z"/>
		<path fill="#FFFFFF" d="M152.074,125.262h0.952v0.786h0.024c0.131-0.477,0.69-0.952,1.38-0.952c1.512,0,2.083,1.345,2.083,3.237
			c0,1.452-0.429,3.475-2.083,3.475c-0.571,0-1.106-0.345-1.333-0.893h-0.024v2.82h-1V125.262z M154.299,130.951
			c0.928,0,1.166-0.976,1.166-2.618c0-1.404-0.238-2.38-1.166-2.38c-1.107,0-1.286,1.048-1.286,2.499
			C153.014,129.689,153.229,130.951,154.299,130.951z"/>
		<path fill="#FFFFFF" d="M160.32,127.13c0-0.809-0.214-1.25-0.94-1.25c-0.321,0-1.036,0.083-1.036,0.976
			c0,0.75,0.786,0.893,1.571,1.154c0.774,0.262,1.559,0.536,1.559,1.797c0,1.345-0.869,2-2.059,2c-2.166,0-2.189-1.607-2.189-2.261
			h1c0,0.773,0.214,1.476,1.19,1.476c0.322,0,1.06-0.155,1.06-1.059c0-0.857-0.785-1.035-1.56-1.297
			c-0.773-0.262-1.571-0.488-1.571-1.809c0-1.19,0.929-1.761,2.035-1.761c1.857,0,1.928,1.285,1.94,2.035H160.32z"/>
		<path fill="#FFFFFF" d="M162.413,127.797h2.904v0.929h-2.904V127.797z"/>
		<path fill="#FFFFFF" d="M166.601,127.797h2.904v0.929h-2.904V127.797z"/>
	</g>
</g>
<g>
	<g enable-background="new    ">
		<path fill="#FFFFFF" d="M441.65,398.446h-0.977v-0.785h1.071l0.227-1.833h-1.035v-0.785h1.143l0.297-2.416h0.786l-0.298,2.416
			h1.262l0.297-2.416h0.786l-0.298,2.416h0.928v0.785h-1.035l-0.226,1.833h0.987v0.785h-1.082l-0.31,2.44h-0.786l0.31-2.44h-1.262
			l-0.31,2.44h-0.785L441.65,398.446z M442.531,397.661h1.262l0.226-1.833h-1.262L442.531,397.661z"/>
		<path fill="#FFFFFF" d="M447.063,392.65h1v1.856h1.107v0.786h-1.107v4.094c0,0.512,0.131,0.714,0.654,0.714
			c0.215,0,0.333-0.023,0.44-0.036v0.822c-0.131,0.023-0.394,0.07-0.809,0.07c-1.035,0-1.286-0.428-1.286-1.261v-4.403h-0.928
			v-0.786h0.928V392.65z"/>
		<path fill="#FFFFFF" d="M450.681,397.815c0,0.976,0,2.451,1.226,2.451c0.953,0,1.083-0.999,1.083-1.476h1
			c0,0.68-0.404,2.262-2.143,2.262c-1.559,0-2.213-1.083-2.213-3.273c0-1.594,0.309-3.438,2.272-3.438
			c1.952,0,2.131,1.702,2.131,3.07v0.404H450.681z M452.989,397.03v-0.346c0-0.713-0.226-1.559-1.106-1.559
			c-1.048,0-1.166,1.285-1.166,1.666v0.238H452.989z"/>
		<path fill="#FFFFFF" d="M455.225,394.507h0.953v0.751h0.023c0.262-0.584,0.928-0.917,1.547-0.917c0.738,0,1.179,0.286,1.381,1.012
			c0.285-0.56,0.856-1.012,1.511-1.012c1.679,0,1.679,1.273,1.679,2.023v4.522h-1v-4.404c0-0.487-0.035-1.285-0.857-1.285
			c-0.464,0-1.189,0.286-1.189,1.285v4.404h-1v-4.404c0-0.487-0.035-1.285-0.856-1.285c-0.465,0-1.19,0.286-1.19,1.285v4.404h-1
			V394.507z"/>
		<path fill="#FFFFFF" d="M463.72,394.507h0.952v0.786h0.024c0.131-0.477,0.69-0.952,1.38-0.952c1.512,0,2.082,1.345,2.082,3.236
			c0,1.452-0.428,3.476-2.082,3.476c-0.571,0-1.106-0.345-1.333-0.892h-0.023v2.82h-1V394.507z M465.945,400.195
			c0.928,0,1.167-0.975,1.167-2.618c0-1.403-0.239-2.38-1.167-2.38c-1.107,0-1.285,1.048-1.285,2.5
			C464.66,398.935,464.874,400.195,465.945,400.195z"/>
		<path fill="#FFFFFF" d="M471.965,396.376c0-0.809-0.214-1.25-0.94-1.25c-0.321,0-1.035,0.084-1.035,0.976
			c0,0.75,0.785,0.893,1.571,1.155c0.773,0.262,1.559,0.535,1.559,1.797c0,1.345-0.868,1.999-2.059,1.999
			c-2.166,0-2.19-1.606-2.19-2.262h1.001c0,0.774,0.213,1.476,1.189,1.476c0.321,0,1.059-0.154,1.059-1.059
			c0-0.856-0.785-1.035-1.558-1.297c-0.774-0.262-1.571-0.488-1.571-1.81c0-1.189,0.928-1.761,2.034-1.761
			c1.856,0,1.929,1.285,1.94,2.035H471.965z"/>
		<path fill="#FFFFFF" d="M476.594,398.268h-2.619v-0.785h2.619v-2.618h0.785v2.618h2.618v0.785h-2.618v2.619h-0.785V398.268z"/>
		<path fill="#FFFFFF" d="M483.732,398.268h-2.618v-0.785h2.618v-2.618h0.785v2.618h2.618v0.785h-2.618v2.619h-0.785V398.268z"/>
	</g>
</g>
<g>
	<g enable-background="new    ">
		<path fill="#FF0642" d="M124.498,335.381h-1.17v-0.941h1.285l0.271-2.198h-1.242v-0.942h1.37l0.356-2.896h0.942l-0.356,2.896
			h1.512l0.357-2.896h0.942l-0.356,2.896h1.113v0.942h-1.241l-0.271,2.198h1.185v0.941h-1.299l-0.371,2.926h-0.941l0.371-2.926
			h-1.513l-0.371,2.926h-0.942L124.498,335.381z M125.554,334.439h1.513l0.271-2.198h-1.513L125.554,334.439z"/>
		<path fill="#FF0642" d="M130.751,330.657h1.142v0.898h0.028c0.314-0.698,1.113-1.098,1.855-1.098c0.885,0,1.413,0.342,1.656,1.212
			c0.342-0.67,1.028-1.212,1.812-1.212c2.012,0,2.012,1.526,2.012,2.425v5.424h-1.199v-5.28c0-0.585-0.042-1.542-1.027-1.542
			c-0.556,0-1.427,0.343-1.427,1.542v5.28h-1.199v-5.28c0-0.585-0.043-1.542-1.027-1.542c-0.556,0-1.427,0.343-1.427,1.542v5.28
			h-1.199V330.657z"/>
		<path fill="#FF0642" d="M141.943,334.624c0,1.171,0,2.94,1.47,2.94c1.142,0,1.298-1.199,1.298-1.77h1.199
			c0,0.812-0.485,2.712-2.569,2.712c-1.869,0-2.654-1.3-2.654-3.925c0-1.912,0.371-4.124,2.726-4.124c2.34,0,2.555,2.04,2.555,3.681
			v0.485H141.943z M144.712,333.683v-0.413c0-0.857-0.271-1.87-1.327-1.87c-1.255,0-1.398,1.541-1.398,1.998v0.285H144.712z"/>
		<path fill="#FF0642" d="M152.321,338.307h-1.142v-0.942h-0.028c-0.157,0.57-0.828,1.143-1.655,1.143
			c-1.813,0-2.498-1.613-2.498-4.025c0-1.599,0.257-4.023,2.412-4.023c0.685,0,1.413,0.413,1.684,1.07h0.029v-3.411h1.199V338.307z
			 M149.652,337.479c1.327,0,1.542-1.256,1.542-2.997c0-1.483-0.257-2.997-1.542-2.997c-1.113,0-1.398,1.171-1.398,2.997
			C148.254,336.309,148.54,337.479,149.652,337.479z"/>
		<path fill="#FF0642" d="M153.965,328.117h1.199v1.369h-1.199V328.117z M153.965,330.657h1.199v7.649h-1.199V330.657z"/>
		<path fill="#FF0642" d="M156.621,332.969c0-1.741,0.742-2.511,2.569-2.511c2.326,0,2.326,1.398,2.326,2.197v4.268
			c0,0.313,0,0.612,0.371,0.612c0.157,0,0.228-0.027,0.285-0.07v0.856c-0.085,0.014-0.4,0.071-0.699,0.071
			c-0.457,0-1.028,0-1.084-0.985h-0.029c-0.385,0.686-1.127,1.1-1.841,1.1c-1.427,0-2.084-0.856-2.084-2.228
			c0-1.07,0.457-1.812,1.441-2.111l1.613-0.485c0.871-0.271,0.871-0.514,0.871-1.155c0-0.715-0.428-1.128-1.228-1.128
			c-1.312,0-1.312,1.227-1.312,1.498v0.071H156.621z M160.317,334.139c-0.443,0.472-1.499,0.571-2.041,0.899
			c-0.385,0.242-0.585,0.543-0.585,1.214c0,0.77,0.271,1.312,1.084,1.312c0.785,0,1.542-0.671,1.542-1.456V334.139z"/>
		<path fill="#FF0642" d="M163.131,333.697h3.482v1.112h-3.482V333.697z"/>
	</g>
</g>
<g>
	<g enable-background="new    ">
		<path fill="#0074FF" d="M462.037,295.8h-1.17v-0.94h1.285l0.27-2.198h-1.241v-0.941h1.37l0.356-2.897h0.942l-0.357,2.897h1.514
			l0.356-2.897h0.942l-0.357,2.897h1.113v0.941h-1.242l-0.27,2.198h1.184v0.94h-1.299l-0.37,2.927h-0.942l0.37-2.927h-1.512
			l-0.371,2.927h-0.942L462.037,295.8z M463.093,294.859h1.514l0.271-2.198h-1.514L463.093,294.859z"/>
		<path fill="#0074FF" d="M468.291,291.076h1.141v0.899h0.029c0.313-0.7,1.113-1.099,1.855-1.099c0.885,0,1.413,0.343,1.655,1.213
			c0.343-0.671,1.027-1.213,1.812-1.213c2.013,0,2.013,1.526,2.013,2.426v5.424h-1.199v-5.281c0-0.584-0.043-1.541-1.027-1.541
			c-0.557,0-1.427,0.343-1.427,1.541v5.281h-1.199v-5.281c0-0.584-0.043-1.541-1.027-1.541c-0.558,0-1.427,0.343-1.427,1.541v5.281
			h-1.199V291.076z"/>
		<path fill="#0074FF" d="M479.484,295.045c0,1.169,0,2.939,1.47,2.939c1.142,0,1.298-1.199,1.298-1.771h1.199
			c0,0.814-0.484,2.712-2.568,2.712c-1.87,0-2.654-1.299-2.654-3.925c0-1.912,0.37-4.124,2.726-4.124
			c2.341,0,2.554,2.041,2.554,3.682v0.486H479.484z M482.252,294.102v-0.413c0-0.856-0.271-1.87-1.327-1.87
			c-1.256,0-1.398,1.542-1.398,1.998v0.285H482.252z"/>
		<path fill="#0074FF" d="M489.861,298.727h-1.142v-0.942h-0.028c-0.157,0.571-0.828,1.142-1.655,1.142
			c-1.812,0-2.498-1.612-2.498-4.024c0-1.599,0.257-4.024,2.412-4.024c0.686,0,1.413,0.413,1.685,1.069h0.027v-3.41h1.199V298.727z
			 M487.192,297.898c1.327,0,1.541-1.256,1.541-2.997c0-1.484-0.256-2.997-1.541-2.997c-1.113,0-1.398,1.17-1.398,2.997
			S486.079,297.898,487.192,297.898z"/>
		<path fill="#0074FF" d="M491.506,288.536h1.198v1.37h-1.198V288.536z M491.506,291.076h1.198v7.65h-1.198V291.076z"/>
		<path fill="#0074FF" d="M494.161,293.39c0-1.742,0.742-2.513,2.568-2.513c2.326,0,2.326,1.397,2.326,2.197v4.268
			c0,0.314,0,0.613,0.371,0.613c0.157,0,0.229-0.029,0.286-0.071v0.856c-0.086,0.014-0.399,0.071-0.7,0.071
			c-0.456,0-1.026,0-1.085-0.984H497.9c-0.386,0.686-1.128,1.099-1.842,1.099c-1.427,0-2.083-0.856-2.083-2.226
			c0-1.071,0.457-1.813,1.441-2.112l1.612-0.486c0.871-0.271,0.871-0.513,0.871-1.156c0-0.713-0.429-1.127-1.228-1.127
			c-1.313,0-1.313,1.229-1.313,1.499v0.072H494.161z M497.856,294.559c-0.441,0.472-1.498,0.571-2.04,0.899
			c-0.386,0.243-0.585,0.542-0.585,1.213c0,0.771,0.271,1.313,1.085,1.313c0.784,0,1.54-0.671,1.54-1.455V294.559z"/>
		<path fill="#0074FF" d="M503.711,295.587h-3.14v-0.942h3.14v-3.14h0.942v3.14h3.14v0.942h-3.14v3.14h-0.942V295.587z"/>
	</g>
</g>
<g enable-background="new    ">
	<path fill="#8BD0EC" d="M328.973,279.263h-1.17v-0.941h1.285l0.271-2.198h-1.242v-0.942h1.37l0.356-2.897h0.942l-0.356,2.897h1.512
		l0.357-2.897h0.942l-0.356,2.897h1.113v0.942h-1.241l-0.271,2.198h1.185v0.941h-1.299l-0.371,2.926h-0.941l0.371-2.926h-1.513
		l-0.371,2.926h-0.942L328.973,279.263z M330.028,278.321h1.513l0.271-2.198H330.3L330.028,278.321z"/>
	<path fill="#8BD0EC" d="M335.226,274.539h1.142v0.899h0.028c0.314-0.7,1.113-1.099,1.855-1.099c0.885,0,1.413,0.342,1.656,1.213
		c0.342-0.671,1.027-1.213,1.812-1.213c2.012,0,2.012,1.527,2.012,2.426v5.423h-1.198v-5.28c0-0.585-0.043-1.542-1.028-1.542
		c-0.556,0-1.427,0.342-1.427,1.542v5.28h-1.199v-5.28c0-0.585-0.043-1.542-1.027-1.542c-0.556,0-1.427,0.342-1.427,1.542v5.28
		h-1.199V274.539z"/>
	<path fill="#8BD0EC" d="M346.418,278.507c0,1.17,0,2.939,1.47,2.939c1.142,0,1.298-1.198,1.298-1.77h1.199
		c0,0.813-0.485,2.711-2.569,2.711c-1.87,0-2.654-1.299-2.654-3.924c0-1.912,0.371-4.125,2.726-4.125
		c2.34,0,2.555,2.041,2.555,3.682v0.485H346.418z M349.187,277.564v-0.414c0-0.856-0.271-1.87-1.327-1.87
		c-1.255,0-1.398,1.542-1.398,1.999v0.285H349.187z"/>
	<path fill="#8BD0EC" d="M356.796,282.188h-1.142v-0.941h-0.028c-0.157,0.57-0.828,1.141-1.655,1.141
		c-1.813,0-2.498-1.612-2.498-4.024c0-1.598,0.257-4.024,2.412-4.024c0.685,0,1.413,0.414,1.684,1.07h0.029v-3.411h1.199V282.188z
		 M354.127,281.36c1.327,0,1.542-1.256,1.542-2.997c0-1.483-0.257-2.997-1.542-2.997c-1.113,0-1.398,1.17-1.398,2.997
		C352.729,280.19,353.015,281.36,354.127,281.36z"/>
	<path fill="#8BD0EC" d="M358.44,271.999h1.199v1.37h-1.199V271.999z M358.44,274.539h1.199v7.649h-1.199V274.539z"/>
	<path fill="#8BD0EC" d="M361.096,276.852c0-1.742,0.742-2.512,2.569-2.512c2.326,0,2.326,1.398,2.326,2.198v4.267
		c0,0.314,0,0.614,0.371,0.614c0.157,0,0.228-0.029,0.285-0.071v0.856c-0.085,0.014-0.4,0.071-0.699,0.071
		c-0.457,0-1.028,0-1.084-0.985h-0.029c-0.385,0.686-1.127,1.099-1.841,1.099c-1.428,0-2.084-0.855-2.084-2.226
		c0-1.07,0.457-1.812,1.441-2.112l1.612-0.485c0.871-0.271,0.871-0.514,0.871-1.156c0-0.714-0.428-1.127-1.228-1.127
		c-1.312,0-1.312,1.228-1.312,1.499v0.072H361.096z M364.792,278.021c-0.443,0.471-1.499,0.57-2.041,0.899
		c-0.385,0.242-0.585,0.542-0.585,1.213c0,0.771,0.271,1.312,1.085,1.312c0.785,0,1.542-0.671,1.542-1.456V278.021z"/>
	<path fill="#8BD0EC" d="M367.605,277.579h3.483v1.112h-3.483V277.579z"/>
	<path fill="#8BD0EC" d="M375.671,279.049h-3.14v-0.942h3.14v-3.139h0.942v3.139h3.14v0.942h-3.14v3.14h-0.942V279.049z"/>
</g>
<g>
	<g enable-background="new    ">
		<path fill="#FFFFFF" d="M212.644,154.389h-0.977v-0.786h1.071l0.226-1.833h-1.035v-0.785h1.143l0.297-2.416h0.786l-0.297,2.416
			h1.262l0.297-2.416h0.786l-0.297,2.416h0.928v0.785h-1.036l-0.226,1.833h0.988v0.786h-1.083l-0.309,2.439h-0.786l0.309-2.439
			h-1.261l-0.31,2.439h-0.785L212.644,154.389z M213.524,153.604h1.262l0.226-1.833h-1.262L213.524,153.604z"/>
		<path fill="#FFFFFF" d="M217.854,150.45h0.952v0.75h0.023c0.262-0.583,0.928-0.916,1.547-0.916c0.738,0,1.178,0.286,1.38,1.012
			c0.286-0.56,0.857-1.012,1.511-1.012c1.678,0,1.678,1.273,1.678,2.023v4.522h-1v-4.403c0-0.488-0.036-1.285-0.857-1.285
			c-0.464,0-1.19,0.286-1.19,1.285v4.403h-1v-4.403c0-0.488-0.036-1.285-0.857-1.285c-0.464,0-1.19,0.286-1.19,1.285v4.403h-1
			V150.45z"/>
		<path fill="#FFFFFF" d="M227.182,153.758c0,0.976,0,2.452,1.226,2.452c0.952,0,1.083-1,1.083-1.476h1
			c0,0.678-0.404,2.261-2.142,2.261c-1.559,0-2.213-1.083-2.213-3.273c0-1.595,0.31-3.439,2.273-3.439
			c1.952,0,2.13,1.702,2.13,3.071v0.404H227.182z M229.491,152.973v-0.345c0-0.714-0.226-1.559-1.107-1.559
			c-1.047,0-1.166,1.285-1.166,1.666v0.239H229.491z"/>
		<path fill="#FFFFFF" d="M235.832,156.829h-0.952v-0.785h-0.024c-0.13,0.476-0.69,0.952-1.38,0.952
			c-1.511,0-2.083-1.345-2.083-3.356c0-1.333,0.214-3.356,2.011-3.356c0.571,0,1.178,0.345,1.404,0.893h0.023v-2.844h1V156.829z
			 M233.606,156.138c1.107,0,1.286-1.047,1.286-2.499c0-1.237-0.215-2.499-1.286-2.499c-0.928,0-1.166,0.976-1.166,2.499
			S232.678,156.138,233.606,156.138z"/>
		<path fill="#FFFFFF" d="M237.199,148.332h1v1.142h-1V148.332z M237.199,150.45h1v6.379h-1V150.45z"/>
		<path fill="#FFFFFF" d="M239.412,152.378c0-1.452,0.619-2.095,2.142-2.095c1.939,0,1.939,1.167,1.939,1.833v3.559
			c0,0.262,0,0.512,0.31,0.512c0.131,0,0.19-0.024,0.238-0.06v0.714c-0.071,0.012-0.333,0.059-0.583,0.059
			c-0.381,0-0.857,0-0.904-0.821h-0.024c-0.321,0.571-0.94,0.917-1.535,0.917c-1.19,0-1.737-0.714-1.737-1.857
			c0-0.893,0.381-1.511,1.202-1.761l1.345-0.404c0.726-0.226,0.726-0.428,0.726-0.964c0-0.595-0.357-0.94-1.023-0.94
			c-1.095,0-1.095,1.023-1.095,1.25v0.06H239.412z M242.494,153.354c-0.369,0.393-1.25,0.476-1.702,0.75
			c-0.322,0.202-0.488,0.452-0.488,1.012c0,0.642,0.226,1.095,0.905,1.095c0.655,0,1.285-0.559,1.285-1.214V153.354z"/>
		<path fill="#FFFFFF" d="M244.836,152.985h2.904v0.928h-2.904V152.985z"/>
		<path fill="#FFFFFF" d="M249.024,152.985h2.904v0.928h-2.904V152.985z"/>
	</g>
</g>
<g>
	<g enable-background="new    ">
		<path fill="#FFFFFF" d="M406.835,453.029h-0.976v-0.786h1.07l0.227-1.833h-1.035v-0.785h1.143l0.297-2.416h0.786l-0.298,2.416
			h1.262l0.297-2.416h0.785l-0.297,2.416h0.929v0.785h-1.036l-0.226,1.833h0.987v0.786h-1.083l-0.31,2.439h-0.785l0.31-2.439h-1.261
			l-0.311,2.439h-0.785L406.835,453.029z M407.715,452.243h1.262l0.227-1.833h-1.262L407.715,452.243z"/>
		<path fill="#FFFFFF" d="M412.046,449.09h0.952v0.75h0.023c0.262-0.583,0.929-0.917,1.547-0.917c0.738,0,1.179,0.286,1.381,1.012
			c0.286-0.56,0.857-1.012,1.512-1.012c1.678,0,1.678,1.274,1.678,2.023v4.522h-1v-4.404c0-0.486-0.035-1.284-0.856-1.284
			c-0.464,0-1.19,0.285-1.19,1.284v4.404h-0.999v-4.404c0-0.486-0.036-1.284-0.857-1.284c-0.464,0-1.19,0.285-1.19,1.284v4.404
			h-0.999V449.09z"/>
		<path fill="#FFFFFF" d="M421.374,452.398c0,0.977,0,2.451,1.226,2.451c0.952,0,1.083-0.999,1.083-1.475h0.999
			c0,0.678-0.404,2.26-2.142,2.26c-1.56,0-2.214-1.083-2.214-3.272c0-1.595,0.31-3.439,2.273-3.439c1.951,0,2.13,1.702,2.13,3.071
			v0.404H421.374z M423.683,451.613v-0.346c0-0.714-0.227-1.559-1.106-1.559c-1.047,0-1.167,1.284-1.167,1.665v0.239H423.683z"/>
		<path fill="#FFFFFF" d="M430.024,455.469h-0.953v-0.785h-0.023c-0.131,0.476-0.69,0.951-1.381,0.951
			c-1.511,0-2.082-1.345-2.082-3.355c0-1.333,0.214-3.356,2.011-3.356c0.571,0,1.179,0.345,1.404,0.894h0.023v-2.845h1.001V455.469z
			 M427.798,454.778c1.107,0,1.286-1.048,1.286-2.499c0-1.238-0.215-2.499-1.286-2.499c-0.928,0-1.166,0.976-1.166,2.499
			S426.87,454.778,427.798,454.778z"/>
		<path fill="#FFFFFF" d="M431.391,446.972h1v1.143h-1V446.972z M431.391,449.09h1v6.379h-1V449.09z"/>
		<path fill="#FFFFFF" d="M433.604,451.018c0-1.451,0.619-2.095,2.143-2.095c1.939,0,1.939,1.167,1.939,1.833v3.558
			c0,0.263,0,0.512,0.31,0.512c0.131,0,0.19-0.023,0.238-0.059v0.715c-0.071,0.011-0.334,0.059-0.584,0.059
			c-0.381,0-0.856,0-0.904-0.82h-0.023c-0.321,0.57-0.94,0.915-1.535,0.915c-1.19,0-1.737-0.713-1.737-1.855
			c0-0.893,0.381-1.512,1.201-1.762l1.345-0.404c0.727-0.227,0.727-0.429,0.727-0.965c0-0.595-0.357-0.939-1.023-0.939
			c-1.095,0-1.095,1.023-1.095,1.25v0.059H433.604z M436.686,451.994c-0.368,0.392-1.249,0.476-1.701,0.749
			c-0.322,0.202-0.488,0.453-0.488,1.011c0,0.644,0.226,1.096,0.904,1.096c0.655,0,1.285-0.56,1.285-1.214V451.994z"/>
		<path fill="#FFFFFF" d="M441.563,452.851h-2.618v-0.786h2.618v-2.618h0.785v2.618h2.618v0.786h-2.618v2.618h-0.785V452.851z"/>
		<path fill="#FFFFFF" d="M448.702,452.851h-2.618v-0.786h2.618v-2.618h0.785v2.618h2.618v0.786h-2.618v2.618h-0.785V452.851z"/>
	</g>
</g>
<g>
	<g enable-background="new    ">
		<path fill="#FFFFFF" d="M98.993,197.698h-0.977v-0.786h1.071l0.226-1.833h-1.035v-0.785h1.143l0.297-2.416h0.786l-0.298,2.416
			h1.262l0.297-2.416h0.785l-0.297,2.416h0.928v0.785h-1.036l-0.226,1.833h0.988v0.786h-1.083l-0.309,2.439h-0.785l0.309-2.439
			h-1.261l-0.31,2.439h-0.786L98.993,197.698z M99.873,196.912h1.261l0.226-1.833h-1.262L99.873,196.912z"/>
		<path fill="#FFFFFF" d="M106.845,195.627c0-0.809-0.214-1.25-0.94-1.25c-0.322,0-1.036,0.083-1.036,0.976
			c0,0.75,0.786,0.893,1.571,1.154c0.773,0.262,1.559,0.536,1.559,1.797c0,1.345-0.869,2-2.059,2c-2.166,0-2.189-1.607-2.189-2.261
			h1c0,0.773,0.214,1.476,1.19,1.476c0.321,0,1.059-0.155,1.059-1.059c0-0.857-0.786-1.035-1.559-1.297
			c-0.774-0.262-1.571-0.488-1.571-1.809c0-1.19,0.928-1.761,2.035-1.761c1.856,0,1.928,1.285,1.939,2.035H106.845z"/>
		<path fill="#FFFFFF" d="M113.152,200.137h-0.953v-0.75h-0.024c-0.261,0.583-0.928,0.917-1.547,0.917
			c-1.678,0-1.678-1.273-1.678-2.023v-4.522h1v4.403c0,0.488,0.036,1.285,0.94,1.285c0.535,0,1.261-0.356,1.261-1.285v-4.403h1
			V200.137z"/>
		<path fill="#FFFFFF" d="M115.518,200.756c0,1.047-0.44,1.571-1.523,1.571c-0.155,0-0.31-0.024-0.464-0.036v-0.857
			c0.119,0.012,0.25,0.036,0.369,0.036c0.619,0,0.619-0.476,0.619-1.071v-6.64h1V200.756z M115.518,192.782h-1v-1.142h1V192.782z"/>
		<path fill="#FFFFFF" d="M117.719,197.067c0,0.976,0,2.452,1.226,2.452c0.952,0,1.083-1,1.083-1.476h1
			c0,0.679-0.404,2.261-2.142,2.261c-1.559,0-2.214-1.083-2.214-3.273c0-1.595,0.31-3.439,2.273-3.439c1.952,0,2.13,1.702,2.13,3.07
			v0.404H117.719z M120.028,196.282v-0.345c0-0.714-0.226-1.559-1.107-1.559c-1.047,0-1.166,1.286-1.166,1.667v0.238H120.028z"/>
		<path fill="#FFFFFF" d="M122.465,191.902h1v1.856h1.106v0.785h-1.106v4.094c0,0.512,0.131,0.714,0.655,0.714
			c0.214,0,0.333-0.024,0.44-0.036v0.821c-0.131,0.024-0.393,0.071-0.809,0.071c-1.036,0-1.286-0.428-1.286-1.261v-4.403h-0.928
			v-0.785h0.928V191.902z"/>
		<path fill="#FFFFFF" d="M125.237,196.293h2.904v0.928h-2.904V196.293z"/>
		<path fill="#FFFFFF" d="M129.425,196.293h2.904v0.928h-2.904V196.293z"/>
	</g>
</g>
<g>
	<g enable-background="new    ">
		<path fill="#FFFFFF" d="M450.79,497.555h-0.977v-0.785h1.071l0.227-1.833h-1.035v-0.785h1.143l0.297-2.416h0.785l-0.297,2.416
			h1.261l0.299-2.416h0.785l-0.299,2.416h0.93v0.785h-1.035l-0.228,1.833h0.988v0.785h-1.083l-0.31,2.439h-0.785l0.31-2.439h-1.262
			l-0.31,2.439h-0.785L450.79,497.555z M451.67,496.77h1.262l0.227-1.833h-1.262L451.67,496.77z"/>
		<path fill="#FFFFFF" d="M458.642,495.484c0-0.809-0.214-1.25-0.94-1.25c-0.32,0-1.035,0.084-1.035,0.976
			c0,0.75,0.786,0.893,1.571,1.155c0.774,0.262,1.56,0.535,1.56,1.797c0,1.345-0.869,1.999-2.06,1.999
			c-2.166,0-2.189-1.606-2.189-2.262h1c0,0.774,0.214,1.476,1.189,1.476c0.321,0,1.06-0.154,1.06-1.059
			c0-0.856-0.785-1.035-1.559-1.297c-0.774-0.262-1.571-0.488-1.571-1.81c0-1.189,0.929-1.761,2.034-1.761
			c1.857,0,1.929,1.285,1.94,2.035H458.642z"/>
		<path fill="#FFFFFF" d="M464.949,499.994h-0.953v-0.749h-0.023c-0.263,0.583-0.928,0.916-1.547,0.916
			c-1.679,0-1.679-1.272-1.679-2.023v-4.522h1v4.404c0,0.488,0.035,1.285,0.94,1.285c0.535,0,1.261-0.357,1.261-1.285v-4.404h1.001
			V499.994z"/>
		<path fill="#FFFFFF" d="M467.314,500.614c0,1.046-0.439,1.57-1.523,1.57c-0.154,0-0.309-0.023-0.464-0.036v-0.856
			c0.119,0.012,0.25,0.036,0.369,0.036c0.619,0,0.619-0.477,0.619-1.071v-6.642h0.999V500.614z M467.314,492.641h-0.999v-1.143
			h0.999V492.641z"/>
		<path fill="#FFFFFF" d="M469.516,496.924c0,0.976,0,2.451,1.226,2.451c0.953,0,1.083-0.999,1.083-1.476h1
			c0,0.68-0.404,2.262-2.143,2.262c-1.559,0-2.213-1.083-2.213-3.273c0-1.594,0.309-3.438,2.272-3.438
			c1.952,0,2.131,1.702,2.131,3.07v0.404H469.516z M471.824,496.139v-0.346c0-0.713-0.226-1.559-1.106-1.559
			c-1.048,0-1.166,1.285-1.166,1.666v0.238H471.824z"/>
		<path fill="#FFFFFF" d="M474.262,491.759h1v1.856h1.107v0.785h-1.107v4.095c0,0.512,0.132,0.714,0.654,0.714
			c0.215,0,0.334-0.023,0.441-0.036v0.821c-0.132,0.024-0.394,0.071-0.81,0.071c-1.035,0-1.286-0.428-1.286-1.261V494.4h-0.928
			v-0.785h0.928V491.759z"/>
		<path fill="#FFFFFF" d="M479.57,497.376h-2.619v-0.785h2.619v-2.618h0.785v2.618h2.618v0.785h-2.618v2.618h-0.785V497.376z"/>
		<path fill="#FFFFFF" d="M486.709,497.376h-2.619v-0.785h2.619v-2.618h0.785v2.618h2.618v0.785h-2.618v2.618h-0.785V497.376z"/>
	</g>
</g>
<g enable-background="new    ">
	<path fill="#FF0642" d="M306.989,197.211h-1.17v-0.941h1.284l0.271-2.198h-1.242v-0.942h1.37l0.356-2.897h0.942l-0.356,2.897h1.512
		l0.357-2.897h0.941l-0.356,2.897h1.113v0.942h-1.242l-0.271,2.198h1.185v0.941h-1.299l-0.371,2.926h-0.942l0.371-2.926h-1.513
		l-0.371,2.926h-0.941L306.989,197.211z M308.045,196.27h1.513l0.271-2.198h-1.513L308.045,196.27z"/>
	<path fill="#FF0642" d="M313.2,189.947h1.199v1.37H313.2V189.947z M313.2,192.488h1.199v7.649H313.2V192.488z"/>
	<path fill="#FF0642" d="M316.041,192.488h1.142v0.899h0.028c0.314-0.7,1.113-1.099,1.855-1.099c2.013,0,2.013,1.527,2.013,2.426
		v5.423h-1.199v-5.28c0-0.585-0.043-1.542-1.127-1.542c-0.643,0-1.513,0.428-1.513,1.542v5.28h-1.199V192.488z"/>
	<path fill="#FF0642" d="M323.008,190.262h1.199v2.226h1.328v0.942h-1.328v4.909c0,0.614,0.157,0.857,0.785,0.857
		c0.257,0,0.399-0.029,0.528-0.043v0.984c-0.157,0.029-0.471,0.086-0.971,0.086c-1.242,0-1.542-0.514-1.542-1.513v-5.28h-1.113
		v-0.942h1.113V190.262z"/>
	<path fill="#FF0642" d="M327.348,196.456c0,1.17,0,2.94,1.47,2.94c1.142,0,1.298-1.199,1.298-1.77h1.199
		c0,0.813-0.485,2.711-2.569,2.711c-1.87,0-2.654-1.299-2.654-3.924c0-1.912,0.371-4.125,2.726-4.125
		c2.34,0,2.554,2.041,2.554,3.682v0.485H327.348z M330.116,195.513V195.1c0-0.856-0.271-1.87-1.327-1.87
		c-1.255,0-1.398,1.542-1.398,1.998v0.285H330.116z"/>
	<path fill="#FF0642" d="M332.688,192.488h1.199v1.142h0.029c0.342-0.728,0.799-1.342,1.656-1.342c0.243,0,0.414,0.028,0.528,0.086
		v1.17c-0.114-0.014-0.257-0.057-0.643-0.057c-0.599,0-1.57,0.542-1.57,1.813v4.837h-1.199V192.488z"/>
	<path fill="#FF0642" d="M336.526,192.488h1.313l1.427,6.137h0.028l1.427-6.137h1.313l-2.069,7.649h-1.37L336.526,192.488z"/>
	<path fill="#FF0642" d="M343.963,196.456c0,1.17,0,2.94,1.47,2.94c1.142,0,1.298-1.199,1.298-1.77h1.199
		c0,0.813-0.485,2.711-2.569,2.711c-1.87,0-2.654-1.299-2.654-3.924c0-1.912,0.371-4.125,2.726-4.125
		c2.34,0,2.554,2.041,2.554,3.682v0.485H343.963z M346.732,195.513V195.1c0-0.856-0.271-1.87-1.327-1.87
		c-1.256,0-1.398,1.542-1.398,1.998v0.285H346.732z"/>
	<path fill="#FF0642" d="M349.303,192.488h1.142v0.899h0.028c0.313-0.7,1.113-1.099,1.855-1.099c2.013,0,2.013,1.527,2.013,2.426
		v5.423h-1.199v-5.28c0-0.585-0.043-1.542-1.127-1.542c-0.643,0-1.513,0.428-1.513,1.542v5.28h-1.199V192.488z"/>
	<path fill="#FF0642" d="M355.729,194.8c0-1.741,0.742-2.512,2.568-2.512c2.327,0,2.327,1.398,2.327,2.198v4.267
		c0,0.314,0,0.614,0.371,0.614c0.157,0,0.229-0.029,0.286-0.072v0.856c-0.086,0.014-0.4,0.071-0.699,0.071
		c-0.457,0-1.028,0-1.085-0.985h-0.028c-0.385,0.685-1.127,1.099-1.841,1.099c-1.428,0-2.084-0.856-2.084-2.226
		c0-1.07,0.457-1.812,1.441-2.112l1.612-0.486c0.871-0.271,0.871-0.513,0.871-1.156c0-0.714-0.428-1.127-1.228-1.127
		c-1.312,0-1.312,1.228-1.312,1.499v0.072H355.729z M359.425,195.97c-0.443,0.471-1.499,0.571-2.041,0.899
		c-0.386,0.242-0.585,0.542-0.585,1.212c0,0.771,0.271,1.313,1.085,1.313c0.785,0,1.542-0.671,1.542-1.456V195.97z"/>
	<path fill="#FF0642" d="M362.252,192.488h1.142v0.899h0.028c0.313-0.7,1.113-1.099,1.855-1.099c2.013,0,2.013,1.527,2.013,2.426
		v5.423h-1.199v-5.28c0-0.585-0.043-1.542-1.127-1.542c-0.643,0-1.513,0.428-1.513,1.542v5.28h-1.199V192.488z"/>
	<path fill="#FF0642" d="M369.219,190.262h1.199v2.226h1.327v0.942h-1.327v4.909c0,0.614,0.157,0.857,0.785,0.857
		c0.257,0,0.399-0.029,0.528-0.043v0.984c-0.157,0.029-0.471,0.086-0.971,0.086c-1.242,0-1.542-0.514-1.542-1.513v-5.28h-1.113
		v-0.942h1.113V190.262z"/>
	<path fill="#FF0642" d="M372.546,195.528h3.482v1.113h-3.482V195.528z"/>
</g>
<g enable-background="new    ">
	<path fill="#0074FF" d="M305.465,425.068h-1.17v-0.941h1.284l0.271-2.198h-1.242v-0.942h1.37l0.356-2.896h0.942l-0.356,2.896h1.512
		l0.357-2.896h0.941l-0.356,2.896h1.113v0.942h-1.242l-0.271,2.198h1.185v0.941h-1.299l-0.371,2.926h-0.942l0.371-2.926h-1.513
		l-0.371,2.926h-0.941L305.465,425.068z M306.521,424.127h1.513l0.271-2.198h-1.513L306.521,424.127z"/>
	<path fill="#0074FF" d="M311.675,417.805h1.199v1.369h-1.199V417.805z M311.675,420.345h1.199v7.649h-1.199V420.345z"/>
	<path fill="#0074FF" d="M314.517,420.345h1.142v0.898h0.028c0.314-0.698,1.113-1.098,1.855-1.098c2.013,0,2.013,1.526,2.013,2.425
		v5.424h-1.199v-5.28c0-0.585-0.043-1.542-1.127-1.542c-0.643,0-1.513,0.429-1.513,1.542v5.28h-1.199V420.345z"/>
	<path fill="#0074FF" d="M321.483,418.118h1.2v2.227h1.327v0.942h-1.327v4.909c0,0.613,0.157,0.855,0.785,0.855
		c0.257,0,0.399-0.027,0.528-0.042v0.984c-0.157,0.029-0.471,0.086-0.971,0.086c-1.242,0-1.542-0.514-1.542-1.513v-5.28h-1.113
		v-0.942h1.113V418.118z"/>
	<path fill="#0074FF" d="M325.823,424.312c0,1.171,0,2.94,1.47,2.94c1.142,0,1.298-1.199,1.298-1.77h1.199
		c0,0.813-0.485,2.712-2.569,2.712c-1.869,0-2.654-1.299-2.654-3.925c0-1.912,0.371-4.124,2.726-4.124
		c2.34,0,2.555,2.04,2.555,3.682v0.484H325.823z M328.592,423.371v-0.414c0-0.856-0.271-1.87-1.327-1.87
		c-1.255,0-1.398,1.542-1.398,1.998v0.286H328.592z"/>
	<path fill="#0074FF" d="M331.163,420.345h1.199v1.142h0.029c0.342-0.728,0.799-1.341,1.655-1.341c0.243,0,0.414,0.027,0.528,0.086
		v1.169c-0.114-0.014-0.257-0.057-0.643-0.057c-0.599,0-1.57,0.543-1.57,1.812v4.838h-1.199V420.345z"/>
	<path fill="#0074FF" d="M335.001,420.345h1.313l1.427,6.137h0.028l1.427-6.137h1.313l-2.069,7.649h-1.37L335.001,420.345z"/>
	<path fill="#0074FF" d="M342.439,424.312c0,1.171,0,2.94,1.47,2.94c1.142,0,1.298-1.199,1.298-1.77h1.199
		c0,0.813-0.485,2.712-2.569,2.712c-1.87,0-2.654-1.299-2.654-3.925c0-1.912,0.371-4.124,2.726-4.124c2.34,0,2.554,2.04,2.554,3.682
		v0.484H342.439z M345.208,423.371v-0.414c0-0.856-0.271-1.87-1.327-1.87c-1.255,0-1.398,1.542-1.398,1.998v0.286H345.208z"/>
	<path fill="#0074FF" d="M347.779,420.345h1.142v0.898h0.028c0.314-0.698,1.113-1.098,1.855-1.098c2.013,0,2.013,1.526,2.013,2.425
		v5.424h-1.199v-5.28c0-0.585-0.043-1.542-1.127-1.542c-0.643,0-1.513,0.429-1.513,1.542v5.28h-1.199V420.345z"/>
	<path fill="#0074FF" d="M354.204,422.656c0-1.741,0.742-2.511,2.569-2.511c2.326,0,2.326,1.398,2.326,2.197v4.268
		c0,0.313,0,0.613,0.371,0.613c0.157,0,0.228-0.028,0.285-0.071v0.856c-0.085,0.015-0.4,0.071-0.699,0.071
		c-0.457,0-1.028,0-1.084-0.984h-0.029c-0.385,0.685-1.127,1.099-1.841,1.099c-1.427,0-2.084-0.856-2.084-2.228
		c0-1.069,0.457-1.812,1.441-2.111l1.613-0.484c0.871-0.271,0.871-0.515,0.871-1.156c0-0.714-0.428-1.128-1.228-1.128
		c-1.312,0-1.312,1.227-1.312,1.498v0.071H354.204z M357.9,423.827c-0.443,0.472-1.499,0.57-2.041,0.898
		c-0.385,0.243-0.585,0.543-0.585,1.214c0,0.77,0.271,1.312,1.084,1.312c0.785,0,1.542-0.671,1.542-1.456V423.827z"/>
	<path fill="#0074FF" d="M360.728,420.345h1.142v0.898h0.028c0.314-0.698,1.113-1.098,1.855-1.098c2.013,0,2.013,1.526,2.013,2.425
		v5.424h-1.199v-5.28c0-0.585-0.043-1.542-1.127-1.542c-0.643,0-1.513,0.429-1.513,1.542v5.28h-1.199V420.345z"/>
	<path fill="#0074FF" d="M367.695,418.118h1.199v2.227h1.328v0.942h-1.328v4.909c0,0.613,0.157,0.855,0.785,0.855
		c0.257,0,0.399-0.027,0.528-0.042v0.984c-0.157,0.029-0.471,0.086-0.971,0.086c-1.242,0-1.542-0.514-1.542-1.513v-5.28h-1.113
		v-0.942h1.113V418.118z"/>
	<path fill="#0074FF" d="M374.061,424.854h-3.139v-0.942h3.139v-3.139h0.942v3.139h3.14v0.942h-3.14v3.14h-0.942V424.854z"/>
</g>
<g enable-background="new    ">
	<path fill="#8BD0EC" d="M281.967,341.519h-1.17v-0.941h1.284l0.271-2.198h-1.241v-0.942h1.37l0.357-2.897h0.941l-0.356,2.897h1.513
		l0.357-2.897h0.942l-0.357,2.897h1.113v0.942h-1.242l-0.271,2.198h1.185v0.941h-1.299l-0.371,2.926h-0.942l0.371-2.926h-1.513
		l-0.371,2.926h-0.942L281.967,341.519z M283.022,340.577h1.513l0.271-2.198h-1.513L283.022,340.577z"/>
	<path fill="#8BD0EC" d="M288.177,334.255h1.199v1.369h-1.199V334.255z M288.177,336.795h1.199v7.649h-1.199V336.795z"/>
	<path fill="#8BD0EC" d="M291.019,336.795h1.142v0.898h0.029c0.313-0.698,1.113-1.098,1.855-1.098c2.012,0,2.012,1.526,2.012,2.425
		v5.424h-1.199v-5.28c0-0.585-0.042-1.542-1.127-1.542c-0.642,0-1.513,0.429-1.513,1.542v5.28h-1.199V336.795z"/>
	<path fill="#8BD0EC" d="M297.986,334.568h1.199v2.227h1.327v0.941h-1.327v4.91c0,0.613,0.157,0.855,0.785,0.855
		c0.257,0,0.399-0.028,0.528-0.042v0.984c-0.157,0.028-0.471,0.086-0.97,0.086c-1.242,0-1.541-0.515-1.541-1.514v-5.28h-1.114
		v-0.941h1.114V334.568z"/>
	<path fill="#8BD0EC" d="M302.325,340.762c0,1.17,0,2.94,1.47,2.94c1.141,0,1.298-1.199,1.298-1.771h1.199
		c0,0.813-0.485,2.713-2.569,2.713c-1.87,0-2.655-1.3-2.655-3.925c0-1.913,0.371-4.124,2.727-4.124c2.34,0,2.554,2.04,2.554,3.681
		v0.485H302.325z M305.094,339.82v-0.414c0-0.856-0.271-1.87-1.327-1.87c-1.256,0-1.398,1.542-1.398,1.999v0.285H305.094z"/>
	<path fill="#8BD0EC" d="M307.665,336.795h1.199v1.141h0.029c0.342-0.728,0.799-1.34,1.655-1.34c0.243,0,0.414,0.027,0.528,0.084
		v1.171c-0.114-0.014-0.257-0.057-0.642-0.057c-0.599,0-1.57,0.542-1.57,1.812v4.839h-1.199V336.795z"/>
	<path fill="#8BD0EC" d="M311.503,336.795h1.313l1.427,6.137h0.028l1.428-6.137h1.312l-2.069,7.649h-1.37L311.503,336.795z"/>
	<path fill="#8BD0EC" d="M318.94,340.762c0,1.17,0,2.94,1.47,2.94c1.142,0,1.298-1.199,1.298-1.771h1.199
		c0,0.813-0.485,2.713-2.569,2.713c-1.869,0-2.654-1.3-2.654-3.925c0-1.913,0.371-4.124,2.726-4.124c2.34,0,2.555,2.04,2.555,3.681
		v0.485H318.94z M321.709,339.82v-0.414c0-0.856-0.271-1.87-1.327-1.87c-1.255,0-1.398,1.542-1.398,1.999v0.285H321.709z"/>
	<path fill="#8BD0EC" d="M324.28,336.795h1.142v0.898h0.028c0.314-0.698,1.113-1.098,1.855-1.098c2.012,0,2.012,1.526,2.012,2.425
		v5.424h-1.199v-5.28c0-0.585-0.042-1.542-1.127-1.542c-0.643,0-1.513,0.429-1.513,1.542v5.28h-1.199V336.795z"/>
	<path fill="#8BD0EC" d="M330.706,339.106c0-1.741,0.742-2.511,2.569-2.511c2.326,0,2.326,1.398,2.326,2.197v4.268
		c0,0.313,0,0.612,0.371,0.612c0.157,0,0.228-0.027,0.285-0.071v0.857c-0.085,0.014-0.4,0.071-0.699,0.071
		c-0.457,0-1.028,0-1.084-0.985h-0.029c-0.385,0.686-1.127,1.1-1.841,1.1c-1.427,0-2.083-0.856-2.083-2.228
		c0-1.07,0.457-1.812,1.441-2.111l1.613-0.485c0.871-0.271,0.871-0.514,0.871-1.155c0-0.715-0.428-1.129-1.227-1.129
		c-1.313,0-1.313,1.228-1.313,1.499v0.071H330.706z M334.402,340.276c-0.443,0.472-1.499,0.571-2.041,0.899
		c-0.385,0.242-0.585,0.543-0.585,1.214c0,0.77,0.271,1.312,1.084,1.312c0.785,0,1.542-0.671,1.542-1.456V340.276z"/>
	<path fill="#8BD0EC" d="M337.229,336.795h1.142v0.898h0.028c0.314-0.698,1.113-1.098,1.855-1.098c2.012,0,2.012,1.526,2.012,2.425
		v5.424h-1.199v-5.28c0-0.585-0.042-1.542-1.127-1.542c-0.643,0-1.513,0.429-1.513,1.542v5.28h-1.199V336.795z"/>
	<path fill="#8BD0EC" d="M344.197,334.568h1.199v2.227h1.327v0.941h-1.327v4.91c0,0.613,0.157,0.855,0.785,0.855
		c0.257,0,0.399-0.028,0.528-0.042v0.984c-0.157,0.028-0.471,0.086-0.971,0.086c-1.241,0-1.541-0.515-1.541-1.514v-5.28h-1.114
		v-0.941h1.114V334.568z"/>
	<path fill="#8BD0EC" d="M347.523,339.835h3.483v1.112h-3.483V339.835z"/>
	<path fill="#8BD0EC" d="M355.588,341.305h-3.14v-0.942h3.14v-3.14h0.942v3.14h3.14v0.942h-3.14v3.14h-0.942V341.305z"/>
</g>
<g opacity="0.76" enable-background="new    ">
	<path fill="#F792A6" d="M354.604,257.145h-1.17v-0.942h1.284l0.271-2.198h-1.242v-0.941h1.37l0.357-2.897h0.941l-0.356,2.897h1.513
		l0.357-2.897h0.942l-0.357,2.897h1.113v0.941h-1.242l-0.271,2.198h1.185v0.942H358l-0.371,2.926h-0.942l0.371-2.926h-1.513
		l-0.371,2.926h-0.942L354.604,257.145z M355.659,256.203h1.513l0.271-2.198h-1.513L355.659,256.203z"/>
	<path fill="#F792A6" d="M364.025,254.662c0-0.97-0.257-1.499-1.127-1.499c-0.385,0-1.242,0.1-1.242,1.17
		c0,0.899,0.942,1.07,1.884,1.384c0.927,0.314,1.87,0.642,1.87,2.155c0,1.613-1.042,2.397-2.469,2.397
		c-2.597,0-2.626-1.926-2.626-2.711h1.199c0,0.927,0.256,1.77,1.427,1.77c0.385,0,1.271-0.186,1.271-1.271
		c0-1.027-0.942-1.242-1.87-1.556c-0.928-0.314-1.884-0.585-1.884-2.169c0-1.427,1.113-2.112,2.44-2.112
		c2.227,0,2.312,1.542,2.326,2.44H364.025z"/>
	<path fill="#F792A6" d="M371.591,260.071h-1.142v-0.899h-0.028c-0.314,0.699-1.113,1.099-1.855,1.099
		c-2.012,0-2.012-1.527-2.012-2.426v-5.423h1.199v5.281c0,0.585,0.042,1.541,1.127,1.541c0.642,0,1.513-0.428,1.513-1.541v-5.281
		h1.199V260.071z"/>
	<path fill="#F792A6" d="M374.433,260.813c0,1.256-0.528,1.884-1.827,1.884c-0.185,0-0.371-0.029-0.556-0.043v-1.027
		c0.143,0.014,0.3,0.042,0.442,0.042c0.742,0,0.742-0.57,0.742-1.284v-7.963h1.199V260.813z M374.433,251.251h-1.199v-1.37h1.199
		V251.251z"/>
	<path fill="#F792A6" d="M377.075,256.389c0,1.17,0,2.94,1.47,2.94c1.142,0,1.298-1.199,1.298-1.77h1.199
		c0,0.813-0.485,2.711-2.569,2.711c-1.87,0-2.654-1.299-2.654-3.924c0-1.912,0.371-4.125,2.726-4.125
		c2.34,0,2.554,2.041,2.554,3.682v0.486H377.075z M379.843,255.447v-0.414c0-0.856-0.271-1.87-1.327-1.87
		c-1.255,0-1.398,1.541-1.398,1.998v0.285H379.843z"/>
	<path fill="#F792A6" d="M382.771,250.195h1.199v2.226h1.327v0.942h-1.327v4.909c0,0.614,0.157,0.857,0.785,0.857
		c0.257,0,0.399-0.029,0.528-0.043v0.984c-0.157,0.029-0.471,0.086-0.971,0.086c-1.241,0-1.541-0.514-1.541-1.513v-5.28h-1.113
		v-0.942h1.113V250.195z"/>
	<path fill="#F792A6" d="M386.098,255.461h3.482v1.113h-3.482V255.461z"/>
	<path fill="#F792A6" d="M394.163,256.932h-3.14v-0.942h3.14v-3.14h0.942v3.14h3.14v0.942h-3.14v3.139h-0.942V256.932z"/>
</g>
<g opacity="0.76" enable-background="new    ">
	<path fill="#F792A6" d="M278.418,370.354h-1.17v-0.94h1.285l0.271-2.198h-1.242v-0.942h1.37l0.356-2.897h0.942l-0.357,2.897h1.513
		l0.357-2.897h0.942l-0.356,2.897h1.113v0.942H282.2l-0.271,2.198h1.185v0.94h-1.299l-0.371,2.927h-0.941l0.371-2.927h-1.513
		l-0.371,2.927h-0.942L278.418,370.354z M279.474,369.414h1.513l0.271-2.198h-1.513L279.474,369.414z"/>
	<path fill="#F792A6" d="M284.914,363.405h1.2v2.226h1.327v0.942h-1.327v4.91c0,0.612,0.157,0.855,0.785,0.855
		c0.257,0,0.399-0.028,0.528-0.043v0.985c-0.157,0.028-0.471,0.085-0.971,0.085c-1.242,0-1.542-0.514-1.542-1.513v-5.28h-1.113
		v-0.942h1.113V363.405z"/>
	<path fill="#F792A6" d="M289.253,369.599c0,1.17,0,2.94,1.47,2.94c1.142,0,1.298-1.199,1.298-1.771h1.199
		c0,0.813-0.485,2.713-2.569,2.713c-1.87,0-2.654-1.3-2.654-3.926c0-1.912,0.371-4.124,2.726-4.124c2.34,0,2.555,2.041,2.555,3.682
		v0.485H289.253z M292.022,368.657v-0.414c0-0.856-0.271-1.87-1.327-1.87c-1.255,0-1.398,1.542-1.398,1.998v0.286H292.022z"/>
	<path fill="#F792A6" d="M294.708,365.631h1.142v0.899h0.028c0.314-0.699,1.113-1.099,1.855-1.099c0.885,0,1.413,0.342,1.656,1.213
		c0.342-0.671,1.028-1.213,1.812-1.213c2.012,0,2.012,1.526,2.012,2.426v5.424h-1.199v-5.28c0-0.585-0.043-1.542-1.028-1.542
		c-0.556,0-1.427,0.343-1.427,1.542v5.28h-1.199v-5.28c0-0.585-0.042-1.542-1.027-1.542c-0.556,0-1.427,0.343-1.427,1.542v5.28
		h-1.199V365.631z"/>
	<path fill="#F792A6" d="M304.901,365.631h1.142v0.942h0.028c0.157-0.57,0.828-1.142,1.656-1.142c1.812,0,2.498,1.612,2.498,3.882
		c0,1.741-0.514,4.168-2.498,4.168c-0.685,0-1.328-0.414-1.598-1.071H306.1v3.383h-1.199V365.631z M307.57,372.453
		c1.113,0,1.398-1.17,1.398-3.14c0-1.685-0.285-2.854-1.398-2.854c-1.327,0-1.541,1.256-1.541,2.997
		C306.029,370.94,306.286,372.453,307.57,372.453z"/>
	<path fill="#F792A6" d="M314.794,367.872c0-0.971-0.257-1.499-1.127-1.499c-0.386,0-1.242,0.101-1.242,1.171
		c0,0.898,0.942,1.07,1.884,1.384c0.928,0.314,1.87,0.643,1.87,2.155c0,1.612-1.042,2.398-2.469,2.398
		c-2.597,0-2.626-1.927-2.626-2.713h1.199c0,0.928,0.257,1.771,1.427,1.771c0.386,0,1.271-0.187,1.271-1.271
		c0-1.027-0.942-1.242-1.87-1.556c-0.928-0.313-1.884-0.585-1.884-2.169c0-1.428,1.113-2.112,2.44-2.112
		c2.227,0,2.312,1.541,2.326,2.44H314.794z"/>
	<path fill="#F792A6" d="M317.308,368.672h3.482v1.112h-3.482V368.672z"/>
	<path fill="#F792A6" d="M325.373,370.142h-3.14v-0.942h3.14v-3.14h0.942v3.14h3.14v0.942h-3.14v3.14h-0.942V370.142z"/>
</g>
<g opacity="0.76" enable-background="new    ">
	<path fill="#F792A6" d="M328.973,279.263h-1.17v-0.941h1.285l0.271-2.198h-1.242v-0.942h1.37l0.356-2.897h0.942l-0.356,2.897h1.512
		l0.357-2.897h0.942l-0.356,2.897h1.113v0.942h-1.241l-0.271,2.198h1.185v0.941h-1.299l-0.371,2.926h-0.941l0.371-2.926h-1.513
		l-0.371,2.926h-0.942L328.973,279.263z M330.028,278.321h1.513l0.271-2.198H330.3L330.028,278.321z"/>
	<path fill="#F792A6" d="M335.226,274.539h1.142v0.899h0.028c0.314-0.7,1.113-1.099,1.855-1.099c0.885,0,1.413,0.342,1.656,1.213
		c0.342-0.671,1.027-1.213,1.812-1.213c2.012,0,2.012,1.527,2.012,2.426v5.423h-1.198v-5.28c0-0.585-0.043-1.542-1.028-1.542
		c-0.556,0-1.427,0.342-1.427,1.542v5.28h-1.199v-5.28c0-0.585-0.043-1.542-1.027-1.542c-0.556,0-1.427,0.342-1.427,1.542v5.28
		h-1.199V274.539z"/>
	<path fill="#F792A6" d="M346.418,278.507c0,1.17,0,2.939,1.47,2.939c1.142,0,1.298-1.198,1.298-1.77h1.199
		c0,0.813-0.485,2.711-2.569,2.711c-1.87,0-2.654-1.299-2.654-3.924c0-1.912,0.371-4.125,2.726-4.125
		c2.34,0,2.555,2.041,2.555,3.682v0.485H346.418z M349.187,277.564v-0.414c0-0.856-0.271-1.87-1.327-1.87
		c-1.255,0-1.398,1.542-1.398,1.999v0.285H349.187z"/>
	<path fill="#F792A6" d="M356.796,282.188h-1.142v-0.941h-0.028c-0.157,0.57-0.828,1.141-1.655,1.141
		c-1.813,0-2.498-1.612-2.498-4.024c0-1.598,0.257-4.024,2.412-4.024c0.685,0,1.413,0.414,1.684,1.07h0.029v-3.411h1.199V282.188z
		 M354.127,281.36c1.327,0,1.542-1.256,1.542-2.997c0-1.483-0.257-2.997-1.542-2.997c-1.113,0-1.398,1.17-1.398,2.997
		C352.729,280.19,353.015,281.36,354.127,281.36z"/>
	<path fill="#F792A6" d="M358.44,271.999h1.199v1.37h-1.199V271.999z M358.44,274.539h1.199v7.649h-1.199V274.539z"/>
	<path fill="#F792A6" d="M361.096,276.852c0-1.742,0.742-2.512,2.569-2.512c2.326,0,2.326,1.398,2.326,2.198v4.267
		c0,0.314,0,0.614,0.371,0.614c0.157,0,0.228-0.029,0.285-0.071v0.856c-0.085,0.014-0.4,0.071-0.699,0.071
		c-0.457,0-1.028,0-1.084-0.985h-0.029c-0.385,0.686-1.127,1.099-1.841,1.099c-1.428,0-2.084-0.855-2.084-2.226
		c0-1.07,0.457-1.812,1.441-2.112l1.612-0.485c0.871-0.271,0.871-0.514,0.871-1.156c0-0.714-0.428-1.127-1.228-1.127
		c-1.312,0-1.312,1.228-1.312,1.499v0.072H361.096z M364.792,278.021c-0.443,0.471-1.499,0.57-2.041,0.899
		c-0.385,0.242-0.585,0.542-0.585,1.213c0,0.771,0.271,1.312,1.085,1.312c0.785,0,1.542-0.671,1.542-1.456V278.021z"/>
	<path fill="#F792A6" d="M367.605,277.579h3.483v1.112h-3.483V277.579z"/>
	<path fill="#F792A6" d="M375.671,279.049h-3.14v-0.942h3.14v-3.139h0.942v3.139h3.14v0.942h-3.14v3.14h-0.942V279.049z"/>
</g>
<g opacity="0.76" enable-background="new    ">
	<path fill="#F792A6" d="M281.967,341.519h-1.17v-0.941h1.284l0.271-2.198h-1.241v-0.942h1.37l0.357-2.897h0.941l-0.356,2.897h1.513
		l0.357-2.897h0.942l-0.357,2.897h1.113v0.942h-1.242l-0.271,2.198h1.185v0.941h-1.299l-0.371,2.926h-0.942l0.371-2.926h-1.513
		l-0.371,2.926h-0.942L281.967,341.519z M283.022,340.577h1.513l0.271-2.198h-1.513L283.022,340.577z"/>
	<path fill="#F792A6" d="M288.177,334.255h1.199v1.369h-1.199V334.255z M288.177,336.795h1.199v7.649h-1.199V336.795z"/>
	<path fill="#F792A6" d="M291.019,336.795h1.142v0.898h0.029c0.313-0.698,1.113-1.098,1.855-1.098c2.012,0,2.012,1.526,2.012,2.425
		v5.424h-1.199v-5.28c0-0.585-0.042-1.542-1.127-1.542c-0.642,0-1.513,0.429-1.513,1.542v5.28h-1.199V336.795z"/>
	<path fill="#F792A6" d="M297.986,334.568h1.199v2.227h1.327v0.941h-1.327v4.91c0,0.613,0.157,0.855,0.785,0.855
		c0.257,0,0.399-0.028,0.528-0.042v0.984c-0.157,0.028-0.471,0.086-0.97,0.086c-1.242,0-1.541-0.515-1.541-1.514v-5.28h-1.114
		v-0.941h1.114V334.568z"/>
	<path fill="#F792A6" d="M302.325,340.762c0,1.17,0,2.94,1.47,2.94c1.141,0,1.298-1.199,1.298-1.771h1.199
		c0,0.813-0.485,2.713-2.569,2.713c-1.87,0-2.655-1.3-2.655-3.925c0-1.913,0.371-4.124,2.727-4.124c2.34,0,2.554,2.04,2.554,3.681
		v0.485H302.325z M305.094,339.82v-0.414c0-0.856-0.271-1.87-1.327-1.87c-1.256,0-1.398,1.542-1.398,1.999v0.285H305.094z"/>
	<path fill="#F792A6" d="M307.665,336.795h1.199v1.141h0.029c0.342-0.728,0.799-1.34,1.655-1.34c0.243,0,0.414,0.027,0.528,0.084
		v1.171c-0.114-0.014-0.257-0.057-0.642-0.057c-0.599,0-1.57,0.542-1.57,1.812v4.839h-1.199V336.795z"/>
	<path fill="#F792A6" d="M311.503,336.795h1.313l1.427,6.137h0.028l1.428-6.137h1.312l-2.069,7.649h-1.37L311.503,336.795z"/>
	<path fill="#F792A6" d="M318.94,340.762c0,1.17,0,2.94,1.47,2.94c1.142,0,1.298-1.199,1.298-1.771h1.199
		c0,0.813-0.485,2.713-2.569,2.713c-1.869,0-2.654-1.3-2.654-3.925c0-1.913,0.371-4.124,2.726-4.124c2.34,0,2.555,2.04,2.555,3.681
		v0.485H318.94z M321.709,339.82v-0.414c0-0.856-0.271-1.87-1.327-1.87c-1.255,0-1.398,1.542-1.398,1.999v0.285H321.709z"/>
	<path fill="#F792A6" d="M324.28,336.795h1.142v0.898h0.028c0.314-0.698,1.113-1.098,1.855-1.098c2.012,0,2.012,1.526,2.012,2.425
		v5.424h-1.199v-5.28c0-0.585-0.042-1.542-1.127-1.542c-0.643,0-1.513,0.429-1.513,1.542v5.28h-1.199V336.795z"/>
	<path fill="#F792A6" d="M330.706,339.106c0-1.741,0.742-2.511,2.569-2.511c2.326,0,2.326,1.398,2.326,2.197v4.268
		c0,0.313,0,0.612,0.371,0.612c0.157,0,0.228-0.027,0.285-0.071v0.857c-0.085,0.014-0.4,0.071-0.699,0.071
		c-0.457,0-1.028,0-1.084-0.985h-0.029c-0.385,0.686-1.127,1.1-1.841,1.1c-1.427,0-2.083-0.856-2.083-2.228
		c0-1.07,0.457-1.812,1.441-2.111l1.613-0.485c0.871-0.271,0.871-0.514,0.871-1.155c0-0.715-0.428-1.129-1.227-1.129
		c-1.313,0-1.313,1.228-1.313,1.499v0.071H330.706z M334.402,340.276c-0.443,0.472-1.499,0.571-2.041,0.899
		c-0.385,0.242-0.585,0.543-0.585,1.214c0,0.77,0.271,1.312,1.084,1.312c0.785,0,1.542-0.671,1.542-1.456V340.276z"/>
	<path fill="#F792A6" d="M337.229,336.795h1.142v0.898h0.028c0.314-0.698,1.113-1.098,1.855-1.098c2.012,0,2.012,1.526,2.012,2.425
		v5.424h-1.199v-5.28c0-0.585-0.042-1.542-1.127-1.542c-0.643,0-1.513,0.429-1.513,1.542v5.28h-1.199V336.795z"/>
	<path fill="#F792A6" d="M344.197,334.568h1.199v2.227h1.327v0.941h-1.327v4.91c0,0.613,0.157,0.855,0.785,0.855
		c0.257,0,0.399-0.028,0.528-0.042v0.984c-0.157,0.028-0.471,0.086-0.971,0.086c-1.241,0-1.541-0.515-1.541-1.514v-5.28h-1.114
		v-0.941h1.114V334.568z"/>
	<path fill="#F792A6" d="M347.523,339.835h3.483v1.112h-3.483V339.835z"/>
	<path fill="#F792A6" d="M355.588,341.305h-3.14v-0.942h3.14v-3.14h0.942v3.14h3.14v0.942h-3.14v3.14h-0.942V341.305z"/>
</g>
<g enable-background="new    ">
	<path fill="#FFFFFF" d="M153.262,246.222h-0.977v-0.785h1.071l0.226-1.833h-1.035v-0.785h1.143l0.297-2.416h0.786l-0.298,2.416
		h1.262l0.297-2.416h0.786l-0.297,2.416h0.928v0.785h-1.036l-0.226,1.833h0.988v0.785h-1.083l-0.309,2.44H155l0.309-2.44h-1.261
		l-0.31,2.44h-0.785L153.262,246.222z M154.143,245.437h1.262l0.226-1.833h-1.262L154.143,245.437z"/>
	<path fill="#FFFFFF" d="M158.438,240.164h1v1.143h-1V240.164z M158.438,242.283h1v6.378h-1V242.283z"/>
	<path fill="#FFFFFF" d="M160.804,242.283h0.952v0.749h0.024c0.262-0.583,0.928-0.916,1.547-0.916c1.678,0,1.678,1.273,1.678,2.023
		v4.522h-1v-4.403c0-0.488-0.036-1.286-0.94-1.286c-0.535,0-1.261,0.357-1.261,1.286v4.403h-1V242.283z"/>
	<path fill="#FFFFFF" d="M166.611,240.426h1v1.857h1.107v0.785h-1.107v4.094c0,0.512,0.131,0.714,0.655,0.714
		c0.214,0,0.333-0.023,0.44-0.035v0.821c-0.131,0.024-0.393,0.071-0.809,0.071c-1.036,0-1.285-0.428-1.285-1.261v-4.403h-0.928
		v-0.785h0.928V240.426z"/>
	<path fill="#FFFFFF" d="M170.228,245.591c0,0.976,0,2.452,1.226,2.452c0.952,0,1.083-1,1.083-1.476h1
		c0,0.679-0.404,2.261-2.142,2.261c-1.559,0-2.213-1.083-2.213-3.272c0-1.595,0.31-3.439,2.273-3.439c1.952,0,2.13,1.702,2.13,3.07
		v0.405H170.228z M172.536,244.806v-0.345c0-0.714-0.226-1.559-1.107-1.559c-1.047,0-1.166,1.285-1.166,1.666v0.238H172.536z"/>
	<path fill="#FFFFFF" d="M174.676,242.283h1v0.951h0.024c0.285-0.606,0.666-1.118,1.38-1.118c0.202,0,0.345,0.024,0.44,0.071v0.976
		c-0.095-0.012-0.214-0.047-0.535-0.047c-0.5,0-1.309,0.452-1.309,1.512v4.034h-1V242.283z"/>
	<path fill="#FFFFFF" d="M177.875,242.283h1.095l1.19,5.117h0.023l1.19-5.117h1.095l-1.726,6.378H179.6L177.875,242.283z"/>
	<path fill="#FFFFFF" d="M184.073,245.591c0,0.976,0,2.452,1.226,2.452c0.952,0,1.083-1,1.083-1.476h1
		c0,0.679-0.405,2.261-2.142,2.261c-1.559,0-2.214-1.083-2.214-3.272c0-1.595,0.31-3.439,2.273-3.439c1.952,0,2.13,1.702,2.13,3.07
		v0.405H184.073z M186.382,244.806v-0.345c0-0.714-0.226-1.559-1.107-1.559c-1.047,0-1.166,1.285-1.166,1.666v0.238H186.382z"/>
	<path fill="#FFFFFF" d="M188.522,242.283h0.952v0.749h0.024c0.262-0.583,0.928-0.916,1.547-0.916c1.678,0,1.678,1.273,1.678,2.023
		v4.522h-1v-4.403c0-0.488-0.036-1.286-0.94-1.286c-0.536,0-1.261,0.357-1.261,1.286v4.403h-1V242.283z"/>
	<path fill="#FFFFFF" d="M193.876,244.211c0-1.452,0.619-2.095,2.142-2.095c1.94,0,1.94,1.167,1.94,1.833v3.559
		c0,0.262,0,0.512,0.31,0.512c0.13,0,0.19-0.023,0.238-0.06v0.714c-0.071,0.012-0.333,0.06-0.583,0.06c-0.381,0-0.857,0-0.905-0.821
		h-0.023c-0.322,0.571-0.94,0.917-1.535,0.917c-1.19,0-1.738-0.714-1.738-1.856c0-0.893,0.381-1.512,1.202-1.761l1.345-0.405
		c0.726-0.226,0.726-0.429,0.726-0.964c0-0.595-0.357-0.94-1.023-0.94c-1.095,0-1.095,1.023-1.095,1.249v0.06H193.876z
		 M196.958,245.187c-0.369,0.393-1.25,0.476-1.702,0.75c-0.321,0.202-0.488,0.452-0.488,1.011c0,0.643,0.226,1.095,0.904,1.095
		c0.654,0,1.286-0.56,1.286-1.214V245.187z"/>
	<path fill="#FFFFFF" d="M199.312,242.283h0.952v0.749h0.024c0.262-0.583,0.928-0.916,1.547-0.916c1.678,0,1.678,1.273,1.678,2.023
		v4.522h-1v-4.403c0-0.488-0.035-1.286-0.94-1.286c-0.535,0-1.261,0.357-1.261,1.286v4.403h-1V242.283z"/>
	<path fill="#FFFFFF" d="M205.119,240.426h1v1.857h1.107v0.785h-1.107v4.094c0,0.512,0.131,0.714,0.655,0.714
		c0.214,0,0.333-0.023,0.44-0.035v0.821c-0.131,0.024-0.393,0.071-0.809,0.071c-1.036,0-1.286-0.428-1.286-1.261v-4.403h-0.928
		v-0.785h0.928V240.426z"/>
	<path fill="#FFFFFF" d="M207.891,244.818h2.904v0.928h-2.904V244.818z"/>
	<path fill="#FFFFFF" d="M212.078,244.818h2.904v0.928h-2.904V244.818z"/>
</g>
<g enable-background="new    ">
	<path fill="#FFFFFF" d="M497.505,442.214h-0.977v-0.785h1.071l0.227-1.833h-1.035v-0.785h1.143l0.297-2.416h0.785l-0.297,2.416
		h1.261l0.299-2.416h0.785l-0.298,2.416h0.929v0.785h-1.035l-0.228,1.833h0.989v0.785h-1.084l-0.31,2.439h-0.785l0.31-2.439h-1.262
		l-0.31,2.439h-0.785L497.505,442.214z M498.386,441.429h1.261l0.227-1.833h-1.262L498.386,441.429z"/>
	<path fill="#FFFFFF" d="M502.68,436.157h1v1.142h-1V436.157z M502.68,438.274h1v6.379h-1V438.274z"/>
	<path fill="#FFFFFF" d="M505.047,438.274H506v0.75h0.023c0.261-0.583,0.928-0.916,1.547-0.916c1.679,0,1.679,1.273,1.679,2.022
		v4.522h-1v-4.403c0-0.487-0.035-1.285-0.94-1.285c-0.536,0-1.262,0.357-1.262,1.285v4.403h-1V438.274z"/>
	<path fill="#FFFFFF" d="M510.853,436.418h1v1.856h1.107v0.785h-1.107v4.095c0,0.512,0.131,0.714,0.654,0.714
		c0.215,0,0.333-0.023,0.44-0.036v0.821c-0.131,0.024-0.393,0.071-0.809,0.071c-1.035,0-1.286-0.428-1.286-1.261v-4.404h-0.928
		v-0.785h0.928V436.418z"/>
	<path fill="#FFFFFF" d="M514.47,441.583c0,0.976,0,2.451,1.227,2.451c0.952,0,1.082-0.999,1.082-1.476h1
		c0,0.679-0.404,2.262-2.143,2.262c-1.558,0-2.212-1.083-2.212-3.273c0-1.594,0.309-3.438,2.272-3.438c1.951,0,2.13,1.702,2.13,3.07
		v0.404H514.47z M516.778,440.798v-0.346c0-0.713-0.226-1.559-1.106-1.559c-1.047,0-1.166,1.285-1.166,1.666v0.238H516.778z"/>
	<path fill="#FFFFFF" d="M518.919,438.274h1v0.953h0.024c0.285-0.607,0.666-1.119,1.381-1.119c0.202,0,0.344,0.023,0.439,0.071
		v0.977c-0.096-0.013-0.214-0.049-0.536-0.049c-0.499,0-1.309,0.453-1.309,1.512v4.034h-1V438.274z"/>
	<path fill="#FFFFFF" d="M521.99,440.81h2.903v0.929h-2.903V440.81z"/>
</g>
<g enable-background="new    ">
	<path fill="#FFFFFF" d="M496.374,452.552h1.095l1.19,5.118h0.023l1.19-5.118h1.095l-1.726,6.38H498.1L496.374,452.552z"/>
	<path fill="#FFFFFF" d="M502.572,455.86c0,0.976,0,2.451,1.227,2.451c0.952,0,1.082-0.999,1.082-1.476h1
		c0,0.68-0.404,2.262-2.143,2.262c-1.559,0-2.213-1.083-2.213-3.273c0-1.594,0.309-3.438,2.273-3.438c1.951,0,2.13,1.702,2.13,3.07
		v0.404H502.572z M504.881,455.075v-0.346c0-0.713-0.226-1.559-1.106-1.559c-1.047,0-1.166,1.285-1.166,1.666v0.238H504.881z"/>
	<path fill="#FFFFFF" d="M507.021,452.552h0.953v0.751h0.023c0.261-0.584,0.928-0.917,1.547-0.917c1.678,0,1.678,1.273,1.678,2.022
		v4.523h-1v-4.404c0-0.487-0.035-1.285-0.939-1.285c-0.536,0-1.262,0.357-1.262,1.285v4.404h-1V452.552z"/>
	<path fill="#FFFFFF" d="M512.375,454.479c0-1.452,0.619-2.094,2.143-2.094c1.94,0,1.94,1.166,1.94,1.833v3.558
		c0,0.262,0,0.512,0.309,0.512c0.131,0,0.19-0.023,0.238-0.059v0.714c-0.071,0.012-0.334,0.059-0.583,0.059
		c-0.381,0-0.857,0-0.904-0.82h-0.025c-0.32,0.571-0.938,0.916-1.534,0.916c-1.19,0-1.738-0.714-1.738-1.856
		c0-0.893,0.381-1.512,1.202-1.762l1.346-0.404c0.725-0.226,0.725-0.428,0.725-0.964c0-0.596-0.355-0.94-1.022-0.94
		c-1.095,0-1.095,1.024-1.095,1.25v0.059H512.375z M515.458,455.456c-0.37,0.393-1.25,0.476-1.702,0.749
		c-0.321,0.203-0.488,0.453-0.488,1.013c0,0.643,0.226,1.094,0.905,1.094c0.654,0,1.285-0.559,1.285-1.213V455.456z"/>
	<path fill="#FFFFFF" d="M517.812,452.552h0.953v0.751h0.023c0.261-0.584,0.928-0.917,1.547-0.917c1.679,0,1.679,1.273,1.679,2.022
		v4.523h-1.001v-4.404c0-0.487-0.034-1.285-0.939-1.285c-0.536,0-1.262,0.357-1.262,1.285v4.404h-1V452.552z"/>
	<path fill="#FFFFFF" d="M523.617,450.695h1v1.856h1.107v0.786h-1.107v4.094c0,0.512,0.131,0.714,0.654,0.714
		c0.215,0,0.333-0.023,0.44-0.036v0.822c-0.131,0.023-0.394,0.07-0.809,0.07c-1.035,0-1.286-0.428-1.286-1.261v-4.403h-0.928v-0.786
		h0.928V450.695z"/>
	<path fill="#FFFFFF" d="M528.925,456.312h-2.618v-0.785h2.618v-2.618h0.785v2.618h2.618v0.785h-2.618v2.619h-0.785V456.312z"/>
	<path fill="#FFFFFF" d="M536.063,456.312h-2.618v-0.785h2.618v-2.618h0.785v2.618h2.618v0.785h-2.618v2.619h-0.785V456.312z"/>
</g>
<g enable-background="new    ">
	<path fill="#F792A6" d="M292.921,40.063l2.219,1.099c3.781,1.872,6.793-0.026,8.565-3.606c1.623-3.277,1.737-6.548-1.692-8.246
		c-4.688-2.322-7.29,1.789-8.588,4.411l-4.437-2.197c3.021-6.101,7.968-8.862,14.573-5.591c7.462,3.696,6.554,9.838,4.581,13.822
		c-1.772,3.58-5.161,5.857-9.341,4.917l-0.05,0.101c3.634,2.804,4.931,6.648,2.484,11.589c-3.221,6.504-8.745,9.419-15.602,6.023
		c-9.58-4.744-5.989-13.389-5.215-14.951l0.225-0.454l4.436,2.197c-1.623,3.277-1.882,7.858,2.202,9.881
		c2.623,1.298,6.346,1.51,9.342-4.54c2.073-4.185,1.354-7.805-3.083-10.002l-2.268-1.124L292.921,40.063z"/>
	<path fill="#F792A6" d="M315.663,52.708c-2.856-3.235-3.322-6.354-1.424-10.185c2.846-5.748,7.975-7.353,13.621-4.556
		c5.646,2.796,7.477,7.847,4.631,13.594c-1.898,3.832-4.659,5.353-8.963,5.042c3.586,3.535,4.129,7.508,1.757,12.298
		c-2.322,4.689-7.437,9.438-15.454,5.468c-8.016-3.97-7.338-10.917-5.016-15.606C307.188,53.973,310.678,51.997,315.663,52.708z
		 M311.48,71.042c4.134,2.048,7.371-0.304,9.443-4.489c2.073-4.185,1.982-8.185-2.152-10.233c-4.134-2.047-7.372,0.305-9.444,4.489
		C307.255,64.994,307.346,68.994,311.48,71.042z M318.627,44.821c-1.648,3.327-1.485,6.547,1.792,8.171
		c3.228,1.598,5.938-0.199,7.586-3.527c1.673-3.378,1.434-6.572-1.793-8.17C322.935,39.672,320.3,41.443,318.627,44.821z"/>
	<path fill="#F792A6" d="M364.967,56.344l3.528,1.748l-33.658,28.662l-3.53-1.749L364.967,56.344z M337.483,54.788
		c2.497-5.042,5.399-9.38,11.399-6.409c6,2.971,4.308,7.91,1.811,12.951s-5.398,9.381-11.399,6.409
		C333.294,64.768,334.986,59.83,337.483,54.788z M347.063,59.532c2.048-4.134,3.294-7.033,0.471-8.431
		c-2.824-1.398-4.373,1.35-6.42,5.484c-2.047,4.135-3.295,7.033-0.472,8.431S345.016,63.667,347.063,59.532z M349.463,81.942
		c2.497-5.042,5.398-9.38,11.399-6.409c6,2.971,4.308,7.91,1.811,12.951s-5.4,9.38-11.399,6.409
		C345.273,91.922,346.966,86.984,349.463,81.942z M359.043,86.687c2.047-4.134,3.293-7.032,0.471-8.431
		c-2.823-1.398-4.373,1.35-6.42,5.484c-2.047,4.134-3.295,7.032-0.472,8.431C355.445,93.569,356.995,90.821,359.043,86.687z"/>
</g>
<g enable-background="new    ">
	<path fill="#8BD0EC" d="M477.341,568.25l-21.429,6.101c-2.034-7.144,0.584-13.153,3.812-18.05l2.384-3.545
		c2.329-3.53,3.67-6.427,2.468-10.647c-0.939-3.301-3.417-6.457-7.53-5.287c-5.897,1.68-4.32,7.841-3.704,10.006l-4.762,1.356
		c-2.063-7.251-0.436-13.039,7.411-15.272c8.874-2.526,12.238,3.944,13.193,7.301c1.663,5.844,0.105,9.621-3.12,14.518l-4.072,6.248
		c-1.603,2.387-2.485,5.038-2.303,7.734l16.451-4.683L477.341,568.25z"/>
	<path fill="#8BD0EC" d="M484.731,557.02c0.893,3.14,3.387,5.12,6.634,4.195c6.386-1.817,4.037-11.503,3.482-13.451l-0.863-3.03
		l-0.107,0.03c-0.356,1.623-1.868,5.153-6.088,6.354c-6.655,1.896-11.413-2.074-13.462-9.271c-2.11-7.413-0.049-14.144,7.096-16.177
		c10.604-3.02,14.29,7.046,16.539,14.946c2.496,8.768,5.405,21.042-5.688,24.2c-8.929,2.542-11.797-4.655-12.304-6.441
		L484.731,557.02z M482.439,529.243c-4.763,1.355-4.69,6.54-3.535,10.6c1.156,4.058,3.501,8.598,8.587,7.149
		c5.087-1.449,4.689-6.542,3.534-10.6C489.871,532.333,487.201,527.887,482.439,529.243z"/>
	<path fill="#8BD0EC" d="M500.125,531.578c-1.541-5.41-2.309-10.575,4.132-12.408c6.438-1.833,8.506,2.961,10.047,8.372
		c1.54,5.412,2.308,10.575-4.131,12.407C503.732,541.782,501.665,536.989,500.125,531.578z M510.406,528.65
		c-1.263-4.436-2.288-7.42-5.317-6.558c-3.03,0.863-2.331,3.939-1.067,8.376c1.263,4.438,2.288,7.422,5.319,6.56
		C512.369,536.165,511.67,533.089,510.406,528.65z M521.519,514.256l3.788-1.078l-5.652,43.846l-3.788,1.078L521.519,514.256z
		 M527.248,543.629c-1.54-5.41-2.309-10.574,4.131-12.407c6.44-1.833,8.506,2.961,10.047,8.371
		c1.54,5.412,2.308,10.575-4.132,12.408S528.789,549.041,527.248,543.629z M537.529,540.702c-1.263-4.437-2.288-7.421-5.318-6.558
		c-3.03,0.862-2.33,3.939-1.067,8.376c1.264,4.437,2.288,7.422,5.318,6.559C539.493,548.217,538.792,545.139,537.529,540.702z"/>
</g>
<g enable-background="new    ">
	<path fill="#8BD0EC" d="M313.046,298.826h12.613v2.279c-1.218,1.591-2.966,4.276-4.34,7.585c-1.404,3.404-2.622,7.275-3.028,11.802
		h-3.06c0.406-3.341,1.311-6.774,2.685-10.054c1.311-3.246,3.091-6.367,5.245-9.178h-10.115V298.826z"/>
	<path fill="#8BD0EC" d="M328.281,304.383c0-3.122,0.375-5.994,4.09-5.994s4.09,2.872,4.09,5.994s-0.375,5.994-4.09,5.994
		S328.281,307.505,328.281,304.383z M334.212,304.383c0-2.56-0.093-4.308-1.842-4.308c-1.748,0-1.842,1.748-1.842,4.308
		s0.094,4.308,1.842,4.308C334.119,308.69,334.212,306.942,334.212,304.383z M342.33,298.389h2.186l-9.678,22.54h-2.186
		L342.33,298.389z M340.924,314.935c0-3.121,0.375-5.994,4.09-5.994s4.09,2.873,4.09,5.994c0,3.123-0.375,5.994-4.09,5.994
		S340.924,318.058,340.924,314.935z M346.857,314.935c0-2.56-0.094-4.308-1.842-4.308c-1.749,0-1.842,1.748-1.842,4.308
		c0,2.561,0.094,4.309,1.842,4.309C346.763,319.243,346.857,317.495,346.857,314.935z"/>
</g>
<g opacity="0.76" enable-background="new    ">
	<path fill="#F792A6" d="M313.046,298.826h12.613v2.279c-1.218,1.591-2.966,4.276-4.34,7.585c-1.404,3.404-2.622,7.275-3.028,11.802
		h-3.06c0.406-3.341,1.311-6.774,2.685-10.054c1.311-3.246,3.091-6.367,5.245-9.178h-10.115V298.826z"/>
	<path fill="#F792A6" d="M328.281,304.383c0-3.122,0.375-5.994,4.09-5.994s4.09,2.872,4.09,5.994s-0.375,5.994-4.09,5.994
		S328.281,307.505,328.281,304.383z M334.212,304.383c0-2.56-0.093-4.308-1.842-4.308c-1.748,0-1.842,1.748-1.842,4.308
		s0.094,4.308,1.842,4.308C334.119,308.69,334.212,306.942,334.212,304.383z M342.33,298.389h2.186l-9.678,22.54h-2.186
		L342.33,298.389z M340.924,314.935c0-3.121,0.375-5.994,4.09-5.994s4.09,2.873,4.09,5.994c0,3.123-0.375,5.994-4.09,5.994
		S340.924,318.058,340.924,314.935z M346.857,314.935c0-2.56-0.094-4.308-1.842-4.308c-1.749,0-1.842,1.748-1.842,4.308
		c0,2.561,0.094,4.309,1.842,4.309C346.763,319.243,346.857,317.495,346.857,314.935z"/>
</g>
<g enable-background="new    ">
	<path fill="#FF0642" d="M160.921,61.875c2.757-0.38,5.281-0.93,5.153-4.051l1.867-0.151l1.786,22.031l-2.614,0.212l-1.342-16.554
		l-4.698,0.381L160.921,61.875z"/>
	<path fill="#FF0642" d="M174.696,57.563l12.571-1.019l0.185,2.272c-1.085,1.686-2.611,4.502-3.712,7.912
		c-1.125,3.505-2.026,7.462-2.064,12.007l-3.05,0.247c0.135-3.362,0.759-6.858,1.864-10.236c1.044-3.342,2.566-6.599,4.486-9.573
		l-10.082,0.817L174.696,57.563z"/>
	<path fill="#FF0642" d="M190.329,61.872c-0.252-3.112-0.111-6.005,3.592-6.306s4.309,2.533,4.561,5.645
		c0.252,3.111,0.111,6.004-3.592,6.305S190.581,64.983,190.329,61.872z M196.241,61.393c-0.207-2.552-0.441-4.287-2.184-4.146
		c-1.743,0.142-1.695,1.891-1.488,4.444c0.207,2.552,0.442,4.288,2.185,4.146C196.496,65.695,196.448,63.945,196.241,61.393z
		 M203.848,54.762l2.178-0.177l-7.826,23.25l-2.178,0.177L203.848,54.762z M203.784,71.369c-0.252-3.112-0.111-6.005,3.592-6.305
		c3.703-0.3,4.308,2.532,4.561,5.645c0.252,3.11,0.11,6.005-3.592,6.305C204.642,77.313,204.036,74.479,203.784,71.369z
		 M209.696,70.89c-0.207-2.552-0.441-4.288-2.184-4.147c-1.743,0.141-1.695,1.892-1.488,4.444c0.207,2.551,0.441,4.286,2.184,4.145
		C209.951,75.19,209.903,73.441,209.696,70.89z"/>
</g>
<g enable-background="new    ">
	<path fill="#0074FF" d="M503.824,360.345c-0.788,1.631-0.487,3.371,1.199,4.187c3.316,1.604,5.919-3.276,6.408-4.287l0.761-1.573
		l-0.056-0.026c-0.747,0.538-2.676,1.444-4.868,0.384c-3.458-1.67-3.964-5.071-2.156-8.81c1.861-3.85,5.2-5.877,8.911-4.083
		c5.509,2.663,3.319,8.192,1.336,12.296c-2.201,4.554-5.526,10.715-11.289,7.928c-4.638-2.241-3.169-6.282-2.721-7.209
		L503.824,360.345z M513.126,347.989c-2.473-1.195-4.357,0.98-5.376,3.088c-1.02,2.107-1.724,4.854,0.919,6.133
		c2.642,1.277,4.357-0.98,5.377-3.088C515.064,352.015,515.6,349.187,513.126,347.989z"/>
	<path fill="#0074FF" d="M534.849,356.204l1.969,0.952l-18.525,16.079l-1.969-0.951L534.849,356.204z M519.592,355.486
		c1.359-2.812,2.945-5.234,6.291-3.616c3.345,1.616,2.432,4.365,1.073,7.177c-1.359,2.809-2.947,5.232-6.292,3.616
		C517.319,361.045,518.232,358.295,519.592,355.486z M524.932,358.068c1.115-2.306,1.792-3.92,0.217-4.682
		c-1.574-0.762-2.419,0.772-3.532,3.078c-1.115,2.303-1.792,3.919-0.218,4.679C522.973,361.905,523.817,360.372,524.932,358.068z
		 M526.382,370.49c1.359-2.812,2.946-5.234,6.291-3.616c3.345,1.616,2.432,4.365,1.072,7.175c-1.357,2.812-2.946,5.234-6.29,3.618
		C524.11,376.049,525.022,373.3,526.382,370.49z M531.722,373.07c1.114-2.304,1.792-3.918,0.218-4.68s-2.419,0.772-3.534,3.078
		c-1.114,2.304-1.79,3.92-0.216,4.679C529.763,376.909,530.608,375.376,531.722,373.07z"/>
</g>
<text transform="matrix(1 0 0 1 463.1006 116.6602)" fill="#58595B" font-family="'Univers-CondensedLight'" font-size="10.225">#sujet </text>
<text transform="matrix(1 0 0 1 488.0801 116.6602)" fill="#BBBDBF" font-family="'Univers-CondensedLight'" font-size="10.225">(sujet global de la confrence)</text>
<text transform="matrix(1 0 0 1 463.1006 131.1465)" fill="#58595B" font-family="'Univers-CondensedLight'" font-size="10.225">#intervenant1 </text>
<text transform="matrix(1 0 0 1 516.4629 131.1465)" fill="#BBBDBF" font-family="'Univers-CondensedLight'" font-size="10.225">(propos de lintervenant)</text>
<text transform="matrix(1 0 0 1 463.1006 145.6309)" fill="#58595B" font-family="'Univers-CondensedLight'" font-size="10.225">#media</text>
<text transform="matrix(1 0 0 1 490.3496 145.6309)" fill="#BBBDBF" font-family="'Univers-CondensedLight'" font-size="10.225"> (technologies prsentes/utilises)</text>
<text transform="matrix(1 0 0 1 463.1006 160.1172)" fill="#58595B" font-family="'Univers-CondensedLight'" font-size="10.225">#temps </text>
<text transform="matrix(1 0 0 1 492.6299 160.1172)" fill="#BBBDBF" font-family="'Univers-CondensedLight'" font-size="10.225">(dure de la confrence)</text>
<text transform="matrix(1 0 0 1 464.3281 91.3828)" fill="#58595B" font-family="'Univers-CondensedBold'" font-size="10.225">systme dvaluation :</text>
<path fill="#BBBDBF" d="M644.922,135.462h7.133v-7.471h4.103v7.471h7.133v4.101h-7.133v7.134h-4.103v-7.134h-7.133V135.462z"/>
<path fill="#8AD0EB" d="M695.578,108.071c0,1.104-0.896,2-1.999,2h-8.335c-1.104,0-2-0.896-2-2v-8.333c0-1.104,0.896-2.001,2-2.001
	h8.335c1.104,0,1.999,0.896,1.999,2.001V108.071z"/>
<path fill="#8AD0EB" d="M708.632,108.071c0,1.104-0.896,2-2,2h-8.333c-1.104,0-2-0.896-2-2v-8.333c0-1.104,0.896-2.001,2-2.001
	h8.333c1.104,0,2,0.896,2,2.001V108.071z"/>
<path fill="#0074FF" d="M695.578,108.071c0,1.104-0.896,2-1.999,2h-8.335c-1.104,0-2-0.896-2-2v-8.333c0-1.104,0.896-2.001,2-2.001
	h8.335c1.104,0,1.999,0.896,1.999,2.001V108.071z"/>
<path fill="#0074FF" d="M708.632,108.071c0,1.104-0.896,2-2,2h-8.333c-1.104,0-2-0.896-2-2v-8.333c0-1.104,0.896-2.001,2-2.001
	h8.333c1.104,0,2,0.896,2,2.001V108.071z"/>
<path fill="#8AD0EB" d="M708.632,122.187c0,1.104-0.896,1.998-2,1.998h-8.333c-1.104,0-2-0.895-2-1.998v-8.334c0-1.104,0.896-2,2-2
	h8.333c1.104,0,2,0.896,2,2V122.187z"/>
<text transform="matrix(1 0 0 1 714.3555 106.2812)" fill="#BBBDBF" font-family="'Univers-CondensedLight'" font-size="10.225">super </text>
<text transform="matrix(1 0 0 1 714.3555 120.7656)" fill="#BBBDBF" font-family="'Univers-CondensedLight'" font-size="10.225">daccord</text>
<text transform="matrix(1 0 0 1 714.3555 135.252)" fill="#BBBDBF" font-family="'Univers-CondensedLight'" font-size="10.225">neutre</text>
<text transform="matrix(1 0 0 1 714.3555 149.7363)" fill="#BBBDBF" font-family="'Univers-CondensedLight'" font-size="10.225">pas daccord</text>
<text transform="matrix(1 0 0 1 714.3555 164.2227)" fill="#BBBDBF" font-family="'Univers-CondensedLight'" font-size="10.225">horrible</text>
<path fill="#FFFFFF" d="M684.355,102.869h3.928v-4.112h2.257v4.112h3.927v2.258h-3.927v3.925h-2.257v-3.925h-3.928V102.869z"/>
<path fill="#FFFFFF" d="M697.344,102.869h3.928v-4.112h2.258v4.112h3.926v2.258h-3.926v3.925h-2.258v-3.925h-3.928V102.869z"/>
<path fill="#FFFFFF" d="M697.344,102.869h3.928v-4.112h2.258v4.112h3.926v2.258h-3.926v3.925h-2.258v-3.925h-3.928V102.869z"/>
<path fill="#E68FA9" d="M695.578,136.362c0,1.104-0.896,2-1.999,2h-8.335c-1.104,0-2-0.896-2-2v-8.334c0-1.104,0.896-2.001,2-2.001
	h8.335c1.104,0,1.999,0.897,1.999,2.001V136.362z"/>
<path fill="#8AD0EB" d="M708.632,136.362c0,1.104-0.896,2-2,2h-8.333c-1.104,0-2-0.896-2-2v-8.334c0-1.104,0.896-2.001,2-2.001
	h8.333c1.104,0,2,0.897,2,2.001V136.362z"/>
<path fill="#E68FA9" d="M708.632,150.478c0,1.104-0.896,2-2,2h-8.333c-1.104,0-2-0.896-2-2v-8.334c0-1.104,0.896-2,2-2h8.333
	c1.104,0,2,0.896,2,2V150.478z"/>
<path fill="#FFFFFF" d="M697.344,131.16h3.928v-4.112h2.258v4.112h3.926v2.257h-3.926v3.927h-2.258v-3.927h-3.928V131.16z"/>
<path fill="#FFFFFF" d="M697.344,116.982h3.928v-4.11h2.258v4.11h3.926v2.26h-3.926v3.926h-2.258v-3.926h-3.928V116.982z"/>
<path fill="#E68FA9" d="M695.578,164.71c0,1.103-0.896,1.999-1.999,1.999h-8.335c-1.104,0-2-0.896-2-1.999v-8.335
	c0-1.105,0.896-2,2-2h8.335c1.104,0,1.999,0.895,1.999,2V164.71z"/>
<path fill="#E68FA9" d="M708.632,164.71c0,1.103-0.896,1.999-2,1.999h-8.333c-1.104,0-2-0.896-2-1.999v-8.335c0-1.105,0.896-2,2-2
	h8.333c1.104,0,2,0.895,2,2V164.71z"/>
<path fill="#FF0642" d="M695.578,164.71c0,1.103-0.896,1.999-1.999,1.999h-8.335c-1.104,0-2-0.896-2-1.999v-8.335
	c0-1.105,0.896-2,2-2h8.335c1.104,0,1.999,0.895,1.999,2V164.71z"/>
<path fill="#FF0642" d="M708.632,164.71c0,1.103-0.896,1.999-2,1.999h-8.333c-1.104,0-2-0.896-2-1.999v-8.335c0-1.105,0.896-2,2-2
	h8.333c1.104,0,2,0.895,2,2V164.71z"/>
<rect x="684.355" y="131.16" fill="#FFFFFF" width="10.11" height="2.257"/>
<rect x="697.409" y="145.181" fill="#FFFFFF" width="10.111" height="2.258"/>
<rect x="697.409" y="159.413" fill="#FFFFFF" width="10.111" height="2.258"/>
<rect x="684.355" y="159.413" fill="#FFFFFF" width="10.109" height="2.258"/>
<text transform="matrix(1 0 0 1 464.3281 191.8066)" fill="#58595B" font-family="'Univers-CondensedBold'" font-size="10.225">exemple :</text>
<text transform="matrix(1 0 0 1 464.3281 206.293)" fill="#58595B" font-family="'Univers-CondensedLight'" font-size="10.225">#praticg12 #conf1 #sujet++ #intervenant1- #temps-+</text>
</svg>
