<?xml version="1.0" encoding="iso-8859-1"?>
<!-- Generator: Adobe Illustrator 15.1.0, SVG Export Plug-In . SVG Version: 6.00 Build 0)  -->
<!DOCTYPE svg PUBLIC "-//W3C//DTD SVG 1.1//EN" "http://www.w3.org/Graphics/SVG/1.1/DTD/svg11.dtd">
<svg version="1.1" xmlns="http://www.w3.org/2000/svg" xmlns:xlink="http://www.w3.org/1999/xlink" x="0px" y="0px" width="800px"
	 height="600px" viewBox="0 0 800 600" style="enable-background:new 0 0 800 600;" xml:space="preserve">
<g id="Calque_1">
	<rect style="fill:#EDEDED;" width="799" height="600"/>
</g>
<g id="Calque_2">
	<circle style="fill:#CCE3F2;stroke:#0071BC;stroke-miterlimit:10;" cx="533.737" cy="490.479" r="25.344"/>
	<g>
		<g>
			<path style="fill:none;stroke:#0071BC;stroke-miterlimit:10;" d="M534.951,377.85c-0.334,0-0.667-0.001-1-0.004"/>
			<path style="fill:none;stroke:#0071BC;stroke-miterlimit:10;stroke-dasharray:2.0067,2.0067;" d="M531.944,377.814
				c-69.094-1.597-124.613-58.106-124.613-127.585c0-70.483,57.138-127.62,127.62-127.62c31.807,0,60.896,11.636,83.243,30.883"/>
			<path style="fill:none;stroke:#0071BC;stroke-miterlimit:10;" d="M618.951,154.15c0.251,0.22,0.501,0.44,0.75,0.661"/>
		</g>
	</g>
	<line style="fill:none;stroke:#0071BC;stroke-miterlimit:10;" x1="534.5" y1="377" x2="534.5" y2="466"/>
	
		<line style="fill:none;stroke:#0071BC;stroke-miterlimit:10;stroke-dasharray:2;" x1="323.607" y1="278.941" x2="406.576" y2="278.734"/>
	
		<line style="fill:none;stroke:#0071BC;stroke-miterlimit:10;stroke-dasharray:2;" x1="330.078" y1="236.535" x2="406.576" y2="278.734"/>
	
		<line style="fill:none;stroke:#0071BC;stroke-miterlimit:10;stroke-dasharray:2;" x1="367.159" y1="205.066" x2="406.576" y2="278.734"/>
	<circle style="fill:#6E1D6B;" cx="367.158" cy="205.067" r="17.174"/>
	<circle style="fill:#A952A5;" cx="330.077" cy="236.535" r="17.173"/>
	<circle style="fill:#D4A9D2;" cx="323.606" cy="278.94" r="17.173"/>
	
		<line style="fill:none;stroke:#0071BC;stroke-miterlimit:10;stroke-dasharray:2;" x1="475.805" y1="78.84" x2="468.91" y2="141.005"/>
	
		<line style="fill:none;stroke:#0071BC;stroke-miterlimit:10;stroke-dasharray:2;" x1="428.461" y1="89.98" x2="466.564" y2="136.854"/>
	
		<line style="fill:none;stroke:#0071BC;stroke-miterlimit:10;stroke-dasharray:2;" x1="403.396" y1="124.792" x2="468.91" y2="141.005"/>
	<circle style="fill:#6E1D6B;" cx="475.804" cy="78.84" r="17.174"/>
	<circle style="fill:#A952A5;" cx="428.46" cy="89.979" r="17.173"/>
	<circle style="fill:#D4A9D2;" cx="403.397" cy="124.791" r="17.174"/>
	
		<line style="fill:none;stroke:#0071BC;stroke-miterlimit:10;stroke-dasharray:2;" x1="602.909" y1="86.71" x2="609.088" y2="141.965"/>
	
		<line style="fill:none;stroke:#0071BC;stroke-miterlimit:10;stroke-dasharray:2;" x1="643.519" y1="100.526" x2="609.088" y2="141.965"/>
	
		<line style="fill:none;stroke:#0071BC;stroke-miterlimit:10;stroke-dasharray:2;" x1="667.988" y1="142.558" x2="609.088" y2="146.346"/>
	<circle style="fill:#6E1D6B;" cx="667.989" cy="142.558" r="17.174"/>
	<circle style="fill:#A952A5;" cx="643.52" cy="100.525" r="17.174"/>
	<circle style="fill:#D4A9D2;" cx="602.91" cy="86.71" r="17.173"/>
	<circle style="fill:none;stroke:#0071BC;stroke-miterlimit:10;" cx="533.736" cy="490.479" r="20.703"/>
	<circle style="fill:#3C6C8C;" cx="407.183" cy="281.185" r="54.232"/>
	<circle style="fill:#9DB6C6;" cx="466.564" cy="141.005" r="37.995"/>
	<circle style="fill:#062438;" cx="534.997" cy="370.597" r="62.809"/>
	<circle style="fill:#99C6E4;" cx="609.087" cy="144.725" r="29.7"/>
	<g>
		<path style="fill:#999999;" d="M516.156,531.085l-0.368,2.257h1.424v1.024h-1.584L515.052,538h-1.185l0.576-3.634h-2.562
			l-0.56,3.634h-1.185l0.576-3.634h-1.425v-1.024h1.601l0.368-2.257h-1.473v-1.057h1.617l0.544-3.441h1.2l-0.56,3.441h2.545
			l0.544-3.441h1.168l-0.544,3.441h1.393v1.057H516.156z M512.427,531.085l-0.368,2.257h2.545l0.368-2.257H512.427z"/>
		<path style="fill:#999999;" d="M525.243,537.408c-0.416,0.416-1.12,0.688-1.92,0.688c-0.865,0-1.585-0.208-2.226-1.024v4.45
			h-1.152v-11.396h1.152v0.928c0.641-0.832,1.36-1.024,2.226-1.024c0.8,0,1.504,0.272,1.92,0.688
			c0.801,0.801,0.961,2.113,0.961,3.346S526.044,536.607,525.243,537.408z M523.083,531.053c-1.713,0-1.985,1.473-1.985,3.01
			c0,1.536,0.272,3.009,1.985,3.009s1.969-1.473,1.969-3.009C525.052,532.525,524.796,531.053,523.083,531.053z"/>
		<path style="fill:#999999;" d="M533.067,531.63c-0.433-0.433-0.753-0.577-1.361-0.577c-1.152,0-1.889,0.913-1.889,2.113V538
			h-1.152v-7.875h1.152v0.96c0.433-0.656,1.297-1.057,2.209-1.057c0.753,0,1.329,0.177,1.889,0.736L533.067,531.63z"/>
		<path style="fill:#999999;" d="M539.707,538v-0.752c-0.64,0.64-1.217,0.848-2.272,0.848c-1.089,0-1.729-0.208-2.226-0.72
			c-0.384-0.385-0.592-0.977-0.592-1.601c0-1.377,0.96-2.273,2.721-2.273h2.369v-0.752c0-1.152-0.576-1.729-2.017-1.729
			c-1.009,0-1.521,0.24-1.985,0.896l-0.784-0.721c0.705-0.912,1.505-1.169,2.785-1.169c2.113,0,3.153,0.913,3.153,2.626V538H539.707
			z M539.707,534.366h-2.209c-1.185,0-1.761,0.48-1.761,1.393c0,0.913,0.561,1.345,1.809,1.345c0.673,0,1.265-0.048,1.761-0.528
			c0.272-0.256,0.4-0.704,0.4-1.36V534.366z"/>
		<path style="fill:#999999;" d="M545.866,538c-1.345,0-2.017-0.944-2.017-2.113v-4.834h-0.992v-0.88h0.992v-2.465h1.152v2.465
			h1.681v0.88h-1.681v4.803c0,0.72,0.336,1.152,1.072,1.152h0.608V538H545.866z"/>
		<path style="fill:#999999;" d="M548.905,527.884v-1.297h1.296v1.297H548.905z M548.969,538v-7.875h1.152V538H548.969z"/>
		<path style="fill:#999999;" d="M556.074,538.096c-1.985,0-3.489-1.344-3.489-4.033s1.504-4.034,3.489-4.034
			c1.088,0,1.776,0.288,2.593,1.169l-0.784,0.736c-0.593-0.656-1.057-0.881-1.809-0.881c-0.769,0-1.409,0.305-1.825,0.896
			c-0.368,0.513-0.512,1.121-0.512,2.113s0.144,1.601,0.512,2.112c0.416,0.593,1.057,0.896,1.825,0.896
			c0.752,0,1.216-0.24,1.809-0.896l0.784,0.753C557.851,537.808,557.162,538.096,556.074,538.096z"/>
	</g>
	<g>
		<path style="fill:#FFFFFF;" d="M521.564,367.848l-0.368,2.257h1.424v1.024h-1.584l-0.576,3.634h-1.185l0.576-3.634h-2.562
			l-0.56,3.634h-1.185l0.576-3.634h-1.425v-1.024h1.601l0.368-2.257h-1.473v-1.057h1.617l0.544-3.441h1.2l-0.56,3.441h2.545
			l0.544-3.441h1.168l-0.544,3.441h1.393v1.057H521.564z M517.835,367.848l-0.368,2.257h2.545l0.368-2.257H517.835z"/>
		<path style="fill:#FFFFFF;" d="M528.411,374.858c-1.985,0-3.489-1.344-3.489-4.033s1.504-4.034,3.489-4.034
			c1.088,0,1.776,0.289,2.593,1.169l-0.784,0.736c-0.593-0.656-1.057-0.881-1.809-0.881c-0.769,0-1.409,0.305-1.825,0.896
			c-0.368,0.513-0.512,1.121-0.512,2.113s0.144,1.601,0.512,2.112c0.416,0.593,1.057,0.896,1.825,0.896
			c0.752,0,1.216-0.24,1.809-0.896l0.784,0.753C530.188,374.57,529.499,374.858,528.411,374.858z"/>
		<path style="fill:#FFFFFF;" d="M538.012,373.962c-0.545,0.545-1.297,0.896-2.257,0.896c-0.961,0-1.713-0.352-2.258-0.896
			c-0.8-0.815-0.96-1.92-0.96-3.137s0.16-2.321,0.96-3.138c0.545-0.544,1.297-0.896,2.258-0.896c0.96,0,1.712,0.353,2.257,0.896
			c0.8,0.816,0.96,1.921,0.96,3.138S538.812,373.146,538.012,373.962z M537.195,368.393c-0.368-0.368-0.881-0.577-1.44-0.577
			c-0.561,0-1.057,0.209-1.425,0.577c-0.576,0.576-0.641,1.552-0.641,2.433c0,0.88,0.064,1.856,0.641,2.433
			c0.368,0.368,0.864,0.576,1.425,0.576c0.56,0,1.072-0.208,1.44-0.576c0.576-0.576,0.624-1.553,0.624-2.433
			C537.819,369.944,537.771,368.969,537.195,368.393z"/>
		<path style="fill:#FFFFFF;" d="M546.475,374.763v-4.85c0-1.393-0.752-2.098-1.937-2.098s-1.953,0.721-1.953,2.098v4.85h-1.152
			v-7.875h1.152v0.864c0.561-0.641,1.329-0.961,2.209-0.961c0.849,0,1.537,0.257,2.017,0.736c0.561,0.545,0.816,1.281,0.816,2.193
			v5.042H546.475z"/>
		<path style="fill:#FFFFFF;" d="M551.834,367.815v6.947h-1.153v-6.947h-1.008v-0.88h1.008v-1.488c0-1.169,0.656-2.113,2.001-2.113
			h0.833v0.992h-0.625c-0.736,0-1.056,0.433-1.056,1.152v1.457h1.681v0.88H551.834z"/>
	</g>
	<path style="fill:#FFFFFF;" d="M371,207.444v-5.379c0-0.41-0.805-1.065-1.214-1.065h-5.379c-0.41,0-0.742,0.59-0.742,1
		s0.333,1,0.742,1h3.719l-5.227,5.13c-0.253,0.253-0.253,0.616,0,0.87c0.253,0.253,0.643,0.229,0.896-0.024l5.205-5.25v3.719
		c0,0.205,0.104,0.39,0.239,0.524c0.134,0.134,0.567,0.217,0.771,0.218C370.421,208.186,371,207.854,371,207.444z"/>
	<path style="fill:#FFFFFF;" d="M327.482,241h5.379c0.41,0,1.139-0.343,1.139-0.752v-5.379c0-0.41-0.59-0.742-1-0.742
		s-1,0.333-1,0.742v3.719l-5.167-5.227c-0.253-0.253-0.634-0.253-0.888,0c-0.253,0.253-0.238,0.412,0.015,0.665l5.241,4.974h-3.719
		c-0.205,0-0.39,0.335-0.524,0.47c-0.134,0.134-0.217,0.452-0.218,0.656C326.741,240.536,327.073,241,327.482,241z"/>
	<path style="fill:#FFFFFF;" d="M480,81.444v-5.379c0-0.41-0.805-1.065-1.215-1.065h-5.379c-0.41,0-0.742,0.59-0.742,1
		s0.333,1,0.742,1h3.719l-5.227,5.13c-0.253,0.253-0.253,0.616,0,0.87c0.254,0.253,0.644,0.229,0.896-0.024l5.205-5.25v3.719
		c0,0.205,0.104,0.39,0.239,0.524c0.134,0.134,0.567,0.217,0.771,0.218C479.421,82.186,480,81.854,480,81.444z"/>
	<path style="fill:#FFFFFF;" d="M426.482,94h5.379c0.41,0,1.139-0.343,1.139-0.752v-5.379c0-0.41-0.59-0.742-1-0.742
		s-1,0.333-1,0.742v3.719l-5.167-5.227c-0.253-0.253-0.634-0.253-0.888,0s-0.238,0.412,0.015,0.665L430.201,92h-3.719
		c-0.205,0-0.391,0.335-0.524,0.47c-0.134,0.134-0.218,0.452-0.218,0.656C425.74,93.536,426.072,94,426.482,94z"/>
	<path style="fill:#FFFFFF;" d="M672,144.444v-5.379c0-0.41-0.805-1.065-1.215-1.065h-5.379c-0.41,0-0.742,0.59-0.742,1
		s0.333,1,0.742,1h3.719l-5.227,5.13c-0.253,0.253-0.253,0.616,0,0.87c0.254,0.253,0.644,0.229,0.896-0.024l5.205-5.25v3.719
		c0,0.205,0.104,0.39,0.239,0.524c0.134,0.134,0.567,0.217,0.771,0.218C671.421,145.186,672,144.854,672,144.444z"/>
	<path style="fill:#FFFFFF;" d="M641.482,104h5.379c0.41,0,1.139-0.343,1.139-0.752v-5.379c0-0.41-0.59-0.742-1-0.742
		s-1,0.333-1,0.742v3.719l-5.167-5.227c-0.253-0.253-0.634-0.253-0.888,0s-0.238,0.412,0.015,0.665l5.241,4.974h-3.719
		c-0.205,0-0.391,0.335-0.524,0.47c-0.134,0.134-0.218,0.452-0.218,0.656C640.74,103.536,641.072,104,641.482,104z"/>
</g>
<g id="Calque_3">
	<g>
		<path style="fill:#808080;" d="M59.89,73.191c-0.33,0.33-0.779,0.51-1.369,0.51c-0.58,0-1.06-0.16-1.369-0.479
			c-0.271-0.27-0.44-0.65-0.48-1.16h0.51c0.101,0.76,0.51,1.189,1.34,1.189c0.39,0,0.749-0.13,0.979-0.36
			c0.42-0.419,0.43-1.059,0.43-1.589c0-0.89-0.16-1.899-1.329-1.899c-0.65,0-1.14,0.27-1.29,0.75h-0.449v-3.638h3.418v0.45h-2.969
			v2.519c0.311-0.359,0.77-0.529,1.35-0.529c0.51,0,0.92,0.15,1.199,0.43c0.5,0.5,0.58,1.249,0.58,1.919
			C60.439,71.982,60.399,72.681,59.89,73.191z"/>
		<path style="fill:#808080;" d="M69.368,73.631l-4.108-6.187v6.187h-0.539v-7.116h0.539l4.108,6.167v-6.167h0.539v7.116H69.368z"/>
		<path style="fill:#808080;" d="M74.979,73.161c-0.34,0.34-0.8,0.53-1.339,0.53c-0.54,0-1-0.19-1.34-0.53
			c-0.51-0.51-0.6-1.25-0.6-1.939s0.09-1.429,0.6-1.939c0.34-0.34,0.8-0.53,1.34-0.53c0.539,0,0.999,0.19,1.339,0.53
			c0.51,0.51,0.6,1.25,0.6,1.939S75.489,72.651,74.979,73.161z M74.64,69.613c-0.26-0.26-0.609-0.41-0.999-0.41
			c-0.391,0-0.74,0.15-1,0.41c-0.399,0.399-0.43,1.049-0.43,1.609s0.03,1.209,0.43,1.609c0.26,0.26,0.609,0.41,1,0.41
			c0.39,0,0.739-0.15,0.999-0.41c0.399-0.4,0.43-1.05,0.43-1.609S75.039,70.013,74.64,69.613z"/>
		<path style="fill:#808080;" d="M78.569,73.631H78.07l-1.76-4.817h0.56l1.449,4.218l1.449-4.218h0.56L78.569,73.631z"/>
		<path style="fill:#808080;" d="M81.57,71.332c0,1.219,0.55,1.899,1.569,1.899c0.569,0,0.919-0.17,1.329-0.58l0.38,0.3
			c-0.489,0.49-0.939,0.74-1.739,0.74c-1.329,0-2.049-0.859-2.049-2.469c0-1.549,0.72-2.469,1.929-2.469c1.2,0,1.93,0.88,1.93,2.349
			v0.23H81.57z M84.239,70.013c-0.21-0.5-0.7-0.81-1.25-0.81c-0.549,0-1.039,0.31-1.249,0.81c-0.12,0.3-0.149,0.45-0.17,0.91h2.839
			C84.389,70.462,84.359,70.312,84.239,70.013z"/>
		<path style="fill:#808080;" d="M92.968,73.631v-2.988c0-0.93-0.47-1.439-1.329-1.439c-0.83,0-1.359,0.53-1.359,1.35v3.078h-0.51
			v-2.988c0-0.93-0.47-1.439-1.329-1.439c-0.86,0-1.359,0.53-1.359,1.439v2.988h-0.51v-4.817h0.51v0.57
			c0.35-0.41,0.85-0.63,1.429-0.63c0.71,0,1.26,0.31,1.55,0.88c0.359-0.57,0.929-0.88,1.639-0.88c0.529,0,0.97,0.17,1.27,0.46
			c0.319,0.31,0.499,0.77,0.499,1.339v3.078H92.968z"/>
		<path style="fill:#808080;" d="M98.469,73.271c-0.25,0.25-0.68,0.42-1.18,0.42c-0.539,0-1.009-0.12-1.429-0.68v0.62h-0.51v-7.116
			h0.51v2.918c0.42-0.56,0.89-0.68,1.429-0.68c0.5,0,0.93,0.17,1.18,0.42c0.489,0.49,0.619,1.289,0.619,2.049
			S98.958,72.781,98.469,73.271z M97.22,69.203c-1.18,0-1.359,1.02-1.359,2.019s0.18,2.019,1.359,2.019
			c1.179,0,1.358-1.02,1.358-2.019S98.398,69.203,97.22,69.203z"/>
		<path style="fill:#808080;" d="M103.459,69.583c-0.29-0.29-0.51-0.38-0.909-0.38c-0.83,0-1.289,0.68-1.289,1.459v2.968h-0.51
			v-4.817h0.51v0.64c0.279-0.45,0.839-0.7,1.409-0.7c0.46,0,0.819,0.12,1.159,0.46L103.459,69.583z"/>
		<path style="fill:#808080;" d="M104.721,71.332c0,1.219,0.55,1.899,1.569,1.899c0.569,0,0.919-0.17,1.329-0.58l0.38,0.3
			c-0.489,0.49-0.939,0.74-1.739,0.74c-1.329,0-2.049-0.859-2.049-2.469c0-1.549,0.72-2.469,1.929-2.469c1.2,0,1.93,0.88,1.93,2.349
			v0.23H104.721z M107.39,70.013c-0.21-0.5-0.7-0.81-1.25-0.81c-0.549,0-1.039,0.31-1.249,0.81c-0.12,0.3-0.149,0.45-0.17,0.91
			h2.839C107.539,70.462,107.51,70.312,107.39,70.013z"/>
		<path style="fill:#808080;" d="M112.021,73.631v-0.45l2.858-3.748c0.279-0.36,0.399-0.7,0.399-1.109
			c0-0.85-0.51-1.419-1.369-1.419c-0.739,0-1.369,0.419-1.369,1.419h-0.51c0-1.06,0.7-1.869,1.879-1.869
			c1.14,0,1.879,0.74,1.879,1.869c0,0.53-0.13,0.899-0.489,1.369l-2.669,3.488h3.158v0.45H112.021z"/>
		<path style="fill:#808080;" d="M119.01,73.691c-1.1,0-1.869-0.79-1.869-1.899v-3.438c0-1.11,0.77-1.899,1.869-1.899
			s1.869,0.79,1.869,1.899v3.438C120.879,72.901,120.109,73.691,119.01,73.691z M120.369,68.404c0-0.84-0.47-1.499-1.359-1.499
			s-1.359,0.659-1.359,1.499v3.338c0,0.84,0.47,1.5,1.359,1.5s1.359-0.66,1.359-1.5V68.404z"/>
		<path style="fill:#808080;" d="M124.199,73.631v-6.537l-1.289,1.14v-0.61l1.289-1.109h0.51v7.116H124.199z"/>
		<path style="fill:#808080;" d="M129.339,73.631v-6.537l-1.289,1.14v-0.61l1.289-1.109h0.51v7.116H129.339z"/>
		<path style="fill:#808080;" d="M62.276,88.031l-0.744-2.075h-3.981l-0.743,2.075h-0.696l3.143-8.539h0.575l3.143,8.539H62.276z
			 M59.542,80.355l-1.787,5.025h3.574L59.542,80.355z"/>
		<path style="fill:#808080;" d="M68.156,88.031v-3.586c0-1.115-0.563-1.727-1.595-1.727s-1.631,0.636-1.631,1.727v3.586h-0.612
			V82.25h0.612v0.684c0.432-0.504,1.007-0.755,1.703-0.755c0.647,0,1.163,0.191,1.535,0.551c0.384,0.372,0.6,0.924,0.6,1.607v3.694
			H68.156z"/>
		<path style="fill:#808080;" d="M72.813,90.861c-0.863,0-1.295-0.228-1.907-0.768l0.408-0.408c0.456,0.408,0.768,0.635,1.499,0.635
			c1.212,0,1.751-0.863,1.751-2.002v-1.032c-0.504,0.672-1.067,0.815-1.715,0.815c-0.6,0-1.115-0.204-1.415-0.503
			c-0.588-0.588-0.744-1.547-0.744-2.459c0-0.911,0.156-1.871,0.744-2.458c0.3-0.3,0.815-0.503,1.415-0.503
			c0.647,0,1.211,0.144,1.715,0.815V82.25h0.612v6.104C75.177,89.806,74.312,90.861,72.813,90.861z M72.934,82.718
			c-1.415,0-1.631,1.223-1.631,2.422c0,1.2,0.216,2.423,1.631,2.423s1.631-1.223,1.631-2.423
			C74.564,83.941,74.349,82.718,72.934,82.718z"/>
		<path style="fill:#808080;" d="M77.783,85.272c0,1.463,0.659,2.279,1.883,2.279c0.684,0,1.104-0.204,1.595-0.696l0.456,0.36
			c-0.588,0.587-1.127,0.887-2.087,0.887c-1.595,0-2.459-1.031-2.459-2.962c0-1.859,0.864-2.962,2.315-2.962
			c1.438,0,2.314,1.055,2.314,2.818v0.276H77.783z M80.985,83.689c-0.252-0.6-0.84-0.971-1.499-0.971
			c-0.66,0-1.248,0.372-1.499,0.971c-0.145,0.36-0.181,0.54-0.204,1.092h3.406C81.165,84.229,81.129,84.049,80.985,83.689z
			 M79.642,80.955h-0.695l1.163-1.763h0.804L79.642,80.955z"/>
		<path style="fill:#808080;" d="M85.149,88.031c-0.936,0-1.391-0.6-1.391-1.499v-7.04h0.611v7.028c0,0.648,0.204,0.972,0.888,0.972
			h0.42v0.54H85.149z"/>
		<path style="fill:#808080;" d="M87.155,80.247v-0.755h0.755v0.755H87.155z M87.227,88.031V82.25h0.612v5.781H87.227z"/>
		<path style="fill:#808080;" d="M93.704,90.789v-3.502c-0.504,0.672-1.067,0.815-1.715,0.815c-0.6,0-1.115-0.204-1.415-0.503
			c-0.588-0.588-0.744-1.547-0.744-2.459c0-0.911,0.156-1.871,0.744-2.458c0.3-0.3,0.815-0.503,1.415-0.503
			c0.647,0,1.211,0.144,1.715,0.815V82.25h0.612v8.539H93.704z M92.073,82.718c-1.415,0-1.631,1.223-1.631,2.422
			c0,1.2,0.216,2.423,1.631,2.423s1.631-1.223,1.631-2.423C93.704,83.941,93.488,82.718,92.073,82.718z"/>
		<path style="fill:#808080;" d="M100.413,88.031v-0.684c-0.433,0.504-1.008,0.755-1.703,0.755c-0.648,0-1.164-0.192-1.535-0.551
			c-0.384-0.372-0.6-0.924-0.6-1.607V82.25h0.611v3.586c0,1.115,0.563,1.727,1.595,1.727c1.032,0,1.632-0.636,1.632-1.727V82.25
			h0.611v5.781H100.413z"/>
		<path style="fill:#808080;" d="M103.63,85.272c0,1.463,0.659,2.279,1.883,2.279c0.684,0,1.104-0.204,1.595-0.696l0.456,0.36
			c-0.588,0.587-1.127,0.887-2.087,0.887c-1.595,0-2.459-1.031-2.459-2.962c0-1.859,0.864-2.962,2.315-2.962
			c1.438,0,2.314,1.055,2.314,2.818v0.276H103.63z M106.832,83.689c-0.252-0.6-0.84-0.971-1.499-0.971
			c-0.66,0-1.248,0.372-1.499,0.971c-0.145,0.36-0.181,0.54-0.204,1.092h3.406C107.012,84.229,106.976,84.049,106.832,83.689z"/>
		<path style="fill:#808080;" d="M115.437,88.103c-0.804,0-1.571-0.312-2.135-0.875c-0.78-0.779-0.792-1.535-0.792-3.466
			c0-1.931,0.012-2.687,0.792-3.466c0.563-0.563,1.331-0.875,2.135-0.875c1.522,0,2.626,0.948,2.902,2.495h-0.66
			c-0.252-1.175-1.091-1.919-2.242-1.919c-0.612,0-1.188,0.228-1.619,0.66c-0.612,0.612-0.66,1.271-0.66,3.106
			s0.048,2.495,0.66,3.106c0.432,0.432,1.007,0.66,1.619,0.66c1.151,0,2.015-0.743,2.267-1.919h0.636
			C118.062,87.155,116.936,88.103,115.437,88.103z"/>
		<path style="fill:#808080;" d="M125.479,88.031l-0.744-2.075h-3.981l-0.743,2.075h-0.696l3.143-8.539h0.575l3.143,8.539H125.479z
			 M122.745,80.355l-1.787,5.025h3.574L122.745,80.355z"/>
		<path style="fill:#808080;" d="M127.678,88.031v-8.539h0.647v7.963h4.533v0.576H127.678z"/>
		<path style="fill:#808080;" d="M141.066,88.031v-7.04l-2.591,5.841h-0.647l-2.639-5.841v7.04h-0.647v-8.539h0.647l2.975,6.584
			l2.902-6.584h0.647v8.539H141.066z"/>
		<path style="fill:#808080;" d="M149.083,87.227c-0.563,0.564-1.331,0.875-2.135,0.875s-1.571-0.312-2.135-0.875
			c-0.78-0.779-0.792-1.535-0.792-3.466c0-1.931,0.012-2.687,0.792-3.466c0.563-0.563,1.331-0.875,2.135-0.875
			s1.571,0.312,2.135,0.875c0.779,0.78,0.791,1.535,0.791,3.466C149.874,85.692,149.862,86.448,149.083,87.227z M148.567,80.655
			c-0.432-0.432-1.008-0.66-1.619-0.66c-0.612,0-1.188,0.228-1.619,0.66c-0.612,0.612-0.66,1.271-0.66,3.106s0.048,2.495,0.66,3.106
			c0.432,0.432,1.007,0.66,1.619,0.66c0.611,0,1.188-0.228,1.619-0.66c0.611-0.611,0.659-1.271,0.659-3.106
			S149.179,81.267,148.567,80.655z"/>
		<path style="fill:#808080;" d="M157.759,88.031l-4.93-7.424v7.424h-0.647v-8.539h0.647l4.93,7.4v-7.4h0.647v8.539H157.759z"/>
	</g>
	<g>
		<path style="fill:#062438;" d="M62.353,143.324c-1.56,0-2.84-0.56-3.841-1.561c-1.439-1.44-1.399-3.221-1.399-5.681
			s-0.04-4.241,1.399-5.681c1.001-1,2.281-1.561,3.841-1.561c2.661,0,4.741,1.521,5.241,4.501h-2.82c-0.28-1.14-1-2.02-2.4-2.02
			c-0.76,0-1.38,0.28-1.78,0.74c-0.54,0.6-0.7,1.28-0.7,4.021s0.16,3.421,0.7,4.021c0.4,0.46,1.021,0.74,1.78,0.74
			c1.4,0,2.12-0.88,2.4-2.021h2.82C67.094,141.803,64.993,143.324,62.353,143.324z"/>
		<path style="fill:#062438;" d="M76.994,142.043c-0.641,0.68-1.7,1.28-3.241,1.28c-1.54,0-2.58-0.6-3.221-1.28
			c-0.939-0.98-1.18-2.161-1.18-4.061c0-1.88,0.24-3.061,1.18-4.041c0.641-0.68,1.681-1.28,3.221-1.28
			c1.541,0,2.601,0.601,3.241,1.28c0.939,0.98,1.18,2.161,1.18,4.041C78.174,139.883,77.934,141.063,76.994,142.043z
			 M74.974,135.462c-0.3-0.3-0.7-0.46-1.221-0.46c-0.52,0-0.9,0.16-1.2,0.46c-0.54,0.54-0.6,1.44-0.6,2.521s0.06,2,0.6,2.541
			c0.3,0.3,0.681,0.46,1.2,0.46c0.521,0,0.921-0.16,1.221-0.46c0.54-0.54,0.6-1.46,0.6-2.541S75.514,136.002,74.974,135.462z"/>
		<path style="fill:#062438;" d="M86.714,143.204v-6.301c0-1.42-0.9-1.9-1.721-1.9c-0.819,0-1.74,0.48-1.74,1.9v6.301h-2.601
			v-10.422h2.541v0.96c0.68-0.72,1.641-1.081,2.601-1.081c1.04,0,1.88,0.34,2.46,0.92c0.841,0.84,1.061,1.82,1.061,2.96v6.662
			H86.714z"/>
		<path style="fill:#062438;" d="M95.033,135.062v8.142h-2.601v-8.142h-1.08v-1.98h1.08v-1.3c0-1.48,0.92-2.98,3.041-2.98h1.48v2.2
			h-1.021c-0.62,0-0.9,0.34-0.9,0.94v1.14h1.921v1.98H95.033z"/>
		<path style="fill:#062438;" d="M100.993,138.803c0,1.34,0.82,2.32,2.28,2.32c1.141,0,1.7-0.32,2.36-0.98l1.58,1.54
			c-1.06,1.061-2.08,1.641-3.96,1.641c-2.461,0-4.821-1.12-4.821-5.341c0-3.401,1.84-5.321,4.541-5.321
			c2.9,0,4.541,2.121,4.541,4.981v1.16H100.993z M104.714,135.902c-0.28-0.62-0.86-1.08-1.74-1.08c-0.881,0-1.461,0.46-1.74,1.08
			c-0.16,0.38-0.221,0.66-0.24,1.121h3.961C104.934,136.562,104.874,136.282,104.714,135.902z M103.674,131.121h-1.74l1.28-3.401
			h2.74L103.674,131.121z"/>
		<path style="fill:#062438;" d="M115.573,135.622c-0.399-0.4-0.739-0.62-1.38-0.62c-0.8,0-1.681,0.6-1.681,1.92v6.281h-2.601
			v-10.422h2.541v1c0.5-0.6,1.5-1.121,2.62-1.121c1.021,0,1.74,0.26,2.461,0.98L115.573,135.622z"/>
		<path style="fill:#062438;" d="M120.433,138.803c0,1.34,0.82,2.32,2.28,2.32c1.141,0,1.7-0.32,2.36-0.98l1.58,1.54
			c-1.06,1.061-2.08,1.641-3.96,1.641c-2.461,0-4.821-1.12-4.821-5.341c0-3.401,1.84-5.321,4.541-5.321
			c2.9,0,4.541,2.121,4.541,4.981v1.16H120.433z M124.153,135.902c-0.28-0.62-0.86-1.08-1.74-1.08c-0.881,0-1.461,0.46-1.74,1.08
			c-0.16,0.38-0.221,0.66-0.24,1.121h3.961C124.373,136.562,124.313,136.282,124.153,135.902z"/>
		<path style="fill:#062438;" d="M135.413,143.204v-6.301c0-1.42-0.9-1.9-1.721-1.9c-0.819,0-1.74,0.48-1.74,1.9v6.301h-2.601
			v-10.422h2.541v0.96c0.68-0.72,1.641-1.081,2.601-1.081c1.04,0,1.88,0.34,2.46,0.92c0.841,0.84,1.061,1.82,1.061,2.96v6.662
			H135.413z"/>
		<path style="fill:#062438;" d="M144.953,143.324c-2.081,0-4.661-1.12-4.661-5.341c0-4.221,2.58-5.321,4.661-5.321
			c1.439,0,2.521,0.44,3.44,1.4l-1.761,1.761c-0.54-0.581-1-0.82-1.68-0.82c-0.62,0-1.101,0.22-1.48,0.68
			c-0.4,0.5-0.58,1.2-0.58,2.3s0.18,1.82,0.58,2.321c0.38,0.46,0.86,0.68,1.48,0.68c0.68,0,1.14-0.24,1.68-0.82l1.761,1.74
			C147.474,142.864,146.393,143.324,144.953,143.324z"/>
		<path style="fill:#062438;" d="M152.093,138.803c0,1.34,0.82,2.32,2.28,2.32c1.141,0,1.7-0.32,2.36-0.98l1.58,1.54
			c-1.06,1.061-2.08,1.641-3.96,1.641c-2.461,0-4.821-1.12-4.821-5.341c0-3.401,1.84-5.321,4.541-5.321
			c2.9,0,4.541,2.121,4.541,4.981v1.16H152.093z M155.813,135.902c-0.28-0.62-0.86-1.08-1.74-1.08c-0.881,0-1.461,0.46-1.74,1.08
			c-0.16,0.38-0.221,0.66-0.24,1.121h3.961C156.033,136.562,155.974,136.282,155.813,135.902z"/>
		<path style="fill:#062438;" d="M164.433,143.324c-1.641,0-3.12-0.18-4.44-1.5l1.7-1.7c0.86,0.86,1.98,0.98,2.78,0.98
			c0.9,0,1.841-0.3,1.841-1.08c0-0.52-0.28-0.88-1.101-0.96l-1.641-0.16c-1.88-0.18-3.04-1-3.04-2.921c0-2.16,1.9-3.321,4.021-3.321
			c1.62,0,2.98,0.28,3.98,1.221l-1.6,1.62c-0.601-0.54-1.521-0.7-2.421-0.7c-1.04,0-1.48,0.48-1.48,1c0,0.38,0.16,0.82,1.08,0.9
			l1.641,0.16c2.061,0.2,3.101,1.3,3.101,3.061C168.854,142.224,166.894,143.324,164.433,143.324z"/>
		<path style="fill:#062438;" d="M57.352,155.001v-2.121h2.661v2.121H57.352z M57.392,167.204v-10.422h2.601v10.422H57.392z"/>
		<path style="fill:#062438;" d="M68.953,167.204v-6.301c0-1.42-0.9-1.9-1.721-1.9c-0.819,0-1.74,0.48-1.74,1.9v6.301h-2.601
			v-10.422h2.541v0.96c0.68-0.72,1.641-1.081,2.601-1.081c1.04,0,1.88,0.34,2.46,0.92c0.841,0.84,1.061,1.82,1.061,2.96v6.662
			H68.953z"/>
		<path style="fill:#062438;" d="M77.612,167.204c-2.12,0-3.021-1.5-3.021-2.98v-5.161h-1.1v-1.98h1.1v-3.081h2.601v3.081h1.841
			v1.98h-1.841v5.001c0,0.6,0.28,0.94,0.9,0.94h0.94v2.201H77.612z"/>
		<path style="fill:#062438;" d="M83.433,162.803c0,1.34,0.82,2.32,2.28,2.32c1.141,0,1.7-0.32,2.36-0.98l1.58,1.54
			c-1.06,1.061-2.08,1.641-3.96,1.641c-2.461,0-4.821-1.12-4.821-5.341c0-3.401,1.84-5.321,4.541-5.321
			c2.9,0,4.541,2.121,4.541,4.981v1.16H83.433z M87.153,159.902c-0.28-0.62-0.86-1.08-1.74-1.08c-0.881,0-1.461,0.46-1.74,1.08
			c-0.16,0.38-0.221,0.66-0.24,1.121h3.961C87.373,160.562,87.313,160.282,87.153,159.902z M86.113,155.121h-1.74l1.28-3.401h2.74
			L86.113,155.121z"/>
		<path style="fill:#062438;" d="M98.013,159.622c-0.399-0.4-0.739-0.62-1.38-0.62c-0.8,0-1.681,0.6-1.681,1.92v6.281h-2.601
			v-10.422h2.541v1c0.5-0.6,1.5-1.121,2.62-1.121c1.021,0,1.74,0.26,2.461,0.98L98.013,159.622z"/>
		<path style="fill:#062438;" d="M106.593,167.204v-0.9c-0.7,0.7-1.36,1-2.561,1c-1.181,0-2.041-0.3-2.661-0.92
			c-0.56-0.58-0.86-1.42-0.86-2.34c0-1.66,1.141-3.021,3.562-3.021h2.46v-0.521c0-1.14-0.56-1.64-1.94-1.64c-1,0-1.46,0.24-2,0.86
			l-1.66-1.621c1.02-1.12,2.021-1.44,3.761-1.44c2.92,0,4.44,1.241,4.44,3.681v6.861H106.593z M106.532,162.803h-2.061
			c-0.939,0-1.46,0.44-1.46,1.18c0,0.72,0.48,1.2,1.5,1.2c0.721,0,1.181-0.06,1.641-0.5c0.28-0.26,0.38-0.68,0.38-1.32V162.803z"/>
		<path style="fill:#062438;" d="M116.072,167.324c-2.081,0-4.661-1.12-4.661-5.341c0-4.221,2.58-5.321,4.661-5.321
			c1.439,0,2.521,0.44,3.44,1.4l-1.761,1.761c-0.54-0.581-1-0.82-1.68-0.82c-0.62,0-1.101,0.22-1.48,0.68
			c-0.4,0.5-0.58,1.2-0.58,2.3s0.18,1.82,0.58,2.321c0.38,0.46,0.86,0.68,1.48,0.68c0.68,0,1.14-0.24,1.68-0.82l1.761,1.74
			C118.593,166.864,117.512,167.324,116.072,167.324z"/>
		<path style="fill:#062438;" d="M124.791,167.204c-2.12,0-3.021-1.5-3.021-2.98v-5.161h-1.1v-1.98h1.1v-3.081h2.601v3.081h1.841
			v1.98h-1.841v5.001c0,0.6,0.28,0.94,0.9,0.94h0.94v2.201H124.791z"/>
		<path style="fill:#062438;" d="M128.53,155.001v-2.121h2.661v2.121H128.53z M128.57,167.204v-10.422h2.601v10.422H128.57z"/>
		<path style="fill:#062438;" d="M138.571,167.204h-2.04l-3.841-10.422h2.74l2.121,6.441l2.101-6.441h2.74L138.571,167.204z"/>
		<path style="fill:#062438;" d="M145.772,162.803c0,1.34,0.82,2.32,2.28,2.32c1.141,0,1.7-0.32,2.36-0.98l1.58,1.54
			c-1.06,1.061-2.08,1.641-3.96,1.641c-2.461,0-4.821-1.12-4.821-5.341c0-3.401,1.84-5.321,4.541-5.321
			c2.9,0,4.541,2.121,4.541,4.981v1.16H145.772z M149.493,159.902c-0.28-0.62-0.86-1.08-1.74-1.08c-0.881,0-1.461,0.46-1.74,1.08
			c-0.16,0.38-0.221,0.66-0.24,1.121h3.961C149.713,160.562,149.653,160.282,149.493,159.902z"/>
		<path style="fill:#062438;" d="M158.112,167.324c-1.641,0-3.12-0.18-4.44-1.5l1.7-1.7c0.86,0.86,1.98,0.98,2.78,0.98
			c0.9,0,1.841-0.3,1.841-1.08c0-0.52-0.28-0.88-1.101-0.96l-1.641-0.16c-1.88-0.18-3.04-1-3.04-2.921c0-2.16,1.9-3.321,4.021-3.321
			c1.62,0,2.98,0.28,3.98,1.221l-1.6,1.62c-0.601-0.54-1.521-0.7-2.421-0.7c-1.04,0-1.48,0.48-1.48,1c0,0.38,0.16,0.82,1.08,0.9
			l1.641,0.16c2.061,0.2,3.101,1.3,3.101,3.061C162.533,166.224,160.573,167.324,158.112,167.324z"/>
		<path style="fill:#062438;" d="M60.812,191.324c-1.641,0-3.12-0.18-4.44-1.5l1.7-1.7c0.86,0.86,1.98,0.98,2.78,0.98
			c0.9,0,1.841-0.3,1.841-1.08c0-0.52-0.28-0.88-1.101-0.96l-1.641-0.16c-1.88-0.18-3.04-1-3.04-2.921c0-2.16,1.9-3.321,4.021-3.321
			c1.62,0,2.98,0.28,3.98,1.221l-1.6,1.62c-0.601-0.54-1.521-0.7-2.421-0.7c-1.04,0-1.48,0.48-1.48,1c0,0.38,0.16,0.82,1.08,0.9
			l1.641,0.16c2.061,0.2,3.101,1.3,3.101,3.061C65.233,190.224,63.273,191.324,60.812,191.324z"/>
		<path style="fill:#062438;" d="M73.413,191.204v-0.96c-0.681,0.72-1.641,1.081-2.601,1.081c-1.04,0-1.881-0.34-2.461-0.92
			c-0.84-0.84-1.061-1.82-1.061-2.96v-6.662h2.601v6.301c0,1.42,0.9,1.9,1.721,1.9s1.74-0.48,1.74-1.9v-6.301h2.601v10.422H73.413z"
			/>
		<path style="fill:#062438;" d="M84.532,183.622c-0.399-0.4-0.739-0.62-1.38-0.62c-0.8,0-1.681,0.6-1.681,1.92v6.281h-2.601
			v-10.422h2.541v1c0.5-0.6,1.5-1.121,2.62-1.121c1.021,0,1.74,0.26,2.461,0.98L84.532,183.622z"/>
		<path style="fill:#062438;" d="M98.252,179.441v11.763h-2.78v-11.763h-3.721v-2.48h10.222v2.48H98.252z"/>
		<path style="fill:#062438;" d="M113.714,191.204h-2.141l-2.181-6.542l-2.181,6.542h-2.141l-3.2-10.422h2.761l1.68,6.441
			l2.121-6.441h1.9l2.141,6.441l1.68-6.441h2.741L113.714,191.204z"/>
		<path style="fill:#062438;" d="M118.391,179.001v-2.121h2.661v2.121H118.391z M118.431,191.204v-10.422h2.601v10.422H118.431z"/>
		<path style="fill:#062438;" d="M127.191,191.204c-2.12,0-3.021-1.5-3.021-2.98v-5.161h-1.1v-1.98h1.1v-3.081h2.601v3.081h1.841
			v1.98h-1.841v5.001c0,0.6,0.28,0.94,0.9,0.94h0.94v2.201H127.191z"/>
		<path style="fill:#062438;" d="M134.231,191.204c-2.12,0-3.021-1.5-3.021-2.98v-5.161h-1.1v-1.98h1.1v-3.081h2.601v3.081h1.841
			v1.98h-1.841v5.001c0,0.6,0.28,0.94,0.9,0.94h0.94v2.201H134.231z"/>
		<path style="fill:#062438;" d="M139.991,186.803c0,1.34,0.82,2.32,2.28,2.32c1.141,0,1.7-0.32,2.36-0.98l1.58,1.54
			c-1.06,1.061-2.08,1.641-3.96,1.641c-2.461,0-4.821-1.12-4.821-5.341c0-3.401,1.84-5.321,4.541-5.321
			c2.9,0,4.541,2.121,4.541,4.981v1.16H139.991z M143.712,183.902c-0.28-0.62-0.86-1.08-1.74-1.08c-0.881,0-1.461,0.46-1.74,1.08
			c-0.16,0.38-0.221,0.66-0.24,1.121h3.961C143.932,184.562,143.872,184.282,143.712,183.902z"/>
		<path style="fill:#062438;" d="M154.571,183.622c-0.399-0.4-0.739-0.62-1.38-0.62c-0.8,0-1.681,0.6-1.681,1.92v6.281h-2.601
			v-10.422h2.541v1c0.5-0.6,1.5-1.121,2.62-1.121c1.021,0,1.74,0.26,2.461,0.98L154.571,183.622z"/>
	</g>
	<circle style="fill:#3C6C8C;" cx="64.592" cy="235.528" r="8.528"/>
	<circle style="fill:#99C6E4;" cx="64.592" cy="279.671" r="8.528"/>
	<circle style="fill:#9DB6C6;" cx="64.592" cy="257.599" r="8.528"/>
	<g>
		<path style="fill:#666666;" d="M78.462,238.851l0.312-2.351h-0.995v-0.708h1.104l0.228-1.739h-1.043v-0.707h1.14l0.312-2.291
			h0.708l-0.312,2.291h1.259l0.3-2.291h0.708l-0.3,2.291h0.983v0.707h-1.091l-0.216,1.739h1.031v0.708h-1.139l-0.312,2.351h-0.719
			l0.312-2.351h-1.247l-0.3,2.351H78.462z M80.836,235.792l0.228-1.739h-1.248l-0.228,1.739H80.836z"/>
		<path style="fill:#666666;" d="M85.349,231.415c0,0.359-0.252,0.647-0.671,0.647c-0.384,0-0.636-0.288-0.636-0.647
			c0-0.36,0.264-0.66,0.66-0.66C85.085,230.755,85.349,231.043,85.349,231.415z M84.174,238.851v-5.805h1.056v5.805H84.174z"/>
		<path style="fill:#666666;" d="M86.982,234.617c0-0.612-0.012-1.092-0.048-1.571h0.936l0.06,0.959h0.024
			c0.288-0.539,0.959-1.079,1.919-1.079c0.803,0,2.051,0.479,2.051,2.471v3.454h-1.056v-3.346c0-0.936-0.348-1.716-1.343-1.716
			c-0.684,0-1.223,0.492-1.415,1.08c-0.048,0.132-0.072,0.312-0.072,0.491v3.49h-1.056V234.617z"/>
		<path style="fill:#666666;" d="M94.866,231.654v1.392h1.511v0.804h-1.511v3.13c0,0.72,0.204,1.128,0.792,1.128
			c0.288,0,0.456-0.024,0.611-0.072l0.048,0.804c-0.204,0.071-0.528,0.144-0.936,0.144c-0.492,0-0.888-0.168-1.14-0.443
			c-0.288-0.324-0.408-0.84-0.408-1.523v-3.166h-0.899v-0.804h0.899v-1.079L94.866,231.654z"/>
		<path style="fill:#666666;" d="M98.082,236.14c0.024,1.428,0.923,2.016,1.991,2.016c0.755,0,1.223-0.132,1.607-0.3l0.192,0.755
			c-0.372,0.168-1.019,0.372-1.943,0.372c-1.787,0-2.854-1.188-2.854-2.938s1.032-3.118,2.723-3.118
			c1.907,0,2.399,1.655,2.399,2.723c0,0.216-0.012,0.372-0.036,0.491H98.082z M101.176,235.385c0.012-0.66-0.276-1.703-1.463-1.703
			c-1.08,0-1.535,0.972-1.619,1.703H101.176z"/>
		<path style="fill:#666666;" d="M103.505,234.856c0-0.684-0.012-1.271-0.048-1.811h0.923l0.048,1.151h0.036
			c0.264-0.779,0.912-1.271,1.619-1.271c0.108,0,0.192,0.012,0.288,0.024v0.995c-0.108-0.024-0.216-0.024-0.36-0.024
			c-0.744,0-1.271,0.552-1.416,1.344c-0.024,0.144-0.036,0.323-0.036,0.491v3.095h-1.056V234.856z"/>
		<path style="fill:#666666;" d="M108.137,233.046l1.14,3.25c0.192,0.54,0.348,1.02,0.468,1.499h0.036
			c0.132-0.479,0.3-0.959,0.492-1.499l1.127-3.25h1.104l-2.279,5.805h-1.007l-2.207-5.805H108.137z"/>
		<path style="fill:#666666;" d="M113.969,236.14c0.024,1.428,0.923,2.016,1.991,2.016c0.755,0,1.223-0.132,1.607-0.3l0.192,0.755
			c-0.372,0.168-1.019,0.372-1.943,0.372c-1.787,0-2.854-1.188-2.854-2.938s1.032-3.118,2.723-3.118
			c1.907,0,2.399,1.655,2.399,2.723c0,0.216-0.012,0.372-0.036,0.491H113.969z M117.063,235.385c0.012-0.66-0.276-1.703-1.463-1.703
			c-1.08,0-1.535,0.972-1.619,1.703H117.063z"/>
		<path style="fill:#666666;" d="M119.393,234.617c0-0.612-0.012-1.092-0.048-1.571h0.936l0.06,0.959h0.024
			c0.288-0.539,0.959-1.079,1.919-1.079c0.803,0,2.051,0.479,2.051,2.471v3.454h-1.056v-3.346c0-0.936-0.348-1.716-1.343-1.716
			c-0.684,0-1.223,0.492-1.415,1.08c-0.048,0.132-0.072,0.312-0.072,0.491v3.49h-1.056V234.617z"/>
		<path style="fill:#666666;" d="M130.13,237.459c0,0.504,0.024,0.996,0.084,1.392h-0.947l-0.084-0.731h-0.036
			c-0.324,0.456-0.947,0.863-1.775,0.863c-1.175,0-1.775-0.827-1.775-1.667c0-1.403,1.247-2.171,3.49-2.159v-0.119
			c0-0.468-0.132-1.344-1.319-1.332c-0.551,0-1.115,0.156-1.523,0.432l-0.24-0.707c0.479-0.3,1.188-0.504,1.919-0.504
			c1.775,0,2.207,1.211,2.207,2.362V237.459z M129.111,235.889c-1.151-0.024-2.459,0.18-2.459,1.307
			c0,0.695,0.456,1.008,0.983,1.008c0.768,0,1.259-0.479,1.427-0.972c0.036-0.12,0.048-0.24,0.048-0.336V235.889z"/>
		<path style="fill:#666666;" d="M131.837,234.617c0-0.612-0.012-1.092-0.048-1.571h0.936l0.06,0.959h0.024
			c0.288-0.539,0.959-1.079,1.919-1.079c0.803,0,2.051,0.479,2.051,2.471v3.454h-1.056v-3.346c0-0.936-0.348-1.716-1.343-1.716
			c-0.684,0-1.223,0.492-1.415,1.08c-0.048,0.132-0.072,0.312-0.072,0.491v3.49h-1.056V234.617z"/>
		<path style="fill:#666666;" d="M139.721,231.654v1.392h1.511v0.804h-1.511v3.13c0,0.72,0.204,1.128,0.792,1.128
			c0.288,0,0.456-0.024,0.612-0.072l0.048,0.804c-0.204,0.071-0.528,0.144-0.936,0.144c-0.492,0-0.888-0.168-1.14-0.443
			c-0.288-0.324-0.408-0.84-0.408-1.523v-3.166h-0.899v-0.804h0.899v-1.079L139.721,231.654z"/>
		<path style="fill:#666666;" d="M78.462,260.851l0.312-2.351h-0.995v-0.708h1.104l0.228-1.739h-1.043v-0.707h1.14l0.312-2.291
			h0.708l-0.312,2.291h1.259l0.3-2.291h0.708l-0.3,2.291h0.983v0.707h-1.091l-0.216,1.739h1.031v0.708h-1.139l-0.312,2.351h-0.719
			l0.312-2.351h-1.247l-0.3,2.351H78.462z M80.836,257.792l0.228-1.739h-1.248l-0.228,1.739H80.836z"/>
		<path style="fill:#666666;" d="M85.445,253.654v1.392h1.511v0.804h-1.511v3.13c0,0.72,0.204,1.128,0.792,1.128
			c0.288,0,0.456-0.024,0.612-0.072l0.048,0.804c-0.204,0.071-0.528,0.144-0.936,0.144c-0.492,0-0.888-0.168-1.14-0.443
			c-0.288-0.324-0.408-0.84-0.408-1.523v-3.166h-0.899v-0.804h0.899v-1.079L85.445,253.654z"/>
		<path style="fill:#666666;" d="M88.146,252.335h1.056v3.635h0.024c0.168-0.3,0.432-0.576,0.755-0.756
			c0.312-0.18,0.684-0.288,1.08-0.288c0.779,0,2.027,0.479,2.027,2.471v3.454h-1.056v-3.334c0-0.936-0.348-1.715-1.343-1.715
			c-0.684,0-1.211,0.479-1.415,1.043c-0.06,0.156-0.072,0.312-0.072,0.504v3.502h-1.056V252.335z"/>
		<path style="fill:#666666;" d="M95.394,258.14c0.024,1.428,0.923,2.016,1.991,2.016c0.755,0,1.223-0.132,1.607-0.3l0.192,0.755
			c-0.372,0.168-1.019,0.372-1.943,0.372c-1.787,0-2.854-1.188-2.854-2.938s1.032-3.118,2.723-3.118
			c1.907,0,2.399,1.655,2.399,2.723c0,0.216-0.012,0.372-0.036,0.491H95.394z M98.488,257.385c0.012-0.66-0.276-1.703-1.463-1.703
			c-1.08,0-1.535,0.972-1.619,1.703H98.488z"/>
		<path style="fill:#666666;" d="M100.818,256.617c0-0.612-0.024-1.092-0.048-1.571h0.923l0.048,0.947h0.036
			c0.324-0.552,0.864-1.067,1.835-1.067c0.78,0,1.379,0.479,1.631,1.163h0.024c0.18-0.336,0.419-0.575,0.66-0.755
			c0.348-0.265,0.719-0.408,1.271-0.408c0.78,0,1.919,0.504,1.919,2.519v3.406h-1.031v-3.274c0-1.127-0.42-1.787-1.259-1.787
			c-0.612,0-1.067,0.444-1.259,0.948c-0.048,0.155-0.084,0.335-0.084,0.527v3.586h-1.031v-3.479c0-0.923-0.408-1.583-1.211-1.583
			c-0.648,0-1.14,0.528-1.308,1.056c-0.06,0.144-0.084,0.336-0.084,0.516v3.49h-1.031V256.617z"/>
		<path style="fill:#666666;" d="M111.414,258.14c0.024,1.428,0.923,2.016,1.991,2.016c0.755,0,1.223-0.132,1.607-0.3l0.192,0.755
			c-0.372,0.168-1.019,0.372-1.943,0.372c-1.787,0-2.854-1.188-2.854-2.938s1.032-3.118,2.723-3.118
			c1.907,0,2.399,1.655,2.399,2.723c0,0.216-0.012,0.372-0.036,0.491H111.414z M114.508,257.385c0.012-0.66-0.276-1.703-1.463-1.703
			c-1.08,0-1.535,0.972-1.619,1.703H114.508z"/>
		<path style="fill:#666666;" d="M78.462,282.851l0.312-2.351h-0.995v-0.708h1.104l0.228-1.739h-1.043v-0.707h1.14l0.312-2.291
			h0.708l-0.312,2.291h1.259l0.3-2.291h0.708l-0.3,2.291h0.983v0.707h-1.091l-0.216,1.739h1.031v0.708h-1.139l-0.312,2.351h-0.719
			l0.312-2.351h-1.247l-0.3,2.351H78.462z M80.836,279.792l0.228-1.739h-1.248l-0.228,1.739H80.836z"/>
		<path style="fill:#666666;" d="M88.312,282.646c-0.276,0.132-0.888,0.336-1.667,0.336c-1.751,0-2.891-1.188-2.891-2.962
			c0-1.787,1.224-3.095,3.119-3.095c0.624,0,1.175,0.156,1.463,0.312l-0.24,0.804c-0.252-0.132-0.647-0.275-1.223-0.275
			c-1.332,0-2.051,0.995-2.051,2.194c0,1.344,0.864,2.171,2.015,2.171c0.6,0,0.996-0.144,1.295-0.275L88.312,282.646z"/>
		<path style="fill:#666666;" d="M94.731,279.9c0,2.146-1.499,3.082-2.89,3.082c-1.559,0-2.783-1.151-2.783-2.986
			c0-1.931,1.284-3.07,2.878-3.07C93.604,276.926,94.731,278.137,94.731,279.9z M90.138,279.96c0,1.271,0.72,2.231,1.751,2.231
			c1.007,0,1.763-0.948,1.763-2.255c0-0.983-0.492-2.219-1.739-2.219C90.677,277.718,90.138,278.869,90.138,279.96z"/>
		<path style="fill:#666666;" d="M96.066,278.617c0-0.612-0.012-1.092-0.048-1.571h0.936l0.06,0.959h0.024
			c0.288-0.539,0.959-1.079,1.919-1.079c0.803,0,2.051,0.479,2.051,2.471v3.454h-1.056v-3.346c0-0.936-0.348-1.716-1.343-1.716
			c-0.684,0-1.223,0.492-1.415,1.08c-0.048,0.132-0.072,0.312-0.072,0.491v3.49h-1.056V278.617z"/>
		<path style="fill:#666666;" d="M103.949,275.654v1.392h1.511v0.804h-1.511v3.13c0,0.72,0.204,1.128,0.792,1.128
			c0.288,0,0.456-0.024,0.611-0.072l0.048,0.804c-0.204,0.071-0.528,0.144-0.936,0.144c-0.492,0-0.888-0.168-1.14-0.443
			c-0.288-0.324-0.408-0.84-0.408-1.523v-3.166h-0.899v-0.804h0.899v-1.079L103.949,275.654z"/>
		<path style="fill:#666666;" d="M107.165,280.14c0.024,1.428,0.923,2.016,1.991,2.016c0.755,0,1.223-0.132,1.607-0.3l0.192,0.755
			c-0.372,0.168-1.019,0.372-1.943,0.372c-1.787,0-2.854-1.188-2.854-2.938s1.032-3.118,2.723-3.118
			c1.907,0,2.399,1.655,2.399,2.723c0,0.216-0.012,0.372-0.036,0.491H107.165z M110.259,279.385c0.012-0.66-0.276-1.703-1.463-1.703
			c-1.079,0-1.535,0.972-1.619,1.703H110.259z"/>
		<path style="fill:#666666;" d="M112.589,278.617c0-0.612-0.012-1.092-0.048-1.571h0.936l0.06,0.959h0.024
			c0.288-0.539,0.959-1.079,1.919-1.079c0.803,0,2.051,0.479,2.051,2.471v3.454h-1.056v-3.346c0-0.936-0.348-1.716-1.343-1.716
			c-0.684,0-1.223,0.492-1.415,1.08c-0.048,0.132-0.072,0.312-0.072,0.491v3.49h-1.056V278.617z"/>
		<path style="fill:#666666;" d="M124.106,281.256c0,0.611,0.012,1.139,0.048,1.595h-0.936l-0.06-0.947h-0.024
			c-0.264,0.468-0.887,1.079-1.919,1.079c-0.911,0-2.003-0.516-2.003-2.543v-3.394h1.056v3.202c0,1.104,0.348,1.859,1.295,1.859
			c0.708,0,1.199-0.492,1.391-0.972c0.06-0.145,0.096-0.336,0.096-0.54v-3.55h1.056V281.256z"/>
		<path style="fill:#666666;" d="M78.462,348.851l0.312-2.351h-0.995v-0.708h1.104l0.228-1.739h-1.043v-0.707h1.14l0.312-2.291
			h0.708l-0.312,2.291h1.259l0.3-2.291h0.708l-0.3,2.291h0.983v0.707h-1.091l-0.216,1.739h1.031v0.708h-1.139l-0.312,2.351h-0.719
			l0.312-2.351h-1.247l-0.3,2.351H78.462z M80.836,345.792l0.228-1.739h-1.248l-0.228,1.739H80.836z"/>
		<path style="fill:#666666;" d="M84.174,340.335h1.043v3.646h0.024c0.372-0.647,1.043-1.056,1.979-1.056
			c1.451,0,2.458,1.199,2.458,2.95c0,2.075-1.319,3.106-2.614,3.106c-0.84,0-1.511-0.324-1.955-1.079h-0.024l-0.06,0.947h-0.899
			c0.024-0.396,0.048-0.983,0.048-1.499V340.335z M85.217,346.523c0,0.133,0.012,0.265,0.048,0.384
			c0.192,0.732,0.816,1.235,1.583,1.235c1.115,0,1.763-0.899,1.763-2.23c0-1.163-0.6-2.159-1.739-2.159
			c-0.708,0-1.379,0.504-1.595,1.296c-0.036,0.132-0.06,0.275-0.06,0.443V346.523z"/>
		<path style="fill:#666666;" d="M92.177,341.415c0,0.359-0.252,0.647-0.671,0.647c-0.384,0-0.636-0.288-0.636-0.647
			c0-0.36,0.264-0.66,0.66-0.66C91.913,340.755,92.177,341.043,92.177,341.415z M91.001,348.851v-5.805h1.056v5.805H91.001z"/>
		<path style="fill:#666666;" d="M94.397,346.14c0.024,1.428,0.923,2.016,1.991,2.016c0.755,0,1.223-0.132,1.607-0.3l0.192,0.755
			c-0.372,0.168-1.019,0.372-1.943,0.372c-1.787,0-2.854-1.188-2.854-2.938s1.032-3.118,2.723-3.118
			c1.907,0,2.399,1.655,2.399,2.723c0,0.216-0.012,0.372-0.036,0.491H94.397z M97.492,345.385c0.012-0.66-0.276-1.703-1.463-1.703
			c-1.079,0-1.535,0.972-1.619,1.703H97.492z"/>
		<path style="fill:#666666;" d="M99.821,344.617c0-0.612-0.012-1.092-0.048-1.571h0.936l0.06,0.959h0.024
			c0.288-0.539,0.959-1.079,1.919-1.079c0.803,0,2.051,0.479,2.051,2.471v3.454h-1.056v-3.346c0-0.936-0.348-1.716-1.343-1.716
			c-0.684,0-1.223,0.492-1.415,1.08c-0.048,0.132-0.072,0.312-0.072,0.491v3.49h-1.056V344.617z"/>
		<path style="fill:#666666;" d="M78.462,370.851l0.312-2.351h-0.995v-0.708h1.104l0.228-1.739h-1.043v-0.707h1.14l0.312-2.291
			h0.708l-0.312,2.291h1.259l0.3-2.291h0.708l-0.3,2.291h0.983v0.707h-1.091l-0.216,1.739h1.031v0.708h-1.139l-0.312,2.351h-0.719
			l0.312-2.351h-1.247l-0.3,2.351H78.462z M80.836,367.792l0.228-1.739h-1.248l-0.228,1.739H80.836z"/>
		<path style="fill:#666666;" d="M84.174,366.617c0-0.612-0.012-1.092-0.048-1.571h0.936l0.06,0.959h0.024
			c0.288-0.539,0.959-1.079,1.919-1.079c0.803,0,2.051,0.479,2.051,2.471v3.454H88.06v-3.346c0-0.936-0.348-1.716-1.343-1.716
			c-0.684,0-1.223,0.492-1.415,1.08c-0.048,0.132-0.072,0.312-0.072,0.491v3.49h-1.056V366.617z"/>
		<path style="fill:#666666;" d="M95.691,369.256c0,0.611,0.012,1.139,0.048,1.595h-0.936l-0.06-0.947h-0.024
			c-0.264,0.468-0.887,1.079-1.919,1.079c-0.911,0-2.003-0.516-2.003-2.543v-3.394h1.056v3.202c0,1.104,0.348,1.859,1.295,1.859
			c0.708,0,1.199-0.492,1.391-0.972c0.06-0.145,0.096-0.336,0.096-0.54v-3.55h1.056V369.256z"/>
		<path style="fill:#666666;" d="M97.445,362.335h1.056v8.516h-1.056V362.335z"/>
		<path style="fill:#666666;" d="M78.462,392.851l0.312-2.351h-0.995v-0.708h1.104l0.228-1.739h-1.043v-0.707h1.14l0.312-2.291
			h0.708l-0.312,2.291h1.259l0.3-2.291h0.708l-0.3,2.291h0.983v0.707h-1.091l-0.216,1.739h1.031v0.708h-1.139l-0.312,2.351h-0.719
			l0.312-2.351h-1.247l-0.3,2.351H78.462z M80.836,389.792l0.228-1.739h-1.248l-0.228,1.739H80.836z"/>
		<path style="fill:#666666;" d="M84.174,388.617c0-0.612-0.012-1.092-0.048-1.571h0.936l0.06,0.959h0.024
			c0.288-0.539,0.959-1.079,1.919-1.079c0.803,0,2.051,0.479,2.051,2.471v3.454H88.06v-3.346c0-0.936-0.348-1.716-1.343-1.716
			c-0.684,0-1.223,0.492-1.415,1.08c-0.048,0.132-0.072,0.312-0.072,0.491v3.49h-1.056V388.617z"/>
		<path style="fill:#666666;" d="M91.421,390.14c0.024,1.428,0.923,2.016,1.991,2.016c0.755,0,1.223-0.132,1.607-0.3l0.192,0.755
			c-0.372,0.168-1.019,0.372-1.943,0.372c-1.787,0-2.854-1.188-2.854-2.938s1.032-3.118,2.723-3.118
			c1.907,0,2.399,1.655,2.399,2.723c0,0.216-0.012,0.372-0.036,0.491H91.421z M94.516,389.385c0.012-0.66-0.276-1.703-1.463-1.703
			c-1.08,0-1.535,0.972-1.619,1.703H94.516z"/>
		<path style="fill:#666666;" d="M101.703,391.256c0,0.611,0.012,1.139,0.048,1.595h-0.936l-0.06-0.947h-0.024
			c-0.264,0.468-0.887,1.079-1.919,1.079c-0.911,0-2.003-0.516-2.003-2.543v-3.394h1.056v3.202c0,1.104,0.348,1.859,1.295,1.859
			c0.708,0,1.199-0.492,1.391-0.972c0.06-0.145,0.096-0.336,0.096-0.54v-3.55h1.056V391.256z"/>
		<path style="fill:#666666;" d="M104.729,385.654v1.392h1.511v0.804h-1.511v3.13c0,0.72,0.204,1.128,0.792,1.128
			c0.288,0,0.456-0.024,0.612-0.072l0.048,0.804c-0.204,0.071-0.528,0.144-0.936,0.144c-0.492,0-0.888-0.168-1.14-0.443
			c-0.288-0.324-0.408-0.84-0.408-1.523v-3.166h-0.899v-0.804h0.899v-1.079L104.729,385.654z"/>
		<path style="fill:#666666;" d="M107.429,388.856c0-0.684-0.012-1.271-0.048-1.811h0.923l0.048,1.151h0.036
			c0.264-0.779,0.912-1.271,1.619-1.271c0.108,0,0.192,0.012,0.288,0.024v0.995c-0.108-0.024-0.216-0.024-0.36-0.024
			c-0.744,0-1.271,0.552-1.416,1.344c-0.024,0.144-0.036,0.323-0.036,0.491v3.095h-1.056V388.856z"/>
		<path style="fill:#666666;" d="M111.821,390.14c0.024,1.428,0.923,2.016,1.991,2.016c0.755,0,1.223-0.132,1.607-0.3l0.192,0.755
			c-0.372,0.168-1.019,0.372-1.943,0.372c-1.787,0-2.854-1.188-2.854-2.938s1.032-3.118,2.723-3.118
			c1.907,0,2.399,1.655,2.399,2.723c0,0.216-0.012,0.372-0.036,0.491H111.821z M114.915,389.385c0.012-0.66-0.276-1.703-1.463-1.703
			c-1.08,0-1.535,0.972-1.619,1.703H114.915z"/>
	</g>
	<circle style="fill:#6E1D6B;" cx="64.592" cy="344.528" r="8.528"/>
	<circle style="fill:#D4A9D2;" cx="64.592" cy="388.671" r="8.528"/>
	<circle style="fill:#A952A5;" cx="64.592" cy="366.599" r="8.528"/>
	<g>
		<path style="fill:#FFFFFF;" d="M406.202,282.998v-9.155l-2.321,2.017v-2.241l2.321-2.017h2.081v11.396H406.202z"/>
	</g>
	<g>
		<path style="fill:#FFFFFF;" d="M462.165,145.005v-1.873l4.258-4.945c0.416-0.497,0.593-0.849,0.593-1.377
			c0-0.849-0.496-1.425-1.377-1.425c-0.688,0-1.393,0.353-1.393,1.457h-2.081c0-2.081,1.521-3.329,3.474-3.329
			c2.017,0,3.457,1.264,3.457,3.312c0,1.104-0.432,1.697-1.217,2.609l-3.185,3.697h4.401v1.873H462.165z"/>
	</g>
	<g>
		<path style="fill:#FFFFFF;" d="M609.05,148.101c-1.856,0-3.602-0.976-3.634-3.361h2.081c0.032,1.024,0.736,1.489,1.553,1.489
			c0.896,0,1.536-0.561,1.536-1.585c0-0.944-0.576-1.568-1.6-1.568h-0.305v-1.809h0.305c1.008,0,1.439-0.625,1.439-1.425
			c0-0.961-0.64-1.457-1.393-1.457c-0.783,0-1.359,0.513-1.408,1.377h-2.08c0.047-2.033,1.568-3.249,3.488-3.249
			c2.018,0,3.475,1.344,3.475,3.265c0,1.232-0.561,1.937-1.312,2.337c0.816,0.433,1.473,1.217,1.473,2.594
			C612.668,146.981,611.002,148.101,609.05,148.101z"/>
	</g>
	<g>
		<path style="fill:#FFFFFF;" d="M64.561,238.9v-6.316l-1.329,1.169v-0.82l1.329-1.149h0.72v7.116H64.561z"/>
	</g>
	<g>
		<path style="fill:#FFFFFF;" d="M62.586,261.167v-0.64l2.809-3.568c0.27-0.35,0.399-0.66,0.399-1.05
			c0-0.77-0.459-1.279-1.239-1.279c-0.66,0-1.239,0.37-1.239,1.29h-0.72c0-1.12,0.77-1.929,1.959-1.929
			c1.169,0,1.959,0.75,1.959,1.919c0,0.57-0.18,0.94-0.57,1.439l-2.488,3.178h3.058v0.64H62.586z"/>
	</g>
	<g>
		<path style="fill:#FFFFFF;" d="M64.416,283.068c-1.12,0-2.029-0.589-2.089-1.879h0.719c0.06,0.89,0.69,1.239,1.37,1.239
			c0.77,0,1.369-0.51,1.369-1.379c0-0.86-0.43-1.379-1.399-1.379h-0.15v-0.63h0.15c0.87,0,1.27-0.49,1.27-1.289
			c0-0.85-0.55-1.299-1.239-1.299c-0.75,0-1.209,0.46-1.279,1.189h-0.72c0.08-1.149,0.919-1.829,1.999-1.829
			c1.159,0,1.959,0.77,1.959,1.929c0,0.75-0.32,1.29-0.959,1.58c0.719,0.27,1.089,0.849,1.089,1.739
			C66.504,282.368,65.575,283.068,64.416,283.068z"/>
	</g>
	<path style="fill:#FFFFFF;" d="M67,345.366v-2.802c0-0.214-0.464-0.564-0.677-0.564h-2.802c-0.213,0-0.387,0.286-0.387,0.5
		s0.173,0.5,0.387,0.5h1.937l-2.722,2.698c-0.132,0.132-0.132,0.333,0,0.466c0.132,0.132,0.378,0.125,0.509-0.006L66,343.429v1.938
		c0,0.106,0.011,0.203,0.081,0.273c0.07,0.069,0.296,0.112,0.403,0.112C66.698,345.752,67,345.579,67,345.366z"/>
	<path style="fill:#FFFFFF;" d="M63.497,369h3.049c0.232,0,0.454,0.09,0.454-0.143v-3.049c0-0.232-0.268-0.421-0.5-0.421
		c-0.232,0-0.5,0.188-0.5,0.421v2.108l-2.9-2.963c-0.144-0.144-0.345-0.144-0.489,0s-0.128,0.158,0.015,0.301L65.605,368h-2.108
		c-0.116,0-0.221,0.266-0.297,0.342c-0.076,0.075-0.123,0.151-0.124,0.268C63.077,368.842,63.265,369,63.497,369z"/>
	<circle style="fill:#FFFFFF;" cx="323.539" cy="279.273" r="5.539"/>
	<circle style="fill:#FFFFFF;" cx="403.539" cy="125.273" r="5.539"/>
	<circle style="fill:#FFFFFF;" cx="602.539" cy="86.273" r="5.539"/>
	<circle style="fill:#FFFFFF;" cx="64.539" cy="388.273" r="2.427"/>
</g>
</svg>
