<?xml version="1.0" encoding="utf-8"?>
<!-- Generator: Adobe Illustrator 15.0.0, SVG Export Plug-In . SVG Version: 6.00 Build 0)  -->
<!DOCTYPE svg PUBLIC "-//W3C//DTD SVG 1.1//EN" "http://www.w3.org/Graphics/SVG/1.1/DTD/svg11.dtd">
<svg version="1.1" id="Calque_1" xmlns="http://www.w3.org/2000/svg" xmlns:xlink="http://www.w3.org/1999/xlink" x="0px" y="0px"
	 width="800px" height="600px" viewBox="0 0 800 600" enable-background="new 0 0 800 600" xml:space="preserve">
<rect x="-1" y="1" fill="#E6E6E6" width="800" height="600"/>
<text transform="matrix(1 0 0 1 231 558.834)" fill="#3C3C3B" font-family="'Helvetica-Bold'" font-size="12">POSITIF ________________________________NÉGATIF</text>
<text transform="matrix(1 0 0 1 123 492.834)" fill="#3C3C3B" font-family="'Helvetica-Bold'" font-size="10">GO__________________________________________________________________________________________________________ </text>
<text transform="matrix(1 0 0 1 174.667 537.168)" fill="#3C3C3B" font-family="'Helvetica-Bold'" font-size="9">#àvoir</text>
<text transform="matrix(1 0 0 1 155.0005 527.168)" fill="#3C3C3B" font-family="'Helvetica-Bold'" font-size="9">#ok</text>
<text transform="matrix(1 0 0 1 127.3335 538.168)" fill="#3C3C3B" font-family="'Helvetica-Bold'" font-size="9">#cool</text>
<text transform="matrix(1 0 0 1 629.167 536.668)" fill="#3C3C3B" font-family="'Helvetica-Bold'" font-size="9">#nul</text>
<text transform="matrix(1 0 0 1 604.25 526.668)" fill="#3C3C3B" font-family="'Helvetica-Bold'" font-size="9">#???</text>
<text transform="matrix(1 0 0 1 580.834 537.668)" fill="#3C3C3B" font-family="'Helvetica-Bold'" font-size="9">#old</text>
<rect id="_x3C_Tranche_x3E_" y="2.833" fill="none" width="800" height="598"/>
<rect id="_x3C_Tranche_x3E__1_" y="2.833" fill="none" width="800" height="597"/>
<text transform="matrix(1 0 0 1 20.6118 35.7852)" fill="#1D1D1B" font-family="'Helvetica-Bold'" font-size="14">TWITTER + CONFÉRENCE </text>
<text transform="matrix(1 0 0 1 32.4336 52.5859)" fill="#1D1D1B" font-family="'Helvetica-Bold'" font-size="14"> AMBIANCE GLOBALE</text>
<polygon fill="#CB9998" points="470.344,424.896 493.844,412.99 470.011,402.385 446.511,414.271 "/>
<polygon fill="#CB9998" points="494.013,412.928 517.513,401.021 493.68,390.418 470.18,402.303 "/>
<polygon fill="#EB6568" points="470.055,402.252 493.555,390.346 469.722,379.74 446.222,391.627 "/>
<polygon fill="none" points="423.543,471.396 447.021,459.459 423.188,448.834 399.751,460.75 "/>
<polygon fill="#F6E72D" points="257.262,464.596 280.74,452.658 256.906,442.033 233.47,453.949 "/>
<polygon fill="#F6E72D" points="280.834,452.646 304.313,440.709 280.479,430.084 257.042,442 "/>
<polygon fill="#F6E72D" points="163.897,580.197 187.375,568.26 163.578,557.646 140.105,569.553 "/>
<polygon fill="#CB9998" points="163.584,557.572 187.063,545.635 163.266,535.02 139.792,546.926 "/>
<polygon fill="#EB6568" points="140.022,569.529 163.5,557.592 139.703,546.979 116.23,558.885 "/>
<line fill="none" stroke="#3C3C3B" stroke-width="0.3" stroke-miterlimit="10" x1="137.667" y1="560.5" x2="137.667" y2="541.168"/>
<line fill="none" stroke="#1D1D1B" stroke-width="0.3" stroke-miterlimit="10" x1="162.333" y1="545.166" x2="162.333" y2="532.168"/>
<polygon fill="#F39639" points="187.449,568.27 210.928,556.332 187.13,545.717 163.657,557.623 "/>
<line fill="none" stroke="#1D1D1B" stroke-width="0.3" stroke-miterlimit="10" x1="186.333" y1="558.5" x2="186.333" y2="539.168"/>
<line fill="none" stroke="#1D1D1B" stroke-width="0.3" stroke-miterlimit="10" x1="162.083" y1="566.166" x2="162.083" y2="553.168"/>
<text transform="matrix(1 0 0 1 154.3335 551.168)" fill="#3C3C3B" font-family="'Helvetica-Bold'" font-size="9">#++</text>
<polygon fill="#32245E" points="614.969,579.24 638.344,567.428 614.744,556.812 591.271,568.719 "/>
<polygon fill="#98CB98" points="614.751,556.738 638.229,544.801 614.433,534.188 590.959,546.094 "/>
<polygon fill="#986714" points="591.188,568.697 614.667,556.76 590.87,546.145 567.396,558.051 "/>
<polygon fill="#989899" points="638.5,567.334 661.979,555.396 638.182,544.781 614.709,556.688 "/>
<text transform="matrix(1 0 0 1 602.584 550.418)" fill="#3C3C3B" font-family="'Helvetica-Bold'" font-size="9">#Zzz</text>
<line fill="none" stroke="#1D1D1B" stroke-width="0.3" stroke-miterlimit="10" x1="612.584" y1="565.666" x2="612.584" y2="552.668"/>
<line fill="none" stroke="#1D1D1B" stroke-width="0.3" stroke-miterlimit="10" x1="636.834" y1="558" x2="636.834" y2="538.668"/>
<line fill="none" stroke="#1D1D1B" stroke-width="0.3" stroke-miterlimit="10" x1="612.834" y1="542.666" x2="612.834" y2="529.668"/>
<line fill="none" stroke="#3C3C3B" stroke-width="0.3" stroke-miterlimit="10" x1="588.166" y1="560" x2="588.166" y2="540.668"/>
<polygon fill="#EB6568" points="586.26,229.448 609.635,217.635 586.035,207.021 562.562,218.927 "/>
<polygon fill="#EB6568" points="586.021,206.896 609.418,195.022 585.709,184.418 562.271,196.314 "/>
<polygon fill="#EB6568" points="562.479,218.905 585.958,206.967 562.161,196.353 538.688,208.259 "/>
<polygon fill="#EB6568" points="538.188,185.542 561.585,173.668 537.876,163.064 514.439,174.96 "/>
<polygon fill="#EB6568" points="514.646,197.551 538.125,185.613 514.328,174.999 490.854,186.905 "/>
<polygon fill="#32245E" points="514.938,220.083 538.335,208.209 514.626,197.606 491.189,209.501 "/>
<polygon fill="#32245E" points="491.396,232.092 514.875,220.155 491.078,209.541 467.604,221.447 "/>
<polygon fill="#EB6568" points="585.73,184.25 609.127,172.376 585.418,161.773 561.981,173.668 "/>
<polygon fill="#98CB98" points="585.333,161.688 608.729,149.813 585.021,139.21 561.584,151.105 "/>
<polygon fill="#F39639" points="561.44,151 584.837,139.126 561.128,128.522 537.691,140.418 "/>
<polygon fill="#F39639" points="537.898,163.009 561.377,151.071 537.58,140.457 514.106,152.363 "/>
<polygon fill="#98CB98" points="537.562,140.38 561.062,128.474 537.24,117.845 513.804,129.741 "/>
<polygon fill="#F39639" points="537.238,117.729 560.635,105.855 536.926,95.251 513.489,107.147 "/>
<polygon fill="#F39639" points="513.696,129.738 537.175,117.8 513.378,107.186 489.904,119.092 "/>
<polygon fill="#F39639" points="536.948,95.104 560.345,83.23 536.636,72.626 513.199,84.522 "/>
<polygon fill="#EB6568" points="513.093,84.469 536.489,72.595 512.78,61.991 489.344,73.887 "/>
<polygon fill="#EB6568" points="513.385,107.073 536.781,95.199 513.072,84.595 489.636,96.491 "/>
<polygon fill="#98CB98" points="608.676,127.094 632.072,115.22 608.363,104.616 584.927,116.512 "/>
<polygon fill="#EB6568" points="443.604,210.75 467.062,198.88 443.312,188.25 419.838,200.156 "/>
<polygon fill="#32245E" points="228.271,92.176 251.687,80.272 227.958,69.709 204.563,81.563 "/>
<polygon fill="#32245E" points="228.605,114.759 252.02,102.855 228.292,92.292 204.792,104.188 "/>
<polygon fill="#32245E" points="181.48,138.655 204.895,126.751 181.167,116.188 157.667,128.083 "/>
<polygon fill="#32245E" points="253.771,215.884 277.187,203.98 253.458,193.417 229.958,205.312 "/>
<polygon fill="#32245E" points="207.107,285 230.504,273.126 206.795,262.522 183.358,274.418 "/>
<polygon fill="#32245E" points="183.708,296.938 207.044,285.072 183.247,274.457 159.959,286.312 "/>
<polygon fill="#32245E" points="183.354,274.36 206.854,262.454 183.032,251.825 159.596,263.72 "/>
<polygon fill="#EB6568" points="420.885,290.427 444.26,278.614 420.66,268 397.188,279.906 "/>
<polygon fill="#EB6568" points="420.646,267.875 444.043,256.001 420.334,245.397 396.897,257.293 "/>
<polygon fill="#EB6568" points="397.104,279.884 420.583,267.946 396.786,257.332 373.312,269.238 "/>
<polygon fill="#CB9998" points="468.447,289.167 491.822,277.354 468.223,266.74 444.75,278.646 "/>
<polygon fill="#CB9998" points="468.093,266.587 491.489,254.713 467.78,244.11 444.344,256.005 "/>
<polygon fill="#CB9998" points="444.537,278.62 468.016,266.682 444.219,256.068 420.745,267.974 "/>
<polygon fill="#F6E72D" points="444.219,255.958 467.615,244.084 443.787,233.491 420.365,245.366 "/>
<polygon fill="#32245E" points="492.565,322.459 515.962,310.586 492.359,300.005 468.816,311.877 "/>
<polygon fill="#32245E" points="468.703,311.865 492.203,299.958 468.381,289.33 444.944,301.225 "/>
<polygon fill="#EB6568" points="516.438,333.104 539.812,321.291 516.212,310.678 492.739,322.584 "/>
<polygon fill="#EB6568" points="396.78,257.167 420.154,245.354 396.556,234.74 373.083,246.646 "/>
<polygon fill="#F39639" points="372.905,246.542 396.28,234.729 372.681,224.115 349.208,236.021 "/>
<polygon fill="#F39639" points="302.119,282.307 325.578,270.552 301.895,259.88 278.422,271.787 "/>
<polygon fill="#F39639" points="301.896,259.823 325.292,247.949 301.583,237.345 278.147,249.241 "/>
<polygon fill="#F39639" points="278.225,271.792 301.703,259.854 277.906,249.24 254.433,261.146 "/>
<polygon fill="#F39639" points="325.557,247.833 348.953,235.958 325.125,225.365 301.703,237.24 "/>
<polygon fill="#F6E72D" points="279.229,339.541 302.667,327.666 278.86,317.076 255.422,328.975 "/>
<polygon fill="#F6E72D" points="278.922,316.943 302.318,305.07 278.609,294.466 255.173,306.361 "/>
<polygon fill="#F6E72D" points="255.271,328.943 278.75,317.006 254.933,306.439 231.479,318.297 "/>
<polygon fill="#F6E72D" points="302.525,305.004 325.922,293.13 302.094,282.537 278.672,294.412 "/>
<polygon fill="#F6E72D" points="350.078,303.717 373.475,291.843 349.646,281.25 326.225,293.125 "/>
<polygon fill="#F6E72D" points="278.697,294.317 302.094,282.443 278.266,271.849 254.844,283.724 "/>
<polygon fill="#F6E72D" points="349.65,281.129 373.109,269.255 349.312,258.615 325.797,270.537 "/>
<polygon fill="#F6E72D" points="325.75,270.474 349.219,258.568 325.391,247.974 301.969,259.849 "/>
<polygon fill="#F6E72D" points="301.546,237.192 325.005,225.318 301.208,214.677 277.693,226.599 "/>
<polygon fill="#EB6568" points="348.729,213.282 372.188,201.412 348.375,190.802 324.963,202.688 "/>
<polygon fill="#F6E72D" points="395.562,166.787 418.959,154.913 395.131,144.319 371.709,156.194 "/>
<polygon fill="#F6E72D" points="418.49,109.646 441.887,97.772 418.059,87.179 394.636,99.054 "/>
<polygon fill="#CB9998" points="300.021,124.115 323.417,112.241 299.589,101.647 276.167,113.522 "/>
<polygon fill="#F39639" points="588.068,365.074 611.527,353.318 587.844,342.646 564.371,354.553 "/>
<polygon fill="#F39639" points="587.938,342.49 611.188,330.709 587.594,320.053 564.219,331.928 "/>
<polygon fill="#F6E72D" points="611.5,330.615 634.875,318.74 611.156,308.084 587.75,319.99 "/>
<polygon fill="#F39639" points="611.812,353.146 635.156,341.334 611.5,330.803 588.156,342.553 "/>
<polygon fill="#EB6568" points="587.465,319.824 611.021,308.1 587.226,297.459 563.697,309.23 "/>
<polygon fill="#98CB98" points="588.505,387.646 611.964,375.891 588.28,365.219 564.808,377.125 "/>
<polygon fill="#CB9998" points="492.322,299.812 515.697,288 492.098,277.386 468.625,289.292 "/>
<polygon fill="#986714" points="327.031,360.912 350.469,349.037 326.703,338.428 303.266,350.271 "/>
<polygon fill="#F6E72D" points="303.479,372.9 326.958,360.963 303.125,350.334 279.688,362.254 "/>
<polygon fill="#F6E72D" points="350.578,348.959 374.062,337.037 350.234,326.443 326.75,338.365 "/>
<polygon fill="#F6E72D" points="326.733,338.322 350.188,326.412 326.302,315.854 302.88,327.729 "/>
<polygon fill="#986714" points="350.906,371.568 374.344,359.693 350.578,349.084 327.141,360.928 "/>
<polygon fill="#F39639" points="304.078,418.084 327.557,406.146 303.791,395.537 280.354,407.381 "/>
<polygon fill="#986714" points="280.568,430.012 303.953,418.084 280.213,407.443 256.776,419.365 "/>
<polygon fill="#986714" points="327.666,406.068 351.15,394.146 327.322,383.553 303.838,395.475 "/>
<polygon fill="#EB6568" points="303.822,395.432 327.275,383.521 303.391,372.965 279.968,384.84 "/>
<polygon fill="#F39639" points="327.953,428.725 351.438,416.85 327.672,406.225 304.109,418.115 "/>
<polygon fill="#F39639" points="304.538,440.635 327.859,428.787 304.109,418.178 280.746,429.99 "/>
</svg>
