<?xml version="1.0" encoding="utf-8"?>
<!-- Generator: Adobe Illustrator 15.1.0, SVG Export Plug-In . SVG Version: 6.00 Build 0)  -->
<!DOCTYPE svg PUBLIC "-//W3C//DTD SVG 1.1//EN" "http://www.w3.org/Graphics/SVG/1.1/DTD/svg11.dtd">
<svg version="1.1" id="Calque_1" xmlns="http://www.w3.org/2000/svg" xmlns:xlink="http://www.w3.org/1999/xlink" x="0px" y="0px"
	 width="800px" height="600px" viewBox="0 0 800 600" enable-background="new 0 0 800 600" xml:space="preserve">
<circle fill="#6DBAC8" fill-opacity="0.5" stroke="#6DBAC8" stroke-miterlimit="10" cx="400" cy="250" r="100"/>
<circle fill="#CF71A5" fill-opacity="0.5" stroke="#CF71A5" stroke-miterlimit="10" cx="350" cy="350" r="100"/>
<circle fill="#FBAC3E" fill-opacity="0.5" stroke="#FBAC3E" stroke-miterlimit="10" cx="450" cy="350" r="100"/>
<circle fill="#46B649" fill-opacity="0.5" stroke="#46B649" stroke-miterlimit="10" cx="475" cy="275.001" r="100"/>
<circle fill="#8A51A0" fill-opacity="0.5" stroke="#8A51A0" stroke-miterlimit="10" cx="325" cy="275" r="100"/>
<circle fill="#CD4D27" fill-opacity="0.5" stroke="#CD4D27" stroke-miterlimit="10" cx="400" cy="400" r="100"/>
<g>
	<path fill="#FFFFFF" d="M383.986,169.384h1.854l0.686-3.542h1.283l-0.686,3.542h1.995v1.239h-2.232l-0.36,1.837h2.092v1.248h-2.329
		l-0.659,3.507h-1.318l0.686-3.507h-1.819l-0.668,3.507h-1.292l0.65-3.507h-1.969v-1.248h2.197l0.36-1.837h-2.03v-1.239h2.268
		l0.668-3.542h1.31L383.986,169.384z M383.415,172.46h1.819l0.36-1.837h-1.837L383.415,172.46z"/>
	<path fill="#FFFFFF" d="M392.213,173.69c0,0.41,0.057,0.763,0.171,1.059s0.265,0.539,0.453,0.729s0.406,0.33,0.655,0.417
		s0.505,0.132,0.769,0.132c0.521,0,0.983-0.075,1.384-0.224s0.787-0.333,1.156-0.549v1.38c-0.352,0.24-0.747,0.423-1.187,0.549
		s-0.943,0.189-1.512,0.189c-0.527,0-1.012-0.083-1.455-0.25s-0.822-0.41-1.138-0.729s-0.564-0.708-0.743-1.165
		s-0.268-0.976-0.268-1.556c0-0.633,0.105-1.188,0.316-1.666s0.495-0.877,0.853-1.2s0.776-0.565,1.257-0.729
		s0.987-0.246,1.521-0.246c0.387,0,0.79,0.048,1.208,0.145s0.801,0.253,1.147,0.47v1.459c-0.369-0.234-0.749-0.413-1.138-0.536
		s-0.795-0.185-1.217-0.185c-0.299,0-0.584,0.045-0.857,0.136s-0.51,0.237-0.712,0.439s-0.363,0.461-0.483,0.778
		S392.213,173.239,392.213,173.69z"/>
	<path fill="#FFFFFF" d="M406.056,173.576c0,0.568-0.091,1.087-0.272,1.556s-0.439,0.869-0.773,1.2s-0.74,0.587-1.217,0.769
		c-0.479,0.182-1.016,0.272-1.613,0.272c-0.574,0-1.094-0.088-1.56-0.264c-0.466-0.176-0.863-0.423-1.191-0.743
		s-0.582-0.708-0.76-1.165s-0.268-0.967-0.268-1.529c0-0.604,0.091-1.143,0.272-1.617s0.444-0.877,0.787-1.208
		s0.759-0.583,1.248-0.756c0.49-0.173,1.042-0.259,1.657-0.259c0.592,0,1.116,0.085,1.573,0.255s0.842,0.416,1.156,0.738
		c0.313,0.322,0.552,0.715,0.716,1.178S406.056,172.99,406.056,173.576z M404.359,173.576c0-0.797-0.176-1.397-0.527-1.802
		s-0.864-0.606-1.538-0.606c-0.68,0-1.21,0.208-1.591,0.624s-0.571,1.022-0.571,1.819c0,0.381,0.05,0.722,0.149,1.024
		s0.243,0.557,0.431,0.765s0.415,0.368,0.681,0.479c0.268,0.111,0.567,0.167,0.901,0.167c0.674,0,1.187-0.211,1.538-0.633
		S404.359,174.379,404.359,173.576z"/>
	<path fill="#FFFFFF" d="M415.398,173.576c0,0.568-0.091,1.087-0.272,1.556s-0.439,0.869-0.773,1.2s-0.74,0.587-1.217,0.769
		c-0.478,0.182-1.016,0.272-1.613,0.272c-0.574,0-1.095-0.088-1.56-0.264c-0.467-0.176-0.863-0.423-1.191-0.743
		s-0.582-0.708-0.76-1.165c-0.18-0.457-0.269-0.967-0.269-1.529c0-0.604,0.091-1.143,0.272-1.617s0.443-0.877,0.787-1.208
		c0.342-0.331,0.758-0.583,1.248-0.756c0.488-0.173,1.041-0.259,1.656-0.259c0.592,0,1.116,0.085,1.573,0.255
		s0.842,0.416,1.156,0.738c0.313,0.322,0.552,0.715,0.716,1.178S415.398,172.99,415.398,173.576z M413.702,173.576
		c0-0.797-0.176-1.397-0.527-1.802s-0.864-0.606-1.538-0.606c-0.68,0-1.21,0.208-1.591,0.624s-0.571,1.022-0.571,1.819
		c0,0.381,0.05,0.722,0.149,1.024s0.243,0.557,0.431,0.765s0.414,0.368,0.682,0.479c0.266,0.111,0.566,0.167,0.9,0.167
		c0.674,0,1.187-0.211,1.538-0.633S413.702,174.379,413.702,173.576z"/>
	<path fill="#FFFFFF" d="M419.283,177.215h-1.688v-11.373h1.688V177.215z"/>
</g>
<g>
	<path fill="#FFFFFF" d="M385.753,468.558h1.854l0.686-3.542h1.283l-0.686,3.542h1.995v1.239h-2.232l-0.36,1.837h2.092v1.248h-2.329
		l-0.659,3.507h-1.318l0.686-3.507h-1.819l-0.668,3.507h-1.292l0.65-3.507h-1.969v-1.248h2.197l0.36-1.837h-2.03v-1.239h2.268
		l0.668-3.542h1.31L385.753,468.558z M385.182,471.634h1.819l0.36-1.837h-1.837L385.182,471.634z"/>
	<path fill="#FFFFFF" d="M399.288,476.389h-1.696v-4.465c0-0.51-0.104-0.9-0.312-1.174c-0.208-0.271-0.523-0.408-0.945-0.408
		c-0.188,0-0.371,0.023-0.549,0.07s-0.347,0.109-0.505,0.189c-0.158,0.078-0.306,0.166-0.444,0.264
		c-0.138,0.096-0.262,0.197-0.374,0.303v5.221h-1.688v-7.216h1.635l0.053,0.721c0.123-0.117,0.261-0.229,0.413-0.334
		s0.321-0.199,0.505-0.281s0.384-0.147,0.598-0.198c0.214-0.049,0.441-0.074,0.681-0.074c0.896,0,1.559,0.24,1.986,0.721
		s0.642,1.178,0.642,2.092V476.389z"/>
	<path fill="#FFFFFF" d="M408.974,472.75c0,0.568-0.091,1.087-0.272,1.556s-0.439,0.869-0.773,1.2s-0.74,0.587-1.217,0.769
		c-0.479,0.182-1.016,0.272-1.613,0.272c-0.574,0-1.094-0.088-1.561-0.264c-0.465-0.176-0.862-0.423-1.19-0.742
		s-0.581-0.708-0.761-1.165c-0.178-0.457-0.268-0.967-0.268-1.529c0-0.604,0.091-1.143,0.272-1.617s0.444-0.877,0.786-1.208
		c0.344-0.331,0.76-0.583,1.248-0.756c0.49-0.173,1.042-0.26,1.657-0.26c0.592,0,1.116,0.085,1.573,0.255s0.842,0.416,1.156,0.738
		c0.313,0.322,0.552,0.715,0.716,1.178S408.974,472.164,408.974,472.75z M407.277,472.75c0-0.797-0.176-1.397-0.527-1.802
		s-0.864-0.606-1.538-0.606c-0.68,0-1.21,0.208-1.591,0.624s-0.571,1.022-0.571,1.819c0,0.381,0.05,0.723,0.149,1.023
		c0.1,0.303,0.243,0.558,0.431,0.766s0.415,0.367,0.681,0.479c0.268,0.111,0.567,0.167,0.901,0.167c0.674,0,1.187-0.211,1.538-0.633
		S407.277,473.553,407.277,472.75z"/>
	<path fill="#FFFFFF" d="M417.684,476.389h-1.695v-4.465c0-0.51-0.105-0.9-0.313-1.174c-0.209-0.271-0.523-0.408-0.945-0.408
		c-0.188,0-0.371,0.023-0.549,0.07c-0.18,0.047-0.348,0.109-0.506,0.189c-0.158,0.078-0.307,0.166-0.443,0.264
		c-0.139,0.096-0.263,0.197-0.374,0.303v5.221h-1.688v-7.216h1.635l0.053,0.721c0.123-0.117,0.261-0.229,0.413-0.334
		s0.32-0.199,0.506-0.281c0.184-0.082,0.383-0.147,0.598-0.198c0.213-0.049,0.44-0.074,0.681-0.074c0.897,0,1.558,0.24,1.987,0.721
		c0.426,0.48,0.641,1.178,0.641,2.092V476.389z"/>
</g>
<g>
	<path fill="#FFFFFF" d="M242.591,245.417h1.854l0.686-3.542h1.283l-0.686,3.542h1.995v1.239h-2.232l-0.36,1.837h2.092v1.248h-2.329
		l-0.659,3.507h-1.318l0.686-3.507h-1.819l-0.668,3.507h-1.292l0.65-3.507h-1.969v-1.248h2.197l0.36-1.837h-2.03v-1.239h2.268
		l0.668-3.542h1.31L242.591,245.417z M242.02,248.493h1.819l0.36-1.837h-1.837L242.02,248.493z"/>
	<path fill="#FFFFFF" d="M256.645,249.073h-3.129v3.076h-1.406v-3.076h-3.146v-1.406h3.146v-3.059h1.406v3.059h3.129V249.073z"/>
	<path fill="#FFFFFF" d="M260.626,243.976c0,0.141-0.029,0.267-0.088,0.378s-0.136,0.207-0.233,0.286s-0.209,0.139-0.338,0.18
		s-0.264,0.062-0.404,0.062c-0.293,0-0.541-0.078-0.743-0.233s-0.303-0.379-0.303-0.672c0-0.281,0.101-0.501,0.303-0.659
		s0.45-0.237,0.743-0.237c0.141,0,0.275,0.021,0.404,0.062s0.242,0.101,0.338,0.18s0.174,0.173,0.233,0.281
		S260.626,243.835,260.626,243.976z M260.389,253.248h-1.688v-7.216h1.688V253.248z"/>
	<path fill="#FFFFFF" d="M269.609,253.248h-1.696v-4.465c0-0.51-0.104-0.901-0.312-1.173s-0.523-0.409-0.945-0.409
		c-0.188,0-0.371,0.023-0.549,0.07s-0.347,0.11-0.505,0.189s-0.306,0.167-0.444,0.264s-0.262,0.198-0.374,0.303v5.221h-1.688v-7.216
		h1.635l0.053,0.721c0.123-0.117,0.261-0.229,0.413-0.334s0.321-0.199,0.505-0.281s0.384-0.148,0.598-0.198s0.441-0.075,0.681-0.075
		c0.896,0,1.559,0.24,1.986,0.721s0.642,1.178,0.642,2.092V253.248z"/>
	<path fill="#FFFFFF" d="M274.267,246.032h1.644v1.151h-1.644v6.064h-1.688v-6.064h-1.336v-1.151h1.336v-1.582
		c0-0.891,0.218-1.567,0.655-2.03s1.033-0.694,1.789-0.694c0.135,0,0.287,0.015,0.457,0.044s0.313,0.064,0.431,0.105v1.38
		c-0.053-0.012-0.117-0.025-0.193-0.04s-0.154-0.026-0.233-0.035s-0.154-0.016-0.224-0.022s-0.132-0.009-0.185-0.009
		c-0.234,0-0.428,0.094-0.58,0.281s-0.229,0.483-0.229,0.888V246.032z"/>
	<path fill="#FFFFFF" d="M284.805,249.609c0,0.568-0.091,1.087-0.272,1.556s-0.439,0.869-0.773,1.2s-0.74,0.587-1.217,0.769
		s-1.015,0.272-1.613,0.272c-0.574,0-1.094-0.088-1.56-0.264s-0.863-0.423-1.191-0.743s-0.582-0.708-0.76-1.165
		s-0.268-0.967-0.268-1.529c0-0.604,0.091-1.143,0.272-1.617s0.444-0.877,0.787-1.208s0.759-0.583,1.248-0.756
		s1.042-0.259,1.657-0.259c0.592,0,1.116,0.085,1.573,0.255s0.842,0.416,1.156,0.738s0.552,0.715,0.716,1.178
		S284.805,249.023,284.805,249.609z M283.109,249.609c0-0.797-0.176-1.397-0.527-1.802s-0.864-0.606-1.538-0.606
		c-0.68,0-1.21,0.208-1.591,0.624s-0.571,1.022-0.571,1.819c0,0.381,0.05,0.722,0.149,1.024s0.243,0.557,0.431,0.765
		s0.415,0.368,0.681,0.479s0.567,0.167,0.901,0.167c0.674,0,1.187-0.211,1.538-0.633S283.109,250.412,283.109,249.609z"/>
	<path fill="#FFFFFF" d="M291.265,251.218c0,0.311-0.054,0.599-0.163,0.866s-0.272,0.498-0.492,0.694s-0.495,0.35-0.826,0.461
		s-0.719,0.167-1.165,0.167c-0.434,0-0.844-0.054-1.23-0.163s-0.715-0.262-0.984-0.461v-1.459c0.152,0.105,0.321,0.208,0.505,0.308
		s0.374,0.186,0.567,0.259s0.384,0.132,0.571,0.176s0.36,0.066,0.519,0.066c0.381,0,0.659-0.082,0.835-0.246
		s0.264-0.363,0.264-0.598c0-0.123-0.018-0.233-0.053-0.33s-0.101-0.188-0.198-0.272s-0.231-0.168-0.404-0.25
		s-0.394-0.17-0.664-0.264c-0.369-0.135-0.678-0.277-0.927-0.426s-0.448-0.313-0.598-0.492s-0.256-0.372-0.321-0.58
		s-0.097-0.435-0.097-0.681c0-0.316,0.069-0.605,0.207-0.866s0.325-0.485,0.563-0.672s0.516-0.333,0.835-0.435
		s0.661-0.154,1.024-0.154c0.328,0,0.65,0.032,0.967,0.097s0.624,0.176,0.923,0.334v1.318c-0.287-0.129-0.59-0.236-0.91-0.321
		s-0.634-0.127-0.945-0.127c-0.363,0-0.637,0.076-0.822,0.229s-0.277,0.346-0.277,0.58c0,0.1,0.019,0.193,0.057,0.281
		s0.104,0.173,0.198,0.255s0.223,0.166,0.387,0.25s0.372,0.171,0.624,0.259c0.352,0.123,0.655,0.253,0.91,0.391
		s0.466,0.292,0.633,0.461s0.29,0.365,0.369,0.584S291.265,250.931,291.265,251.218z"/>
</g>
<g>
	<path fill="#FFFFFF" d="M507.174,245.896h1.854l0.686-3.542h1.283l-0.686,3.542h1.995v1.239h-2.232l-0.36,1.837h2.092v1.248h-2.329
		l-0.659,3.507h-1.318l0.686-3.507h-1.819l-0.668,3.507h-1.292l0.65-3.507h-1.969v-1.248h2.197l0.36-1.837h-2.03v-1.239h2.268
		l0.668-3.542h1.31L507.174,245.896z M506.603,248.973h1.819l0.36-1.837h-1.837L506.603,248.973z"/>
	<path fill="#FFFFFF" d="M518.459,251.697c0,0.311-0.055,0.599-0.162,0.866c-0.109,0.267-0.273,0.498-0.492,0.694
		c-0.221,0.196-0.496,0.35-0.826,0.461c-0.332,0.111-0.72,0.167-1.165,0.167c-0.434,0-0.844-0.054-1.23-0.163
		s-0.715-0.262-0.984-0.461v-1.459c0.152,0.105,0.321,0.208,0.505,0.308c0.186,0.1,0.374,0.186,0.567,0.259s0.384,0.132,0.571,0.176
		s0.36,0.066,0.519,0.066c0.381,0,0.659-0.082,0.835-0.246s0.264-0.363,0.264-0.598c0-0.123-0.018-0.233-0.053-0.33
		s-0.102-0.188-0.197-0.272c-0.098-0.085-0.232-0.168-0.404-0.25c-0.174-0.082-0.395-0.17-0.664-0.264
		c-0.369-0.135-0.679-0.277-0.928-0.426s-0.447-0.313-0.598-0.492c-0.148-0.179-0.256-0.372-0.32-0.58s-0.097-0.435-0.097-0.681
		c0-0.316,0.068-0.605,0.206-0.866s0.326-0.485,0.563-0.672c0.238-0.188,0.516-0.333,0.836-0.435
		c0.318-0.103,0.66-0.154,1.023-0.154c0.328,0,0.65,0.032,0.967,0.097s0.624,0.176,0.923,0.334v1.318
		c-0.287-0.129-0.591-0.236-0.909-0.321c-0.32-0.085-0.635-0.127-0.945-0.127c-0.363,0-0.637,0.076-0.822,0.229
		c-0.184,0.152-0.276,0.346-0.276,0.58c0,0.1,0.019,0.193,0.058,0.281c0.037,0.088,0.104,0.173,0.197,0.255s0.223,0.166,0.387,0.25
		s0.372,0.171,0.624,0.259c0.352,0.123,0.655,0.253,0.909,0.391c0.256,0.138,0.467,0.292,0.633,0.461
		c0.168,0.17,0.291,0.365,0.369,0.584C518.42,251.157,518.459,251.41,518.459,251.697z"/>
	<path fill="#FFFFFF" d="M527.626,250.089c0,0.568-0.091,1.087-0.272,1.556s-0.439,0.869-0.773,1.2s-0.74,0.587-1.217,0.769
		c-0.479,0.182-1.016,0.272-1.613,0.272c-0.574,0-1.094-0.088-1.561-0.264c-0.465-0.176-0.862-0.423-1.19-0.743
		s-0.582-0.708-0.761-1.165s-0.268-0.967-0.268-1.529c0-0.604,0.091-1.143,0.272-1.617s0.444-0.877,0.786-1.208
		c0.344-0.331,0.759-0.583,1.248-0.756s1.042-0.259,1.657-0.259c0.592,0,1.116,0.085,1.573,0.255s0.842,0.416,1.156,0.738
		c0.313,0.322,0.552,0.715,0.716,1.178S527.626,249.503,527.626,250.089z M525.93,250.089c0-0.797-0.176-1.397-0.527-1.802
		s-0.864-0.606-1.538-0.606c-0.68,0-1.21,0.208-1.591,0.624s-0.571,1.022-0.571,1.819c0,0.381,0.05,0.722,0.149,1.024
		s0.243,0.557,0.431,0.765s0.414,0.368,0.681,0.479s0.567,0.167,0.901,0.167c0.674,0,1.187-0.211,1.538-0.633
		S525.93,250.892,525.93,250.089z"/>
	<path fill="#FFFFFF" d="M529.656,246.512h1.696v4.465c0,0.504,0.104,0.894,0.312,1.169s0.523,0.413,0.945,0.413
		c0.188,0,0.37-0.023,0.549-0.07s0.348-0.11,0.506-0.189s0.306-0.167,0.443-0.264s0.263-0.198,0.374-0.303v-5.221h1.696v7.216
		h-1.644l-0.053-0.721c-0.123,0.111-0.261,0.22-0.413,0.325s-0.32,0.199-0.506,0.281c-0.184,0.082-0.384,0.148-0.598,0.198
		s-0.44,0.075-0.681,0.075c-0.896,0-1.559-0.239-1.986-0.716s-0.642-1.173-0.642-2.087V246.512z"/>
	<path fill="#FFFFFF" d="M541.899,246.345c0.199,0,0.392,0.022,0.575,0.066c0.186,0.044,0.371,0.101,0.559,0.171v1.371
		c-0.199-0.047-0.41-0.081-0.633-0.101s-0.434-0.031-0.633-0.031c-0.223,0-0.412,0.048-0.566,0.145
		c-0.156,0.097-0.28,0.226-0.374,0.387s-0.161,0.349-0.202,0.563s-0.062,0.438-0.062,0.672v4.14h-1.688v-4.79
		c0-0.217-0.009-0.445-0.026-0.686s-0.039-0.472-0.066-0.694c-0.025-0.223-0.056-0.426-0.088-0.611s-0.063-0.33-0.092-0.435h1.424
		c0.029,0.053,0.059,0.125,0.088,0.215s0.057,0.19,0.084,0.299c0.025,0.108,0.051,0.224,0.074,0.347s0.041,0.243,0.053,0.36
		c0.088-0.146,0.182-0.3,0.281-0.461s0.214-0.311,0.343-0.448s0.271-0.252,0.427-0.343
		C541.531,246.39,541.706,246.345,541.899,246.345z"/>
	<path fill="#FFFFFF" d="M545.969,250.203c0,0.41,0.057,0.763,0.172,1.059c0.113,0.296,0.265,0.539,0.452,0.729
		s0.405,0.33,0.655,0.417c0.248,0.088,0.505,0.132,0.769,0.132c0.521,0,0.982-0.075,1.384-0.224s0.787-0.333,1.156-0.549v1.38
		c-0.352,0.24-0.747,0.423-1.187,0.549s-0.943,0.189-1.512,0.189c-0.527,0-1.013-0.083-1.454-0.25
		c-0.443-0.167-0.822-0.41-1.139-0.729s-0.564-0.708-0.742-1.165c-0.18-0.457-0.269-0.976-0.269-1.556
		c0-0.633,0.105-1.188,0.316-1.666s0.495-0.877,0.853-1.2s0.776-0.565,1.257-0.729s0.987-0.246,1.521-0.246
		c0.387,0,0.789,0.048,1.209,0.145c0.418,0.097,0.801,0.253,1.146,0.47v1.459c-0.369-0.234-0.749-0.413-1.139-0.536
		s-0.795-0.185-1.217-0.185c-0.299,0-0.584,0.045-0.857,0.136c-0.271,0.091-0.51,0.237-0.711,0.439
		c-0.203,0.202-0.364,0.461-0.484,0.778S545.969,249.752,545.969,250.203z"/>
	<path fill="#FFFFFF" d="M552.156,250.071c0-0.557,0.091-1.065,0.272-1.525s0.438-0.853,0.769-1.178s0.729-0.577,1.191-0.756
		s0.979-0.268,1.547-0.268c0.557,0,1.044,0.081,1.463,0.242s0.772,0.391,1.06,0.69s0.502,0.665,0.646,1.099s0.216,0.923,0.216,1.468
		v0.721h-5.52c0.029,0.299,0.106,0.576,0.233,0.831c0.125,0.255,0.295,0.473,0.51,0.655c0.213,0.182,0.465,0.324,0.756,0.426
		c0.289,0.103,0.61,0.154,0.962,0.154c0.205,0,0.423-0.019,0.655-0.057c0.23-0.038,0.468-0.094,0.711-0.167s0.486-0.163,0.73-0.268
		c0.242-0.105,0.476-0.229,0.698-0.369v1.327c-0.445,0.252-0.916,0.447-1.411,0.584s-1.059,0.207-1.691,0.207
		c-0.586,0-1.113-0.086-1.582-0.259s-0.867-0.423-1.195-0.751s-0.58-0.728-0.756-1.2S552.156,250.669,552.156,250.071z
		 M555.918,247.663c-0.563,0-1.021,0.142-1.375,0.426c-0.355,0.284-0.591,0.699-0.708,1.244h3.814
		c-0.029-0.545-0.193-0.959-0.492-1.244S556.445,247.663,555.918,247.663z"/>
	<path fill="#FFFFFF" d="M565.788,251.697c0,0.311-0.055,0.599-0.163,0.866s-0.271,0.498-0.492,0.694
		c-0.219,0.196-0.495,0.35-0.826,0.461s-0.719,0.167-1.164,0.167c-0.434,0-0.844-0.054-1.23-0.163s-0.715-0.262-0.984-0.461v-1.459
		c0.152,0.105,0.32,0.208,0.506,0.308c0.184,0.1,0.373,0.186,0.566,0.259s0.384,0.132,0.571,0.176s0.36,0.066,0.519,0.066
		c0.381,0,0.659-0.082,0.835-0.246s0.264-0.363,0.264-0.598c0-0.123-0.018-0.233-0.053-0.33s-0.101-0.188-0.198-0.272
		c-0.096-0.085-0.231-0.168-0.404-0.25s-0.394-0.17-0.663-0.264c-0.369-0.135-0.679-0.277-0.927-0.426
		c-0.25-0.149-0.449-0.313-0.598-0.492c-0.15-0.179-0.257-0.372-0.321-0.58s-0.097-0.435-0.097-0.681
		c0-0.316,0.068-0.605,0.207-0.866c0.137-0.261,0.324-0.485,0.563-0.672c0.236-0.188,0.515-0.333,0.834-0.435
		s0.661-0.154,1.024-0.154c0.328,0,0.65,0.032,0.967,0.097s0.624,0.176,0.923,0.334v1.318c-0.287-0.129-0.591-0.236-0.91-0.321
		s-0.634-0.127-0.944-0.127c-0.363,0-0.638,0.076-0.821,0.229c-0.186,0.152-0.277,0.346-0.277,0.58c0,0.1,0.019,0.193,0.057,0.281
		s0.104,0.173,0.198,0.255s0.223,0.166,0.387,0.25s0.372,0.171,0.624,0.259c0.352,0.123,0.654,0.253,0.91,0.391
		c0.254,0.138,0.465,0.292,0.633,0.461c0.166,0.17,0.289,0.365,0.369,0.584C565.748,251.157,565.788,251.41,565.788,251.697z"/>
</g>
<g>
	<path fill="#FFFFFF" d="M268.174,381.26h1.854l0.686-3.542h1.283l-0.686,3.542h1.995v1.239h-2.232l-0.36,1.837h2.092v1.248h-2.329
		l-0.659,3.507H268.5l0.686-3.507h-1.819l-0.668,3.507h-1.292l0.65-3.507h-1.969v-1.248h2.197l0.36-1.837h-2.03v-1.239h2.268
		l0.668-3.542h1.31L268.174,381.26z M267.603,384.336h1.819l0.36-1.837h-1.837L267.603,384.336z"/>
	<path fill="#FFFFFF" d="M279.459,387.061c0,0.311-0.054,0.6-0.163,0.865c-0.108,0.268-0.272,0.499-0.492,0.695
		s-0.495,0.35-0.826,0.461s-0.719,0.167-1.165,0.167c-0.434,0-0.844-0.055-1.23-0.163c-0.387-0.107-0.715-0.262-0.984-0.461v-1.459
		c0.152,0.105,0.321,0.208,0.505,0.308s0.374,0.187,0.567,0.259c0.193,0.074,0.384,0.133,0.571,0.176
		c0.188,0.045,0.36,0.066,0.519,0.066c0.381,0,0.659-0.082,0.835-0.246s0.264-0.363,0.264-0.598c0-0.123-0.018-0.232-0.053-0.33
		c-0.035-0.096-0.101-0.187-0.198-0.271s-0.231-0.169-0.404-0.251s-0.394-0.17-0.664-0.264c-0.369-0.135-0.678-0.276-0.927-0.427
		c-0.249-0.148-0.448-0.313-0.598-0.492c-0.149-0.178-0.256-0.371-0.321-0.58c-0.064-0.207-0.097-0.435-0.097-0.681
		c0-0.316,0.069-0.604,0.207-0.866c0.138-0.26,0.325-0.484,0.563-0.672s0.516-0.332,0.835-0.436
		c0.319-0.102,0.661-0.153,1.024-0.153c0.328,0,0.65,0.032,0.967,0.097s0.624,0.176,0.923,0.334v1.318
		c-0.287-0.129-0.59-0.235-0.91-0.32s-0.634-0.128-0.945-0.128c-0.363,0-0.637,0.076-0.822,0.229s-0.277,0.346-0.277,0.58
		c0,0.1,0.019,0.193,0.057,0.281s0.104,0.173,0.198,0.255s0.223,0.166,0.387,0.25c0.164,0.086,0.372,0.172,0.624,0.26
		c0.352,0.123,0.655,0.254,0.91,0.391c0.255,0.139,0.466,0.292,0.633,0.462s0.29,0.364,0.369,0.585
		C279.42,386.52,279.459,386.773,279.459,387.061z"/>
	<path fill="#FFFFFF" d="M288.626,385.452c0,0.568-0.091,1.087-0.272,1.556s-0.439,0.869-0.773,1.199
		c-0.334,0.332-0.74,0.588-1.217,0.77s-1.015,0.272-1.613,0.272c-0.574,0-1.094-0.088-1.56-0.264s-0.863-0.423-1.191-0.743
		c-0.328-0.318-0.582-0.707-0.76-1.164s-0.268-0.967-0.268-1.529c0-0.604,0.091-1.143,0.272-1.617s0.444-0.877,0.787-1.209
		c0.343-0.33,0.759-0.582,1.248-0.756c0.489-0.172,1.042-0.259,1.657-0.259c0.592,0,1.116,0.085,1.573,0.255
		s0.842,0.416,1.156,0.738s0.552,0.715,0.716,1.178S288.626,384.866,288.626,385.452z M286.93,385.452
		c0-0.797-0.176-1.397-0.527-1.802s-0.864-0.606-1.538-0.606c-0.68,0-1.21,0.208-1.591,0.624s-0.571,1.022-0.571,1.819
		c0,0.381,0.05,0.723,0.149,1.024s0.243,0.557,0.431,0.764c0.188,0.209,0.415,0.368,0.681,0.479s0.567,0.167,0.901,0.167
		c0.674,0,1.187-0.211,1.538-0.633S286.93,386.255,286.93,385.452z"/>
	<path fill="#FFFFFF" d="M295.086,387.061c0,0.311-0.054,0.6-0.163,0.865c-0.108,0.268-0.272,0.499-0.492,0.695
		s-0.495,0.35-0.826,0.461s-0.719,0.167-1.165,0.167c-0.434,0-0.844-0.055-1.23-0.163c-0.387-0.107-0.715-0.262-0.984-0.461v-1.459
		c0.152,0.105,0.321,0.208,0.505,0.308s0.374,0.187,0.567,0.259c0.193,0.074,0.384,0.133,0.571,0.176
		c0.188,0.045,0.36,0.066,0.519,0.066c0.381,0,0.659-0.082,0.835-0.246s0.264-0.363,0.264-0.598c0-0.123-0.018-0.232-0.053-0.33
		c-0.035-0.096-0.101-0.187-0.198-0.271s-0.231-0.169-0.404-0.251s-0.394-0.17-0.664-0.264c-0.369-0.135-0.678-0.276-0.927-0.427
		c-0.249-0.148-0.448-0.313-0.598-0.492c-0.149-0.178-0.256-0.371-0.321-0.58c-0.064-0.207-0.097-0.435-0.097-0.681
		c0-0.316,0.069-0.604,0.207-0.866c0.138-0.26,0.325-0.484,0.563-0.672s0.516-0.332,0.835-0.436
		c0.319-0.102,0.661-0.153,1.024-0.153c0.328,0,0.65,0.032,0.967,0.097s0.624,0.176,0.923,0.334v1.318
		c-0.287-0.129-0.59-0.235-0.91-0.32s-0.634-0.128-0.945-0.128c-0.363,0-0.637,0.076-0.822,0.229s-0.277,0.346-0.277,0.58
		c0,0.1,0.019,0.193,0.057,0.281s0.104,0.173,0.198,0.255s0.223,0.166,0.387,0.25c0.164,0.086,0.372,0.172,0.624,0.26
		c0.352,0.123,0.655,0.254,0.91,0.391c0.255,0.139,0.466,0.292,0.633,0.462s0.29,0.364,0.369,0.585
		C295.047,386.52,295.086,386.773,295.086,387.061z"/>
</g>
<g>
	<path fill="#FFFFFF" d="M506.813,383.26h1.854l0.686-3.542h1.283l-0.686,3.542h1.995v1.239h-2.232l-0.36,1.837h2.092v1.248h-2.329
		l-0.659,3.507h-1.318l0.686-3.507h-1.819l-0.668,3.507h-1.292l0.65-3.507h-1.969v-1.248h2.197l0.36-1.837h-2.03v-1.239h2.268
		l0.668-3.542h1.31L506.813,383.26z M506.242,386.336h1.819l0.36-1.837h-1.837L506.242,386.336z"/>
	<path fill="#FFFFFF" d="M521.702,380.017l-5.818,9.615h5.651v1.459h-8.262v-0.378l5.757-9.519h-5.757v-1.477h8.429V380.017z"/>
	<path fill="#FFFFFF" d="M529.19,384.394l-3.814,5.344h3.973v1.354h-6.407v-0.58l3.814-5.291h-3.489v-1.345h5.924V384.394z"/>
	<path fill="#FFFFFF" d="M536.477,384.394l-3.814,5.344h3.973v1.354h-6.407v-0.58l3.814-5.291h-3.489v-1.345h5.924V384.394z"/>
</g>
<g>
	<circle fill="none" stroke="#58595B" stroke-miterlimit="10" stroke-dasharray="12.0835,12.0835" cx="400" cy="300" r="250"/>
</g>
<g>
	<path fill="#414042" d="M330.852,106.574h1.854l0.686-3.542h1.283l-0.686,3.542h1.995v1.239h-2.232l-0.36,1.837h2.092v1.248h-2.329
		l-0.659,3.507h-1.318l0.686-3.507h-1.819l-0.668,3.507h-1.292l0.65-3.507h-1.969v-1.248h2.197l0.36-1.837h-2.03v-1.239h2.268
		l0.668-3.542h1.31L330.852,106.574z M330.281,109.65h1.819l0.36-1.837h-1.837L330.281,109.65z"/>
	<path fill="#414042" d="M339.079,110.88c0,0.41,0.057,0.763,0.171,1.059s0.265,0.539,0.453,0.729s0.406,0.33,0.655,0.417
		s0.505,0.132,0.769,0.132c0.521,0,0.983-0.075,1.384-0.224s0.787-0.333,1.156-0.549v1.38c-0.352,0.24-0.747,0.423-1.187,0.549
		s-0.943,0.189-1.512,0.189c-0.527,0-1.012-0.083-1.455-0.25s-0.822-0.41-1.138-0.729s-0.564-0.708-0.743-1.165
		s-0.268-0.976-0.268-1.556c0-0.633,0.105-1.188,0.316-1.666s0.495-0.877,0.853-1.2s0.776-0.565,1.257-0.729
		s0.987-0.246,1.521-0.246c0.387,0,0.79,0.048,1.208,0.145s0.801,0.253,1.147,0.47v1.459c-0.369-0.234-0.749-0.413-1.138-0.536
		s-0.795-0.185-1.217-0.185c-0.299,0-0.584,0.045-0.857,0.136s-0.51,0.237-0.712,0.439s-0.363,0.461-0.483,0.778
		S339.079,110.429,339.079,110.88z"/>
	<path fill="#414042" d="M352.921,110.766c0,0.568-0.091,1.087-0.272,1.556s-0.439,0.869-0.773,1.2s-0.74,0.587-1.217,0.769
		s-1.015,0.272-1.613,0.272c-0.574,0-1.094-0.088-1.56-0.264s-0.863-0.423-1.191-0.743s-0.582-0.708-0.76-1.165
		s-0.268-0.967-0.268-1.529c0-0.604,0.091-1.143,0.272-1.617s0.444-0.877,0.787-1.208s0.759-0.583,1.248-0.756
		s1.042-0.259,1.657-0.259c0.592,0,1.116,0.085,1.573,0.255s0.842,0.416,1.156,0.738s0.552,0.715,0.716,1.178
		S352.921,110.18,352.921,110.766z M351.225,110.766c0-0.797-0.176-1.397-0.527-1.802s-0.864-0.606-1.538-0.606
		c-0.68,0-1.21,0.208-1.591,0.624s-0.571,1.022-0.571,1.819c0,0.381,0.05,0.722,0.149,1.024s0.243,0.557,0.431,0.765
		s0.415,0.368,0.681,0.479s0.567,0.167,0.901,0.167c0.674,0,1.187-0.211,1.538-0.633S351.225,111.569,351.225,110.766z"/>
	<path fill="#414042" d="M361.631,114.405h-1.696v-4.465c0-0.51-0.104-0.901-0.312-1.173s-0.523-0.409-0.945-0.409
		c-0.188,0-0.371,0.023-0.549,0.07s-0.347,0.11-0.505,0.189s-0.306,0.167-0.444,0.264s-0.262,0.198-0.374,0.303v5.221h-1.688v-7.216
		h1.635l0.053,0.721c0.123-0.117,0.261-0.229,0.413-0.334s0.321-0.199,0.505-0.281s0.384-0.148,0.598-0.198s0.441-0.075,0.681-0.075
		c0.896,0,1.559,0.24,1.986,0.721s0.642,1.178,0.642,2.092V114.405z"/>
	<path fill="#414042" d="M366.29,107.189h1.644v1.151h-1.644v6.064h-1.688v-6.064h-1.336v-1.151h1.336v-1.582
		c0-0.891,0.218-1.567,0.655-2.03s1.033-0.694,1.789-0.694c0.135,0,0.287,0.015,0.457,0.044s0.313,0.064,0.431,0.105v1.38
		c-0.053-0.012-0.117-0.025-0.193-0.04s-0.154-0.026-0.233-0.035s-0.154-0.016-0.224-0.022s-0.132-0.009-0.185-0.009
		c-0.234,0-0.428,0.094-0.58,0.281s-0.229,0.483-0.229,0.888V107.189z"/>
	<path fill="#414042" d="M369.172,111.109c0-0.615,0.1-1.175,0.299-1.679s0.48-0.933,0.844-1.288s0.806-0.63,1.327-0.826
		s1.102-0.294,1.74-0.294c0.293,0,0.58,0.013,0.861,0.04s0.551,0.06,0.809,0.101s0.498,0.089,0.721,0.145s0.416,0.113,0.58,0.171
		v6.513c0,0.75-0.066,1.411-0.198,1.982s-0.353,1.049-0.664,1.433s-0.721,0.672-1.23,0.866s-1.143,0.29-1.898,0.29
		c-0.439,0-0.861-0.029-1.266-0.088s-0.771-0.144-1.099-0.255v-1.433c0.445,0.135,0.876,0.237,1.292,0.308s0.814,0.105,1.195,0.105
		c0.434,0,0.791-0.078,1.072-0.233s0.504-0.368,0.668-0.637s0.278-0.586,0.343-0.949s0.097-0.753,0.097-1.169v-0.563
		c-0.328,0.234-0.68,0.428-1.055,0.58s-0.797,0.229-1.266,0.229c-0.521,0-0.98-0.078-1.375-0.233s-0.727-0.378-0.993-0.668
		s-0.467-0.642-0.602-1.055S369.172,111.625,369.172,111.109z M370.904,111.056c0,0.387,0.041,0.715,0.123,0.984
		s0.201,0.489,0.356,0.659s0.344,0.293,0.567,0.369s0.475,0.114,0.756,0.114c0.305,0,0.63-0.072,0.976-0.215
		s0.674-0.347,0.984-0.611v-4.017c-0.152-0.035-0.325-0.062-0.519-0.079s-0.393-0.026-0.598-0.026c-0.492,0-0.907,0.081-1.244,0.242
		s-0.609,0.374-0.817,0.637s-0.357,0.564-0.448,0.901S370.904,110.699,370.904,111.056z"/>
	<path fill="#414042" d="M386.206,110.766c0,0.568-0.091,1.087-0.272,1.556s-0.439,0.869-0.773,1.2s-0.74,0.587-1.217,0.769
		s-1.015,0.272-1.613,0.272c-0.574,0-1.094-0.088-1.56-0.264s-0.863-0.423-1.191-0.743s-0.582-0.708-0.76-1.165
		s-0.268-0.967-0.268-1.529c0-0.604,0.091-1.143,0.272-1.617s0.444-0.877,0.787-1.208s0.759-0.583,1.248-0.756
		s1.042-0.259,1.657-0.259c0.592,0,1.116,0.085,1.573,0.255s0.842,0.416,1.156,0.738s0.552,0.715,0.716,1.178
		S386.206,110.18,386.206,110.766z M384.509,110.766c0-0.797-0.176-1.397-0.527-1.802s-0.864-0.606-1.538-0.606
		c-0.68,0-1.21,0.208-1.591,0.624s-0.571,1.022-0.571,1.819c0,0.381,0.05,0.722,0.149,1.024s0.243,0.557,0.431,0.765
		s0.415,0.368,0.681,0.479s0.567,0.167,0.901,0.167c0.674,0,1.187-0.211,1.538-0.633S384.509,111.569,384.509,110.766z"/>
	<path fill="#414042" d="M388.403,103.032h1.688v3.164c0,0.076-0.001,0.176-0.004,0.299s-0.006,0.25-0.009,0.382
		s-0.007,0.259-0.013,0.382s-0.015,0.226-0.026,0.308c0.123-0.076,0.267-0.148,0.431-0.215s0.338-0.125,0.523-0.171
		s0.375-0.085,0.571-0.114s0.385-0.044,0.567-0.044c0.545,0,1.031,0.083,1.459,0.25s0.79,0.403,1.085,0.708s0.521,0.667,0.677,1.085
		s0.233,0.883,0.233,1.393c0,0.615-0.1,1.175-0.299,1.679s-0.48,0.935-0.844,1.292s-0.804,0.633-1.323,0.826s-1.1,0.29-1.745,0.29
		c-0.287,0-0.573-0.013-0.857-0.04s-0.557-0.062-0.817-0.105s-0.502-0.092-0.725-0.145s-0.413-0.105-0.571-0.158V103.032z
		 M390.09,113.166c0.164,0.029,0.337,0.057,0.519,0.083s0.381,0.04,0.598,0.04c0.492,0,0.907-0.078,1.244-0.233
		s0.611-0.36,0.822-0.615s0.363-0.548,0.457-0.879s0.141-0.672,0.141-1.024c0-0.369-0.051-0.693-0.154-0.971
		s-0.243-0.511-0.422-0.699s-0.393-0.328-0.642-0.422s-0.52-0.141-0.813-0.141c-0.129,0-0.274,0.013-0.435,0.04
		s-0.321,0.062-0.479,0.105s-0.311,0.098-0.457,0.163s-0.272,0.135-0.378,0.211V113.166z"/>
	<path fill="#414042" d="M397.271,110.749c0-0.557,0.091-1.065,0.272-1.525s0.438-0.853,0.769-1.178s0.728-0.577,1.191-0.756
		s0.979-0.268,1.547-0.268c0.557,0,1.044,0.081,1.463,0.242s0.771,0.391,1.059,0.69s0.503,0.665,0.646,1.099
		s0.215,0.923,0.215,1.468v0.721h-5.519c0.029,0.299,0.107,0.576,0.233,0.831s0.296,0.473,0.51,0.655s0.466,0.324,0.756,0.426
		s0.61,0.154,0.962,0.154c0.205,0,0.424-0.019,0.655-0.057s0.469-0.094,0.712-0.167s0.486-0.163,0.729-0.268
		s0.476-0.229,0.698-0.369v1.327c-0.445,0.252-0.915,0.447-1.41,0.584s-1.059,0.207-1.691,0.207c-0.586,0-1.114-0.086-1.583-0.259
		s-0.867-0.423-1.195-0.751s-0.58-0.728-0.756-1.2S397.271,111.346,397.271,110.749z M401.033,108.34
		c-0.563,0-1.021,0.142-1.376,0.426s-0.59,0.699-0.708,1.244h3.814c-0.029-0.545-0.193-0.959-0.492-1.244
		S401.561,108.34,401.033,108.34z"/>
	<path fill="#414042" d="M408.328,114.405h-1.688v-11.373h1.688V114.405z"/>
	<path fill="#414042" d="M412.959,105.132c0,0.141-0.029,0.267-0.088,0.378s-0.136,0.207-0.232,0.286s-0.209,0.139-0.338,0.18
		s-0.264,0.062-0.404,0.062c-0.293,0-0.541-0.078-0.743-0.233s-0.304-0.379-0.304-0.672c0-0.281,0.102-0.501,0.304-0.659
		s0.45-0.237,0.743-0.237c0.141,0,0.275,0.021,0.404,0.062s0.241,0.101,0.338,0.18s0.174,0.173,0.232,0.281
		S412.959,104.992,412.959,105.132z M412.723,114.405h-1.688v-7.216h1.688V114.405z"/>
	<path fill="#414042" d="M421.941,114.405h-1.695v-4.465c0-0.51-0.104-0.901-0.313-1.173s-0.523-0.409-0.945-0.409
		c-0.188,0-0.37,0.023-0.549,0.07s-0.348,0.11-0.506,0.189s-0.306,0.167-0.443,0.264s-0.262,0.198-0.373,0.303v5.221h-1.688v-7.216
		h1.635l0.053,0.721c0.123-0.117,0.26-0.229,0.412-0.334s0.321-0.199,0.506-0.281s0.384-0.148,0.598-0.198s0.441-0.075,0.682-0.075
		c0.896,0,1.559,0.24,1.986,0.721s0.641,1.178,0.641,2.092V114.405z"/>
	<path fill="#414042" d="M428.744,112.375c0,0.311-0.054,0.599-0.162,0.866s-0.272,0.498-0.492,0.694s-0.495,0.35-0.826,0.461
		s-0.719,0.167-1.164,0.167c-0.434,0-0.844-0.054-1.23-0.163s-0.715-0.262-0.984-0.461v-1.459c0.152,0.105,0.32,0.208,0.505,0.308
		s0.374,0.186,0.567,0.259s0.383,0.132,0.57,0.176s0.361,0.066,0.52,0.066c0.381,0,0.658-0.082,0.834-0.246s0.264-0.363,0.264-0.598
		c0-0.123-0.018-0.233-0.053-0.33s-0.101-0.188-0.197-0.272s-0.231-0.168-0.404-0.25s-0.395-0.17-0.664-0.264
		c-0.369-0.135-0.678-0.277-0.927-0.426s-0.448-0.313-0.598-0.492s-0.257-0.372-0.321-0.58s-0.096-0.435-0.096-0.681
		c0-0.316,0.068-0.605,0.206-0.866s0.325-0.485,0.563-0.672s0.516-0.333,0.835-0.435s0.66-0.154,1.023-0.154
		c0.328,0,0.65,0.032,0.967,0.097s0.625,0.176,0.924,0.334v1.318c-0.287-0.129-0.591-0.236-0.91-0.321s-0.635-0.127-0.945-0.127
		c-0.363,0-0.637,0.076-0.821,0.229s-0.276,0.346-0.276,0.58c0,0.1,0.019,0.193,0.057,0.281s0.104,0.173,0.197,0.255
		s0.223,0.166,0.387,0.25s0.373,0.171,0.625,0.259c0.352,0.123,0.654,0.253,0.909,0.391s0.466,0.292,0.633,0.461
		s0.29,0.365,0.369,0.584S428.744,112.087,428.744,112.375z"/>
	<path fill="#414042" d="M429.914,109.307c0.246-0.006,0.492-0.031,0.738-0.075s0.467-0.116,0.663-0.215s0.357-0.23,0.483-0.391
		s0.189-0.365,0.189-0.611c0-0.117-0.012-0.28-0.035-0.488s-0.053-0.429-0.088-0.664c-0.047-0.264-0.09-0.526-0.128-0.787
		s-0.058-0.473-0.058-0.637c0-0.422,0.075-0.784,0.225-1.085s0.359-0.549,0.629-0.743s0.593-0.337,0.971-0.431
		s0.795-0.144,1.252-0.149v1.187c-0.416,0.012-0.75,0.123-1.002,0.334s-0.377,0.542-0.377,0.993c0,0.111,0.014,0.27,0.043,0.475
		s0.063,0.431,0.098,0.677c0.035,0.258,0.07,0.519,0.105,0.782s0.053,0.478,0.053,0.642c0,0.24-0.035,0.457-0.105,0.65
		s-0.17,0.368-0.299,0.523s-0.279,0.29-0.449,0.404s-0.357,0.212-0.563,0.294c0.434,0.146,0.778,0.368,1.033,0.664
		s0.383,0.681,0.383,1.156c0,0.082-0.005,0.179-0.014,0.29s-0.021,0.231-0.039,0.36s-0.035,0.259-0.053,0.391
		s-0.035,0.259-0.053,0.382c-0.035,0.246-0.068,0.472-0.098,0.677s-0.043,0.363-0.043,0.475c0,0.451,0.125,0.784,0.377,0.998
		s0.586,0.327,1.002,0.338v1.187c-0.457-0.006-0.874-0.054-1.252-0.145s-0.701-0.233-0.971-0.426s-0.479-0.441-0.629-0.743
		s-0.225-0.664-0.225-1.085c0-0.088,0.005-0.188,0.014-0.299s0.021-0.231,0.039-0.36s0.039-0.259,0.063-0.391
		s0.047-0.262,0.07-0.391c0.035-0.234,0.064-0.456,0.088-0.664s0.035-0.371,0.035-0.488c0-0.24-0.063-0.441-0.189-0.602
		s-0.287-0.293-0.483-0.396s-0.417-0.177-0.663-0.224s-0.492-0.076-0.738-0.088V109.307z"/>
	<path fill="#414042" d="M443.439,114.405h-1.625l-0.053-0.633c-0.135,0.105-0.291,0.205-0.467,0.299s-0.365,0.177-0.57,0.25
		s-0.421,0.132-0.646,0.176s-0.455,0.066-0.689,0.066c-0.475,0-0.912-0.081-1.311-0.242s-0.744-0.398-1.037-0.712
		s-0.521-0.702-0.686-1.165s-0.246-0.999-0.246-1.608c0-0.574,0.088-1.096,0.264-1.564s0.427-0.87,0.752-1.204
		s0.721-0.592,1.187-0.773s0.985-0.272,1.56-0.272c0.363,0,0.703,0.042,1.02,0.127s0.602,0.195,0.854,0.33v-4.447h1.695V114.405z
		 M437.824,110.863c0,0.41,0.049,0.765,0.148,1.063s0.236,0.545,0.409,0.738s0.374,0.337,0.603,0.431s0.471,0.141,0.729,0.141
		c0.223,0,0.436-0.028,0.638-0.083s0.39-0.125,0.563-0.207s0.329-0.171,0.47-0.268s0.262-0.186,0.361-0.268v-3.621
		c-0.07-0.059-0.164-0.119-0.281-0.18s-0.248-0.117-0.392-0.167s-0.298-0.091-0.462-0.123s-0.33-0.048-0.5-0.048
		c-0.287,0-0.568,0.042-0.844,0.127s-0.521,0.229-0.734,0.431s-0.385,0.469-0.514,0.8S437.824,110.371,437.824,110.863z"/>
	<path fill="#414042" d="M451.824,114.563c-0.217,0-0.406-0.022-0.57-0.066s-0.305-0.105-0.422-0.185s-0.216-0.174-0.295-0.286
		s-0.143-0.237-0.189-0.378c-0.281,0.258-0.611,0.475-0.992,0.65s-0.836,0.264-1.363,0.264c-0.41,0-0.769-0.056-1.076-0.167
		s-0.563-0.267-0.765-0.466s-0.354-0.432-0.457-0.699s-0.153-0.558-0.153-0.875c0-0.785,0.3-1.387,0.9-1.806s1.49-0.628,2.668-0.628
		c0.176,0,0.35,0.004,0.522,0.013s0.362,0.022,0.567,0.04c0-0.533-0.111-0.942-0.334-1.226s-0.59-0.426-1.1-0.426
		c-0.363,0-0.733,0.045-1.111,0.136s-0.752,0.212-1.121,0.365v-1.31c0.322-0.152,0.69-0.272,1.104-0.36s0.813-0.132,1.199-0.132
		c0.498,0,0.938,0.048,1.318,0.145s0.701,0.258,0.959,0.483s0.452,0.523,0.584,0.892s0.197,0.823,0.197,1.362v2.786
		c0,0.211,0.055,0.366,0.163,0.466s0.222,0.149,0.339,0.149s0.225-0.004,0.324-0.013s0.215-0.028,0.344-0.057v1.011
		c-0.146,0.105-0.327,0.185-0.541,0.237S452.076,114.563,451.824,114.563z M450.199,111.091c-0.135-0.012-0.285-0.021-0.449-0.026
		s-0.336-0.009-0.518-0.009c-0.393,0-0.715,0.035-0.967,0.105s-0.451,0.164-0.598,0.281s-0.25,0.249-0.309,0.396
		s-0.088,0.299-0.088,0.457c0,0.299,0.09,0.542,0.269,0.729s0.429,0.281,0.751,0.281c0.328,0,0.662-0.073,1.002-0.22
		s0.643-0.343,0.906-0.589V111.091z"/>
	<path fill="#414042" d="M458.496,114.247c-0.199,0.105-0.439,0.185-0.721,0.237s-0.574,0.079-0.879,0.079
		c-0.709,0-1.217-0.193-1.521-0.58s-0.457-0.979-0.457-1.775v-3.867h-1.354v-1.151h1.406c0.1-0.311,0.201-0.634,0.304-0.971
		s0.198-0.655,0.286-0.954h1.045v1.925h2.014v1.151h-2.014v4.122c0,0.252,0.064,0.456,0.193,0.611s0.316,0.233,0.563,0.233
		c0.217,0,0.42-0.01,0.607-0.031s0.363-0.045,0.527-0.075V114.247z"/>
	<path fill="#414042" d="M459.902,110.749c0-0.557,0.09-1.065,0.271-1.525s0.438-0.853,0.77-1.178s0.729-0.577,1.191-0.756
		s0.979-0.268,1.547-0.268c0.557,0,1.044,0.081,1.463,0.242s0.771,0.391,1.059,0.69s0.503,0.665,0.646,1.099
		s0.215,0.923,0.215,1.468v0.721h-5.52c0.029,0.299,0.107,0.576,0.233,0.831s0.296,0.473,0.51,0.655s0.466,0.324,0.756,0.426
		s0.61,0.154,0.962,0.154c0.205,0,0.424-0.019,0.655-0.057s0.469-0.094,0.712-0.167s0.486-0.163,0.729-0.268
		s0.476-0.229,0.698-0.369v1.327c-0.445,0.252-0.915,0.447-1.41,0.584s-1.059,0.207-1.691,0.207c-0.586,0-1.113-0.086-1.582-0.259
		s-0.867-0.423-1.195-0.751s-0.58-0.728-0.756-1.2S459.902,111.346,459.902,110.749z M463.664,108.34
		c-0.563,0-1.021,0.142-1.376,0.426s-0.591,0.699-0.708,1.244h3.814c-0.029-0.545-0.193-0.959-0.492-1.244
		S464.191,108.34,463.664,108.34z"/>
	<path fill="#414042" d="M473.262,110.608c-0.24,0.012-0.484,0.041-0.73,0.088s-0.467,0.122-0.663,0.224s-0.357,0.234-0.483,0.396
		s-0.189,0.362-0.189,0.602c0,0.117,0.012,0.28,0.035,0.488s0.053,0.429,0.088,0.664c0.023,0.129,0.046,0.259,0.066,0.391
		s0.039,0.262,0.057,0.391s0.033,0.249,0.045,0.36s0.018,0.211,0.018,0.299c0,0.422-0.075,0.784-0.225,1.085
		s-0.359,0.549-0.629,0.743s-0.594,0.335-0.975,0.426s-0.801,0.139-1.258,0.145v-1.187c0.422-0.012,0.76-0.125,1.012-0.338
		s0.377-0.546,0.377-0.998c0-0.111-0.014-0.27-0.043-0.475s-0.063-0.431-0.098-0.677c-0.041-0.252-0.078-0.511-0.113-0.778
		s-0.053-0.482-0.053-0.646c0-0.24,0.036-0.457,0.109-0.65s0.173-0.366,0.299-0.519s0.277-0.286,0.453-0.4s0.363-0.209,0.563-0.286
		c-0.422-0.152-0.766-0.375-1.029-0.668s-0.395-0.683-0.395-1.169c0-0.082,0.004-0.179,0.013-0.29s0.022-0.231,0.04-0.36
		s0.036-0.259,0.057-0.391s0.039-0.259,0.057-0.382c0.035-0.246,0.068-0.472,0.098-0.677s0.043-0.363,0.043-0.475
		c0-0.451-0.125-0.782-0.377-0.993s-0.59-0.322-1.012-0.334v-1.187c0.457,0.006,0.877,0.056,1.258,0.149s0.705,0.237,0.975,0.431
		s0.479,0.441,0.629,0.743s0.225,0.664,0.225,1.085c0,0.164-0.02,0.379-0.058,0.646s-0.081,0.526-0.128,0.778
		c-0.035,0.234-0.064,0.456-0.088,0.664s-0.035,0.371-0.035,0.488c0,0.246,0.063,0.45,0.189,0.611s0.287,0.292,0.483,0.391
		s0.417,0.171,0.663,0.215s0.49,0.069,0.73,0.075V110.608z"/>
</g>
<g>
	<path d="M36.565,23.021c-0.372,0.192-1.151,0.384-2.135,0.384c-2.279,0-3.982-1.439-3.982-4.102c0-2.542,1.715-4.246,4.222-4.246
		c0.996,0,1.643,0.216,1.919,0.36l-0.264,0.852c-0.384-0.192-0.948-0.336-1.619-0.336c-1.895,0-3.154,1.211-3.154,3.334
		c0,1.991,1.139,3.25,3.094,3.25c0.648,0,1.295-0.132,1.715-0.336L36.565,23.021z"/>
	<path d="M37.852,14.758h1.056v3.634h0.024c0.168-0.3,0.432-0.576,0.755-0.755c0.312-0.18,0.684-0.288,1.08-0.288
		c0.779,0,2.027,0.48,2.027,2.471v3.454h-1.056v-3.334c0-0.936-0.348-1.715-1.343-1.715c-0.684,0-1.211,0.48-1.415,1.043
		c-0.06,0.156-0.072,0.312-0.072,0.504v3.502h-1.056V14.758z"/>
	<path d="M44.512,14.758h1.056v8.515h-1.056V14.758z"/>
	<path d="M52.597,20.323c0,2.146-1.499,3.082-2.89,3.082c-1.559,0-2.783-1.151-2.783-2.986c0-1.931,1.284-3.07,2.878-3.07
		C51.47,17.349,52.597,18.56,52.597,20.323z M48.003,20.383c0,1.271,0.72,2.231,1.751,2.231c1.007,0,1.763-0.947,1.763-2.255
		c0-0.983-0.492-2.219-1.739-2.219C48.543,18.14,48.003,19.292,48.003,20.383z"/>
	<path d="M54.52,20.563c0.024,1.427,0.923,2.015,1.991,2.015c0.755,0,1.223-0.132,1.607-0.3l0.192,0.756
		c-0.372,0.168-1.019,0.372-1.943,0.372c-1.787,0-2.854-1.188-2.854-2.938s1.032-3.118,2.723-3.118c1.907,0,2.399,1.655,2.399,2.723
		c0,0.216-0.012,0.372-0.036,0.492H54.52z M57.614,19.807c0.012-0.66-0.276-1.703-1.463-1.703c-1.079,0-1.535,0.971-1.619,1.703
		H57.614z M57.854,14.962l-1.463,1.715h-0.744l1.056-1.715H57.854z"/>
	<path d="M69.335,19.724c-0.06-1.127-0.132-2.495-0.132-3.49H69.18c-0.288,0.936-0.612,1.955-1.02,3.07l-1.427,3.922h-0.792
		l-1.319-3.85c-0.384-1.151-0.695-2.183-0.923-3.142h-0.024c-0.024,1.007-0.084,2.351-0.156,3.574l-0.216,3.466h-0.995l0.563-8.083
		h1.331l1.379,3.91c0.336,0.996,0.6,1.883,0.815,2.723h0.024c0.216-0.815,0.503-1.703,0.863-2.723l1.439-3.91h1.331l0.504,8.083
		h-1.032L69.335,19.724z"/>
	<path d="M77.029,21.678c0,0.612,0.012,1.14,0.048,1.595h-0.936l-0.06-0.947h-0.024c-0.264,0.468-0.887,1.079-1.919,1.079
		c-0.911,0-2.003-0.516-2.003-2.542v-3.394h1.056v3.202c0,1.104,0.348,1.859,1.295,1.859c0.708,0,1.199-0.492,1.391-0.971
		c0.06-0.144,0.096-0.336,0.096-0.54v-3.55h1.056V21.678z M72.927,15.826c0-0.336,0.264-0.612,0.612-0.612
		c0.324,0,0.576,0.264,0.576,0.612c0,0.324-0.24,0.611-0.6,0.611C73.179,16.437,72.927,16.149,72.927,15.826z M75.146,15.826
		c0-0.336,0.264-0.612,0.6-0.612c0.335,0,0.587,0.264,0.587,0.612c0,0.324-0.24,0.611-0.6,0.611
		C75.386,16.437,75.146,16.149,75.146,15.826z"/>
	<path d="M78.783,14.758h1.056v3.634h0.024c0.168-0.3,0.432-0.576,0.755-0.755c0.312-0.18,0.684-0.288,1.08-0.288
		c0.779,0,2.027,0.48,2.027,2.471v3.454h-1.056v-3.334c0-0.936-0.348-1.715-1.343-1.715c-0.684,0-1.211,0.48-1.415,1.043
		c-0.06,0.156-0.072,0.312-0.072,0.504v3.502h-1.056V14.758z"/>
	<path d="M85.443,14.758h1.056v8.515h-1.056V14.758z"/>
	<path d="M88.863,20.563c0.024,1.427,0.923,2.015,1.991,2.015c0.755,0,1.223-0.132,1.607-0.3l0.192,0.756
		c-0.372,0.168-1.019,0.372-1.943,0.372c-1.787,0-2.854-1.188-2.854-2.938s1.032-3.118,2.723-3.118c1.907,0,2.399,1.655,2.399,2.723
		c0,0.216-0.012,0.372-0.036,0.492H88.863z M91.957,19.807c0.012-0.66-0.276-1.703-1.463-1.703c-1.08,0-1.535,0.971-1.619,1.703
		H91.957z"/>
	<path d="M94.287,19.04c0-0.611-0.024-1.091-0.048-1.571h0.923l0.048,0.947h0.036c0.324-0.552,0.864-1.067,1.835-1.067
		c0.78,0,1.379,0.48,1.631,1.164h0.024c0.18-0.336,0.419-0.576,0.66-0.756c0.348-0.264,0.719-0.408,1.271-0.408
		c0.78,0,1.919,0.504,1.919,2.519v3.406h-1.031v-3.274c0-1.127-0.42-1.787-1.259-1.787c-0.612,0-1.067,0.443-1.259,0.947
		c-0.048,0.156-0.084,0.336-0.084,0.528v3.586h-1.031v-3.478c0-0.923-0.408-1.583-1.211-1.583c-0.648,0-1.14,0.527-1.308,1.055
		c-0.06,0.144-0.084,0.336-0.084,0.516v3.49h-1.031V19.04z"/>
	<path d="M108.373,21.882c0,0.503,0.024,0.995,0.084,1.391h-0.947l-0.084-0.731h-0.036c-0.324,0.456-0.947,0.863-1.775,0.863
		c-1.175,0-1.775-0.828-1.775-1.667c0-1.403,1.247-2.171,3.49-2.159v-0.12c0-0.468-0.132-1.343-1.319-1.331
		c-0.551,0-1.115,0.156-1.523,0.432l-0.24-0.708c0.479-0.3,1.188-0.504,1.919-0.504c1.775,0,2.207,1.211,2.207,2.363V21.882z
		 M107.354,20.311c-1.151-0.024-2.459,0.18-2.459,1.307c0,0.696,0.456,1.008,0.983,1.008c0.768,0,1.259-0.48,1.427-0.972
		c0.036-0.12,0.048-0.24,0.048-0.336V20.311z"/>
	<path d="M110.079,19.04c0-0.611-0.012-1.091-0.048-1.571h0.936l0.06,0.959h0.024c0.288-0.54,0.959-1.08,1.919-1.08
		c0.803,0,2.051,0.48,2.051,2.471v3.454h-1.056v-3.346c0-0.936-0.348-1.715-1.343-1.715c-0.684,0-1.223,0.492-1.415,1.079
		c-0.048,0.132-0.072,0.312-0.072,0.492v3.49h-1.056V19.04z"/>
	<path d="M116.739,19.04c0-0.611-0.012-1.091-0.048-1.571h0.936l0.06,0.959h0.024c0.288-0.54,0.959-1.08,1.919-1.08
		c0.803,0,2.051,0.48,2.051,2.471v3.454h-1.056v-3.346c0-0.936-0.348-1.715-1.343-1.715c-0.684,0-1.223,0.492-1.415,1.079
		c-0.048,0.132-0.072,0.312-0.072,0.492v3.49h-1.056V19.04z"/>
	<path d="M132.143,22.914c-0.468,0.18-1.403,0.444-2.495,0.444c-1.224,0-2.231-0.312-3.022-1.067
		c-0.695-0.672-1.127-1.751-1.127-3.01c0-2.411,1.667-4.174,4.378-4.174c0.935,0,1.679,0.204,2.027,0.372l-0.264,0.852
		c-0.432-0.204-0.971-0.348-1.787-0.348c-1.967,0-3.25,1.223-3.25,3.25c0,2.051,1.223,3.262,3.118,3.262
		c0.684,0,1.151-0.096,1.391-0.216v-2.411h-1.631v-0.839h2.663V22.914z"/>
	<path d="M134.342,20.563c0.024,1.427,0.923,2.015,1.991,2.015c0.755,0,1.223-0.132,1.607-0.3l0.192,0.756
		c-0.372,0.168-1.019,0.372-1.943,0.372c-1.787,0-2.854-1.188-2.854-2.938s1.032-3.118,2.723-3.118c1.907,0,2.399,1.655,2.399,2.723
		c0,0.216-0.012,0.372-0.036,0.492H134.342z M137.437,19.807c0.012-0.66-0.276-1.703-1.463-1.703c-1.08,0-1.535,0.971-1.619,1.703
		H137.437z"/>
	<path d="M139.766,19.04c0-0.611-0.012-1.091-0.048-1.571h0.936l0.06,0.959h0.024c0.288-0.54,0.959-1.08,1.919-1.08
		c0.803,0,2.051,0.48,2.051,2.471v3.454h-1.056v-3.346c0-0.936-0.348-1.715-1.343-1.715c-0.684,0-1.223,0.492-1.415,1.079
		c-0.048,0.132-0.072,0.312-0.072,0.492v3.49h-1.056V19.04z"/>
	<path d="M150.564,23.069c-0.276,0.132-0.887,0.336-1.667,0.336c-1.751,0-2.891-1.188-2.891-2.962c0-1.787,1.224-3.094,3.119-3.094
		c0.624,0,1.175,0.156,1.463,0.312l-0.24,0.803c-0.252-0.132-0.647-0.275-1.223-0.275c-1.332,0-2.051,0.995-2.051,2.194
		c0,1.343,0.864,2.171,2.015,2.171c0.6,0,0.996-0.144,1.295-0.276L150.564,23.069z"/>
	<path d="M152.318,20.563c0.024,1.427,0.923,2.015,1.991,2.015c0.755,0,1.223-0.132,1.607-0.3l0.192,0.756
		c-0.372,0.168-1.019,0.372-1.943,0.372c-1.787,0-2.854-1.188-2.854-2.938s1.032-3.118,2.723-3.118c1.907,0,2.399,1.655,2.399,2.723
		c0,0.216-0.012,0.372-0.036,0.492H152.318z M155.412,19.807c0.012-0.66-0.276-1.703-1.463-1.703c-1.08,0-1.535,0.971-1.619,1.703
		H155.412z"/>
	<path d="M35.75,33.691c0,2.651-0.996,4.114-2.71,4.114c-1.523,0-2.567-1.427-2.591-4.006c0-2.626,1.14-4.054,2.723-4.054
		C34.802,29.746,35.75,31.209,35.75,33.691z M31.516,33.812c0,2.027,0.624,3.178,1.583,3.178c1.067,0,1.583-1.259,1.583-3.25
		c0-1.919-0.48-3.178-1.583-3.178C32.188,30.561,31.516,31.688,31.516,33.812z"/>
	<path d="M41.773,29.877v0.696l-3.395,7.1h-1.091l3.382-6.896v-0.024h-3.814v-0.875H41.773z"/>
	<path d="M42.316,38.141l3.334-8.695h0.828l-3.358,8.695H42.316z"/>
	<path d="M49.275,30.861h-0.024l-1.355,0.731l-0.204-0.804l1.703-0.912h0.9v7.796h-1.02V30.861z"/>
	<path d="M55.431,30.861h-0.024l-1.355,0.731l-0.204-0.804l1.703-0.912h0.9v7.796h-1.02V30.861z"/>
	<path d="M58.744,38.141l3.334-8.695h0.828l-3.358,8.695H58.744z"/>
	<path d="M63.411,37.673v-0.647l0.828-0.804c1.991-1.895,2.902-2.902,2.902-4.078c0-0.792-0.372-1.523-1.535-1.523
		c-0.708,0-1.295,0.36-1.655,0.66l-0.336-0.744c0.528-0.443,1.307-0.792,2.195-0.792c1.679,0,2.387,1.151,2.387,2.267
		c0,1.439-1.043,2.603-2.687,4.186l-0.612,0.576v0.024h3.49v0.875H63.411z"/>
	<path d="M74.76,33.691c0,2.651-0.996,4.114-2.71,4.114c-1.523,0-2.567-1.427-2.591-4.006c0-2.626,1.14-4.054,2.723-4.054
		C73.813,29.746,74.76,31.209,74.76,33.691z M70.526,33.812c0,2.027,0.624,3.178,1.583,3.178c1.067,0,1.583-1.259,1.583-3.25
		c0-1.919-0.48-3.178-1.583-3.178C71.198,30.561,70.526,31.688,70.526,33.812z"/>
	<path d="M78.014,30.861H77.99l-1.355,0.731l-0.204-0.804l1.703-0.912h0.9v7.796h-1.02V30.861z"/>
	<path d="M84.169,30.861h-0.024l-1.355,0.731l-0.204-0.804l1.703-0.912h0.9v7.796h-1.02V30.861z"/>
</g>
</svg>
