<?xml version="1.0" encoding="utf-8"?>
<!-- Generator: Adobe Illustrator 15.0.0, SVG Export Plug-In . SVG Version: 6.00 Build 0)  -->
<!DOCTYPE svg PUBLIC "-//W3C//DTD SVG 1.1//EN" "http://www.w3.org/Graphics/SVG/1.1/DTD/svg11.dtd">
<svg version="1.1" id="Calque_1" xmlns="http://www.w3.org/2000/svg" xmlns:xlink="http://www.w3.org/1999/xlink" x="0px" y="0px"
	 width="800px" height="600px" viewBox="0 0 800 600" enable-background="new 0 0 800 600" xml:space="preserve">
<circle opacity="0.75" fill="#F10088" stroke="#000000" stroke-miterlimit="10" enable-background="new    " cx="505.781" cy="197" r="138.779"/>
<circle opacity="0.75" fill="#00AFE9" stroke="#000000" stroke-miterlimit="10" enable-background="new    " cx="505.781" cy="429.833" r="138.78"/>
<path opacity="0.75" fill="#89C657" stroke="#000000" stroke-miterlimit="10" enable-background="new    " d="M518.002,318.808
	c0,76.646-62.135,138.778-138.779,138.778c-76.646,0-138.779-62.133-138.779-138.778c0-76.644,62.134-138.778,138.779-138.778
	C455.867,180.029,518.002,242.166,518.002,318.808z"/>
<path opacity="0.75" fill="#F43E3C" stroke="#000000" stroke-miterlimit="10" enable-background="new    " d="M771.118,329.911
	c0,76.648-62.134,138.781-138.78,138.781c-76.646,0-138.779-62.133-138.779-138.781c0-76.644,62.135-138.779,138.779-138.779
	C708.984,191.132,771.118,253.267,771.118,329.911z"/>
<text transform="matrix(1 0 0 1 267.8882 329.9141)" fill="#FFFFFF" font-family="'Arial-BoldMT'" font-size="25">#info</text>
<text transform="matrix(1 0 0 1 461.9951 520.8701)" fill="#FFFFFF" font-family="'Arial-BoldMT'" font-size="25">#techno</text>
<text transform="matrix(1 0 0 1 613.4502 329.9131)" fill="#FFFFFF" font-family="'Arial-BoldMT'" font-size="25">#innovation</text>
<text transform="matrix(1 0 0 1 461.9951 134.3857)" fill="#FFFFFF" font-family="'Arial-BoldMT'" font-size="25">#design</text>
<text transform="matrix(1 0 0 1 480.2246 180.0293)" fill="#FFFFFF" font-family="'Arial-BoldMT'" font-size="40">+</text>
<text transform="matrix(1 0 0 1 518.0029 180.0293)" fill="#FFFFFF" font-family="'Arial-BoldMT'" font-size="50">-</text>
<text transform="matrix(1 0 0 1 405.2246 265.0293)" fill="#FFFFFF" font-family="'Arial-BoldMT'" font-size="40">+</text>
<text transform="matrix(1 0 0 1 443.0029 265.0293)" fill="#FFFFFF" font-family="'Arial-BoldMT'" font-size="50">-</text>
<text transform="matrix(1 0 0 1 524.6699 323.8076)" fill="#FFFFFF" font-family="'Arial-BoldMT'" font-size="25">+</text>
<text transform="matrix(1 0 0 1 543.5596 323.8076)" fill="#FFFFFF" font-family="'Arial-BoldMT'" font-size="25">-</text>
<text transform="matrix(1 0 0 1 461.9951 323.8076)" fill="#FFFFFF" font-family="'Arial-BoldMT'" font-size="25">+</text>
<text transform="matrix(1 0 0 1 480.8848 323.8076)" fill="#FFFFFF" font-family="'Arial-BoldMT'" font-size="25">-</text>
<text transform="matrix(1 0 0 1 548.2246 265.0293)" fill="#FFFFFF" font-family="'Arial-BoldMT'" font-size="40">+</text>
<text transform="matrix(1 0 0 1 586.0029 265.0293)" fill="#FFFFFF" font-family="'Arial-BoldMT'" font-size="50">-</text>
<text transform="matrix(1 0 0 1 548.2246 385.0293)" fill="#FFFFFF" font-family="'Arial-BoldMT'" font-size="40">+</text>
<text transform="matrix(1 0 0 1 586.0029 385.0293)" fill="#FFFFFF" font-family="'Arial-BoldMT'" font-size="50">-</text>
<text transform="matrix(1 0 0 1 405.2246 385.0293)" fill="#FFFFFF" font-family="'Arial-BoldMT'" font-size="40">+</text>
<text transform="matrix(1 0 0 1 443.0029 385.0293)" fill="#FFFFFF" font-family="'Arial-BoldMT'" font-size="50">-</text>
<text transform="matrix(1 0 0 1 281.2217 369.1123)" fill="#FFFFFF" font-family="'Arial-BoldMT'" font-size="40">+</text>
<text transform="matrix(1 0 0 1 318.9995 369.1123)" fill="#FFFFFF" font-family="'Arial-BoldMT'" font-size="50">-</text>
<text transform="matrix(1 0 0 1 486.8926 491.335)" fill="#FFFFFF" font-family="'Arial-BoldMT'" font-size="40">+</text>
<text transform="matrix(1 0 0 1 524.6699 491.335)" fill="#FFFFFF" font-family="'Arial-BoldMT'" font-size="50">-</text>
<text transform="matrix(1 0 0 1 652.4473 369.1123)" fill="#FFFFFF" font-family="'Arial-BoldMT'" font-size="40">+</text>
<text transform="matrix(1 0 0 1 690.2256 369.1123)" fill="#FFFFFF" font-family="'Arial-BoldMT'" font-size="50">-</text>
<text transform="matrix(1 0 0 1 12.4126 501.9814)" font-family="'Arial-BoldMT'" font-size="20">+</text>
<text transform="matrix(1 0 0 1 40.1768 501.9814)" font-family="'Arial-BoldMT'" font-size="20">#jaime</text>
<text transform="matrix(1 0 0 1 12.4126 539.7598)" font-family="'Arial-BoldMT'" font-size="20">-</text>
<text transform="matrix(1 0 0 1 29.0625 539.7598)" font-family="'Arial-BoldMT'" font-size="20"> </text>
<text transform="matrix(1 0 0 1 40.1768 539.7598)" font-family="'Arial-BoldMT'" font-size="20">#jaimepas</text>
<text transform="matrix(1 0 0 1 175.106 38.665)" font-family="'Arial-BoldMT'" font-size="25">Les hashtags utiles pour twitter une conférence</text>
<text transform="matrix(1 0 0 1 213.1064 134.3857)" font-family="'Arial-BoldMT'" font-size="20">#confXX *</text>
<text transform="matrix(1 0 0 1 20.9995 34.2207)" font-family="'ArialMT'" font-size="20">Emal</text>
<text transform="matrix(1 0 0 1 20.9995 58.2207)" font-family="'ArialMT'" font-size="20">SAIFI</text>
<text transform="matrix(1 0 0 1 20.9995 82.2207)" font-family="'ArialMT'" font-size="20">CDNL</text>
<text transform="matrix(1 0 0 1 20.9995 106.2207)" font-family="'ArialMT'" font-size="20">05.11.2011</text>
<text transform="matrix(1 0 0 1 12.4126 587.1396)" font-family="'Arial-BoldMT'" font-size="20">* (remplacer XX par l’année en cours)</text>
</svg>
