<?xml version="1.0" encoding="utf-8"?>
<!-- Generator: Adobe Illustrator 15.1.0, SVG Export Plug-In . SVG Version: 6.00 Build 0)  -->
<!DOCTYPE svg PUBLIC "-//W3C//DTD SVG 1.1//EN" "http://www.w3.org/Graphics/SVG/1.1/DTD/svg11.dtd">
<svg version="1.1" id="Calque_1" xmlns="http://www.w3.org/2000/svg" xmlns:xlink="http://www.w3.org/1999/xlink" x="0px" y="0px"
	 width="800px" height="600px" viewBox="0 0 800 600" enable-background="new 0 0 800 600" xml:space="preserve">
<ellipse opacity="0.53" fill="#CD4996" stroke="#000000" stroke-width="2" stroke-miterlimit="10" cx="342.701" cy="448.874" rx="124.797" ry="119.998"/>
<ellipse opacity="0.53" fill="#F5EA4B" stroke="#000000" stroke-width="2" stroke-miterlimit="10" cx="315.995" cy="309.698" rx="124.797" ry="119.996"/>
<ellipse opacity="0.53" fill="#F31937" stroke="#000000" stroke-width="2" stroke-miterlimit="10" cx="461.909" cy="237.699" rx="124.797" ry="119.998"/>
<ellipse opacity="0.53" fill="#FC993B" stroke="#000000" stroke-width="2" stroke-miterlimit="10" cx="474.391" cy="385.536" rx="124.798" ry="119.996"/>
<rect x="445.578" y="191.603" fill="none" width="101.757" height="32.64"/>
<text transform="matrix(1 0 0 1 445.5781 206.186)" font-family="'CenturyGothic-Bold'" font-size="19.8139">#COOL</text>
<rect x="298.542" y="482.231" fill="none" width="64.121" height="25.85"/>
<text transform="matrix(1 0 0 1 298.5415 496.8145)" font-family="'CenturyGothic-Bold'" font-size="19.8139">#BAD</text>
<rect x="236.144" y="281.039" fill="none" width="86.141" height="17.457"/>
<text transform="matrix(1 0 0 1 236.1431 295.6211)" font-family="'CenturyGothic-Bold'" font-size="19.8139">#WHAT?</text>
<rect x="514.538" y="396.487" fill="none" width="53.93" height="18.137"/>
<text transform="matrix(1 0 0 1 514.5381 411.0703)" font-family="'CenturyGothic-Bold'" font-size="19.8139">#OK</text>
<rect x="46.918" y="16.954" fill="none" width="709.18" height="124.418"/>
<text transform="matrix(1 0 0 1 54.1289 43.4497)"><tspan x="0" y="0" font-family="'CenturyGothic-Bold'" font-size="36">SYSTEME D’EXPRESSION DE POINT DE VUE </tspan><tspan x="136.802" y="43.2" font-family="'CenturyGothic-Bold'" font-size="36">VIA LES HASH DE TWITTER</tspan></text>
<rect x="643.43" y="546.021" fill="none" width="150" height="46.512"/>
<text transform="matrix(1 0 0 1 651.2314 559.2686)"><tspan x="0" y="0" font-family="'CenturyGothic-Bold'" font-size="18">NOVEMBRE 2011</tspan><tspan x="27.738" y="21.6" font-family="'CenturyGothic-Bold'" font-size="18">LIMA JULIETTE</tspan></text>
<ellipse transform="matrix(0.8897 -0.4565 0.4565 0.8897 -111.3461 227.5991)" fill="none" stroke="#000000" stroke-width="2" stroke-miterlimit="10" cx="415.353" cy="344.235" rx="315.294" ry="225.294"/>
<rect x="64.941" y="150.412" fill="none" width="237.647" height="45.882"/>
<text transform="matrix(1 0 0 1 64.9409 168.0757)" font-family="'CenturyGothic-Bold'" font-size="24">#PRATICCDNLTIC</text>
</svg>
