<?xml version="1.0" encoding="utf-8"?>
<!-- Generator: Adobe Illustrator 15.0.0, SVG Export Plug-In . SVG Version: 6.00 Build 0)  -->
<!DOCTYPE svg PUBLIC "-//W3C//DTD SVG 1.1//EN" "http://www.w3.org/Graphics/SVG/1.1/DTD/svg11.dtd">
<svg version="1.1" id="Calque_1" xmlns="http://www.w3.org/2000/svg" xmlns:xlink="http://www.w3.org/1999/xlink" x="0px" y="0px"
	 width="600px" height="600px" viewBox="0 0 600 600" enable-background="new 0 0 600 600" xml:space="preserve">
<text transform="matrix(1 0 0 1 377.2148 562.4668)"><tspan x="0" y="0" fill="#58595B" font-family="'DINEngschriftLT-Alternate'" font-size="12">Cartographie sémantique - Université de Paris 8</tspan><tspan x="0" y="14.399" fill="#58595B" font-family="'DINEngschriftLT-Alternate'" font-size="12">Lundi 7 novembre 2011 - Chloé Moriceau - CDNL 2012</tspan></text>
<rect x="377.215" y="582.804" fill="#58595B" width="222.758" height="0.487"/>
<text transform="matrix(1 0 0 1 29.2749 296.5723)" fill="#58595B" font-family="'DINEngschriftLT-Alternate'" font-size="11.1763">Légende</text>
<text transform="matrix(1 0 0 1 97.4419 331.1699)" fill="#58595B" font-family="'DINEngschriftLT-Alternate'" font-size="7.4509">incompréhension</text>
<g>
	<g>
		<g>
			<path fill="#636466" d="M42.225,325.865c-0.049-0.191-0.148-0.379-0.297-0.566c-0.307-0.41-0.737-0.619-1.293-0.626
				c-0.466,0.007-0.86,0.169-1.181,0.483c-0.328,0.316-0.496,0.711-0.502,1.188v0.652h0.001c0,0.002-0.001,0.006-0.001,0.008
				c0,0.3,0.243,0.544,0.544,0.544c0.3,0,0.543-0.244,0.543-0.544c0-0.002,0-0.006,0-0.008h0v-0.641
				c0-0.191,0.065-0.336,0.194-0.433c0.123-0.087,0.255-0.13,0.4-0.13c0.167,0,0.303,0.051,0.41,0.152
				c0.104,0.111,0.156,0.248,0.156,0.41v0.583c0,0.229-0.048,0.444-0.145,0.643l-0.727,1.149c-0.192,0.274-0.289,0.573-0.289,0.897
				v1.017c0,0.001,0,0.002,0,0.002v0.002v0.011h0.001c0.007,0.294,0.246,0.531,0.542,0.531s0.536-0.237,0.542-0.531h0.002v-0.885
				c0.008-0.201,0.072-0.39,0.194-0.566l0.783-1.3c0.077-0.118,0.131-0.266,0.161-0.441c0.015-0.177,0.022-0.449,0.022-0.82
				C42.287,326.316,42.266,326.056,42.225,325.865z"/>
		</g>
		<g>
			<circle fill="#636466" cx="40.583" cy="332.051" r="0.543"/>
		</g>
	</g>
</g>
<g>
	<g>
		<path fill="#636466" d="M32.243,330.121h-0.908l-0.312,2.401h-0.738l0.327-2.401h-0.565v-0.665h0.639l0.237-1.818h-0.538v-0.665
			h0.628l0.312-2.406h0.733l-0.312,2.406h0.908l0.312-2.406H33.7l-0.322,2.406h0.565v0.665h-0.649l-0.246,1.818h0.557v0.665h-0.628
			l-0.312,2.401h-0.745L32.243,330.121z M32.565,327.638h-0.908l-0.237,1.818h0.908L32.565,327.638z"/>
	</g>
</g>
<g>
	<g>
		<path fill="#8DC63F" d="M32.243,357.872h-0.908l-0.312,2.401h-0.738l0.327-2.401h-0.565v-0.665h0.639l0.237-1.818h-0.538v-0.664
			h0.628l0.312-2.407h0.733l-0.312,2.407h0.908l0.312-2.407H33.7l-0.322,2.407h0.565v0.664h-0.649l-0.246,1.818h0.557v0.665h-0.628
			l-0.312,2.401h-0.745L32.243,357.872z M32.565,355.389h-0.908l-0.237,1.818h0.908L32.565,355.389z"/>
	</g>
</g>
<g>
	<path fill="#F26839" d="M32.243,372.951h-0.908l-0.312,2.402h-0.738l0.327-2.402h-0.565v-0.664h0.639l0.237-1.818h-0.538v-0.665
		h0.628l0.312-2.407h0.733l-0.312,2.407h0.908l0.312-2.407H33.7l-0.322,2.407h0.565v0.665h-0.649l-0.246,1.818h0.557v0.664h-0.628
		l-0.312,2.402h-0.745L32.243,372.951z M32.565,370.469h-0.908l-0.237,1.818h0.908L32.565,370.469z"/>
</g>
<g>
	<path fill="#59B8E8" d="M32.243,344.172h-0.908l-0.312,2.402h-0.738l0.327-2.402h-0.565v-0.664h0.639l0.237-1.818h-0.538v-0.665
		h0.628l0.312-2.407h0.733l-0.312,2.407h0.908l0.312-2.407H33.7l-0.322,2.407h0.565v0.665h-0.649l-0.246,1.818h0.557v0.664h-0.628
		l-0.312,2.402h-0.745L32.243,344.172z M32.565,341.689h-0.908l-0.237,1.818h0.908L32.565,341.689z"/>
</g>
<g>
	<g>
		<path fill="#8DC63F" d="M40.582,360.396c-2.275,0-4.126-1.851-4.126-4.126c0-0.257,0.208-0.466,0.465-0.466
			s0.466,0.209,0.466,0.466c0,1.762,1.434,3.195,3.195,3.195c1.762,0,3.196-1.434,3.196-3.195c0-0.257,0.208-0.466,0.466-0.466
			s0.466,0.209,0.466,0.466C44.709,358.546,42.858,360.396,40.582,360.396z"/>
	</g>
</g>
<g>
	<path fill="#F26839" d="M44.244,375.273c-0.257,0-0.466-0.209-0.466-0.466c0-1.763-1.433-3.195-3.195-3.195
		s-3.196,1.433-3.196,3.195c0,0.257-0.208,0.466-0.466,0.466s-0.465-0.209-0.465-0.466c0-2.275,1.851-4.127,4.127-4.127
		c2.275,0,4.127,1.852,4.127,4.127C44.709,375.064,44.501,375.273,44.244,375.273z"/>
</g>
<g opacity="0.49">
	<path fill="#F26839" d="M44.244,519.582c-0.257,0-0.466-0.209-0.466-0.467c0-1.762-1.433-3.195-3.195-3.195
		s-3.196,1.434-3.196,3.195c0,0.258-0.208,0.467-0.466,0.467s-0.465-0.209-0.465-0.467c0-2.275,1.851-4.127,4.127-4.127
		c2.275,0,4.127,1.852,4.127,4.127C44.709,519.373,44.501,519.582,44.244,519.582z"/>
</g>
<g>
	<path fill="#F26839" d="M44.244,530.977c-0.257,0-0.466-0.209-0.466-0.467c0-1.762-1.433-3.195-3.195-3.195
		s-3.196,1.434-3.196,3.195c0,0.258-0.208,0.467-0.466,0.467s-0.465-0.209-0.465-0.467c0-2.275,1.851-4.127,4.127-4.127
		c2.275,0,4.127,1.852,4.127,4.127C44.709,530.768,44.501,530.977,44.244,530.977z"/>
</g>
<g>
	<path fill="#F26839" d="M44.244,543.358c-0.257,0-0.466-0.208-0.466-0.466c0-1.762-1.433-3.196-3.195-3.196
		s-3.196,1.435-3.196,3.196c0,0.258-0.208,0.466-0.466,0.466s-0.465-0.208-0.465-0.466c0-2.276,1.851-4.127,4.127-4.127
		c2.275,0,4.127,1.851,4.127,4.127C44.709,543.15,44.501,543.358,44.244,543.358z"/>
</g>
<polyline fill="none" stroke="#000000" stroke-width="0.25" stroke-miterlimit="10" points="60.779,293.39 144.303,293.39 
	144.303,583.246 22.605,583.246 22.605,293.39 27.963,293.39 "/>
<g>
	<g>
		<line fill="#58595B" x1="59.454" y1="329.705" x2="79.308" y2="329.705"/>
		<rect x="59.454" y="329.589" fill="#58595B" width="19.854" height="0.232"/>
	</g>
	<g>
		<path fill="#58595B" d="M80.52,331.09c-0.763,0-1.385-0.621-1.385-1.385s0.622-1.385,1.385-1.385c0.764,0,1.385,0.621,1.385,1.385
			S81.284,331.09,80.52,331.09z M80.52,328.553c-0.635,0-1.152,0.518-1.152,1.152s0.517,1.152,1.152,1.152
			c0.636,0,1.152-0.518,1.152-1.152S81.156,328.553,80.52,328.553z"/>
	</g>
</g>
<text transform="matrix(1 0 0 1 101.2764 358.7236)" fill="#58595B" font-family="'DINEngschriftLT-Alternate'" font-size="7.4509">opinion positive</text>
<g>
	<g>
		<line fill="#58595B" x1="59.454" y1="357.258" x2="79.308" y2="357.258"/>
		<rect x="59.454" y="357.142" fill="#58595B" width="19.854" height="0.233"/>
	</g>
	<g>
		<path fill="#58595B" d="M80.52,358.643c-0.763,0-1.385-0.621-1.385-1.385s0.622-1.385,1.385-1.385
			c0.764,0,1.385,0.621,1.385,1.385S81.284,358.643,80.52,358.643z M80.52,356.105c-0.635,0-1.152,0.518-1.152,1.152
			s0.517,1.152,1.152,1.152c0.636,0,1.152-0.518,1.152-1.152S81.156,356.105,80.52,356.105z"/>
	</g>
</g>
<g opacity="0.49">
	<path fill="#8DC63F" d="M32.243,453.757h-0.908l-0.312,2.401h-0.738l0.327-2.401h-0.565v-0.665h0.639l0.237-1.818h-0.538v-0.664
		h0.628l0.312-2.408h0.733l-0.312,2.408h0.908l0.312-2.408H33.7l-0.322,2.408h0.565v0.664h-0.649l-0.246,1.818h0.557v0.665h-0.628
		l-0.312,2.401h-0.745L32.243,453.757z M32.565,451.273h-0.908l-0.237,1.818h0.908L32.565,451.273z"/>
</g>
<g opacity="0.49">
	<path fill="#8DC63F" d="M40.582,456.283c-2.275,0-4.126-1.852-4.126-4.127c0-0.257,0.208-0.465,0.465-0.465
		s0.466,0.208,0.466,0.465c0,1.762,1.434,3.195,3.195,3.195c1.762,0,3.196-1.434,3.196-3.195c0-0.257,0.208-0.465,0.466-0.465
		s0.466,0.208,0.466,0.465C44.709,454.432,42.858,456.283,40.582,456.283z"/>
</g>
<text transform="matrix(1 0 0 1 101.9717 454.6074)" fill="#58595B" font-family="'DINEngschriftLT-Alternate'" font-size="7.4509">oui, intéressant</text>
<g>
	<g>
		<line fill="#58595B" x1="59.454" y1="453.145" x2="79.308" y2="453.145"/>
		<rect x="59.454" y="453.027" fill="#58595B" width="19.854" height="0.233"/>
	</g>
	<g>
		<path fill="#58595B" d="M80.52,454.529c-0.763,0-1.385-0.621-1.385-1.385s0.622-1.385,1.385-1.385
			c0.764,0,1.385,0.621,1.385,1.385S81.284,454.529,80.52,454.529z M80.52,451.992c-0.635,0-1.152,0.517-1.152,1.152
			c0,0.635,0.517,1.151,1.152,1.151c0.636,0,1.152-0.517,1.152-1.151C81.672,452.509,81.156,451.992,80.52,451.992z"/>
	</g>
</g>
<text transform="matrix(1 0 0 1 99.6284 373.6924)" fill="#58595B" font-family="'DINEngschriftLT-Alternate'" font-size="7.4509">opinion négative</text>
<g>
	<g>
		<line fill="#58595B" x1="59.454" y1="372.227" x2="79.308" y2="372.227"/>
		<rect x="59.454" y="372.109" fill="#58595B" width="19.854" height="0.233"/>
	</g>
	<g>
		<path fill="#58595B" d="M80.52,373.611c-0.763,0-1.385-0.621-1.385-1.385s0.622-1.385,1.385-1.385
			c0.764,0,1.385,0.621,1.385,1.385S81.284,373.611,80.52,373.611z M80.52,371.074c-0.635,0-1.152,0.518-1.152,1.152
			s0.517,1.152,1.152,1.152c0.636,0,1.152-0.518,1.152-1.152S81.156,371.074,80.52,371.074z"/>
	</g>
</g>
<text transform="matrix(1 0 0 1 108.3271 344.9062)" fill="#58595B" font-family="'DINEngschriftLT-Alternate'" font-size="7.4509">sans opinion</text>
<g>
	<g>
		<line fill="#58595B" x1="59.454" y1="343.441" x2="79.308" y2="343.441"/>
		<rect x="59.454" y="343.324" fill="#58595B" width="19.854" height="0.232"/>
	</g>
	<g>
		<path fill="#58595B" d="M80.52,344.826c-0.763,0-1.385-0.622-1.385-1.385c0-0.764,0.622-1.385,1.385-1.385
			c0.764,0,1.385,0.621,1.385,1.385C81.905,344.204,81.284,344.826,80.52,344.826z M80.52,342.289c-0.635,0-1.152,0.517-1.152,1.152
			c0,0.635,0.517,1.151,1.152,1.151c0.636,0,1.152-0.517,1.152-1.151C81.672,342.806,81.156,342.289,80.52,342.289z"/>
	</g>
</g>
<g>
	<path fill="#59B8E8" d="M44.244,343.014h-7.323c-0.257,0-0.465-0.208-0.465-0.466c0-0.257,0.208-0.466,0.465-0.466h7.323
		c0.257,0,0.466,0.209,0.466,0.466C44.709,342.806,44.501,343.014,44.244,343.014z"/>
</g>
<g>
	<path fill="#EB66A6" d="M32.243,400.391h-0.908l-0.312,2.402h-0.738l0.327-2.402h-0.565v-0.664h0.639l0.237-1.818h-0.538v-0.665
		h0.628l0.312-2.407h0.733l-0.312,2.407h0.908l0.312-2.407H33.7l-0.322,2.407h0.565v0.665h-0.649l-0.246,1.818h0.557v0.664h-0.628
		l-0.312,2.402h-0.745L32.243,400.391z M32.565,397.908h-0.908l-0.237,1.818h0.908L32.565,397.908z"/>
</g>
<g>
	<path fill="#5752A3" d="M32.243,415.471h-0.908l-0.312,2.4h-0.738l0.327-2.4h-0.565v-0.666h0.639l0.237-1.817h-0.538v-0.665h0.628
		l0.312-2.407h0.733l-0.312,2.407h0.908l0.312-2.407H33.7l-0.322,2.407h0.565v0.665h-0.649l-0.246,1.817h0.557v0.666h-0.628
		l-0.312,2.4h-0.745L32.243,415.471z M32.565,412.987h-0.908l-0.237,1.817h0.908L32.565,412.987z"/>
</g>
<g>
	<path fill="#F8CF0C" d="M32.243,386.691h-0.908l-0.312,2.401h-0.738l0.327-2.401h-0.565v-0.665h0.639l0.237-1.818h-0.538v-0.665
		h0.628l0.312-2.406h0.733l-0.312,2.406h0.908l0.312-2.406H33.7l-0.322,2.406h0.565v0.665h-0.649l-0.246,1.818h0.557v0.665h-0.628
		l-0.312,2.401h-0.745L32.243,386.691z M32.565,384.208h-0.908l-0.237,1.818h0.908L32.565,384.208z"/>
</g>
<text transform="matrix(1 0 0 1 87.7827 401.2422)" fill="#58595B" font-family="'DINEngschriftLT-Alternate'" font-size="7.4509">deuxième intervenant</text>
<g>
	<g>
		<line fill="#58595B" x1="59.454" y1="399.777" x2="79.308" y2="399.777"/>
		<rect x="59.454" y="399.66" fill="#58595B" width="19.854" height="0.232"/>
	</g>
	<g>
		<path fill="#58595B" d="M80.52,401.162c-0.763,0-1.385-0.622-1.385-1.385c0-0.764,0.622-1.385,1.385-1.385
			c0.764,0,1.385,0.621,1.385,1.385C81.905,400.54,81.284,401.162,80.52,401.162z M80.52,398.625c-0.635,0-1.152,0.516-1.152,1.152
			c0,0.635,0.517,1.151,1.152,1.151c0.636,0,1.152-0.517,1.152-1.151C81.672,399.141,81.156,398.625,80.52,398.625z"/>
	</g>
</g>
<text transform="matrix(1 0 0 1 88.4561 416.2109)" fill="#58595B" font-family="'DINEngschriftLT-Alternate'" font-size="7.4509">troisième intervenant</text>
<g>
	<g>
		<line fill="#58595B" x1="59.454" y1="414.745" x2="79.308" y2="414.745"/>
		<rect x="59.454" y="414.629" fill="#58595B" width="19.854" height="0.232"/>
	</g>
	<g>
		<path fill="#58595B" d="M80.52,416.13c-0.763,0-1.385-0.621-1.385-1.385s0.622-1.385,1.385-1.385c0.764,0,1.385,0.621,1.385,1.385
			S81.284,416.13,80.52,416.13z M80.52,413.594c-0.635,0-1.152,0.516-1.152,1.151s0.517,1.151,1.152,1.151
			c0.636,0,1.152-0.516,1.152-1.151S81.156,413.594,80.52,413.594z"/>
	</g>
</g>
<text transform="matrix(1 0 0 1 91.7739 387.4258)" fill="#58595B" font-family="'DINEngschriftLT-Alternate'" font-size="7.4509">premier intervenant</text>
<g>
	<g>
		<line fill="#58595B" x1="59.454" y1="385.959" x2="79.308" y2="385.959"/>
		<rect x="59.454" y="385.844" fill="#58595B" width="19.854" height="0.232"/>
	</g>
	<g>
		<path fill="#58595B" d="M80.52,387.344c-0.763,0-1.385-0.621-1.385-1.385s0.622-1.385,1.385-1.385
			c0.764,0,1.385,0.621,1.385,1.385S81.284,387.344,80.52,387.344z M80.52,384.808c-0.635,0-1.152,0.517-1.152,1.151
			c0,0.636,0.517,1.152,1.152,1.152c0.636,0,1.152-0.517,1.152-1.152C81.672,385.324,81.156,384.808,80.52,384.808z"/>
	</g>
</g>
<path opacity="0.49" fill="none" stroke="#D1D3D4" stroke-width="7" stroke-miterlimit="10" d="M463.808,367.004
	c0,62.564-50.708,113.287-113.287,113.287c-62.587,0-113.296-50.723-113.296-113.287c0-62.565,50.709-113.291,113.296-113.291
	C413.1,253.713,463.808,304.438,463.808,367.004z"/>
<path opacity="0.49" fill="none" stroke="#D1D3D4" stroke-width="7" stroke-miterlimit="10" d="M437.151,367.004
	c0,47.84-38.775,86.631-86.631,86.631c-47.864,0-86.64-38.791-86.64-86.631c0-47.844,38.775-86.634,86.64-86.634
	C398.376,280.37,437.151,319.16,437.151,367.004z"/>
<path opacity="0.49" fill="none" stroke="#D1D3D4" stroke-width="7" stroke-miterlimit="10" d="M410.496,367.004
	c0,33.121-26.844,59.977-59.976,59.977c-33.142,0-59.984-26.855-59.984-59.977c0-33.125,26.843-59.978,59.984-59.978
	C383.652,307.026,410.496,333.879,410.496,367.004z"/>
<path opacity="0.49" fill="none" stroke="#D1D3D4" stroke-width="7" stroke-miterlimit="10" d="M383.841,367.004
	c0,18.398-14.911,33.32-33.32,33.32c-18.418,0-33.329-14.922-33.329-33.32c0-18.401,14.911-33.322,33.329-33.322
	C368.93,333.682,383.841,348.603,383.841,367.004z"/>
<text transform="matrix(1 0 0 1 111.3467 -169.3682)" font-family="'MyriadPro-Regular'" font-size="12">Paris</text>
<text transform="matrix(1 0 0 1 111.3467 -156.2891)" font-family="'MyriadPro-Regular'" font-size="12">Gobelins</text>
<text transform="matrix(1 0 0 1 111.3467 -142.3682)" font-family="'MyriadPro-Regular'" font-size="12">Conférence</text>
<text transform="matrix(1 0 0 1 111.3467 -129.2891)" font-family="'MyriadPro-Regular'" font-size="12">pratic</text>
<text transform="matrix(1 0 0 1 29.7783 315.5234)" fill="#58595B" font-family="'DINEngschriftLT-Alternate'" font-size="7.4509">Global:</text>
<text transform="matrix(1 0 0 1 29.9229 439.3066)" fill="#58595B" font-family="'DINEngschriftLT-Alternate'" font-size="7.4509">Affiné positif:</text>
<text transform="matrix(1 0 0 1 62.0352 439.3066)" fill="#58595B" font-family="'DINEngschriftLT-Alternate'" font-size="7.4509">( 1 &lt; 3)</text>
<g>
	<path fill="#58595B" d="M30.087,498.453h0.614l1.146,5.305h-0.737l-0.215-1.139H29.89l-0.215,1.139h-0.737L30.087,498.453z
		 M30.397,499.981h-0.014l-0.363,1.925h0.737L30.397,499.981z"/>
	<path fill="#58595B" d="M32.35,500.578h-0.361v-0.596h0.361v-0.518c0-0.187,0.031-0.343,0.091-0.469
		c0.054-0.129,0.125-0.232,0.211-0.312c0.18-0.153,0.394-0.23,0.64-0.23h0.338v0.713h-0.332c-0.143,0.006-0.215,0.092-0.215,0.26
		v0.557h0.547v0.596h-0.547v3.18H32.35V500.578z"/>
	<path fill="#58595B" d="M34.005,500.578h-0.361v-0.596h0.361v-0.518c0-0.187,0.031-0.343,0.092-0.469
		c0.053-0.129,0.124-0.232,0.211-0.312c0.18-0.153,0.394-0.23,0.64-0.23h0.338v0.713h-0.332c-0.143,0.006-0.215,0.092-0.215,0.26
		v0.557h0.546v0.596h-0.546v3.18h-0.734V500.578z"/>
	<path fill="#58595B" d="M35.566,498.453H36.3v0.757h-0.734V498.453z M35.566,499.982H36.3v3.775h-0.734V499.982z"/>
	<path fill="#58595B" d="M36.952,499.982h0.735v0.363h0.014c0.08-0.123,0.177-0.223,0.291-0.299
		c0.114-0.074,0.256-0.112,0.425-0.112c0.204,0,0.383,0.067,0.536,0.204c0.08,0.067,0.142,0.162,0.186,0.283
		c0.041,0.119,0.062,0.264,0.062,0.437v2.899h-0.735v-2.615c-0.005-0.294-0.134-0.443-0.388-0.448
		c-0.271,0.005-0.401,0.18-0.392,0.524v2.539h-0.734V499.982z"/>
	<path fill="#58595B" d="M40.52,502.157v0.516c0.008,0.249,0.136,0.372,0.386,0.372c0.147-0.004,0.25-0.048,0.307-0.131
		c0.05-0.08,0.075-0.164,0.075-0.248l0.735,0.001c-0.005,0.321-0.105,0.589-0.302,0.802c-0.197,0.217-0.469,0.328-0.816,0.333
		c-0.468-0.009-0.795-0.19-0.982-0.542c-0.096-0.199-0.141-0.455-0.136-0.769v-1.245c-0.005-0.313,0.041-0.569,0.136-0.769
		c0.188-0.351,0.515-0.531,0.982-0.543c0.348,0.005,0.622,0.118,0.824,0.339c0.196,0.218,0.295,0.498,0.295,0.84v1.044H40.52z
		 M41.101,498.432h0.776l-0.951,1.048h-0.474L41.101,498.432z M40.52,501.561h0.769v-0.435c-0.005-0.29-0.132-0.435-0.382-0.435
		s-0.378,0.145-0.386,0.435V501.561z"/>
	<path fill="#58595B" d="M44.01,498.453h0.708l1.111,3.195h0.014v-3.195h0.734v5.305h-0.691l-1.129-3.188h-0.014v3.188H44.01
		V498.453z"/>
	<path fill="#58595B" d="M47.971,502.157v0.516c0.008,0.249,0.137,0.372,0.386,0.372c0.147-0.004,0.25-0.048,0.308-0.131
		c0.05-0.08,0.075-0.164,0.075-0.248l0.735,0.001c-0.005,0.321-0.105,0.589-0.302,0.802c-0.196,0.217-0.469,0.328-0.816,0.333
		c-0.468-0.009-0.795-0.19-0.982-0.542c-0.096-0.199-0.142-0.455-0.137-0.769v-1.245c-0.005-0.313,0.041-0.569,0.137-0.769
		c0.187-0.351,0.514-0.531,0.982-0.543c0.348,0.005,0.622,0.118,0.824,0.339c0.196,0.218,0.295,0.498,0.295,0.84v1.044H47.971z
		 M48.552,498.432h0.776l-0.952,1.048h-0.474L48.552,498.432z M47.971,501.561h0.769v-0.435c-0.005-0.29-0.132-0.435-0.382-0.435
		c-0.25,0-0.378,0.145-0.386,0.435V501.561z"/>
	<path fill="#58595B" d="M50.794,504.203c0.01,0.094,0.049,0.175,0.117,0.243c0.07,0.08,0.169,0.122,0.297,0.128
		c0.13-0.006,0.226-0.045,0.286-0.121c0.052-0.072,0.079-0.168,0.079-0.287v-0.748h-0.015c-0.165,0.251-0.401,0.379-0.709,0.384
		c-0.308,0-0.528-0.118-0.662-0.356c-0.085-0.143-0.127-0.414-0.127-0.812v-1.438c0-0.273,0.01-0.478,0.029-0.611
		c0.014-0.136,0.044-0.237,0.091-0.306c0.062-0.108,0.149-0.192,0.258-0.253c0.104-0.061,0.244-0.091,0.418-0.091
		c0.184,0,0.328,0.035,0.433,0.105c0.099,0.075,0.194,0.169,0.284,0.284v-0.342h0.735v4.238c0,0.269-0.086,0.518-0.259,0.745
		c-0.183,0.233-0.473,0.354-0.871,0.364c-0.113,0-0.228-0.02-0.345-0.059c-0.118-0.036-0.23-0.098-0.338-0.186
		c-0.103-0.089-0.194-0.206-0.273-0.352c-0.075-0.143-0.129-0.32-0.162-0.534L50.794,504.203z M50.794,502.601
		c0,0.124,0.028,0.229,0.083,0.313c0.058,0.088,0.158,0.131,0.301,0.131c0.118,0,0.213-0.039,0.286-0.116
		c0.073-0.075,0.109-0.173,0.109-0.292v-1.473c0-0.143-0.034-0.257-0.102-0.342c-0.073-0.085-0.17-0.128-0.293-0.128
		c-0.128,0-0.222,0.048-0.282,0.143c-0.068,0.09-0.102,0.215-0.102,0.375V502.601z"/>
	<path fill="#58595B" d="M54.353,503.373h-0.014c-0.087,0.133-0.183,0.237-0.289,0.312c-0.101,0.072-0.241,0.111-0.419,0.116
		c-0.08,0-0.163-0.015-0.25-0.044c-0.097-0.029-0.186-0.078-0.268-0.148c-0.077-0.075-0.142-0.18-0.193-0.312
		c-0.054-0.125-0.081-0.291-0.081-0.499c-0.005-0.432,0.075-0.755,0.239-0.968c0.162-0.209,0.47-0.312,0.922-0.312
		c0.091,0.004,0.209,0.012,0.352,0.021v-0.398c0-0.129-0.026-0.236-0.078-0.322c-0.059-0.085-0.155-0.127-0.29-0.127
		c-0.096,0-0.183,0.029-0.26,0.09c-0.083,0.064-0.136,0.16-0.159,0.288h-0.713c0.026-0.343,0.136-0.613,0.331-0.813
		c0.197-0.209,0.464-0.316,0.802-0.321c0.317,0,0.578,0.1,0.785,0.298c0.207,0.199,0.312,0.498,0.316,0.896v2.63h-0.734V503.373z
		 M54.353,502.139c-0.07-0.016-0.138-0.025-0.201-0.025c-0.165,0-0.299,0.037-0.405,0.113c-0.115,0.084-0.173,0.226-0.173,0.424
		c0,0.143,0.036,0.256,0.109,0.342c0.065,0.094,0.157,0.141,0.275,0.141c0.259-0.005,0.39-0.166,0.395-0.482V502.139z"/>
	<path fill="#58595B" d="M55.717,498.832h0.734v1.15h0.455v0.596h-0.455v2.096c0,0.166,0.037,0.27,0.109,0.312
		c0.07,0.045,0.186,0.064,0.345,0.059v0.713h-0.303c-0.164,0-0.301-0.03-0.411-0.09c-0.11-0.054-0.202-0.123-0.274-0.208
		c-0.139-0.185-0.206-0.382-0.201-0.589v-2.293h-0.366v-0.596h0.366V498.832z"/>
	<path fill="#58595B" d="M57.238,498.453h0.734v0.757h-0.734V498.453z M57.238,499.982h0.734v3.775h-0.734V499.982z"/>
	<path fill="#58595B" d="M58.719,500.578h-0.361v-0.596h0.361v-0.518c0-0.187,0.031-0.343,0.091-0.469
		c0.054-0.129,0.125-0.232,0.211-0.312c0.181-0.153,0.395-0.23,0.641-0.23H60v0.713h-0.332c-0.143,0.006-0.215,0.092-0.215,0.26
		v0.557H60v0.596h-0.547v3.18h-0.734V500.578z"/>
	<path fill="#58595B" d="M60.28,501.311h0.734v0.756H60.28V501.311z M60.28,503.002h0.734v0.756H60.28V503.002z"/>
</g>
<text transform="matrix(1 0 0 1 63.0913 503.7578)" fill="#58595B" font-family="'DINEngschriftLT-Alternate'" font-size="7.4509">( 1 &lt; 3)</text>
<text transform="matrix(1 0 0 1 28.7583 562.9121)" fill="#58595B" font-family="'DINEngschriftLT-Alternate'" font-size="7.4509">Sémantique de recherche de base:</text>
<g opacity="0.49">
	<path fill="#8DC63F" d="M48.72,449.896l-0.736,0.561v-0.805l0.736-0.558h0.734v5.304H48.72V449.896z"/>
</g>
<g>
	<path fill="#8DC63F" d="M32.243,466.139h-0.908l-0.312,2.402h-0.738l0.327-2.402h-0.565v-0.665h0.639l0.237-1.817h-0.538v-0.666
		h0.628l0.312-2.406h0.733l-0.312,2.406h0.908l0.312-2.406H33.7l-0.322,2.406h0.565v0.666h-0.649l-0.246,1.817h0.557v0.665h-0.628
		l-0.312,2.402h-0.745L32.243,466.139z M32.565,463.656h-0.908l-0.237,1.817h0.908L32.565,463.656z"/>
</g>
<g>
	<path fill="#8DC63F" d="M40.582,468.666c-2.275,0-4.126-1.852-4.126-4.127c0-0.258,0.208-0.466,0.465-0.466
		s0.466,0.208,0.466,0.466c0,1.762,1.434,3.195,3.195,3.195c1.762,0,3.196-1.434,3.196-3.195c0-0.258,0.208-0.466,0.466-0.466
		s0.466,0.208,0.466,0.466C44.709,466.814,42.858,468.666,40.582,468.666z"/>
</g>
<text transform="matrix(1 0 0 1 94.3823 466.9902)" fill="#58595B" font-family="'DINEngschriftLT-Alternate'" font-size="7.4509">tout à fait d’accord</text>
<g>
	<g>
		<line fill="#58595B" x1="59.454" y1="465.525" x2="79.308" y2="465.525"/>
		<rect x="59.454" y="465.41" fill="#58595B" width="19.854" height="0.232"/>
	</g>
	<g>
		<path fill="#58595B" d="M80.52,466.91c-0.763,0-1.385-0.621-1.385-1.385c0-0.763,0.622-1.385,1.385-1.385
			c0.764,0,1.385,0.622,1.385,1.385C81.905,466.289,81.284,466.91,80.52,466.91z M80.52,464.374c-0.635,0-1.152,0.517-1.152,1.151
			c0,0.637,0.517,1.152,1.152,1.152c0.636,0,1.152-0.516,1.152-1.152C81.672,464.891,81.156,464.374,80.52,464.374z"/>
	</g>
</g>
<g>
	<path fill="#8DC63F" d="M47.844,466.068l1.368-2.589c0.065-0.128,0.105-0.243,0.12-0.343c0.01-0.1,0.015-0.22,0.015-0.36
		c0.004-0.144-0.011-0.277-0.045-0.401c-0.04-0.119-0.153-0.182-0.339-0.186c-0.113,0-0.206,0.029-0.279,0.088
		c-0.07,0.064-0.105,0.162-0.105,0.291v0.434h-0.734v-0.418c0.004-0.326,0.115-0.6,0.331-0.816c0.216-0.219,0.481-0.33,0.795-0.335
		c0.388,0.005,0.672,0.136,0.852,0.394c0.173,0.26,0.259,0.572,0.259,0.939c0,0.24-0.01,0.43-0.029,0.568
		c-0.034,0.139-0.107,0.316-0.221,0.535l-1.118,2.155h1.368v0.757h-2.237V466.068z"/>
</g>
<g>
	<path fill="#8DC63F" d="M32.243,478.521h-0.908l-0.312,2.401h-0.738l0.327-2.401h-0.565v-0.665h0.639l0.237-1.818h-0.538v-0.664
		h0.628l0.312-2.407h0.733l-0.312,2.407h0.908l0.312-2.407H33.7l-0.322,2.407h0.565v0.664h-0.649l-0.246,1.818h0.557v0.665h-0.628
		l-0.312,2.401h-0.745L32.243,478.521z M32.565,476.037h-0.908l-0.237,1.818h0.908L32.565,476.037z"/>
</g>
<g>
	<path fill="#8DC63F" d="M40.582,481.047c-2.275,0-4.126-1.852-4.126-4.126c0-0.258,0.208-0.466,0.465-0.466
		s0.466,0.208,0.466,0.466c0,1.762,1.434,3.194,3.195,3.194c1.762,0,3.196-1.433,3.196-3.194c0-0.258,0.208-0.466,0.466-0.466
		s0.466,0.208,0.466,0.466C44.709,479.195,42.858,481.047,40.582,481.047z"/>
</g>
<text transform="matrix(1 0 0 1 124.2222 479.3711)" fill="#58595B" font-family="'DINEngschriftLT-Alternate'" font-size="7.4509">Bravo</text>
<g>
	<g>
		<line fill="#58595B" x1="59.454" y1="477.908" x2="79.308" y2="477.908"/>
		<rect x="59.454" y="477.791" fill="#58595B" width="19.854" height="0.233"/>
	</g>
	<g>
		<path fill="#58595B" d="M80.52,479.293c-0.763,0-1.385-0.621-1.385-1.385s0.622-1.385,1.385-1.385
			c0.764,0,1.385,0.621,1.385,1.385S81.284,479.293,80.52,479.293z M80.52,476.756c-0.635,0-1.152,0.517-1.152,1.152
			c0,0.635,0.517,1.152,1.152,1.152c0.636,0,1.152-0.518,1.152-1.152C81.672,477.272,81.156,476.756,80.52,476.756z"/>
	</g>
</g>
<g>
	<path fill="#8DC63F" d="M48.721,476.096c0.238,0.006,0.403-0.023,0.494-0.088c0.087-0.061,0.132-0.186,0.132-0.377v-0.687
		c0-0.114-0.031-0.208-0.091-0.278c-0.073-0.063-0.171-0.096-0.293-0.096c-0.133,0.006-0.231,0.045-0.294,0.118
		c-0.06,0.08-0.09,0.165-0.09,0.256v0.435h-0.734v-0.439c0.004-0.323,0.118-0.591,0.339-0.805c0.217-0.209,0.483-0.314,0.798-0.32
		c0.207,0.006,0.379,0.044,0.516,0.117c0.135,0.08,0.236,0.164,0.303,0.254c0.101,0.109,0.174,0.242,0.218,0.396
		c0.042,0.153,0.063,0.396,0.063,0.729c0.004,0.35-0.017,0.591-0.065,0.725c-0.061,0.139-0.196,0.268-0.404,0.386
		c0.228,0.126,0.367,0.269,0.418,0.427c0.039,0.164,0.055,0.428,0.051,0.789c0,0.332-0.012,0.571-0.036,0.717
		c-0.029,0.144-0.083,0.268-0.162,0.371c-0.089,0.133-0.207,0.246-0.353,0.341c-0.153,0.089-0.345,0.136-0.575,0.142
		c-0.118,0-0.241-0.022-0.371-0.066c-0.127-0.033-0.247-0.096-0.36-0.186c-0.245-0.174-0.372-0.467-0.381-0.879v-0.433h0.734v0.397
		c0,0.119,0.035,0.217,0.105,0.292c0.073,0.078,0.166,0.117,0.279,0.117c0.251-0.005,0.379-0.146,0.384-0.423v-0.763
		c0.004-0.204-0.033-0.342-0.113-0.412c-0.088-0.058-0.258-0.088-0.512-0.088V476.096z"/>
</g>
<g opacity="0.49">
	<path fill="#F26839" d="M32.243,517.898h-0.908l-0.312,2.4h-0.738l0.327-2.4h-0.565v-0.666h0.639l0.237-1.818h-0.538v-0.664h0.628
		l0.312-2.407h0.733l-0.312,2.407h0.908l0.312-2.407H33.7l-0.322,2.407h0.565v0.664h-0.649l-0.246,1.818h0.557v0.666h-0.628
		l-0.312,2.4h-0.745L32.243,517.898z M32.565,515.414h-0.908l-0.237,1.818h0.908L32.565,515.414z"/>
</g>
<text transform="matrix(1 0 0 1 110.4009 518.75)" fill="#58595B" font-family="'DINEngschriftLT-Alternate'" font-size="7.4509">sans intérêt</text>
<g>
	<g>
		<line fill="#58595B" x1="59.454" y1="517.285" x2="79.308" y2="517.285"/>
		<rect x="59.454" y="517.169" fill="#58595B" width="19.854" height="0.233"/>
	</g>
	<g>
		<path fill="#58595B" d="M80.52,518.67c-0.763,0-1.385-0.621-1.385-1.385s0.622-1.385,1.385-1.385c0.764,0,1.385,0.621,1.385,1.385
			S81.284,518.67,80.52,518.67z M80.52,516.133c-0.635,0-1.152,0.518-1.152,1.152s0.517,1.152,1.152,1.152
			c0.636,0,1.152-0.518,1.152-1.152S81.156,516.133,80.52,516.133z"/>
	</g>
</g>
<g opacity="0.49">
	<path fill="#F26839" d="M48.72,514.037l-0.736,0.561v-0.805l0.736-0.558h0.734v5.305H48.72V514.037z"/>
</g>
<g>
	<path fill="#F26839" d="M32.243,530.279h-0.908l-0.312,2.402h-0.738l0.327-2.402h-0.565v-0.664h0.639l0.237-1.818h-0.538v-0.665
		h0.628l0.312-2.407h0.733l-0.312,2.407h0.908l0.312-2.407H33.7l-0.322,2.407h0.565v0.665h-0.649l-0.246,1.818h0.557v0.664h-0.628
		l-0.312,2.402h-0.745L32.243,530.279z M32.565,527.797h-0.908l-0.237,1.818h0.908L32.565,527.797z"/>
</g>
<text transform="matrix(1 0 0 1 90.3804 531.1318)" fill="#58595B" font-family="'DINEngschriftLT-Alternate'" font-size="7.4509">pas du tout d’accord</text>
<g>
	<g>
		<line fill="#58595B" x1="59.454" y1="529.667" x2="79.308" y2="529.667"/>
		<rect x="59.454" y="529.551" fill="#58595B" width="19.854" height="0.232"/>
	</g>
	<g>
		<path fill="#58595B" d="M80.52,531.053c-0.763,0-1.385-0.621-1.385-1.386c0-0.764,0.622-1.385,1.385-1.385
			c0.764,0,1.385,0.621,1.385,1.385C81.905,530.432,81.284,531.053,80.52,531.053z M80.52,528.516c-0.635,0-1.152,0.516-1.152,1.151
			s0.517,1.152,1.152,1.152c0.636,0,1.152-0.517,1.152-1.152S81.156,528.516,80.52,528.516z"/>
	</g>
</g>
<g>
	<path fill="#F26839" d="M47.844,530.209l1.368-2.588c0.065-0.129,0.105-0.244,0.12-0.344c0.01-0.1,0.015-0.219,0.015-0.36
		c0.004-0.144-0.011-0.276-0.045-0.401c-0.04-0.119-0.153-0.181-0.339-0.186c-0.113,0-0.206,0.029-0.279,0.088
		c-0.07,0.065-0.105,0.162-0.105,0.291v0.434h-0.734v-0.418c0.004-0.326,0.115-0.599,0.331-0.816
		c0.216-0.219,0.481-0.33,0.795-0.334c0.388,0.004,0.672,0.135,0.852,0.393c0.173,0.26,0.259,0.572,0.259,0.939
		c0,0.24-0.01,0.43-0.029,0.568c-0.034,0.139-0.107,0.316-0.221,0.535l-1.118,2.156h1.368v0.756h-2.237V530.209z"/>
</g>
<g>
	<path fill="#F26839" d="M32.243,542.662h-0.908l-0.312,2.401h-0.738l0.327-2.401h-0.565v-0.665h0.639l0.237-1.817h-0.538v-0.666
		h0.628l0.312-2.406h0.733l-0.312,2.406h0.908l0.312-2.406H33.7l-0.322,2.406h0.565v0.666h-0.649l-0.246,1.817h0.557v0.665h-0.628
		l-0.312,2.401h-0.745L32.243,542.662z M32.565,540.18h-0.908l-0.237,1.817h0.908L32.565,540.18z"/>
</g>
<text transform="matrix(1 0 0 1 29.9829 576.1514)" opacity="0.49" fill="#4A4B4C" font-family="'DINEngschriftLT-Alternate'" font-size="11.1763">#</text>
<text transform="matrix(1 0 0 1 93.1489 543.5137)" fill="#58595B" font-family="'DINEngschriftLT-Alternate'" font-size="7.4509">incroyablement nul</text>
<g>
	<g>
		<line fill="#58595B" x1="59.454" y1="542.049" x2="79.308" y2="542.049"/>
		<rect x="59.454" y="541.932" fill="#58595B" width="19.854" height="0.233"/>
	</g>
	<g>
		<path fill="#58595B" d="M80.52,543.434c-0.763,0-1.385-0.621-1.385-1.385s0.622-1.385,1.385-1.385
			c0.764,0,1.385,0.621,1.385,1.385S81.284,543.434,80.52,543.434z M80.52,540.896c-0.635,0-1.152,0.518-1.152,1.152
			s0.517,1.152,1.152,1.152c0.636,0,1.152-0.518,1.152-1.152S81.156,540.896,80.52,540.896z"/>
	</g>
</g>
<g>
	<path fill="#F26839" d="M48.721,540.237c0.238,0.005,0.403-0.024,0.494-0.088c0.087-0.062,0.132-0.187,0.132-0.377v-0.687
		c0-0.115-0.031-0.208-0.091-0.279c-0.073-0.062-0.171-0.095-0.293-0.095c-0.133,0.005-0.231,0.044-0.294,0.117
		c-0.06,0.081-0.09,0.165-0.09,0.257v0.434h-0.734v-0.439c0.004-0.322,0.118-0.59,0.339-0.805c0.217-0.209,0.483-0.314,0.798-0.32
		c0.207,0.006,0.379,0.045,0.516,0.117c0.135,0.08,0.236,0.165,0.303,0.254c0.101,0.109,0.174,0.242,0.218,0.397
		c0.042,0.153,0.063,0.396,0.063,0.728c0.004,0.35-0.017,0.592-0.065,0.725c-0.061,0.139-0.196,0.268-0.404,0.387
		c0.228,0.125,0.367,0.268,0.418,0.426c0.039,0.164,0.055,0.428,0.051,0.789c0,0.333-0.012,0.572-0.036,0.717
		c-0.029,0.144-0.083,0.268-0.162,0.372c-0.089,0.132-0.207,0.246-0.353,0.341c-0.153,0.088-0.345,0.135-0.575,0.141
		c-0.118,0-0.241-0.021-0.371-0.066c-0.127-0.033-0.247-0.095-0.36-0.185c-0.245-0.175-0.372-0.468-0.381-0.88v-0.432h0.734v0.396
		c0,0.119,0.035,0.217,0.105,0.293c0.073,0.077,0.166,0.116,0.279,0.116c0.251-0.005,0.379-0.146,0.384-0.423v-0.763
		c0.004-0.204-0.033-0.341-0.113-0.411c-0.088-0.059-0.258-0.088-0.512-0.088V540.237z"/>
</g>
<g>
	<path fill="#F8CF0C" d="M36.804,382.744h0.734v5.305h-0.734V382.744z"/>
	<path fill="#F8CF0C" d="M38.259,384.273h0.735v0.363h0.014c0.08-0.124,0.177-0.224,0.291-0.299
		c0.114-0.074,0.256-0.112,0.426-0.112c0.204,0,0.382,0.067,0.535,0.204c0.08,0.067,0.142,0.162,0.186,0.283
		c0.041,0.119,0.062,0.264,0.062,0.437v2.899h-0.735v-2.615c-0.005-0.294-0.134-0.443-0.388-0.448
		c-0.271,0.005-0.401,0.18-0.391,0.524v2.539h-0.734V384.273z"/>
	<path fill="#F8CF0C" d="M41.159,383.123h0.734v1.15h0.454v0.596h-0.454v2.096c0,0.165,0.036,0.27,0.109,0.312
		c0.071,0.045,0.186,0.064,0.345,0.059v0.713h-0.302c-0.164,0-0.301-0.03-0.412-0.091c-0.11-0.054-0.202-0.122-0.274-0.207
		c-0.139-0.185-0.206-0.382-0.2-0.589v-2.293h-0.366v-0.596h0.366V383.123z"/>
	<path fill="#F8CF0C" d="M42.679,387.293h0.734v0.756h-0.734V387.293z"/>
	<path fill="#F8CF0C" d="M44.928,382.744h0.614l1.146,5.305H45.95l-0.215-1.139H44.73l-0.215,1.139h-0.737L44.928,382.744z
		 M45.238,384.272h-0.014l-0.363,1.925h0.737L45.238,384.272z"/>
</g>
<g>
	<path fill="#EB66A6" d="M36.662,396.598h0.734v5.305h-0.734V396.598z"/>
	<path fill="#EB66A6" d="M38.117,398.126h0.735v0.364h0.014c0.08-0.125,0.177-0.225,0.291-0.299
		c0.114-0.075,0.256-0.113,0.425-0.113c0.204,0,0.383,0.068,0.536,0.204c0.08,0.067,0.142,0.163,0.186,0.284
		c0.041,0.118,0.062,0.264,0.062,0.436v2.9H39.63v-2.616c-0.005-0.294-0.134-0.442-0.388-0.448c-0.271,0.006-0.401,0.18-0.392,0.524
		v2.54h-0.734V398.126z"/>
	<path fill="#EB66A6" d="M41.017,396.977h0.734v1.149h0.455v0.597H41.75v2.095c0,0.165,0.037,0.271,0.109,0.313
		c0.07,0.044,0.186,0.063,0.345,0.059v0.713h-0.303c-0.164,0-0.301-0.031-0.412-0.092c-0.11-0.053-0.201-0.121-0.273-0.207
		c-0.139-0.184-0.206-0.381-0.201-0.589v-2.292h-0.366v-0.597h0.366V396.977z"/>
	<path fill="#EB66A6" d="M42.538,401.146h0.734v0.756h-0.734V401.146z"/>
	<path fill="#EB66A6" d="M43.967,396.598h1.075c0.472,0.006,0.812,0.14,1.019,0.404c0.192,0.262,0.289,0.574,0.289,0.938v0.192
		c0,0.271-0.042,0.48-0.127,0.626c-0.089,0.138-0.22,0.257-0.393,0.356c0.347,0.16,0.52,0.508,0.52,1.045v0.298
		c0.01,0.953-0.45,1.435-1.378,1.444h-1.004V396.598z M44.701,398.773h0.333c0.244,0,0.412-0.064,0.504-0.193
		c0.08-0.131,0.12-0.316,0.12-0.555s-0.045-0.416-0.135-0.536c-0.097-0.119-0.27-0.179-0.518-0.179h-0.305V398.773z M44.701,401.146
		h0.319c0.286,0,0.468-0.086,0.546-0.256c0.043-0.082,0.071-0.18,0.085-0.288c0.005-0.104,0.007-0.224,0.007-0.354
		c0.007-0.267-0.028-0.468-0.106-0.602c-0.087-0.136-0.262-0.204-0.524-0.204h-0.327V401.146z"/>
</g>
<g>
	<path fill="#5752A3" d="M36.804,411.686h0.734v5.304h-0.734V411.686z"/>
	<path fill="#5752A3" d="M38.259,413.213h0.735v0.364h0.014c0.08-0.124,0.177-0.224,0.291-0.298
		c0.114-0.076,0.256-0.113,0.426-0.113c0.204,0,0.382,0.067,0.535,0.203c0.08,0.068,0.142,0.162,0.186,0.284
		c0.041,0.118,0.062,0.265,0.062,0.437v2.899h-0.735v-2.616c-0.005-0.293-0.134-0.442-0.388-0.447
		c-0.271,0.005-0.401,0.18-0.391,0.523v2.54h-0.734V413.213z"/>
	<path fill="#5752A3" d="M41.159,412.063h0.734v1.149h0.454v0.596h-0.454v2.096c0,0.166,0.036,0.27,0.109,0.314
		c0.071,0.043,0.186,0.062,0.345,0.059v0.712h-0.302c-0.164,0-0.301-0.03-0.412-0.091c-0.11-0.053-0.202-0.122-0.274-0.207
		c-0.139-0.185-0.206-0.381-0.2-0.59v-2.293h-0.366v-0.596h0.366V412.063z"/>
	<path fill="#5752A3" d="M42.679,416.233h0.734v0.756h-0.734V416.233z"/>
	<path fill="#5752A3" d="M46.447,415.807c-0.004,0.339-0.115,0.624-0.331,0.856c-0.219,0.237-0.498,0.36-0.839,0.37
		c-0.138,0-0.278-0.021-0.419-0.065c-0.143-0.042-0.274-0.108-0.395-0.2c-0.117-0.095-0.211-0.225-0.282-0.389
		c-0.077-0.158-0.116-0.357-0.116-0.598v-2.921c0-0.356,0.113-0.649,0.338-0.877c0.216-0.224,0.502-0.337,0.86-0.342
		c0.345,0.005,0.629,0.12,0.853,0.349c0.216,0.229,0.327,0.533,0.331,0.916v0.297h-0.734v-0.255c0-0.153-0.039-0.284-0.117-0.394
		c-0.083-0.1-0.196-0.152-0.34-0.156c-0.18,0-0.3,0.057-0.361,0.171c-0.069,0.114-0.101,0.263-0.096,0.444v2.72
		c0,0.153,0.034,0.28,0.103,0.38c0.066,0.108,0.182,0.164,0.347,0.164c0.106,0.004,0.21-0.032,0.312-0.109
		c0.097-0.08,0.147-0.223,0.152-0.428v-0.262h0.734V415.807z"/>
</g>
<text transform="matrix(1 0 0 1 37.9805 574.2002)" opacity="0.49" fill="#4A4B4C" font-family="'DINEngschriftLT-Alternate'" font-size="7.4509">+ (conf, pratic, Gobz, Paris, jan2012)</text>
<ellipse transform="matrix(0.6419 0.7667 -0.7667 0.6419 334.6445 -205.0952)" fill="none" stroke="#F8CF0C" stroke-width="2" stroke-miterlimit="10" cx="386.921" cy="255.762" rx="255.596" ry="98.659"/>
<ellipse transform="matrix(0.7272 0.6865 -0.6865 0.7272 269.0057 -181.2166)" fill="none" stroke="#EB66A6" stroke-width="2" stroke-miterlimit="10" cx="362.473" cy="247.801" rx="255.596" ry="98.66"/>
<ellipse transform="matrix(0.4921 0.8705 -0.8705 0.4921 426.5098 -219.5565)" fill="none" stroke="#5752A3" stroke-width="2" stroke-miterlimit="10" cx="401.426" cy="255.762" rx="255.595" ry="98.661"/>
<circle fill="#FFFFFF" stroke="#59B8E8" stroke-width="2" stroke-miterlimit="10" cx="507.9" cy="459.381" r="31.909"/>
<g>
	<g>
		<path fill="#59B8E8" d="M500.824,462.217h-1.657L498.6,466.6h-1.349l0.598-4.383h-1.032v-1.214h1.167l0.434-3.318h-0.982v-1.214
			h1.145l0.57-4.395h1.34l-0.57,4.395h1.658l0.568-4.395h1.338l-0.588,4.395h1.033v1.214h-1.186l-0.448,3.318h1.017v1.214h-1.146
			l-0.568,4.383h-1.36L500.824,462.217z M501.411,457.685h-1.656l-0.432,3.318h1.656L501.411,457.685z"/>
	</g>
	<g>
		<g>
			<path fill="#59B8E8" d="M522.729,460.102h-13.365c-0.472,0-0.85-0.38-0.85-0.85s0.378-0.851,0.85-0.851h13.365
				c0.471,0,0.85,0.381,0.85,0.851S523.2,460.102,522.729,460.102z"/>
		</g>
	</g>
</g>
<circle fill="#FFFFFF" stroke="#F8CF0C" stroke-width="2" stroke-miterlimit="10" cx="350.516" cy="87.521" r="18.77"/>
<g>
	<g>
		<path fill="#F8CF0C" d="M343.049,89.127h-0.975l-0.334,2.579h-0.793l0.352-2.579h-0.607v-0.714h0.687l0.255-1.952h-0.578v-0.714
			h0.674l0.335-2.584h0.788l-0.335,2.584h0.976l0.334-2.584h0.787l-0.346,2.584h0.607v0.714h-0.697l-0.264,1.952h0.598v0.714h-0.674
			l-0.335,2.579h-0.8L343.049,89.127z M343.395,86.461h-0.975l-0.254,1.952h0.975L343.395,86.461z"/>
	</g>
	<g>
		<path fill="#F8CF0C" d="M347.945,84.89h0.789v5.695h-0.789V84.89z"/>
		<path fill="#F8CF0C" d="M349.508,86.531h0.789v0.391h0.016c0.086-0.133,0.19-0.24,0.312-0.32c0.123-0.081,0.275-0.121,0.457-0.121
			c0.219,0,0.41,0.073,0.574,0.219c0.086,0.073,0.152,0.174,0.199,0.305c0.045,0.127,0.066,0.284,0.066,0.469v3.113h-0.789v-2.809
			c-0.005-0.315-0.144-0.475-0.416-0.48c-0.291,0.005-0.431,0.193-0.42,0.562v2.727h-0.789V86.531z"/>
		<path fill="#F8CF0C" d="M352.621,85.296h0.789v1.234h0.487v0.64h-0.487v2.25c0,0.178,0.039,0.29,0.117,0.336
			c0.075,0.047,0.199,0.068,0.37,0.063v0.765h-0.325c-0.176,0-0.322-0.033-0.441-0.098c-0.118-0.057-0.217-0.131-0.294-0.223
			c-0.149-0.198-0.221-0.409-0.216-0.633v-2.461h-0.393v-0.64h0.393V85.296z"/>
		<path fill="#F8CF0C" d="M354.254,89.773h0.789v0.812h-0.789V89.773z"/>
		<path fill="#F8CF0C" d="M356.668,84.89h0.66l1.23,5.695h-0.792l-0.231-1.223h-1.078l-0.231,1.223h-0.792L356.668,84.89z
			 M357.002,86.53h-0.016l-0.39,2.067h0.792L357.002,86.53z"/>
	</g>
</g>
<circle fill="#FFFFFF" stroke="#EB66A6" stroke-width="2" stroke-miterlimit="10" cx="295.489" cy="84.17" r="18.77"/>
<g>
	<g>
		<path fill="#EB66A6" d="M289.008,85.271h-0.975l-0.334,2.579h-0.793l0.352-2.579h-0.607v-0.714h0.687l0.255-1.952h-0.578v-0.714
			h0.674l0.335-2.584h0.788l-0.335,2.584h0.976l0.334-2.584h0.787l-0.346,2.584h0.607v0.714h-0.697l-0.264,1.952h0.598v0.714h-0.674
			l-0.335,2.579h-0.8L289.008,85.271z M289.354,82.604h-0.975l-0.254,1.952h0.975L289.354,82.604z"/>
	</g>
	<g>
		<path fill="#EB66A6" d="M293.752,81.198h0.789v5.695h-0.789V81.198z"/>
		<path fill="#EB66A6" d="M295.314,82.838h0.789v0.391h0.016c0.086-0.133,0.19-0.24,0.312-0.32c0.123-0.081,0.275-0.121,0.457-0.121
			c0.219,0,0.41,0.073,0.574,0.219c0.086,0.073,0.152,0.174,0.199,0.305c0.045,0.127,0.066,0.284,0.066,0.469v3.113h-0.789v-2.809
			c-0.005-0.315-0.144-0.475-0.416-0.48c-0.291,0.005-0.431,0.193-0.42,0.562v2.727h-0.789V82.838z"/>
		<path fill="#EB66A6" d="M298.428,81.604h0.789v1.234h0.487v0.64h-0.487v2.25c0,0.178,0.039,0.29,0.117,0.336
			c0.075,0.047,0.199,0.068,0.37,0.063v0.765h-0.325c-0.176,0-0.322-0.033-0.441-0.098c-0.118-0.057-0.217-0.131-0.294-0.223
			c-0.149-0.198-0.221-0.409-0.216-0.633v-2.461h-0.393v-0.64h0.393V81.604z"/>
		<path fill="#EB66A6" d="M300.061,86.081h0.789v0.812h-0.789V86.081z"/>
		<path fill="#EB66A6" d="M301.596,81.198h1.154c0.508,0.005,0.871,0.15,1.094,0.434c0.207,0.281,0.311,0.617,0.311,1.008v0.207
			c0,0.292-0.046,0.516-0.137,0.672c-0.097,0.148-0.237,0.276-0.422,0.383c0.372,0.172,0.559,0.545,0.559,1.121v0.32
			c0.01,1.023-0.483,1.541-1.48,1.551h-1.078V81.198z M302.385,83.534h0.357c0.262,0,0.441-0.069,0.541-0.208
			c0.086-0.141,0.129-0.34,0.129-0.596s-0.048-0.448-0.145-0.576c-0.104-0.128-0.289-0.192-0.556-0.192h-0.327V83.534z
			 M302.385,86.081h0.342c0.308,0,0.503-0.091,0.587-0.274c0.046-0.088,0.076-0.192,0.091-0.309c0.006-0.112,0.008-0.239,0.008-0.38
			c0.008-0.287-0.029-0.503-0.113-0.646c-0.095-0.146-0.282-0.219-0.564-0.219h-0.35V86.081z"/>
	</g>
</g>
<circle fill="#FFFFFF" stroke="#5752A3" stroke-width="2" stroke-miterlimit="10" cx="342.639" cy="42.213" r="18.77"/>
<g>
	<g>
		<path fill="#5752A3" d="M334.883,42.771h-0.975l-0.334,2.579h-0.793l0.352-2.579h-0.607v-0.714h0.687l0.255-1.952h-0.578v-0.714
			h0.674l0.335-2.584h0.788l-0.335,2.584h0.976l0.334-2.584h0.787l-0.346,2.584h0.607v0.714h-0.697l-0.264,1.952h0.598v0.714h-0.674
			l-0.335,2.579h-0.8L334.883,42.771z M335.229,40.105h-0.975L334,42.058h0.975L335.229,40.105z"/>
	</g>
	<g>
		<path fill="#5752A3" d="M339.779,38.708h0.789v5.695h-0.789V38.708z"/>
		<path fill="#5752A3" d="M341.342,40.348h0.789v0.391h0.016c0.086-0.133,0.19-0.24,0.312-0.32c0.123-0.081,0.275-0.121,0.457-0.121
			c0.219,0,0.41,0.073,0.574,0.219c0.086,0.073,0.152,0.174,0.199,0.305c0.045,0.127,0.066,0.284,0.066,0.469v3.113h-0.789v-2.809
			c-0.005-0.315-0.144-0.475-0.416-0.48c-0.291,0.005-0.431,0.193-0.42,0.562v2.727h-0.789V40.348z"/>
		<path fill="#5752A3" d="M344.455,39.114h0.789v1.234h0.487v0.64h-0.487v2.25c0,0.178,0.039,0.29,0.117,0.336
			c0.075,0.047,0.199,0.068,0.37,0.063v0.765h-0.325c-0.176,0-0.322-0.033-0.441-0.098c-0.118-0.057-0.217-0.131-0.294-0.223
			c-0.149-0.198-0.221-0.409-0.216-0.633v-2.461h-0.393v-0.64h0.393V39.114z"/>
		<path fill="#5752A3" d="M346.088,43.591h0.789v0.812h-0.789V43.591z"/>
		<path fill="#5752A3" d="M350.135,43.133c-0.006,0.364-0.124,0.67-0.355,0.919c-0.235,0.255-0.535,0.387-0.901,0.397
			c-0.148,0-0.299-0.023-0.45-0.07c-0.154-0.044-0.295-0.116-0.424-0.215c-0.126-0.102-0.227-0.241-0.303-0.418
			c-0.083-0.169-0.125-0.383-0.125-0.641v-3.137c0-0.383,0.121-0.697,0.363-0.941c0.232-0.24,0.54-0.362,0.924-0.367
			c0.371,0.005,0.676,0.13,0.916,0.375c0.231,0.245,0.35,0.572,0.355,0.983v0.32h-0.789v-0.274c0-0.165-0.041-0.306-0.125-0.423
			c-0.089-0.107-0.211-0.163-0.365-0.168c-0.193,0-0.322,0.062-0.388,0.184c-0.073,0.123-0.108,0.282-0.103,0.478v2.92
			c0,0.165,0.036,0.3,0.109,0.407c0.071,0.117,0.195,0.176,0.373,0.176c0.114,0.005,0.226-0.034,0.335-0.118
			c0.104-0.086,0.158-0.239,0.163-0.458V42.78h0.789V43.133z"/>
	</g>
</g>
<circle fill="#FFFFFF" stroke="#636466" stroke-width="2" stroke-miterlimit="10" cx="528.209" cy="276.131" r="32.77"/>
<g>
	<g>
		<g>
			<g>
				<path fill="#636466" d="M539.564,271.78c-0.091-0.356-0.278-0.711-0.558-1.062c-0.573-0.767-1.381-1.157-2.425-1.171
					c-0.873,0.014-1.612,0.315-2.213,0.907c-0.614,0.592-0.928,1.331-0.941,2.225v1.225h0.002c0,0.003-0.002,0.008-0.002,0.014
					c0,0.562,0.457,1.02,1.02,1.02s1.02-0.457,1.02-1.02c0-0.006-0.001-0.011-0.001-0.014h0.001v-1.204
					c0-0.357,0.121-0.627,0.363-0.81c0.23-0.162,0.479-0.244,0.749-0.244c0.313,0,0.569,0.096,0.771,0.285
					c0.194,0.209,0.291,0.465,0.291,0.769v1.095c0,0.43-0.09,0.832-0.271,1.204l-1.362,2.154c-0.36,0.516-0.541,1.075-0.541,1.682
					v1.907c0,0.002,0,0.002,0,0.002v0.004v0.021h0.002c0.012,0.552,0.462,0.995,1.017,0.995c0.556,0,1.004-0.443,1.018-0.995h0.003
					v-1.657c0.016-0.379,0.137-0.731,0.365-1.062l1.466-2.437c0.147-0.222,0.246-0.498,0.302-0.828
					c0.029-0.331,0.043-0.843,0.043-1.536C539.682,272.625,539.641,272.138,539.564,271.78z"/>
			</g>
			<g>
				<circle fill="#636466" cx="536.485" cy="283.377" r="1.019"/>
			</g>
		</g>
		<g>
			<path fill="#636466" d="M520.853,279.758h-1.702l-0.583,4.503h-1.385l0.614-4.503h-1.061v-1.244h1.198l0.445-3.411h-1.01v-1.245
				h1.177l0.585-4.513h1.376l-0.585,4.513h1.703l0.583-4.513h1.374l-0.604,4.513h1.061v1.245h-1.217l-0.461,3.411h1.044v1.244
				h-1.177l-0.585,4.503h-1.396L520.853,279.758z M521.456,275.103h-1.702l-0.443,3.411h1.702L521.456,275.103z"/>
		</g>
	</g>
</g>
<text transform="matrix(1 0 0 1 357.8848 357.9814)" font-family="'DINEngschriftLT-Alternate'" font-size="8">#conf</text>
<text transform="matrix(1 0 0 1 378.2861 338.376)" font-family="'DINEngschriftLT-Alternate'" font-size="8">#gobz</text>
<text transform="matrix(1 0 0 1 398.5098 321.7178)" font-family="'DINEngschriftLT-Alternate'" font-size="8">#paris</text>
<text transform="matrix(1 0 0 1 416.832 306.501)" font-family="'DINEngschriftLT-Alternate'" font-size="8">#jan2012</text>
<path fill="#FFFFFF" stroke="#F26839" stroke-width="2" stroke-miterlimit="10" d="M276.72,182.68c0,33.906-27.483,61.4-61.4,61.4
	c-33.916,0-61.399-27.494-61.399-61.4c0-33.907,27.483-61.4,61.399-61.4C249.236,121.28,276.72,148.773,276.72,182.68z"/>
<g>
	<g>
		<path fill="#F26839" d="M209.806,184.373h-0.975l-0.334,2.579h-0.793l0.352-2.579h-0.607v-0.714h0.688l0.254-1.952h-0.578v-0.714
			h0.674l0.336-2.584h0.787l-0.334,2.584h0.975l0.334-2.584h0.787l-0.346,2.584h0.607v0.714h-0.697l-0.264,1.952h0.598v0.714h-0.674
			l-0.334,2.579h-0.801L209.806,184.373z M210.151,181.707h-0.975l-0.254,1.952h0.975L210.151,181.707z"/>
	</g>
	<g>
		<g>
			<path fill="#F26839" d="M222.69,186.866c-0.275,0-0.5-0.224-0.5-0.5c0-1.892-1.539-3.431-3.43-3.431
				c-1.893,0-3.432,1.539-3.432,3.431c0,0.276-0.225,0.5-0.5,0.5c-0.277,0-0.5-0.224-0.5-0.5c0-2.443,1.988-4.431,4.432-4.431
				s4.43,1.988,4.43,4.431C223.19,186.643,222.968,186.866,222.69,186.866z"/>
		</g>
	</g>
</g>
<g>
	
		<circle opacity="0.49" fill="none" stroke="#F26839" stroke-width="2" stroke-miterlimit="10" cx="181.221" cy="167.764" r="18.77"/>
	<g>
		<g>
			<g>
				<path fill="#F26839" d="M186.044,171.508c-0.275,0-0.5-0.224-0.5-0.5c0-1.892-1.539-3.431-3.431-3.431s-3.431,1.539-3.431,3.431
					c0,0.276-0.225,0.5-0.5,0.5c-0.277,0-0.5-0.224-0.5-0.5c0-2.443,1.987-4.431,4.431-4.431s4.431,1.988,4.431,4.431
					C186.544,171.285,186.321,171.508,186.044,171.508z"/>
			</g>
		</g>
		<g>
			<path fill="#F26839" d="M173.159,169.701h-0.975l-0.334,2.579h-0.793l0.352-2.579h-0.607v-0.714h0.687l0.255-1.952h-0.578v-0.714
				h0.674l0.335-2.584h0.788l-0.335,2.584h0.976l0.334-2.584h0.787l-0.346,2.584h0.607v0.714h-0.697l-0.264,1.952h0.598v0.714
				h-0.674l-0.335,2.579h-0.8L173.159,169.701z M173.505,167.035h-0.975l-0.254,1.952h0.975L173.505,167.035z"/>
		</g>
		<g>
			<g>
				<path fill="#F26839" d="M190.851,165.556l-0.79,0.602v-0.865l0.79-0.598h0.789v5.695h-0.789V165.556z"/>
			</g>
		</g>
	</g>
</g>
<g>
	<circle opacity="0.49" fill="none" stroke="#F26839" stroke-miterlimit="10" cx="248.285" cy="171.508" r="18.77"/>
	<g>
		<g>
			<g>
				<path fill="#F26839" d="M252.772,173.949c-0.275,0-0.5-0.224-0.5-0.5c0-1.892-1.539-3.431-3.431-3.431s-3.431,1.539-3.431,3.431
					c0,0.276-0.225,0.5-0.5,0.5c-0.277,0-0.5-0.224-0.5-0.5c0-2.443,1.987-4.431,4.431-4.431s4.431,1.988,4.431,4.431
					C253.272,173.725,253.05,173.949,252.772,173.949z"/>
			</g>
		</g>
		<g>
			<path fill="#F26839" d="M239.888,173.201h-0.975l-0.334,2.579h-0.793l0.352-2.579h-0.607v-0.714h0.687l0.255-1.952h-0.578v-0.714
				h0.674l0.335-2.584h0.788l-0.335,2.584h0.976l0.334-2.584h0.787l-0.346,2.584h0.607v0.714h-0.697l-0.264,1.952h0.598v0.714
				h-0.674l-0.335,2.579h-0.8L239.888,173.201z M240.233,170.535h-0.975l-0.254,1.952h0.975L240.233,170.535z"/>
		</g>
		<g>
			<g>
				<path fill="#F26839" d="M256.638,173.125l1.469-2.779c0.07-0.138,0.113-0.261,0.129-0.368c0.011-0.107,0.016-0.236,0.016-0.387
					c0.006-0.154-0.011-0.297-0.049-0.431c-0.043-0.128-0.164-0.194-0.363-0.2c-0.121,0-0.221,0.031-0.299,0.094
					c-0.076,0.07-0.113,0.175-0.113,0.313v0.466h-0.789v-0.449c0.006-0.351,0.124-0.644,0.355-0.877
					c0.232-0.234,0.517-0.354,0.854-0.359c0.418,0.005,0.723,0.146,0.916,0.422c0.186,0.279,0.277,0.615,0.277,1.008
					c0,0.258-0.01,0.461-0.031,0.61c-0.036,0.148-0.115,0.34-0.237,0.575l-1.2,2.314h1.469v0.812h-2.402V173.125z"/>
			</g>
		</g>
	</g>
</g>
<g>
	<circle opacity="0.49" fill="none" stroke="#F26839" stroke-miterlimit="10" cx="218.76" cy="215.118" r="18.77"/>
	<g>
		<g>
			<g>
				<path fill="#F26839" d="M223.247,217.559c-0.275,0-0.5-0.224-0.5-0.5c0-1.892-1.539-3.432-3.431-3.432s-3.431,1.54-3.431,3.432
					c0,0.276-0.225,0.5-0.5,0.5c-0.277,0-0.5-0.224-0.5-0.5c0-2.444,1.987-4.432,4.431-4.432s4.431,1.988,4.431,4.432
					C223.747,217.335,223.524,217.559,223.247,217.559z"/>
			</g>
		</g>
		<g>
			<path fill="#F26839" d="M210.362,216.811h-0.975l-0.334,2.579h-0.793l0.352-2.579h-0.607v-0.714h0.687l0.255-1.952h-0.578v-0.714
				h0.674l0.335-2.584h0.788l-0.335,2.584h0.976l0.334-2.584h0.787l-0.346,2.584h0.607v0.714h-0.697l-0.264,1.952h0.598v0.714
				h-0.674l-0.335,2.579h-0.8L210.362,216.811z M210.708,214.145h-0.975l-0.254,1.952h0.975L210.708,214.145z"/>
		</g>
		<g>
			<g>
				<path fill="#F26839" d="M228.055,214.208c0.256,0.005,0.433-0.026,0.53-0.094c0.094-0.065,0.141-0.2,0.141-0.405v-0.738
					c0-0.123-0.032-0.223-0.097-0.299c-0.078-0.068-0.184-0.102-0.315-0.102c-0.143,0.005-0.248,0.047-0.315,0.126
					c-0.064,0.086-0.097,0.178-0.097,0.275v0.467h-0.789v-0.473c0.006-0.346,0.127-0.634,0.365-0.863
					c0.232-0.224,0.518-0.338,0.855-0.344c0.223,0.005,0.407,0.047,0.555,0.125c0.145,0.086,0.253,0.177,0.325,0.273
					c0.108,0.118,0.187,0.259,0.234,0.426c0.045,0.164,0.067,0.425,0.067,0.782c0.006,0.375-0.018,0.634-0.07,0.777
					c-0.064,0.149-0.209,0.287-0.434,0.415c0.245,0.135,0.395,0.288,0.449,0.458c0.042,0.177,0.061,0.459,0.055,0.848
					c0,0.357-0.013,0.614-0.038,0.77c-0.031,0.154-0.089,0.287-0.174,0.399c-0.096,0.142-0.222,0.264-0.379,0.365
					c-0.165,0.096-0.37,0.146-0.618,0.151c-0.126,0-0.258-0.023-0.397-0.07c-0.136-0.036-0.265-0.103-0.386-0.199
					c-0.264-0.188-0.399-0.502-0.41-0.944v-0.464h0.789v0.427c0,0.128,0.037,0.232,0.113,0.313c0.078,0.083,0.178,0.125,0.299,0.125
					c0.27-0.005,0.407-0.157,0.412-0.455v-0.818c0.006-0.219-0.035-0.367-0.121-0.442c-0.094-0.062-0.277-0.094-0.55-0.094V214.208z
					"/>
			</g>
		</g>
	</g>
</g>
<circle opacity="0.49" fill="none" stroke="#F26839" stroke-width="2" stroke-miterlimit="10" cx="248.285" cy="171.508" r="18.77"/>
<circle opacity="0.49" fill="none" stroke="#F26839" stroke-miterlimit="10" cx="218.76" cy="215.118" r="18.77"/>
<circle opacity="0.49" fill="none" stroke="#F26839" stroke-width="2" stroke-miterlimit="10" cx="218.76" cy="215.118" r="18.77"/>
<path fill="#FFFFFF" stroke="#8DC63F" stroke-width="2" stroke-miterlimit="10" d="M545.12,151.41c0,33.906-27.483,61.4-61.4,61.4
	c-33.916,0-61.399-27.494-61.399-61.4c0-33.907,27.483-61.4,61.399-61.4C517.637,90.009,545.12,117.503,545.12,151.41z"/>
<g>
	<circle opacity="0.49" fill="none" stroke="#8DC63F" stroke-miterlimit="10" cx="518.896" cy="141.278" r="18.77"/>
	<g>
		<g>
			<path d="M510.258,142.879h-0.975l-0.334,2.579h-0.793l0.352-2.579H507.9v-0.714h0.687l0.255-1.952h-0.578v-0.714h0.674
				l0.335-2.584h0.788l-0.335,2.584h0.976l0.334-2.584h0.787l-0.346,2.584h0.607v0.714h-0.697l-0.264,1.952h0.598v0.714h-0.674
				l-0.335,2.579h-0.8L510.258,142.879z M510.604,140.213h-0.975l-0.254,1.952h0.975L510.604,140.213z"/>
		</g>
		<g>
			<path d="M519.211,145.592c-2.442,0-4.43-1.988-4.43-4.431c0-0.276,0.223-0.5,0.5-0.5c0.275,0,0.5,0.224,0.5,0.5
				c0,1.892,1.539,3.431,3.43,3.431c1.893,0,3.432-1.539,3.432-3.431c0-0.276,0.225-0.5,0.5-0.5c0.277,0,0.5,0.224,0.5,0.5
				C523.643,143.604,521.655,145.592,519.211,145.592z"/>
		</g>
		<g>
			<path d="M527.008,142.803l1.469-2.779c0.07-0.138,0.113-0.261,0.129-0.368c0.011-0.107,0.016-0.236,0.016-0.387
				c0.006-0.154-0.011-0.297-0.049-0.431c-0.043-0.128-0.164-0.194-0.363-0.2c-0.121,0-0.221,0.031-0.299,0.094
				c-0.076,0.07-0.113,0.175-0.113,0.313v0.466h-0.789v-0.449c0.006-0.351,0.124-0.644,0.355-0.877
				c0.232-0.234,0.517-0.354,0.854-0.359c0.418,0.005,0.723,0.146,0.916,0.422c0.186,0.279,0.277,0.615,0.277,1.008
				c0,0.258-0.01,0.461-0.031,0.61c-0.036,0.148-0.115,0.34-0.237,0.575l-1.2,2.314h1.469v0.812h-2.402V142.803z"/>
		</g>
	</g>
</g>
<g>
	<circle opacity="0.49" fill="none" stroke="#8DC63F" stroke-miterlimit="10" cx="473.206" cy="185.457" r="18.77"/>
	<g>
		<g>
			<path d="M464.566,187.733h-0.975l-0.334,2.579h-0.793l0.352-2.579h-0.607v-0.714h0.687l0.255-1.952h-0.578v-0.714h0.674
				l0.335-2.584h0.788l-0.335,2.584h0.976l0.334-2.584h0.787l-0.346,2.584h0.607v0.714h-0.697l-0.264,1.952h0.598v0.714h-0.674
				l-0.335,2.579h-0.8L464.566,187.733z M464.912,185.067h-0.975l-0.254,1.952h0.975L464.912,185.067z"/>
		</g>
		<g>
			<path d="M473.52,190.446c-2.442,0-4.43-1.988-4.43-4.431c0-0.276,0.223-0.5,0.5-0.5c0.275,0,0.5,0.224,0.5,0.5
				c0,1.892,1.539,3.431,3.43,3.431c1.893,0,3.432-1.539,3.432-3.431c0-0.276,0.225-0.5,0.5-0.5c0.277,0,0.5,0.224,0.5,0.5
				C477.951,188.458,475.964,190.446,473.52,190.446z"/>
		</g>
		<g>
			<path d="M482.259,185.13c0.256,0.005,0.433-0.026,0.53-0.094c0.094-0.065,0.141-0.2,0.141-0.405v-0.738
				c0-0.123-0.032-0.223-0.097-0.299c-0.078-0.068-0.184-0.102-0.315-0.102c-0.143,0.005-0.248,0.047-0.315,0.126
				c-0.064,0.086-0.097,0.178-0.097,0.275v0.467h-0.789v-0.473c0.006-0.346,0.127-0.634,0.365-0.863
				c0.232-0.224,0.518-0.338,0.855-0.344c0.223,0.005,0.407,0.047,0.555,0.125c0.145,0.086,0.253,0.177,0.325,0.273
				c0.108,0.118,0.187,0.259,0.234,0.426c0.045,0.164,0.067,0.425,0.067,0.782c0.006,0.375-0.018,0.634-0.07,0.777
				c-0.064,0.149-0.209,0.287-0.434,0.415c0.245,0.135,0.395,0.288,0.449,0.458c0.042,0.177,0.061,0.459,0.055,0.848
				c0,0.357-0.013,0.614-0.038,0.77c-0.031,0.154-0.089,0.287-0.174,0.399c-0.096,0.142-0.222,0.264-0.379,0.365
				c-0.165,0.096-0.37,0.146-0.618,0.151c-0.126,0-0.258-0.023-0.397-0.07c-0.136-0.036-0.265-0.103-0.386-0.199
				c-0.264-0.188-0.399-0.502-0.41-0.944v-0.464h0.789v0.427c0,0.128,0.037,0.232,0.113,0.313c0.078,0.083,0.178,0.125,0.299,0.125
				c0.27-0.005,0.407-0.157,0.412-0.455v-0.818c0.006-0.219-0.035-0.367-0.121-0.442c-0.094-0.062-0.277-0.094-0.55-0.094V185.13z"
				/>
		</g>
	</g>
</g>
<g>
	<g>
		<path d="M478.575,153.629h-0.975l-0.334,2.579h-0.793l0.352-2.579h-0.607v-0.714h0.686l0.256-1.952h-0.578v-0.714h0.674
			l0.334-2.584h0.789l-0.336,2.584h0.977l0.334-2.584h0.787l-0.346,2.584h0.607v0.714h-0.697l-0.264,1.952h0.598v0.714h-0.674
			l-0.336,2.579h-0.799L478.575,153.629z M478.921,150.963h-0.975l-0.254,1.952h0.975L478.921,150.963z"/>
	</g>
	<g>
		<path d="M487.528,156.34c-2.443,0-4.43-1.988-4.43-4.431c0-0.276,0.223-0.5,0.5-0.5c0.275,0,0.5,0.224,0.5,0.5
			c0,1.892,1.539,3.431,3.43,3.431c1.893,0,3.432-1.539,3.432-3.431c0-0.276,0.225-0.5,0.5-0.5c0.277,0,0.5,0.224,0.5,0.5
			C491.96,154.353,489.972,156.34,487.528,156.34z"/>
	</g>
</g>
<g>
	
		<circle opacity="0.49" fill="none" stroke="#8DC63F" stroke-width="2" stroke-miterlimit="10" cx="456.402" cy="128.197" r="18.77"/>
	<g>
		<g>
			<path d="M447.207,129.357h-0.975l-0.334,2.579h-0.793l0.352-2.579h-0.607v-0.714h0.687l0.255-1.952h-0.578v-0.714h0.674
				l0.335-2.584h0.788l-0.335,2.584h0.976l0.334-2.584h0.787l-0.346,2.584h0.607v0.714h-0.697l-0.264,1.952h0.598v0.714h-0.674
				l-0.335,2.579h-0.8L447.207,129.357z M447.553,126.691h-0.975l-0.254,1.952h0.975L447.553,126.691z"/>
		</g>
		<g>
			<path d="M456.16,132.07c-2.442,0-4.43-1.988-4.43-4.431c0-0.276,0.223-0.5,0.5-0.5c0.275,0,0.5,0.224,0.5,0.5
				c0,1.892,1.539,3.431,3.43,3.431c1.893,0,3.432-1.539,3.432-3.431c0-0.276,0.225-0.5,0.5-0.5c0.277,0,0.5,0.224,0.5,0.5
				C460.592,130.082,458.604,132.07,456.16,132.07z"/>
		</g>
		<g>
			<path d="M464.898,125.212l-0.79,0.602v-0.865l0.79-0.598h0.789v5.695h-0.789V125.212z"/>
		</g>
	</g>
</g>
<circle opacity="0.49" fill="none" stroke="#8DC63F" stroke-width="2" stroke-miterlimit="10" cx="518.896" cy="141.278" r="18.77"/>
<circle opacity="0.49" fill="none" stroke="#8DC63F" stroke-miterlimit="10" cx="473.206" cy="185.457" r="18.77"/>
<circle opacity="0.49" fill="none" stroke="#8DC63F" stroke-width="2" stroke-miterlimit="10" cx="473.206" cy="185.457" r="18.77"/>
<g>
	<path fill="#8DC63F" d="M32.243,478.521h-0.908l-0.312,2.401h-0.738l0.327-2.401h-0.565v-0.665h0.639l0.237-1.818h-0.538v-0.664
		h0.628l0.312-2.407h0.733l-0.312,2.407h0.908l0.312-2.407H33.7l-0.322,2.407h0.565v0.664h-0.649l-0.246,1.818h0.557v0.665h-0.628
		l-0.312,2.401h-0.745L32.243,478.521z M32.565,476.037h-0.908l-0.237,1.818h0.908L32.565,476.037z"/>
</g>
<g>
	<path fill="#8DC63F" d="M40.582,481.047c-2.275,0-4.126-1.852-4.126-4.126c0-0.258,0.208-0.466,0.465-0.466
		s0.466,0.208,0.466,0.466c0,1.762,1.434,3.194,3.195,3.194c1.762,0,3.196-1.433,3.196-3.194c0-0.258,0.208-0.466,0.466-0.466
		s0.466,0.208,0.466,0.466C44.709,479.195,42.858,481.047,40.582,481.047z"/>
</g>
<g>
	<path fill="#8DC63F" d="M48.721,476.096c0.238,0.006,0.403-0.023,0.494-0.088c0.087-0.061,0.132-0.186,0.132-0.377v-0.687
		c0-0.114-0.031-0.208-0.091-0.278c-0.073-0.063-0.171-0.096-0.293-0.096c-0.133,0.006-0.231,0.045-0.294,0.118
		c-0.06,0.08-0.09,0.165-0.09,0.256v0.435h-0.734v-0.439c0.004-0.323,0.118-0.591,0.339-0.805c0.217-0.209,0.483-0.314,0.798-0.32
		c0.207,0.006,0.379,0.044,0.516,0.117c0.135,0.08,0.236,0.164,0.303,0.254c0.101,0.109,0.174,0.242,0.218,0.396
		c0.042,0.153,0.063,0.396,0.063,0.729c0.004,0.35-0.017,0.591-0.065,0.725c-0.061,0.139-0.196,0.268-0.404,0.386
		c0.228,0.126,0.367,0.269,0.418,0.427c0.039,0.164,0.055,0.428,0.051,0.789c0,0.332-0.012,0.571-0.036,0.717
		c-0.029,0.144-0.083,0.268-0.162,0.371c-0.089,0.133-0.207,0.246-0.353,0.341c-0.153,0.089-0.345,0.136-0.575,0.142
		c-0.118,0-0.241-0.022-0.371-0.066c-0.127-0.033-0.247-0.096-0.36-0.186c-0.245-0.174-0.372-0.467-0.381-0.879v-0.433h0.734v0.397
		c0,0.119,0.035,0.217,0.105,0.292c0.073,0.078,0.166,0.117,0.279,0.117c0.251-0.005,0.379-0.146,0.384-0.423v-0.763
		c0.004-0.204-0.033-0.342-0.113-0.412c-0.088-0.058-0.258-0.088-0.512-0.088V476.096z"/>
</g>
<g>
	<path fill="#F26839" d="M44.244,543.358c-0.257,0-0.466-0.208-0.466-0.466c0-1.762-1.433-3.196-3.195-3.196
		s-3.196,1.435-3.196,3.196c0,0.258-0.208,0.466-0.466,0.466s-0.465-0.208-0.465-0.466c0-2.276,1.851-4.127,4.127-4.127
		c2.275,0,4.127,1.851,4.127,4.127C44.709,543.15,44.501,543.358,44.244,543.358z"/>
</g>
<g>
	<path fill="#F26839" d="M32.243,542.662h-0.908l-0.312,2.401h-0.738l0.327-2.401h-0.565v-0.665h0.639l0.237-1.817h-0.538v-0.666
		h0.628l0.312-2.406h0.733l-0.312,2.406h0.908l0.312-2.406H33.7l-0.322,2.406h0.565v0.666h-0.649l-0.246,1.817h0.557v0.665h-0.628
		l-0.312,2.401h-0.745L32.243,542.662z M32.565,540.18h-0.908l-0.237,1.817h0.908L32.565,540.18z"/>
</g>
<g>
	<path fill="#F26839" d="M48.721,540.237c0.238,0.005,0.403-0.024,0.494-0.088c0.087-0.062,0.132-0.187,0.132-0.377v-0.687
		c0-0.115-0.031-0.208-0.091-0.279c-0.073-0.062-0.171-0.095-0.293-0.095c-0.133,0.005-0.231,0.044-0.294,0.117
		c-0.06,0.081-0.09,0.165-0.09,0.257v0.434h-0.734v-0.439c0.004-0.322,0.118-0.59,0.339-0.805c0.217-0.209,0.483-0.314,0.798-0.32
		c0.207,0.006,0.379,0.045,0.516,0.117c0.135,0.08,0.236,0.165,0.303,0.254c0.101,0.109,0.174,0.242,0.218,0.397
		c0.042,0.153,0.063,0.396,0.063,0.728c0.004,0.35-0.017,0.592-0.065,0.725c-0.061,0.139-0.196,0.268-0.404,0.387
		c0.228,0.125,0.367,0.268,0.418,0.426c0.039,0.164,0.055,0.428,0.051,0.789c0,0.333-0.012,0.572-0.036,0.717
		c-0.029,0.144-0.083,0.268-0.162,0.372c-0.089,0.132-0.207,0.246-0.353,0.341c-0.153,0.088-0.345,0.135-0.575,0.141
		c-0.118,0-0.241-0.021-0.371-0.066c-0.127-0.033-0.247-0.095-0.36-0.185c-0.245-0.175-0.372-0.468-0.381-0.88v-0.432h0.734v0.396
		c0,0.119,0.035,0.217,0.105,0.293c0.073,0.077,0.166,0.116,0.279,0.116c0.251-0.005,0.379-0.146,0.384-0.423v-0.763
		c0.004-0.204-0.033-0.341-0.113-0.411c-0.088-0.059-0.258-0.088-0.512-0.088V540.237z"/>
</g>
</svg>
