<?xml version="1.0" encoding="UTF-8" standalone="no"?>
<!-- Created with Inkscape (http://www.inkscape.org/) -->

<svg
   xmlns:dc="http://purl.org/dc/elements/1.1/"
   xmlns:cc="http://creativecommons.org/ns#"
   xmlns:rdf="http://www.w3.org/1999/02/22-rdf-syntax-ns#"
   xmlns:svg="http://www.w3.org/2000/svg"
   xmlns="http://www.w3.org/2000/svg"
   xmlns:sodipodi="http://sodipodi.sourceforge.net/DTD/sodipodi-0.dtd"
   xmlns:inkscape="http://www.inkscape.org/namespaces/inkscape"
   width="800px"
   height="600px"
   id="svg2993"
   version="1.1"
   inkscape:version="0.48.2 r9819"
   sodipodi:docname="toktam.svg">
  <defs
     id="defs2995" />
  <sodipodi:namedview
     id="base"
     pagecolor="#ffffff"
     bordercolor="#666666"
     borderopacity="1.0"
     inkscape:pageopacity="0.0"
     inkscape:pageshadow="2"
     inkscape:zoom="0.6"
     inkscape:cx="800"
     inkscape:cy="300"
     inkscape:current-layer="layer1"
     inkscape:document-units="px"
     showgrid="false"
     inkscape:window-width="1265"
     inkscape:window-height="687"
     inkscape:window-x="3"
     inkscape:window-y="0"
     inkscape:window-maximized="0" />
  <metadata
     id="metadata2998">
    <rdf:RDF>
      <cc:Work
         rdf:about="">
        <dc:format>image/svg+xml</dc:format>
        <dc:type
           rdf:resource="http://purl.org/dc/dcmitype/StillImage" />
        <dc:title />
      </cc:Work>
    </rdf:RDF>
  </metadata>
  <g
     id="layer1"
     inkscape:label="Layer 1"
     inkscape:groupmode="layer">
    <path
       style="opacity:0.87000001999999999;fill:#e3dbdb;fill-opacity:0.84313724999999984;stroke:#999999"
       d="m -1.6666666,1.6666666 804.9999966,0 0,603.3333134 -804.9999966,0 z"
       id="rect3018" />
    <path
       sodipodi:type="star"
       style="opacity:0.87000002;fill:#e9afaf;fill-opacity:0.84313725;stroke:#999999"
       id="path3020"
       sodipodi:sides="6"
       sodipodi:cx="135"
       sodipodi:cy="70"
       sodipodi:r1="144.93582"
       sodipodi:r2="92.262169"
       sodipodi:arg1="0.61765964"
       sodipodi:arg2="1.2172338"
       inkscape:flatsided="false"
       inkscape:rounded="3.469447e-18"
       inkscape:randomized="0"
       d="m 253.15691,153.93651 -86.21186,2.6188 -45.55774,57.73983 L 76.013431,140.94288 3.2303972,130.35863 44.068378,54.387573 16.843092,-13.936509 103.05495,-16.555308 148.61269,-74.295138 193.98657,-0.94288164 266.7696,9.6413706 225.93162,85.612427 z"
       inkscape:transform-center-x="2.0460313"
       inkscape:transform-center-y="5.018756"
       transform="matrix(1.2744195,0,0,1.2074106,203.91834,139.24223)"
       onclick="alert(&quot;sans opinion!!!&quot;)" />
    <path
       sodipodi:type="star"
       style="opacity:0.87000002;fill:#916f6f;fill-opacity:0.84313725;stroke:#999999"
       id="path3030"
       sodipodi:sides="4"
       sodipodi:cx="533.33331"
       sodipodi:cy="83.333336"
       sodipodi:r1="156.78188"
       sodipodi:r2="91.527191"
       sodipodi:arg1="2.3336419"
       sodipodi:arg2="3.1190401"
       inkscape:flatsided="false"
       inkscape:rounded="1.07"
       inkscape:randomized="0"
       d="m 424.99998,196.66667 c -87.04276,-83.20264 19.5448,9.11235 16.82942,-111.269337 -2.71538,-120.381677 -105.03207,-23.35457 -21.82943,-110.39733 83.20265,-87.042763 -9.11234,19.5447961 111.26935,16.8294169 120.38167,-2.7153789 23.35457,-105.0320599 110.39733,-21.8294219 87.04276,83.202645 -19.5448,-9.112343 -16.82942,111.269341 2.71538,120.381681 105.03206,23.354571 21.82942,110.397331 -83.20264,87.04276 9.11234,-19.5448 -111.26934,-16.82942 -120.38168,2.71538 -23.35457,105.03206 -110.39733,21.82942 z"
       transform="translate(5,276.66667)"
       onclick="alert(&quot;pas OK&quot;)" />
    <path
       style="opacity:0.87000002;fill:#d35f5f;fill-opacity:0.84313725;stroke:#999999"
       d="M 326.66669,563.33332 170.13938,430.99011 18.565219,364.54912 211.44146,295.16411 344.76813,197.11753 308.41919,398.84575 z"
       id="path3800"
       onclick="alert(&quot;OK&quot;)"
       inkscape:connector-curvature="0" />
    <text
       xml:space="preserve"
       style="font-size:88.13738251px;font-style:normal;font-variant:normal;font-weight:normal;font-stretch:normal;text-align:start;line-height:125%;letter-spacing:0px;word-spacing:0px;writing-mode:lr-tb;text-anchor:start;fill:#000000;fill-opacity:1;stroke:none;font-family:Comic Sans MS;-inkscape-font-specification:Comic Sans MS"
       x="343.87946"
       y="226.85364"
       id="text3814"
       sodipodi:linespacing="125%"
       transform="scale(0.94956238,1.0531167)"><tspan
         sodipodi:role="line"
         id="tspan3816"
         x="343.87946"
         y="226.85364">SO</tspan></text>
    <text
       xml:space="preserve"
       style="font-size:90.51358032px;font-style:normal;font-variant:normal;font-weight:normal;font-stretch:normal;text-align:start;line-height:125%;letter-spacing:0px;word-spacing:0px;writing-mode:lr-tb;text-anchor:start;fill:#000000;fill-opacity:1;stroke:none;font-family:Comic Sans MS;-inkscape-font-specification:Comic Sans MS"
       x="500.70773"
       y="379.0643"
       id="text3818"
       sodipodi:linespacing="125%"
       transform="scale(0.96867526,1.0323377)"><tspan
         sodipodi:role="line"
         id="tspan3820"
         x="500.70773"
         y="379.0643">KO</tspan></text>
    <g
       transform="scale(0.94022316,1.0635773)"
       style="font-size:93.72208405px;font-style:normal;font-variant:normal;font-weight:normal;font-stretch:normal;text-align:start;line-height:125%;letter-spacing:0px;word-spacing:0px;writing-mode:lr-tb;text-anchor:start;fill:#000000;fill-opacity:1;stroke:none;font-family:Comic Sans MS;-inkscape-font-specification:Comic Sans MS"
       id="text2994">
      <path
         d="m 220.8928,373.54083 c -8.60342,-1e-5 -15.89494,-2.57797 -21.87459,-7.73391 -6.34577,-5.49152 -9.51865,-12.56948 -9.51865,-21.23391 0,-10.5559 3.12712,-20.15081 9.38136,-28.78476 6.98643,-9.5796 15.69659,-14.36943 26.13053,-14.3695 10.03724,7e-5 17.49656,2.2577 22.37797,6.77289 5.09485,4.69836 7.64231,12.11192 7.64238,22.24069 -7e-5,10.55596 -2.86786,20.0746 -8.60339,28.55594 -6.58989,9.70171 -15.10175,14.55255 -25.53561,14.55256 m 4.11865,-62.74072 c -7.47462,6e-5 -13.80512,3.7221 -18.99154,11.16611 -4.78985,6.83395 -7.18476,14.36953 -7.18475,22.60679 -1e-5,5.88816 2.18134,10.67799 6.54407,14.3695 4.17964,3.47798 9.35082,5.21696 15.51357,5.21695 7.41352,10e-6 13.53047,-3.73728 18.35086,-11.21187 4.30164,-6.68133 6.45248,-14.18641 6.45254,-22.51526 -6e-5,-7.29148 -1.63226,-12.41691 -4.89661,-15.37628 -3.11192,-2.83723 -8.37463,-4.25588 -15.78814,-4.25594"
         style=""
         id="path3772" />
      <path
         d="m 311.82336,372.62557 c -4.63734,0 -11.24242,-4.07288 -19.81527,-12.21865 l -13.68306,-13.77458 0,0.64067 -0.0458,23.97968 c -2e-5,3.02034 -1.32714,4.5305 -3.98136,4.53051 -1.73899,-1e-5 -3.12713,-0.76272 -4.16441,-2.28814 -0.85424,-1.25085 -1.28136,-2.60847 -1.28135,-4.07288 -10e-6,-7.13898 0.21355,-17.81694 0.64068,-32.03392 0.4271,-14.21691 0.64066,-24.87961 0.64067,-31.98815 -1e-5,-1.3118 0.42711,-2.42536 1.28136,-3.34068 0.88473,-0.91518 1.96778,-1.37281 3.24915,-1.37288 1.31185,7e-5 2.3949,0.4577 3.24916,1.37288 0.88473,0.91532 1.3271,2.02888 1.32712,3.34068 -2e-5,2.95939 -0.18307,7.56616 -0.54915,13.82035 -0.36613,6.04072 -0.53392,10.66276 -0.50339,13.86611 4.08811,-3.87454 8.71014,-8.74064 13.8661,-14.59832 l 13.13391,-15.23899 c 1.03724,-1.18976 2.19656,-1.78468 3.47797,-1.78474 1.22029,6e-5 2.30334,0.45769 3.24915,1.37288 0.94571,0.91532 1.41859,2.02888 1.41865,3.34068 -6e-5,2.01362 -3.93565,7.38311 -11.80679,16.10848 -5.43055,5.9492 -11.0441,11.77631 -16.84069,17.48137 3.66099,3.84409 9.39658,9.36612 17.20679,16.56611 l 4.80509,4.02712 c 1.73893,1.34238 3.61521,2.34916 5.62882,3.02034 2.41011,0.79322 3.6152,2.30339 3.61525,4.53051 -5e-5,1.03729 -0.32039,2.02881 -0.96101,2.97458 -0.79328,1.15932 -1.84582,1.73898 -3.15763,1.73898"
         style=""
         id="path3774" />
    </g>
    <path
       style="fill:none;stroke:#000000;stroke-width:1px;stroke-linecap:butt;stroke-linejoin:miter;stroke-opacity:1;opacity:0"
       d="M 215,298.33333 355,201.66667 326.66667,343.33333 295,313.33333 z"
       id="path2999"
       inkscape:connector-curvature="0" />
    <path
       style="fill:none;stroke:#000000;stroke-width:1px;stroke-linecap:butt;stroke-linejoin:miter;stroke-opacity:1;opacity:0"
       d="m 461.66667,218.33333 -70,75 L 435,320 l 88.33333,1.66667 -21.66666,-58.33334 z"
       id="path3001"
       inkscape:connector-curvature="0"
       onclick="alert(&quot;c'est interessant...&quot;)" />
    <path
       style="fill:none;stroke:#000000;stroke-width:1px;stroke-linecap:butt;stroke-linejoin:miter;stroke-opacity:1;opacity:0"
       d="m 335,205 -118.33333,90 81.66666,15 20,40 z"
       id="path3777"
       inkscape:connector-curvature="0" />
    <path
       style="fill:none;stroke:#000000;stroke-width:1px;stroke-linecap:butt;stroke-linejoin:miter;stroke-opacity:1;opacity:0"
       d="M 213.33333,296.66667 C 340,203.33333 345,198.33333 345,198.33333 l -26.66667,140 L 296.66667,310 z"
       id="path3779"
       inkscape:connector-curvature="0"
       onclick="alert(&quot;c'est interessant...&quot;)" />
    <path
       style="fill:none;stroke:#000000;stroke-width:1px;stroke-linecap:butt;stroke-linejoin:miter;stroke-opacity:1;opacity:0"
       d="m 526.66667,325 -25,-60 -38.33334,-46.66667 -70,73.33334 46.66667,35 z"
       id="path3781"
       inkscape:connector-curvature="0"
       onclick="alert(&quot;ça ne m'interesse pas&quot;)" />
  </g>
</svg>
