<?xml version="1.0" encoding="utf-8"?>
<!-- Generator: Adobe Illustrator 15.0.2, SVG Export Plug-In . SVG Version: 6.00 Build 0)  -->
<!DOCTYPE svg PUBLIC "-//W3C//DTD SVG 1.1//EN" "http://www.w3.org/Graphics/SVG/1.1/DTD/svg11.dtd">
<svg version="1.1" xmlns="http://www.w3.org/2000/svg" xmlns:xlink="http://www.w3.org/1999/xlink" x="0px" y="0px" width="800px"
	 height="600px" viewBox="0 0 800 600" enable-background="new 0 0 800 600" xml:space="preserve">
<g id="Calque_2">
	<rect opacity="0.18" fill="#0B72B5" width="800" height="600"/>
</g>
<g id="Calque_1">
	<circle fill="#00A7BF" cx="426.044" cy="74.002" r="53.826"/>
	
		<ellipse fill="#A3C64A" stroke="#0F5F26" stroke-width="5" stroke-miterlimit="10" cx="301.348" cy="217.06" rx="60.943" ry="42.462"/>
	<circle fill="#DE0122" cx="295.427" cy="383.285" r="42.463"/>
	<circle fill="#BF7C12" cx="549.32" cy="384.448" r="42.463"/>
	<circle fill="#7E1B6A" cx="421.895" cy="383.285" r="42.463"/>
	<circle fill="#FEEA00" cx="210.502" cy="542.612" r="29.904"/>
	<circle fill="#FFFFFF" stroke="#000000" stroke-miterlimit="10" cx="282.868" cy="542.612" r="29.904"/>
	<circle fill="#FFFFFF" stroke="#000000" stroke-miterlimit="10" cx="362.29" cy="542.612" r="29.904"/>
	
		<text transform="matrix(1 0 0 1 248.3242 221.2456)" opacity="0.7" stroke="#000000" stroke-miterlimit="10" font-family="'MyriadPro-Regular'" font-size="13.923">#NomIntervenant1</text>
	<text transform="matrix(1 0 0 1 272.8672 389.3379)" fill="#FFFFFF" font-family="'MyriadPro-Regular'" font-size="13.923">#Sujet1</text>
	<text transform="matrix(1 0 0 1 387.5537 79.0122)" fill="#FFFFFF" font-family="'MyriadPro-Regular'" font-size="13.923">#ConfGobsP8</text>
	<path fill="none" stroke="#E7511E" stroke-width="2" stroke-miterlimit="10" d="M222.102,515.043
		c18-11.997,26.214-79.079,42.463-102.607"/>
	<path fill="none" stroke="#000000" stroke-width="2" stroke-miterlimit="10" d="M284.899,507.907
		c-0.006-28.119,2.849-55.127,2.392-82.157"/>
	<path fill="none" stroke="#000000" stroke-width="2" stroke-miterlimit="10" d="M351.883,514.657
		c-15.901-2.366-22.094-77.453-33.492-94.495"/>
	<path fill="none" stroke="#E7511E" stroke-width="2" stroke-miterlimit="10" d="M298.057,339.457c0-25.652,0-51.301,0-76.953"/>
	<path fill="none" stroke="#000000" stroke-width="2" stroke-miterlimit="10" d="M343.51,247.715
		c6.888,23.423,21.059,41.774,30.401,61.51c6.605,13.954,13.128,29.948,21.033,39.407"/>
	<path fill="none" stroke="#E95D0F" stroke-width="2" stroke-miterlimit="10" d="M339.922,181.772
		c12.828-29.873,48.417-20.987,58.251-61.714"/>
	<path fill="none" stroke="#000000" stroke-width="2" stroke-miterlimit="10" d="M198.778,530.207c0,3.589,0,7.177,0,10.766"/>
	<path fill="none" stroke="#000000" stroke-width="2" stroke-miterlimit="10" d="M217.916,532.6c0,3.588,0,7.177,0,10.765"/>
	<path fill="none" stroke="#000000" stroke-width="2" stroke-miterlimit="10" d="M189.208,552.934
		c5.64,15.455,29.851,11.464,38.276,2.393"/>
	<path fill="none" stroke="#000000" stroke-width="2" stroke-miterlimit="10" d="M270.545,527.815c0,3.19,0,6.379,0,9.568"/>
	<path fill="none" stroke="#000000" stroke-width="2" stroke-miterlimit="10" d="M289.684,527.815c0,3.19,0,6.379,0,9.568"/>
	<path fill="none" stroke="#000000" stroke-width="2" stroke-miterlimit="10" d="M347.099,531.404c0,1.993,0,3.986,0,5.979"/>
	<path fill="none" stroke="#000000" stroke-width="2" stroke-miterlimit="10" d="M365.041,531.404c0,1.196,0,2.392,0,3.588"/>
	<path fill="none" stroke="#000000" stroke-width="2" stroke-miterlimit="10" d="M190.405,552.934
		c11.004,0,23.013,2.626,33.491,1.195"/>
	<path fill="none" stroke="#000000" stroke-width="2" stroke-miterlimit="10" d="M220.308,555.326
		c1.401-0.322,2.653,0.092,3.588,1.196"/>
	<path fill="none" stroke="#000000" stroke-width="2" stroke-miterlimit="10" d="M268.153,545.757c8.374,0,16.747,0,25.119,0"/>
	<path fill="none" stroke="#000000" stroke-width="2" stroke-miterlimit="10" d="M343.51,558.914
		c3.186-14.555,28.283-11.873,33.492-1.196"/>
	
		<ellipse fill="#A3C64A" stroke="#0F5F26" stroke-width="5" stroke-miterlimit="10" cx="506.857" cy="217.059" rx="60.943" ry="42.462"/>
	
		<text transform="matrix(1 0 0 1 451.9141 221.2456)" opacity="0.7" stroke="#000000" stroke-miterlimit="10" font-family="'MyriadPro-Regular'" font-size="13.923">#NomIntervenant2</text>
	<path fill="none" stroke="#000000" stroke-width="2" stroke-miterlimit="10" d="M454.097,122.058
		c-6.127,23.315,53.405,24.737,56.872,49.753"/>
	<path fill="none" stroke="#000000" stroke-width="2" stroke-miterlimit="10" d="M479.87,259.522
		c-12.199,6.393-25.371,65.075-33.492,86.719"/>
	<path fill="none" stroke="#000000" stroke-width="2" stroke-miterlimit="10" d="M521.328,258.589
		c7.121,26.188,9.865,60.264,17.794,82.868"/>
	<text transform="matrix(1 0 0 1 398.1738 387.0186)" fill="#FFFFFF" font-family="'MyriadPro-Regular'" font-size="13.923">#Sujet2</text>
	<text transform="matrix(1 0 0 1 525.8027 387.0186)" fill="#FFFFFF" font-family="'MyriadPro-Regular'" font-size="13.923">#Sujet3</text>
</g>
</svg>
