<?xml version="1.0" encoding="utf-8"?>
<!-- Generator: Adobe Illustrator 15.0.0, SVG Export Plug-In . SVG Version: 6.00 Build 0)  -->
<!DOCTYPE svg PUBLIC "-//W3C//DTD SVG 1.1//EN" "http://www.w3.org/Graphics/SVG/1.1/DTD/svg11.dtd">
<svg version="1.1" xmlns="http://www.w3.org/2000/svg" xmlns:xlink="http://www.w3.org/1999/xlink" x="0px" y="0px" width="800px"
	 height="600px" viewBox="0 0 800 600" enable-background="new 0 0 800 600" xml:space="preserve">
<g id="Calque_2">
	<linearGradient id="SVGID_1_" gradientUnits="userSpaceOnUse" x1="405.4902" y1="613.4971" x2="405.4902" y2="6.9917">
		<stop  offset="0" style="stop-color:#D6D6D6"/>
		<stop  offset="0.503" style="stop-color:#FFFFFF"/>
		<stop  offset="1" style="stop-color:#FFFFFF"/>
	</linearGradient>
	<rect x="-4.004" y="6.991" fill="url(#SVGID_1_)" width="818.989" height="606.506"/>
</g>
<g id="legende">
	<rect x="30" y="221" fill="#F2F2F2" width="229" height="115"/>
	<rect x="83.918" y="240.83" fill="none" width="158.088" height="51.771"/>
	
		<text transform="matrix(1 0 0 1 83.918 265.0493)" fill="#FFDD15" font-family="'MyriadPro-BoldCond'" font-size="35" letter-spacing="3">Interest</text>
	<rect x="81.047" y="292.676" fill="none" width="220.953" height="74.883"/>
	
		<text transform="matrix(1 0 0 1 81.0469 316.8965)" fill="#224099" font-family="'MyriadPro-BoldCond'" font-size="35" letter-spacing="3">Knowledge</text>
	<linearGradient id="SVGID_2_" gradientUnits="userSpaceOnUse" x1="58" y1="265" x2="58" y2="239">
		<stop  offset="0" style="stop-color:#FFDD15;stop-opacity:0.4"/>
		<stop  offset="1" style="stop-color:#FFDD15"/>
	</linearGradient>
	<rect x="45" y="239" fill="url(#SVGID_2_)" width="26" height="26"/>
	<linearGradient id="SVGID_3_" gradientUnits="userSpaceOnUse" x1="58" y1="318" x2="58" y2="292.0005">
		<stop  offset="0" style="stop-color:#224099;stop-opacity:0.4"/>
		<stop  offset="1" style="stop-color:#224099"/>
	</linearGradient>
	<rect x="45" y="292" fill="url(#SVGID_3_)" width="26" height="26"/>
</g>
<g id="axes">
	<linearGradient id="SVGID_4_" gradientUnits="userSpaceOnUse" x1="300.4302" y1="569.4648" x2="300.4301" y2="44.4443">
		<stop  offset="0" style="stop-color:#FFDD15;stop-opacity:0.4"/>
		<stop  offset="1" style="stop-color:#FFDD15"/>
	</linearGradient>
	<polygon fill="url(#SVGID_4_)" points="294.493,565.841 300.43,569.465 306.367,565.841 302.361,565.841 302.361,48.878 
		306.367,48.878 300.416,44.444 294.493,48.878 298.441,48.878 298.441,565.841 	"/>
	<linearGradient id="SVGID_5_" gradientUnits="userSpaceOnUse" x1="241.4932" y1="508.7529" x2="766.5127" y2="508.7529">
		<stop  offset="0" style="stop-color:#224099;stop-opacity:0.4"/>
		<stop  offset="1" style="stop-color:#224099"/>
	</linearGradient>
	<polygon fill="url(#SVGID_5_)" points="762.89,514.689 766.513,508.754 762.89,502.816 762.89,506.822 245.927,506.822 
		245.927,502.816 241.493,508.769 245.927,514.689 245.927,510.743 762.89,510.743 	"/>
	<rect x="734.089" y="492.448" fill="none" width="139.911" height="70.498"/>
	<text transform="matrix(1 0 0 1 734.0889 502.1357)" fill="#224099" font-family="'MyriadPro-BoldCond'" font-size="14">+++</text>
	<rect x="306.033" y="-62.166" fill="none" width="70.498" height="139.911"/>
	<text transform="matrix(0 -1 1 0 315.7212 77.7466)" fill="#FFDD15" font-family="'MyriadPro-BoldCond'" font-size="14">+++</text>
</g>
<g id="hashtags">
	<rect x="403.072" y="156.897" fill="none" width="111.855" height="47.792"/>
	<text transform="matrix(1 0 0 1 403.0723 177.6572)" opacity="0.9"><tspan x="0" y="0" fill="#D6DE23" font-family="'MyriadPro-BoldCond'" font-size="25" letter-spacing="2">#</tspan><tspan x="13.15" y="0" fill="#D6DE23" font-family="'MyriadPro-BoldCond'" font-size="30" letter-spacing="3">WTF</tspan></text>
	<rect x="469.169" y="309.426" fill="none" width="111.854" height="47.793"/>
	
		<text transform="matrix(1 0 0 1 469.1689 326.0332)" opacity="0.7" fill="#00A14B" font-family="'MyriadPro-BoldCond'" font-size="24" letter-spacing="2">#humor</text>
	<rect x="572.889" y="213.842" fill="none" width="111.854" height="47.792"/>
	
		<text transform="matrix(1 0 0 1 572.8887 230.4492)" opacity="0.8" fill="#00A14B" font-family="'MyriadPro-BoldCond'" font-size="24" letter-spacing="2">#truth</text>
	<rect x="525.095" y="106.054" fill="none" width="146.311" height="52.119"/>
	
		<text transform="matrix(1 0 0 1 525.0947 133.7334)" fill="#37B34A" font-family="'MyriadPro-BoldCond'" font-size="40" letter-spacing="4">#news</text>
	<rect x="554.585" y="465.005" fill="none" width="111.854" height="47.794"/>
	
		<text transform="matrix(1 0 0 1 554.585 481.6123)" opacity="0.8" fill="#1B75BB" font-family="'MyriadPro-BoldCond'" font-size="24" letter-spacing="2">#old</text>
	<rect x="336.978" y="261.634" fill="none" width="111.854" height="47.792"/>
	
		<text transform="matrix(1 0 0 1 336.9775 278.2422)" opacity="0.8" fill="#F9EC31" font-family="'MyriadPro-BoldCond'" font-size="24" letter-spacing="2">#fun</text>
	<rect x="674.541" y="278.159" fill="none" width="111.855" height="47.792"/>
	
		<text transform="matrix(1 0 0 1 674.541 294.7661)" opacity="0.8" fill="#00A69C" font-family="'MyriadPro-BoldCond'" font-size="24" letter-spacing="2">#info</text>
	<rect x="373.584" y="395.858" fill="none" width="127.108" height="35.592"/>
	
		<text transform="matrix(1 0 0 1 373.584 412.4658)" opacity="0.5" fill="#00A14B" font-family="'MyriadPro-BoldCond'" font-size="24" letter-spacing="2">#skeptic</text>
	<rect x="692.146" y="50.127" fill="none" width="111.854" height="47.792"/>
	
		<text transform="matrix(1 0 0 1 692.1455 74.3472)" fill="#00A14B" font-family="'MyriadPro-BoldCond'" font-size="35" letter-spacing="3">#RT</text>
	<rect x="334.149" y="467.294" fill="none" width="111.854" height="47.792"/>
	
		<text transform="matrix(1 0 0 1 334.1489 481.1338)" opacity="0.3" fill="#00A14B" font-family="'MyriadPro-BoldCond'" font-size="20" letter-spacing="2">#bad</text>
</g>
<g id="title">
	<rect x="29.5" y="32.998" fill="none" width="517" height="52"/>
	
		<text transform="matrix(1 0 0 1 29.5 62.062)" fill="#231F20" font-family="'MyriadPro-BoldCond'" font-size="42" letter-spacing="4">#CONFERENCE</text>
	<rect x="31.861" y="103.672" fill="none" width="364.957" height="50.924"/>
	<text transform="matrix(1 0 0 1 31.8613 120.2788)"><tspan x="0" y="0" fill="#58595B" font-family="'MyriadPro-BoldCond'" font-size="24" letter-spacing="2">10 hashTags </tspan><tspan x="0" y="28.8" fill="#58595B" font-family="'MyriadPro-BoldCond'" font-size="24" letter-spacing="2">to give its opinion</tspan></text>
	<rect x="31" y="452" fill="none" width="244" height="56"/>
	<text transform="matrix(1 0 0 1 31 461.6875)"><tspan x="0" y="0" fill="#999999" font-family="'MyriadPro-BoldCond'" font-size="14">Damien Romito</tspan><tspan x="0" y="16.801" fill="#999999" font-family="'MyriadPro-BoldCond'" font-size="14">07/11/2011</tspan></text>
</g>
</svg>
