<?xml version="1.0" encoding="utf-8"?>
<!-- Generator: Adobe Illustrator 15.0.2, SVG Export Plug-In . SVG Version: 6.00 Build 0)  -->
<!DOCTYPE svg PUBLIC "-//W3C//DTD SVG 1.1//EN" "http://www.w3.org/Graphics/SVG/1.1/DTD/svg11.dtd">
<svg version="1.1" id="Calque_1" xmlns="http://www.w3.org/2000/svg" xmlns:xlink="http://www.w3.org/1999/xlink" x="0px" y="0px"
	 width="841.89px" height="595.28px" viewBox="0 0 841.89 595.28" enable-background="new 0 0 841.89 595.28" xml:space="preserve">
<g>
	<radialGradient id="SVGID_1_" cx="303.6206" cy="295.1719" r="289.7898" gradientUnits="userSpaceOnUse">
		<stop  offset="0" style="stop-color:#173776"/>
		<stop  offset="1" style="stop-color:#15326C"/>
	</radialGradient>
	<circle fill="url(#SVGID_1_)" cx="303.621" cy="295.173" r="289.791"/>
	<radialGradient id="SVGID_2_" cx="303.6201" cy="295.1724" r="227.3816" gradientUnits="userSpaceOnUse">
		<stop  offset="0" style="stop-color:#04498F"/>
		<stop  offset="1" style="stop-color:#094384"/>
	</radialGradient>
	<path fill="url(#SVGID_2_)" d="M76.237,295.173c0-125.582,101.803-227.381,227.385-227.381
		c125.579,0,227.381,101.799,227.381,227.381c0,125.576-101.803,227.38-227.381,227.38
		C178.04,522.553,76.237,420.749,76.237,295.173z"/>
</g>
<radialGradient id="SVGID_3_" cx="303.6206" cy="185.9248" r="81.9624" gradientUnits="userSpaceOnUse">
	<stop  offset="0" style="stop-color:#F28D25"/>
	<stop  offset="1" style="stop-color:#EC661C"/>
</radialGradient>
<circle fill="url(#SVGID_3_)" cx="303.621" cy="185.925" r="81.962"/>
<radialGradient id="SVGID_4_" cx="275.0322" cy="169.4883" r="22.8945" gradientUnits="userSpaceOnUse">
	<stop  offset="0" style="stop-color:#FFCD1B"/>
	<stop  offset="1" style="stop-color:#F7A711"/>
</radialGradient>
<circle fill="url(#SVGID_4_)" cx="275.032" cy="169.488" r="22.894"/>
<radialGradient id="SVGID_5_" cx="333.8115" cy="169.4883" r="22.8945" gradientUnits="userSpaceOnUse">
	<stop  offset="0" style="stop-color:#E94E24"/>
	<stop  offset="1" style="stop-color:#E3051C"/>
</radialGradient>
<circle fill="url(#SVGID_5_)" cx="333.812" cy="169.488" r="22.895"/>
<rect x="244.893" y="212.617" fill="#EDEDED" width="117.799" height="21.063"/>
<radialGradient id="SVGID_6_" cx="303.6211" cy="404.4199" r="81.9619" gradientUnits="userSpaceOnUse">
	<stop  offset="0" style="stop-color:#00964F"/>
	<stop  offset="1" style="stop-color:#008346"/>
</radialGradient>
<circle fill="url(#SVGID_6_)" cx="303.621" cy="404.42" r="81.962"/>
<radialGradient id="SVGID_7_" cx="275.0327" cy="385.9824" r="22.8945" gradientUnits="userSpaceOnUse">
	<stop  offset="0" style="stop-color:#FFCD1B"/>
	<stop  offset="1" style="stop-color:#F7A711"/>
</radialGradient>
<circle fill="url(#SVGID_7_)" cx="275.033" cy="385.982" r="22.895"/>
<radialGradient id="SVGID_8_" cx="333.812" cy="385.9824" r="22.8948" gradientUnits="userSpaceOnUse">
	<stop  offset="0" style="stop-color:#E94E24"/>
	<stop  offset="1" style="stop-color:#E3051C"/>
</radialGradient>
<circle fill="url(#SVGID_8_)" cx="333.812" cy="385.982" r="22.895"/>
<rect x="244.893" y="430.855" fill="#EDEDED" width="117.8" height="21.063"/>
<g>
	<path fill="#FFFFFF" d="M275.602,31.652c-0.144-2.256-0.816-3.984-2.712-3.984c-2.088,0-3.097,1.872-3.097,7.32
		c0,5.449,1.008,7.321,3.097,7.321c1.752,0,2.712-0.96,2.712-2.736v-2.448h-2.352v-1.584h4.224v8.112h-1.2l-0.24-1.296
		c-0.72,0.96-1.728,1.536-3.144,1.536c-3.048,0-4.969-2.353-4.969-8.905s1.92-8.904,4.969-8.904c3.192,0,4.344,2.784,4.584,5.568
		H275.602z"/>
	<path fill="#FFFFFF" d="M283.445,43.894c-2.928,0-4.896-2.448-4.896-8.905c0-6.456,1.968-8.904,4.896-8.904
		s4.896,2.448,4.896,8.904C288.342,41.445,286.374,43.894,283.445,43.894z M283.445,27.668c-1.68,0-3.024,1.44-3.024,7.32
		c0,5.881,1.344,7.321,3.024,7.321s3.024-1.44,3.024-7.321C286.47,29.108,285.125,27.668,283.445,27.668z"/>
	<path fill="#FFFFFF" d="M289.723,26.324h4.608c2.592,0,4.081,1.728,4.081,4.271c0,1.729-0.768,3.289-2.64,3.841v0.048
		c2.088,0.552,3.024,2.208,3.024,4.368c0,3.217-1.776,4.801-5.568,4.801h-3.504V26.324z M291.595,33.765h1.056
		c2.688,0,3.889-0.816,3.889-3.169c0-1.968-0.864-2.688-3.072-2.688h-1.873V33.765z M291.595,42.069h1.873
		c2.256,0,3.456-0.984,3.456-3.217c0-2.28-1.008-3.504-3.456-3.504h-1.873V42.069z"/>
	<path fill="#FFFFFF" d="M308.11,26.324v1.584h-6.048v5.904h4.464v1.584h-4.464v6.673h6.336v1.584h-8.209V26.324H308.11z"/>
	<path fill="#FFFFFF" d="M311.29,26.324v15.745h5.616v1.584h-7.489V26.324H311.29z"/>
	<path fill="#FFFFFF" d="M319.569,26.324v17.329h-1.872V26.324H319.569z"/>
	<path fill="#FFFFFF" d="M324.251,26.324l4.464,12.769h0.048V26.324h1.872v17.329h-2.016l-5.376-15.073h-0.048v15.073h-1.872V26.324
		H324.251z"/>
	<path fill="#FFFFFF" d="M338.505,30.788c-0.144-1.776-0.864-3.12-2.665-3.12c-1.44,0-2.376,0.96-2.376,2.28
		c0,3.912,6.96,3.96,6.96,9.528c0,2.761-1.584,4.417-4.44,4.417c-2.712,0-4.344-1.992-4.392-4.896h1.728
		c0.048,2.04,1.008,3.312,2.856,3.312c1.561,0,2.568-1.009,2.568-2.856c0-3.937-6.96-4.393-6.96-9.337
		c0-2.448,1.68-4.032,4.176-4.032s4.128,1.68,4.272,4.704H338.505z"/>
</g>
<g>
	<path d="M714.401,535.324h7.44v1.584h-5.568v5.904h4.177v1.584h-4.177v8.257h-1.872V535.324z"/>
	<path d="M725.182,535.324v15.745h5.617v1.584h-7.488v-17.329H725.182z"/>
	<path d="M736.244,552.894c-2.928,0-4.896-2.448-4.896-8.905c0-6.456,1.969-8.904,4.896-8.904s4.896,2.448,4.896,8.904
		C741.141,550.445,739.172,552.894,736.244,552.894z M736.244,536.668c-1.68,0-3.024,1.44-3.024,7.32
		c0,5.881,1.345,7.321,3.024,7.321s3.024-1.44,3.024-7.321C739.269,538.108,737.924,536.668,736.244,536.668z"/>
	<path d="M743.242,535.324h4.176c2.785,0,4.752,1.632,4.752,4.488c0,1.944-0.863,3.576-2.783,4.248l2.928,8.593h-1.968l-2.784-8.209
		l-2.449,0.097v8.112h-1.871V535.324z M745.113,542.908h1.633c2.688,0,3.553-1.056,3.553-3s-0.864-3-3.553-3h-1.633V542.908z"/>
	<path d="M756.276,535.324v17.329h-1.872v-17.329H756.276z"/>
	<path d="M764.165,535.324l3.816,17.329h-1.872l-1.032-5.137h-4.417l-1.031,5.137h-1.873l3.816-17.329H764.165z M760.925,545.933
		h3.888l-1.92-9.312h-0.047L760.925,545.933z"/>
	<path d="M772.227,535.324l4.465,12.769h0.047v-12.769h1.873v17.329h-2.017l-5.376-15.073h-0.049v15.073h-1.871v-17.329H772.227z"/>
	<path d="M787.777,535.324v15.745h5.617v1.584h-7.489v-17.329H787.777z"/>
	<path d="M802.759,535.324v1.584h-6.048v5.904h4.464v1.584h-4.464v6.673h6.336v1.584h-8.209v-17.329H802.759z"/>
	<path d="M811.487,540.557c-0.24-2.736-1.104-3.889-2.568-3.889c-2.185,0-3.145,1.92-3.145,7.32s0.96,7.321,3.145,7.321
		c1.752,0,2.761-1.2,2.808-4.417h1.873c-0.049,3.841-1.729,6.001-4.681,6.001c-3.097,0-5.017-2.353-5.017-8.905
		s1.92-8.904,5.017-8.904c2.568,0,4.152,1.776,4.44,5.473H811.487z"/>
	<path d="M820.115,552.894c-2.928,0-4.896-2.448-4.896-8.905c0-6.456,1.969-8.904,4.896-8.904s4.896,2.448,4.896,8.904
		C825.012,550.445,823.043,552.894,820.115,552.894z M820.115,536.668c-1.68,0-3.024,1.44-3.024,7.32
		c0,5.881,1.345,7.321,3.024,7.321s3.024-1.44,3.024-7.321C823.14,538.108,821.795,536.668,820.115,536.668z"/>
	<path d="M836.916,553.997c-1.369-0.071-2.185-0.888-2.832-1.968c-0.721,0.6-1.585,0.864-2.545,0.864
		c-2.928,0-4.896-2.448-4.896-8.905c0-6.456,1.969-8.904,4.896-8.904s4.896,2.448,4.896,8.904c0,3.217-0.48,5.449-1.344,6.865
		c0.432,0.695,0.984,1.439,1.824,1.512V553.997z M831.924,547.757c0.84,0.24,1.487,0.769,2.016,1.416
		c0.408-1.104,0.624-2.76,0.624-5.185c0-5.88-1.345-7.32-3.024-7.32s-3.024,1.44-3.024,7.32c0,5.881,1.345,7.321,3.024,7.321
		c0.624,0,1.2-0.192,1.68-0.769c-0.359-0.504-0.768-0.912-1.295-1.248V547.757z"/>
	<path d="M721.602,571.652c-0.144-2.256-0.815-3.984-2.711-3.984c-2.089,0-3.098,1.872-3.098,7.32c0,5.449,1.009,7.321,3.098,7.321
		c1.752,0,2.711-0.96,2.711-2.736v-2.448h-2.352v-1.584h4.225v8.112h-1.2l-0.24-1.296c-0.72,0.96-1.728,1.536-3.144,1.536
		c-3.049,0-4.969-2.353-4.969-8.905s1.92-8.904,4.969-8.904c3.191,0,4.344,2.784,4.584,5.568H721.602z"/>
	<path d="M730.165,583.894c-2.929,0-4.896-2.448-4.896-8.905c0-6.456,1.968-8.904,4.896-8.904s4.896,2.448,4.896,8.904
		C735.062,581.445,733.094,583.894,730.165,583.894z M730.165,567.668c-1.681,0-3.024,1.44-3.024,7.32
		c0,5.881,1.344,7.321,3.024,7.321s3.024-1.44,3.024-7.321C733.189,569.108,731.846,567.668,730.165,567.668z"/>
	<path d="M737.163,566.324h4.608c2.592,0,4.08,1.728,4.08,4.271c0,1.729-0.768,3.289-2.64,3.841v0.048
		c2.088,0.552,3.024,2.208,3.024,4.368c0,3.217-1.776,4.801-5.568,4.801h-3.505V566.324z M739.035,573.765h1.057
		c2.688,0,3.889-0.816,3.889-3.169c0-1.968-0.865-2.688-3.072-2.688h-1.873V573.765z M739.035,582.069h1.873
		c2.256,0,3.455-0.984,3.455-3.217c0-2.28-1.008-3.504-3.455-3.504h-1.873V582.069z"/>
	<path d="M756.271,566.324v1.584h-6.048v5.904h4.464v1.584h-4.464v6.673h6.336v1.584h-8.209v-17.329H756.271z"/>
	<path d="M760.17,566.324v15.745h5.615v1.584h-7.488v-17.329H760.17z"/>
	<path d="M769.169,566.324v17.329h-1.872v-17.329H769.169z"/>
	<path d="M774.571,566.324l4.464,12.769h0.049v-12.769h1.871v17.329h-2.016l-5.377-15.073h-0.047v15.073h-1.873v-17.329H774.571z"/>
	<path d="M789.545,570.788c-0.144-1.776-0.863-3.12-2.664-3.12c-1.439,0-2.376,0.96-2.376,2.28c0,3.912,6.96,3.96,6.96,9.528
		c0,2.761-1.584,4.417-4.439,4.417c-2.713,0-4.345-1.992-4.393-4.896h1.729c0.047,2.04,1.008,3.312,2.855,3.312
		c1.561,0,2.568-1.009,2.568-2.856c0-3.937-6.961-4.393-6.961-9.337c0-2.448,1.681-4.032,4.177-4.032s4.128,1.68,4.272,4.704
		H789.545z"/>
</g>
<g>
	<path fill="#FFFFFF" d="M261.492,284.324h4.08c2.784,0,4.608,1.872,4.608,4.752s-1.824,4.753-4.608,4.753h-2.208v7.824h-1.872
		V284.324z M263.364,292.244h1.968c1.872,0,2.976-1.008,2.976-3.168s-1.104-3.168-2.976-3.168h-1.968V292.244z"/>
	<path fill="#FFFFFF" d="M271.082,284.324h4.177c2.784,0,4.752,1.632,4.752,4.488c0,1.944-0.864,3.576-2.784,4.248l2.928,8.592
		h-1.968l-2.785-8.208l-2.448,0.097v8.112h-1.872V284.324z M272.954,291.908h1.632c2.688,0,3.552-1.056,3.552-3s-0.864-3-3.552-3
		h-1.632V291.908z"/>
	<path fill="#FFFFFF" d="M287.157,284.324l3.816,17.329h-1.872l-1.032-5.136h-4.417l-1.032,5.136h-1.873l3.816-17.329H287.157z
		 M283.917,294.932h3.888l-1.92-9.312h-0.048L283.917,294.932z"/>
	<path fill="#FFFFFF" d="M298.207,284.324v1.584h-3.553v15.745h-1.872v-15.745h-3.552v-1.584H298.207z"/>
	<path fill="#FFFFFF" d="M300.839,284.324v17.329h-1.872v-17.329H300.839z"/>
	<path fill="#FFFFFF" d="M309.873,289.556c-0.24-2.736-1.104-3.889-2.568-3.889c-2.184,0-3.145,1.92-3.145,7.32
		s0.96,7.321,3.145,7.321c1.752,0,2.76-1.199,2.808-4.417h1.872c-0.048,3.84-1.728,6-4.68,6c-3.096,0-5.017-2.352-5.017-8.905
		c0-6.553,1.92-8.904,5.017-8.904c2.568,0,4.152,1.776,4.44,5.473H309.873z"/>
	<path fill="#FFFFFF" d="M312.759,301.652v-1.439c1.536-5.136,6.336-8.017,6.336-11.954c0-1.824-0.912-2.736-2.088-2.736
		c-1.368,0-2.376,1.057-2.52,3.648h-1.584c0.192-3.936,1.968-5.088,4.057-5.088c2.28,0,3.864,1.536,3.864,4.416
		c0,4.32-3.888,5.665-6.48,11.713h6.577v1.439H312.759z"/>
	<path fill="#FFFFFF" d="M325.993,301.893c-2.833,0-4.177-2.641-4.177-8.905c0-6.265,1.344-8.904,4.177-8.904
		c2.832,0,4.176,2.64,4.176,8.904C330.169,299.252,328.825,301.893,325.993,301.893z M325.993,285.523
		c-1.584,0-2.448,1.776-2.448,7.465s0.864,7.465,2.448,7.465c1.584,0,2.448-1.777,2.448-7.465S327.577,285.523,325.993,285.523z"/>
	<path fill="#FFFFFF" d="M331.445,301.652v-1.439h2.112v-13.921l-2.16,0.192v-1.057c0.984-0.24,1.944-0.672,2.736-1.344h1.152
		v16.129h2.016v1.439H331.445z"/>
	<path fill="#FFFFFF" d="M338.791,301.652v-1.439c1.536-5.136,6.337-8.017,6.337-11.954c0-1.824-0.912-2.736-2.088-2.736
		c-1.368,0-2.376,1.057-2.52,3.648h-1.584c0.192-3.936,1.968-5.088,4.057-5.088c2.28,0,3.864,1.536,3.864,4.416
		c0,4.32-3.888,5.665-6.48,11.713h6.577v1.439H338.791z"/>
</g>
<g>
	<path fill="#FFFFFF" d="M285.476,121.516l3.024,13.104h0.048l2.952-13.104h2.977v17.329h-1.729v-15.89H292.7l-3.6,15.89h-1.224
		l-3.601-15.89h-0.048v15.89H282.5v-17.329H285.476z"/>
	<path fill="#FFFFFF" d="M301.481,121.516l3.816,17.329h-1.872l-1.032-5.137h-4.417l-1.032,5.137h-1.873l3.816-17.329H301.481z
		 M298.241,132.125h3.888l-1.92-9.312h-0.048L298.241,132.125z"/>
	<path fill="#FFFFFF" d="M312.531,121.516v1.584h-3.553v15.745h-1.872V123.1h-3.552v-1.584H312.531z"/>
	<path fill="#FFFFFF" d="M315.163,121.516v17.329h-1.872v-17.329H315.163z"/>
	<path fill="#FFFFFF" d="M319.845,121.516l4.464,12.769h0.048v-12.769h1.872v17.329h-2.016l-5.376-15.073h-0.048v15.073h-1.872
		v-17.329H319.845z"/>
</g>
<g>
	<path fill="#FFFFFF" d="M268.54,339.953l3.816,17.329h-1.872l-1.032-5.137h-4.417l-1.032,5.137h-1.873l3.816-17.329H268.54z
		 M265.3,350.562h3.888l-1.92-9.312h-0.048L265.3,350.562z"/>
	<path fill="#FFFFFF" d="M272.953,339.953h4.08c2.784,0,4.608,1.872,4.608,4.752s-1.824,4.753-4.608,4.753h-2.208v7.824h-1.872
		V339.953z M274.825,347.873h1.968c1.872,0,2.976-1.008,2.976-3.168s-1.104-3.168-2.976-3.168h-1.968V347.873z"/>
	<path fill="#FFFFFF" d="M282.543,339.953h4.177c2.784,0,4.752,1.632,4.752,4.488c0,1.944-0.864,3.576-2.784,4.248l2.928,8.593
		h-1.968l-2.785-8.209l-2.448,0.097v8.112h-1.872V339.953z M284.415,347.537h1.632c2.688,0,3.552-1.056,3.552-3s-0.864-3-3.552-3
		h-1.632V347.537z"/>
	<path fill="#FFFFFF" d="M300.8,339.953v1.584h-6.048v5.904h4.464v1.584h-4.464v6.673h6.336v1.584h-8.209v-17.329H300.8z
		 M293.912,335.729h1.872l2.353,3.312h-1.2L293.912,335.729z"/>
	<path fill="#FFFFFF" d="M308.336,344.417c-0.144-1.776-0.864-3.12-2.665-3.12c-1.44,0-2.376,0.96-2.376,2.28
		c0,3.912,6.96,3.96,6.96,9.528c0,2.761-1.584,4.417-4.44,4.417c-2.712,0-4.344-1.992-4.392-4.896h1.728
		c0.048,2.04,1.008,3.312,2.856,3.312c1.561,0,2.568-1.009,2.568-2.856c0-3.937-6.96-4.393-6.96-9.337
		c0-2.448,1.68-4.032,4.176-4.032s4.128,1.68,4.272,4.704H308.336z"/>
	<path fill="#FFFFFF" d="M318.463,339.953l3.024,13.104h0.048l2.952-13.104h2.977v17.329h-1.729v-15.89h-0.048l-3.6,15.89h-1.224
		l-3.601-15.89h-0.048v15.89h-1.728v-17.329H318.463z"/>
	<path fill="#FFFFFF" d="M331.113,339.953v17.329h-1.872v-17.329H331.113z"/>
	<path fill="#FFFFFF" d="M332.984,339.953h3.216c3.648,0,5.856,2.016,5.856,8.664s-2.208,8.665-5.856,8.665h-3.216V339.953z
		 M334.856,355.698h1.008c2.736,0,4.32-1.152,4.32-7.081c0-5.928-1.584-7.08-4.32-7.08h-1.008V355.698z"/>
	<path fill="#FFFFFF" d="M345.488,339.953v17.329h-1.872v-17.329H345.488z"/>
</g>
<g>
	<path fill="#FFFFFF" d="M271,168.001h-3.384v-3.023H271V168.001z M280.791,168.001h-3.384v-3.023h3.384V168.001z"/>
	<path fill="#FFFFFF" d="M289.965,170.554c-4.823,3.06-9.287,4.463-15.154,4.463s-10.33-1.404-15.154-4.463l1.08-1.728
		c4.68,2.591,9.144,3.815,14.074,3.815c4.932,0,9.396-1.224,14.074-3.815L289.965,170.554z"/>
</g>
<g>
	<path fill="#FFFFFF" d="M329.869,168.001h-3.384v-3.023h3.384V168.001z M339.66,168.001h-3.384v-3.023h3.384V168.001z"/>
	<path fill="#FFFFFF" d="M318.525,174.395c4.824-3.06,9.287-4.464,15.154-4.464s10.331,1.404,15.154,4.464l-1.08,1.728
		c-4.679-2.592-9.143-3.815-14.074-3.815c-4.931,0-9.395,1.224-14.074,3.815L318.525,174.395z"/>
</g>
<g>
	<path fill="#FFFFFF" d="M271,385.336h-3.384v-3.023H271V385.336z M280.791,385.336h-3.384v-3.023h3.384V385.336z"/>
	<path fill="#FFFFFF" d="M289.965,387.889c-4.823,3.059-9.287,4.463-15.154,4.463s-10.33-1.404-15.154-4.463l1.08-1.729
		c4.68,2.592,9.144,3.816,14.074,3.816c4.932,0,9.396-1.225,14.074-3.816L289.965,387.889z"/>
</g>
<g>
	<path fill="#FFFFFF" d="M329.869,385.336h-3.384v-3.023h3.384V385.336z M339.66,385.336h-3.384v-3.023h3.384V385.336z"/>
	<path fill="#FFFFFF" d="M318.525,391.729c4.824-3.06,9.287-4.463,15.154-4.463s10.331,1.403,15.154,4.463l-1.08,1.729
		c-4.679-2.592-9.143-3.816-14.074-3.816c-4.931,0-9.395,1.225-14.074,3.816L318.525,391.729z"/>
</g>
<g>
	<path fill="#9D9D9C" d="M252.659,224.622v-0.792h2.951v0.792H252.659z"/>
	<path fill="#9D9D9C" d="M262.172,218.686v0.792h-1.775v7.868h-0.936v-7.868h-1.775v-0.792H262.172z"/>
	<path fill="#9D9D9C" d="M266.522,218.686v0.792H263.5v2.95h2.231v0.792H263.5v3.334h3.166v0.792h-4.102v-8.659H266.522z"/>
	<path fill="#9D9D9C" d="M267.994,218.686l1.319,3.07l1.224-3.07h1.007l-1.703,4.054l2.063,4.605h-1.007l-1.583-3.622l-1.391,3.622
		h-1.007l1.871-4.605l-1.799-4.054H267.994z"/>
	<path fill="#9D9D9C" d="M276.284,218.686v0.792h-1.775v7.868h-0.936v-7.868h-1.775v-0.792H276.284z"/>
	<path fill="#9D9D9C" d="M280.634,218.686v0.792h-3.022v2.95h2.231v0.792h-2.231v3.334h3.167v0.792h-4.102v-8.659H280.634z"/>
	<path fill="#9D9D9C" d="M286.562,220.916c-0.072-0.887-0.432-1.559-1.331-1.559c-0.72,0-1.188,0.48-1.188,1.14
		c0,1.955,3.478,1.979,3.478,4.761c0,1.379-0.792,2.207-2.219,2.207c-1.355,0-2.171-0.996-2.195-2.447h0.864
		c0.024,1.02,0.503,1.655,1.427,1.655c0.779,0,1.283-0.503,1.283-1.427c0-1.967-3.478-2.195-3.478-4.666
		c0-1.224,0.839-2.015,2.087-2.015c1.247,0,2.062,0.84,2.135,2.351H286.562z"/>
	<path fill="#9D9D9C" d="M289.063,218.686v6.356c0,0.875,0.252,1.631,1.271,1.631c1.019,0,1.271-0.755,1.271-1.631v-6.356h0.936
		v6.38c0,1.391-0.647,2.399-2.207,2.399s-2.207-1.008-2.207-2.399v-6.38H289.063z"/>
	<path fill="#9D9D9C" d="M293.438,218.686h2.039c1.391,0,2.303,0.936,2.303,2.375c0,1.439-0.912,2.375-2.303,2.375h-1.104v3.91
		h-0.936V218.686z M294.374,222.644h0.983c0.936,0,1.487-0.504,1.487-1.583c0-1.079-0.552-1.583-1.487-1.583h-0.983V222.644z"/>
	<path fill="#9D9D9C" d="M298.22,218.686h2.039c1.391,0,2.303,0.936,2.303,2.375c0,1.439-0.912,2.375-2.303,2.375h-1.104v3.91
		h-0.935V218.686z M299.155,222.644h0.984c0.935,0,1.487-0.504,1.487-1.583c0-1.079-0.552-1.583-1.487-1.583h-0.984V222.644z"/>
	<path fill="#9D9D9C" d="M303.997,218.686v7.868h2.807v0.792h-3.742v-8.659H303.997z"/>
	<path fill="#9D9D9C" d="M311.171,218.686v0.792h-3.022v2.95h2.231v0.792h-2.231v3.334h3.166v0.792h-4.102v-8.659H311.171z
		 M309.072,218.229h-0.6l1.175-1.655h0.936L309.072,218.229z"/>
	<path fill="#9D9D9C" d="M313.303,218.686l1.511,6.548h0.024l1.475-6.548h1.487v8.659h-0.863v-7.939h-0.024l-1.799,7.939h-0.611
		l-1.799-7.939h-0.024v7.939h-0.863v-8.659H313.303z"/>
	<path fill="#9D9D9C" d="M322.663,218.686v0.792h-3.022v2.95h2.231v0.792h-2.231v3.334h3.166v0.792h-4.102v-8.659H322.663z"/>
	<path fill="#9D9D9C" d="M324.77,218.686l2.231,6.38h0.024v-6.38h0.936v8.659h-1.007l-2.687-7.532h-0.024v7.532h-0.936v-8.659
		H324.77z"/>
	<path fill="#9D9D9C" d="M332.777,218.686v0.792h-1.775v7.868h-0.936v-7.868h-1.775v-0.792H332.777z"/>
	<path fill="#9D9D9C" d="M335.171,218.686l1.907,8.659h-0.936l-0.516-2.566h-2.207l-0.516,2.566h-0.936l1.907-8.659H335.171z
		 M333.552,223.986h1.943l-0.959-4.653h-0.024L333.552,223.986z"/>
	<path fill="#9D9D9C" d="M338.454,218.686v8.659h-0.935v-8.659H338.454z"/>
	<path fill="#9D9D9C" d="M339.438,218.686h2.087c1.391,0,2.375,0.815,2.375,2.243c0,0.972-0.432,1.787-1.391,2.123l1.463,4.293
		h-0.983l-1.392-4.102l-1.223,0.048v4.054h-0.936V218.686z M340.374,222.476h0.815c1.343,0,1.775-0.528,1.775-1.5
		c0-0.971-0.432-1.499-1.775-1.499h-0.815V222.476z"/>
	<path fill="#9D9D9C" d="M348.615,218.686v0.792h-3.022v2.95h2.231v0.792h-2.231v3.334h3.167v0.792h-4.102v-8.659H348.615z"/>
	<path fill="#9D9D9C" d="M351.173,224.622v-0.792h2.951v0.792H351.173z"/>
</g>
<g>
	<path fill="#9D9D9C" d="M252.659,443.122v-0.792h2.951v0.792H252.659z"/>
	<path fill="#9D9D9C" d="M262.172,437.186v0.791h-1.775v7.868h-0.936v-7.868h-1.775v-0.791H262.172z"/>
	<path fill="#9D9D9C" d="M266.522,437.186v0.791H263.5v2.951h2.231v0.791H263.5v3.334h3.166v0.792h-4.102v-8.659H266.522z"/>
	<path fill="#9D9D9C" d="M267.994,437.186l1.319,3.07l1.224-3.07h1.007l-1.703,4.054l2.063,4.605h-1.007l-1.583-3.622l-1.391,3.622
		h-1.007l1.871-4.605l-1.799-4.054H267.994z"/>
	<path fill="#9D9D9C" d="M276.284,437.186v0.791h-1.775v7.868h-0.936v-7.868h-1.775v-0.791H276.284z"/>
	<path fill="#9D9D9C" d="M280.634,437.186v0.791h-3.022v2.951h2.231v0.791h-2.231v3.334h3.167v0.792h-4.102v-8.659H280.634z"/>
	<path fill="#9D9D9C" d="M286.562,439.416c-0.072-0.887-0.432-1.559-1.331-1.559c-0.72,0-1.188,0.479-1.188,1.139
		c0,1.955,3.478,1.979,3.478,4.762c0,1.379-0.792,2.207-2.219,2.207c-1.355,0-2.171-0.996-2.195-2.447h0.864
		c0.024,1.02,0.503,1.655,1.427,1.655c0.779,0,1.283-0.503,1.283-1.427c0-1.967-3.478-2.195-3.478-4.666
		c0-1.223,0.839-2.015,2.087-2.015c1.247,0,2.062,0.84,2.135,2.351H286.562z"/>
	<path fill="#9D9D9C" d="M289.063,437.186v6.356c0,0.876,0.252,1.631,1.271,1.631c1.019,0,1.271-0.755,1.271-1.631v-6.356h0.936
		v6.381c0,1.391-0.647,2.398-2.207,2.398s-2.207-1.008-2.207-2.398v-6.381H289.063z"/>
	<path fill="#9D9D9C" d="M293.438,437.186h2.039c1.391,0,2.303,0.936,2.303,2.375s-0.912,2.375-2.303,2.375h-1.104v3.909h-0.936
		V437.186z M294.374,441.144h0.983c0.936,0,1.487-0.504,1.487-1.583c0-1.08-0.552-1.584-1.487-1.584h-0.983V441.144z"/>
	<path fill="#9D9D9C" d="M298.22,437.186h2.039c1.391,0,2.303,0.936,2.303,2.375s-0.912,2.375-2.303,2.375h-1.104v3.909h-0.935
		V437.186z M299.155,441.144h0.984c0.935,0,1.487-0.504,1.487-1.583c0-1.08-0.552-1.584-1.487-1.584h-0.984V441.144z"/>
	<path fill="#9D9D9C" d="M303.997,437.186v7.867h2.807v0.792h-3.742v-8.659H303.997z"/>
	<path fill="#9D9D9C" d="M311.171,437.186v0.791h-3.022v2.951h2.231v0.791h-2.231v3.334h3.166v0.792h-4.102v-8.659H311.171z
		 M309.072,436.729h-0.6l1.175-1.655h0.936L309.072,436.729z"/>
	<path fill="#9D9D9C" d="M313.303,437.186l1.511,6.549h0.024l1.475-6.549h1.487v8.659h-0.863v-7.939h-0.024l-1.799,7.939h-0.611
		l-1.799-7.939h-0.024v7.939h-0.863v-8.659H313.303z"/>
	<path fill="#9D9D9C" d="M322.663,437.186v0.791h-3.022v2.951h2.231v0.791h-2.231v3.334h3.166v0.792h-4.102v-8.659H322.663z"/>
	<path fill="#9D9D9C" d="M324.77,437.186l2.231,6.381h0.024v-6.381h0.936v8.659h-1.007l-2.687-7.532h-0.024v7.532h-0.936v-8.659
		H324.77z"/>
	<path fill="#9D9D9C" d="M332.777,437.186v0.791h-1.775v7.868h-0.936v-7.868h-1.775v-0.791H332.777z"/>
	<path fill="#9D9D9C" d="M335.171,437.186l1.907,8.659h-0.936l-0.516-2.566h-2.207l-0.516,2.566h-0.936l1.907-8.659H335.171z
		 M333.552,442.486h1.943l-0.959-4.653h-0.024L333.552,442.486z"/>
	<path fill="#9D9D9C" d="M338.454,437.186v8.659h-0.935v-8.659H338.454z"/>
	<path fill="#9D9D9C" d="M339.438,437.186h2.087c1.391,0,2.375,0.815,2.375,2.242c0,0.973-0.432,1.787-1.391,2.123l1.463,4.294
		h-0.983l-1.392-4.102l-1.223,0.048v4.054h-0.936V437.186z M340.374,440.976h0.815c1.343,0,1.775-0.528,1.775-1.499
		c0-0.972-0.432-1.5-1.775-1.5h-0.815V440.976z"/>
	<path fill="#9D9D9C" d="M348.615,437.186v0.791h-3.022v2.951h2.231v0.791h-2.231v3.334h3.167v0.792h-4.102v-8.659H348.615z"/>
	<path fill="#9D9D9C" d="M351.173,443.122v-0.792h2.951v0.792H351.173z"/>
</g>
<linearGradient id="SVGID_9_" gradientUnits="userSpaceOnUse" x1="712.8174" y1="527.6221" x2="837" y2="527.6221">
	<stop  offset="0" style="stop-color:#FFFFFF"/>
	<stop  offset="1" style="stop-color:#000000"/>
</linearGradient>
<line fill="url(#SVGID_9_)" stroke="#000000" stroke-width="2" stroke-miterlimit="10" x1="712.817" y1="527.622" x2="837" y2="527.622"/>
<linearGradient id="SVGID_10_" gradientUnits="userSpaceOnUse" x1="712.8174" y1="559.3408" x2="837" y2="559.3408">
	<stop  offset="0" style="stop-color:#FFFFFF"/>
	<stop  offset="1" style="stop-color:#000000"/>
</linearGradient>
<line fill="url(#SVGID_10_)" stroke="#000000" stroke-width="2" stroke-miterlimit="10" x1="712.817" y1="559.341" x2="837" y2="559.341"/>
</svg>
