<?xml version="1.0" encoding="utf-8"?>
<!-- Generator: Adobe Illustrator 14.0.0, SVG Export Plug-In . SVG Version: 6.00 Build 43363)  -->
<!DOCTYPE svg PUBLIC "-//W3C//DTD SVG 1.1//EN" "http://www.w3.org/Graphics/SVG/1.1/DTD/svg11.dtd">
<svg version="1.1" id="Calque_1" xmlns="http://www.w3.org/2000/svg" xmlns:xlink="http://www.w3.org/1999/xlink" x="0px" y="0px"
	 width="800px" height="600px" viewBox="0 0 800 600" enable-background="new 0 0 800 600" xml:space="preserve">
<line fill="none" stroke="#282425" stroke-width="0.25" stroke-miterlimit="3" stroke-dasharray="2,2" x1="154" y1="548.72" x2="154" y2="93.72"/>
<line fill="#B9BCBE" stroke="#E5E6E7" stroke-width="0.25" stroke-miterlimit="3" stroke-dasharray="2,2" x1="134" y1="548.72" x2="134" y2="93.72"/>
<line fill="#B9BCBE" stroke="#E5E6E7" stroke-width="0.25" stroke-miterlimit="3" stroke-dasharray="2,2" x1="114" y1="548.72" x2="114" y2="93.72"/>
<line fill="#B9BCBE" stroke="#E5E6E7" stroke-width="0.25" stroke-miterlimit="3" stroke-dasharray="2,2" x1="94" y1="548.72" x2="94" y2="93.72"/>
<line fill="#B9BCBE" stroke="#E5E6E7" stroke-width="0.25" stroke-miterlimit="3" stroke-dasharray="2,2" x1="74" y1="548.72" x2="74" y2="93.72"/>
<line fill="#B9BCBE" stroke="#E5E6E7" stroke-width="0.25" stroke-miterlimit="3" stroke-dasharray="2,2" x1="234" y1="548.72" x2="234" y2="93.72"/>
<line fill="#B9BCBE" stroke="#E5E6E7" stroke-width="0.25" stroke-miterlimit="3" stroke-dasharray="2,2" x1="214" y1="548.72" x2="214" y2="93.72"/>
<line fill="#B9BCBE" stroke="#E5E6E7" stroke-width="0.25" stroke-miterlimit="3" stroke-dasharray="2,2" x1="194" y1="548.72" x2="194" y2="93.72"/>
<line fill="#B9BCBE" stroke="#E5E6E7" stroke-width="0.25" stroke-miterlimit="3" stroke-dasharray="2,2" x1="174" y1="548.72" x2="174" y2="93.72"/>
<line fill="#B9BCBE" stroke="#E5E6E7" stroke-width="0.25" stroke-miterlimit="3" stroke-dasharray="2,2" x1="334" y1="548.72" x2="334" y2="93.72"/>
<line fill="#B9BCBE" stroke="#E5E6E7" stroke-width="0.25" stroke-miterlimit="3" stroke-dasharray="2,2" x1="314" y1="548.72" x2="314" y2="93.72"/>
<line fill="#B9BCBE" stroke="#E5E6E7" stroke-width="0.25" stroke-miterlimit="3" stroke-dasharray="2,2" x1="294" y1="548.72" x2="294" y2="93.72"/>
<line fill="#B9BCBE" stroke="#E5E6E7" stroke-width="0.25" stroke-miterlimit="3" stroke-dasharray="2,2" x1="274" y1="548.72" x2="274" y2="93.72"/>
<line fill="#B9BCBE" stroke="#E5E6E7" stroke-width="0.25" stroke-miterlimit="3" stroke-dasharray="2,2" x1="434" y1="548.72" x2="434" y2="93.72"/>
<line fill="#B9BCBE" stroke="#E5E6E7" stroke-width="0.25" stroke-miterlimit="3" stroke-dasharray="2,2" x1="414" y1="548.72" x2="414" y2="93.72"/>
<line fill="#B9BCBE" stroke="#E5E6E7" stroke-width="0.25" stroke-miterlimit="3" stroke-dasharray="2,2" x1="394" y1="548.72" x2="394" y2="93.72"/>
<line fill="#B9BCBE" stroke="#E5E6E7" stroke-width="0.25" stroke-miterlimit="3" stroke-dasharray="2,2" x1="374" y1="548.72" x2="374" y2="93.72"/>
<line fill="#B9BCBE" stroke="#E5E6E7" stroke-width="0.25" stroke-miterlimit="3" stroke-dasharray="2,2" x1="534" y1="548.72" x2="534" y2="93.72"/>
<line fill="#B9BCBE" stroke="#E5E6E7" stroke-width="0.25" stroke-miterlimit="3" stroke-dasharray="2,2" x1="514" y1="548.72" x2="514" y2="93.72"/>
<line fill="#B9BCBE" stroke="#E5E6E7" stroke-width="0.25" stroke-miterlimit="3" stroke-dasharray="2,2" x1="494" y1="548.72" x2="494" y2="93.72"/>
<line fill="#B9BCBE" stroke="#E5E6E7" stroke-width="0.25" stroke-miterlimit="3" stroke-dasharray="2,2" x1="474" y1="548.72" x2="474" y2="93.72"/>
<line fill="none" stroke="#282425" stroke-width="0.25" stroke-miterlimit="3" stroke-dasharray="2,2" x1="254" y1="548.72" x2="254" y2="93.72"/>
<line fill="none" stroke="#282425" stroke-width="0.25" stroke-miterlimit="3" stroke-dasharray="2,2" x1="354" y1="548.72" x2="354" y2="93.72"/>
<line fill="none" stroke="#282425" stroke-width="0.25" stroke-miterlimit="3" stroke-dasharray="2,2" x1="454" y1="548.72" x2="454" y2="93.72"/>
<line fill="none" stroke="#282425" stroke-width="0.25" stroke-miterlimit="3" stroke-dasharray="2,2" x1="554" y1="548.72" x2="554" y2="93.72"/>
<line fill="none" stroke="#282425" stroke-width="2" stroke-miterlimit="3" x1="54" y1="76.72" x2="54" y2="546.72"/>
<polygon fill="#282425" points="61.149,85.926 54.067,82.462 47.851,85.926 54.5,70.616 "/>
<line fill="none" stroke="#282425" stroke-width="0.25" stroke-miterlimit="3" x1="52" y1="524.72" x2="36" y2="524.72"/>
<line fill="none" stroke="#282425" stroke-width="0.25" stroke-miterlimit="3" x1="52" y1="444.72" x2="36" y2="444.72"/>
<line fill="none" stroke="#282425" stroke-width="0.25" stroke-miterlimit="3" x1="52" y1="366.72" x2="36" y2="366.72"/>
<line fill="none" stroke="#282425" stroke-width="0.25" stroke-miterlimit="3" x1="52" y1="286.72" x2="36" y2="286.72"/>
<line fill="none" stroke="#282425" stroke-width="0.25" stroke-miterlimit="3" x1="52" y1="206.72" x2="36" y2="206.72"/>
<rect x="20" y="514.72" fill="none" width="30" height="21"/>
<text transform="matrix(1 0 0 1 20 522.916)" fill="#909295" font-family="'Times-Roman'" font-size="12">9h</text>
<rect x="18" y="435.72" fill="none" width="30" height="21"/>
<text transform="matrix(1 0 0 1 18 443.916)" fill="#909295" font-family="'Times-Roman'" font-size="12">9h30</text>
<rect x="19" y="356.72" fill="none" width="30" height="21"/>
<text transform="matrix(1 0 0 1 19 364.916)" fill="#909295" font-family="'Times-Roman'" font-size="12">10h</text>
<rect x="20" y="276.72" fill="none" width="30" height="21"/>
<text transform="matrix(1 0 0 1 20 284.916)" fill="#909295" font-family="'Times-Roman'" font-size="12">10h30</text>
<rect x="21" y="196.72" fill="none" width="30" height="21"/>
<text transform="matrix(1 0 0 1 21 204.916)" fill="#909295" font-family="'Times-Roman'" font-size="12">11h30</text>
<line fill="none" stroke="#282425" stroke-width="0.25" stroke-miterlimit="3" x1="52" y1="126.72" x2="36" y2="126.72"/>
<rect x="21" y="116.72" fill="none" width="30" height="21"/>
<text transform="matrix(1 0 0 1 21 124.916)" fill="#909295" font-family="'Times-Roman'" font-size="12">12h</text>
<line fill="none" stroke="#282425" stroke-width="0.25" stroke-miterlimit="3" x1="74" y1="557.72" x2="74" y2="548.72"/>
<line fill="none" stroke="#282425" stroke-width="0.25" stroke-miterlimit="3" x1="94" y1="557.72" x2="94" y2="548.72"/>
<line fill="none" stroke="#282425" stroke-width="0.25" stroke-miterlimit="3" x1="114" y1="557.72" x2="114" y2="548.72"/>
<line fill="none" stroke="#282425" stroke-width="0.25" stroke-miterlimit="3" x1="134" y1="557.72" x2="134" y2="548.72"/>
<line fill="none" stroke="#282425" stroke-width="0.25" stroke-miterlimit="3" x1="154" y1="564.72" x2="154" y2="548.72"/>
<line fill="none" stroke="#282425" stroke-width="0.25" stroke-miterlimit="3" x1="174" y1="557.72" x2="174" y2="548.72"/>
<line fill="none" stroke="#282425" stroke-width="0.25" stroke-miterlimit="3" x1="194" y1="557.72" x2="194" y2="548.72"/>
<line fill="none" stroke="#282425" stroke-width="0.25" stroke-miterlimit="3" x1="214" y1="557.72" x2="214" y2="548.72"/>
<line fill="none" stroke="#282425" stroke-width="0.25" stroke-miterlimit="3" x1="234" y1="557.72" x2="234" y2="548.72"/>
<line fill="none" stroke="#282425" stroke-width="0.25" stroke-miterlimit="3" x1="254" y1="564.72" x2="254" y2="548.72"/>
<line fill="none" stroke="#282425" stroke-width="0.25" stroke-miterlimit="3" x1="274" y1="557.72" x2="274" y2="548.72"/>
<line fill="none" stroke="#282425" stroke-width="0.25" stroke-miterlimit="3" x1="294" y1="557.72" x2="294" y2="548.72"/>
<line fill="none" stroke="#282425" stroke-width="0.25" stroke-miterlimit="3" x1="314" y1="557.72" x2="314" y2="548.72"/>
<line fill="none" stroke="#282425" stroke-width="0.25" stroke-miterlimit="3" x1="334" y1="557.721" x2="334" y2="548.72"/>
<line fill="none" stroke="#282425" stroke-width="0.25" stroke-miterlimit="3" x1="354" y1="563.188" x2="354" y2="550.251"/>
<line fill="none" stroke="#282425" stroke-width="0.25" stroke-miterlimit="3" x1="374" y1="557.72" x2="374" y2="548.72"/>
<line fill="none" stroke="#282425" stroke-width="0.25" stroke-miterlimit="3" x1="394" y1="557.72" x2="394" y2="548.72"/>
<line fill="none" stroke="#282425" stroke-width="0.25" stroke-miterlimit="3" x1="414" y1="556.72" x2="414" y2="548.72"/>
<line fill="none" stroke="#282425" stroke-width="0.25" stroke-miterlimit="3" x1="434" y1="557.72" x2="434" y2="548.72"/>
<line fill="none" stroke="#282425" stroke-width="0.25" stroke-miterlimit="3" x1="454" y1="561.992" x2="454" y2="549.916"/>
<line fill="none" stroke="#282425" stroke-width="0.25" stroke-miterlimit="3" x1="474" y1="557.72" x2="474" y2="548.72"/>
<line fill="none" stroke="#282425" stroke-width="0.25" stroke-miterlimit="3" x1="494" y1="557.72" x2="494" y2="548.72"/>
<line fill="none" stroke="#282425" stroke-width="0.25" stroke-miterlimit="3" x1="514" y1="556.72" x2="514" y2="548.72"/>
<line fill="none" stroke="#282425" stroke-width="0.25" stroke-miterlimit="3" x1="534" y1="557.72" x2="534" y2="548.72"/>
<line fill="none" stroke="#282425" stroke-width="0.25" stroke-miterlimit="3" x1="554" y1="561.992" x2="554" y2="549.916"/>
<rect x="152" y="570.22" fill="none" width="30" height="21"/>
<text transform="matrix(1 0 0 1 152 578.416)" fill="#909295" font-family="'Times-Roman'" font-size="12">5</text>
<rect x="248" y="570.22" fill="none" width="30" height="21"/>
<text transform="matrix(1 0 0 1 248 578.416)" fill="#909295" font-family="'Times-Roman'" font-size="12">10</text>
<rect x="349" y="570.22" fill="none" width="30" height="21"/>
<text transform="matrix(1 0 0 1 349 578.416)" fill="#909295" font-family="'Times-Roman'" font-size="12">15</text>
<rect x="449" y="570.22" fill="none" width="30" height="21"/>
<text transform="matrix(1 0 0 1 449 578.416)" fill="#909295" font-family="'Times-Roman'" font-size="12">20</text>
<rect x="549" y="570.22" fill="none" width="30" height="21"/>
<text transform="matrix(1 0 0 1 549 578.416)" fill="#909295" font-family="'Times-Roman'" font-size="12">25</text>
<rect x="43" y="57.72" fill="none" width="30" height="21"/>
<text transform="matrix(1 0 0 1 43 65.916)" fill="#909295" font-family="'Times-Roman'" font-size="12">TPS</text>
<line fill="none" stroke="#282425" stroke-width="2" stroke-miterlimit="3" x1="589.572" y1="545.292" x2="53.572" y2="545.292"/>
<polygon fill="#282425" points="585.365,552.441 588.83,545.359 585.365,539.143 600.676,545.792 "/>
<rect x="607" y="541.72" fill="none" width="102" height="27"/>
<text transform="matrix(1 0 0 1 607 549.916)" fill="#909295" font-family="'Times-Roman'" font-size="12">NBRE DE CLIC</text>
<rect x="644.868" y="414.557" fill="#FF776C" width="17.768" height="17.768"/>
<rect x="65.116" y="267.836" fill="#FF776C" width="17.768" height="17.768"/>
<rect x="64.116" y="187.836" fill="#FF776C" width="17.768" height="17.768"/>
<rect x="205.116" y="496.131" fill="#FF776C" width="17.768" height="17.768"/>
<rect x="185.116" y="359.708" fill="#FF776C" width="17.768" height="17.768"/>
<rect x="405.116" y="158.466" fill="#FF776C" width="17.768" height="17.768"/>
<rect x="145.116" y="515.836" fill="#FF776C" width="17.768" height="17.768"/>
<polygon fill="#282425" points="662.809,346.049 644.695,346.049 653.519,328.342 "/>
<polygon fill="#282425" points="103.057,482.049 84.943,482.049 93.767,464.342 "/>
<polygon fill="#282425" points="263.057,342.652 244.943,342.652 253.767,324.945 "/>
<polygon fill="#282425" points="323.057,395.35 304.943,395.35 313.767,377.643 "/>
<polygon fill="#282425" points="203.057,257.35 184.943,257.35 193.767,239.643 "/>
<polygon fill="#282425" points="263.057,167.35 244.943,167.35 253.767,149.643 "/>
<polygon fill="#282425" points="363.057,224.427 344.943,224.427 353.767,206.72 "/>
<polygon fill="#282425" points="458.057,287.22 439.943,287.22 448.767,269.513 "/>
<polygon fill="#282425" points="83.057,134.22 64.943,134.22 73.767,116.513 "/>
<circle fill="#FFFF00" cx="653.752" cy="366.342" r="9.585"/>
<circle fill="#FFFF00" cx="354" cy="428.324" r="9.585"/>
<circle fill="#FFFF00" cx="254" cy="366.342" r="9.585"/>
<circle fill="#FFFF00" cx="214" cy="333.799" r="9.585"/>
<circle fill="#FFFF00" cx="94" cy="312.084" r="9.585"/>
<circle fill="#FFFF00" cx="74" cy="219.843" r="9.585"/>
<circle fill="#FFFF00" cx="314" cy="248.475" r="9.585"/>
<circle fill="#FFFF00" cx="73" cy="391.719" r="9.585"/>
<circle fill="#FFFF00" cx="94" cy="525.221" r="9.585"/>
<polygon fill="#D20027" points="648.629,404.247 643.505,395.371 648.629,386.496 658.875,386.496 663.999,395.371 658.875,404.247 
	"/>
<polygon fill="#D20027" points="148.877,455.095 143.753,446.219 148.877,437.344 159.123,437.344 164.247,446.219 159.123,455.095 
	"/>
<polygon fill="#D20027" points="108.877,400.594 103.753,391.718 108.877,382.843 119.123,382.843 124.247,391.718 119.123,400.594 
	"/>
<polygon fill="#D20027" points="68.877,342.674 63.753,333.798 68.877,324.923 79.123,324.923 84.247,333.798 79.123,342.674 "/>
<polygon fill="#D20027" points="248.877,266.225 243.753,257.349 248.877,248.474 259.123,248.474 264.247,257.349 259.123,266.225 
	"/>
<polygon fill="#D20027" points="128.877,233.302 123.753,224.426 128.877,215.551 139.123,215.551 144.247,224.426 139.123,233.302 
	"/>
<polygon fill="#D20027" points="308.877,146.595 303.753,137.719 308.877,128.844 319.123,128.844 324.247,137.719 319.123,146.595 
	"/>
<polygon fill="#D20027" points="348.877,315.389 343.753,306.512 348.877,297.637 359.123,297.637 364.247,306.512 359.123,315.389 
	"/>
<polygon fill="#D20027" points="348.877,533.595 343.753,524.719 348.877,515.844 359.123,515.844 364.247,524.719 359.123,533.595 
	"/>
<polygon fill="#CED0D2" points="653.752,295.691 657.268,302.815 665.13,303.959 659.441,309.504 660.784,317.334 653.752,313.637 
	646.72,317.334 648.062,309.504 642.374,303.959 650.236,302.815 "/>
<polygon fill="#CED0D2" points="514,375.675 517.516,382.799 525.378,383.942 519.689,389.487 521.032,397.317 514,393.62 
	506.968,397.317 508.311,389.487 502.622,383.942 510.484,382.799 "/>
<polygon fill="#CED0D2" points="474,445.898 477.516,453.022 485.378,454.166 479.689,459.711 481.032,467.541 474,463.844 
	466.968,467.541 468.311,459.711 462.622,454.166 470.484,453.022 "/>
<polygon fill="#CED0D2" points="354,456.72 357.516,463.844 365.378,464.987 359.689,470.532 361.032,478.362 354,474.665 
	346.968,478.362 348.311,470.532 342.622,464.987 350.484,463.844 "/>
<polygon fill="#CED0D2" points="314,322.978 317.516,330.102 325.378,331.245 319.689,336.79 321.032,344.62 314,340.923 
	306.968,344.62 308.311,336.79 302.622,331.245 310.484,330.102 "/>
<polygon fill="#CED0D2" points="394,204.752 397.516,211.876 405.378,213.02 399.689,218.564 401.032,226.395 394,222.697 
	386.968,226.395 388.311,218.564 382.622,213.02 390.484,211.876 "/>
<polygon fill="#CED0D2" points="274,123.398 277.516,130.522 285.378,131.666 279.689,137.211 281.032,145.041 274,141.344 
	266.968,145.041 268.311,137.211 262.622,131.666 270.484,130.522 "/>
<polygon fill="#CED0D2" points="194,204.021 197.516,211.145 205.378,212.289 199.689,217.833 201.032,225.664 194,221.966 
	186.968,225.664 188.311,217.833 182.622,212.289 190.484,211.145 "/>
<polygon fill="#CED0D2" points="494,134.22 497.516,141.344 505.378,142.487 499.689,148.032 501.032,155.862 494,152.165 
	486.968,155.862 488.311,148.032 482.622,142.487 490.484,141.344 "/>
<polygon fill="#CED0D2" points="314,513.898 317.516,521.022 325.378,522.166 319.689,527.711 321.032,535.541 314,531.844 
	306.968,535.541 308.311,527.711 302.622,522.166 310.484,521.022 "/>
<rect x="202.884" y="31.472" fill="none" width="592.471" height="73.497"/>
<text transform="matrix(1 0 0 1 202.8838 39.9917)" fill="#282425" font-family="'MyriadPro-Regular'" font-size="12">CARTOGRAPHIE DES INFORMATIONS ET RÉACTIONS LIÉES À LA CONFÉRENCE</text>
<rect x="9.252" y="31.472" fill="none" width="97.495" height="18.998"/>
<text transform="matrix(1 0 0 1 9.2524 39.9917)" fill="#282425" font-family="'MyriadPro-Regular'" font-size="12">PAULINE COLLET</text>
<rect x="672" y="303.834" fill="none" width="110" height="16.5"/>
<text transform="matrix(1 0 0 1 672 312.3535)" font-family="'MyriadPro-Regular'" font-size="12">#CDNLOK</text>
<rect x="672" y="360.342" fill="none" width="110" height="16.5"/>
<text transform="matrix(1 0 0 1 672 368.8613)" font-family="'MyriadPro-Regular'" font-size="12">#CDNLSMILE</text>
<rect x="672" y="391.719" fill="none" width="110" height="16.5"/>
<text transform="matrix(1 0 0 1 672 400.2383)" font-family="'MyriadPro-Regular'" font-size="12">#CDNLNEUTRE</text>
<rect x="672" y="333.799" fill="none" width="110" height="16.5"/>
<text transform="matrix(1 0 0 1 672 342.3184)" font-family="'MyriadPro-Regular'" font-size="12">#CDNLNONOK</text>
<rect x="673" y="420.074" fill="none" width="110" height="16.5"/>
<text transform="matrix(1 0 0 1 673 428.5938)" font-family="'MyriadPro-Regular'" font-size="12">#CDNLPERDU</text>
</svg>
