<?xml version="1.0" encoding="utf-8"?>
<!-- Generator: Adobe Illustrator 15.1.0, SVG Export Plug-In . SVG Version: 6.00 Build 0)  -->
<!DOCTYPE svg PUBLIC "-//W3C//DTD SVG 1.1//EN" "http://www.w3.org/Graphics/SVG/1.1/DTD/svg11.dtd">
<svg version="1.1" id="Calque_1" xmlns="http://www.w3.org/2000/svg" xmlns:xlink="http://www.w3.org/1999/xlink" x="0px" y="0px"
	 width="800px" height="600px" viewBox="0 0 800 600" enable-background="new 0 0 800 600" xml:space="preserve">
<circle opacity="0.75" fill="#FB923B" cx="327.7" cy="173.203" r="110.306"/>
<circle opacity="0.75" fill="#89C657" cx="235.475" cy="310.862" r="110.306"/>
<circle opacity="0.75" fill="#07ABDD" cx="499.975" cy="307.227" r="133.776"/>
<circle opacity="0.75" fill="#C31A30" cx="351.151" cy="452.152" r="110.306"/>
<circle opacity="0.75" fill="#FFF04B" cx="381.161" cy="320.709" r="110.305"/>
<text transform="matrix(1 0 0 1 312.4038 173.2017)" fill="#FFFFFF" font-family="'MyriadPro-Regular'" font-size="17.6021">#OK</text>
<text transform="matrix(1 0 0 1 161.4106 316.0269)" fill="#FFFFFF" font-family="'MyriadPro-Regular'" font-size="17.6021">#interessant</text>
<text transform="matrix(1 0 0 1 495.8667 323.0562)" fill="#FFFFFF" font-family="'MyriadPro-Regular'" font-size="17.6021">#Pasinteressant</text>
<text transform="matrix(1 0 0 1 323.1187 508.9507)" fill="#FFFFFF" font-family="'MyriadPro-Regular'" font-size="17.6021">#pasOK</text>
<text transform="matrix(1 0 0 1 345.7812 323.0562)" fill="#58595B" font-family="'MyriadPro-Regular'" font-size="17.6021">#acreuser</text>
<rect x="633.751" y="576.799" fill="none" width="163.985" height="23.2"/>
<text transform="matrix(1 0 0 1 633.7524 591.7085)" fill="#58595B" font-family="'MyriadPro-Regular'" font-size="21">Baptiste R</text>
<text transform="matrix(0.7 0 0 0.7 720.606 591.7085)" fill="#58595B" font-family="'MyriadPro-Regular'" font-size="21">asschaert</text>
<text transform="matrix(1 0 0 1 18.1714 40.5562)" fill="#58595B" font-family="'MyriadPro-Regular'" font-size="36">H</text>
<text transform="matrix(0.7 0 0 0.7 41.6431 40.5562)" fill="#58595B" font-family="'MyriadPro-Regular'" font-size="36">ash</text>
<text transform="matrix(1 0 0 1 85.9194 40.5562)" fill="#58595B" font-family="'MyriadPro-Regular'" font-size="36">T</text>
<text transform="matrix(0.7 0 0 0.7 103.811 40.5562)" fill="#58595B" font-family="'MyriadPro-Regular'" font-size="36">ags</text>
<text transform="matrix(1 0 0 1 147.936 40.5562)" fill="#58595B" font-family="'MyriadPro-Regular'" font-size="36"> </text>
<text transform="matrix(0.7 0 0 0.7 155.5674 40.5562)" fill="#58595B" font-family="'MyriadPro-Regular'" font-size="36">pour</text>
<text transform="matrix(1 0 0 1 216.1978 40.5562)" fill="#58595B" font-family="'MyriadPro-Regular'" font-size="36"> L</text>
<text transform="matrix(0.7 0 0 0.7 240.8208 40.5562)" fill="#58595B" font-family="'MyriadPro-Regular'" font-size="36">es</text>
<text transform="matrix(1 0 0 1 265.6431 40.5562)" fill="#58595B" font-family="'MyriadPro-Regular'" font-size="36"> </text>
<text transform="matrix(0.7 0 0 0.7 273.2749 40.5562)" fill="#58595B" font-family="'MyriadPro-Regular'" font-size="36">conférences</text>
<text transform="matrix(1 0 0 1 428.479 40.5562)" fill="#58595B" font-family="'MyriadPro-Regular'" font-size="36"> PRATIC</text>
</svg>
