<?xml version="1.0" encoding="UTF-8" standalone="no"?>
<!-- Generator: Adobe Illustrator 15.0.2, SVG Export Plug-In . SVG Version: 6.00 Build 0)  -->

<svg
   xmlns:dc="http://purl.org/dc/elements/1.1/"
   xmlns:cc="http://creativecommons.org/ns#"
   xmlns:rdf="http://www.w3.org/1999/02/22-rdf-syntax-ns#"
   xmlns:svg="http://www.w3.org/2000/svg"
   xmlns="http://www.w3.org/2000/svg"
   xmlns:sodipodi="http://sodipodi.sourceforge.net/DTD/sodipodi-0.dtd"
   xmlns:inkscape="http://www.inkscape.org/namespaces/inkscape"
   version="1.1"
   id="Calque_1"
   x="0px"
   y="0px"
   width="700px"
   height="800px"
   viewBox="0 0 1793.926 1320.068"
   enable-background="new 0 0 1793.926 1320.068"
   xml:space="preserve"
   inkscape:version="0.48.2 r9819"
   sodipodi:docname="tweetPalette.svg"><metadata
   id="metadata3523"><rdf:RDF><cc:Work
       rdf:about=""><dc:format>image/svg+xml</dc:format><dc:type
         rdf:resource="http://purl.org/dc/dcmitype/StillImage" /></cc:Work></rdf:RDF></metadata><defs
   id="defs3521" /><sodipodi:namedview
   pagecolor="#ffffff"
   bordercolor="#666666"
   borderopacity="1"
   objecttolerance="10"
   gridtolerance="10"
   guidetolerance="10"
   inkscape:pageopacity="0"
   inkscape:pageshadow="2"
   inkscape:window-width="600"
   inkscape:window-height="800"
   id="namedview3519"
   showgrid="false"
   inkscape:zoom="0.39164649"
   inkscape:cx="896.96301"
   inkscape:cy="660.034"
   inkscape:window-x="-8"
   inkscape:window-y="-8"
   inkscape:window-maximized="1"
   inkscape:current-layer="Calque_1" />
<script
   type="text/ecmascript"
   id="script3256">
function vote_click(evt) {
	var t = evt.currentTarget.id.replace(/#/g, '%23');
	t = t.replace(/\+/g, '%2B');
	t = t.replace(/-/g, '%2D');
	t = t + 'via @Paris8/Gobelins';
	window.open('http://twitter.com/home?status='+t, '_blank');
}
</script>
<rect
   x="-1960.403"
   y="780.787"
   transform="matrix(-0.7071 0.7071 -0.7071 -0.7071 -2639.6006 2783.27)"
   width="128.337"
   height="128.337"
   id="rect3258" />
<line
   fill="none"
   stroke="#000000"
   x1="-1986.982"
   y1="844.956"
   x2="-1774.312"
   y2="632.286"
   id="line3260" />
<line
   fill="none"
   stroke="#000000"
   x1="-2014.945"
   y1="1054.414"
   x2="-1807.428"
   y2="846.898"
   id="line3262" />
<line
   fill="none"
   stroke="#000000"
   x1="-1895.824"
   y1="936.111"
   x2="-2100.895"
   y2="731.042"
   id="line3264" />
<line
   fill="none"
   stroke="#000000"
   x1="-1684.302"
   y1="965.268"
   x2="-1896.208"
   y2="753.363"
   id="line3266" />
<rect
   x="-2001.423"
   y="1018.585"
   transform="matrix(-0.6933 -0.7206 0.7206 -0.6933 -4088.5945 368.2285)"
   width="70.95"
   height="70.954"
   id="rect3268" />
<rect
   x="-1858.493"
   y="597.298"
   transform="matrix(-0.6933 -0.7206 0.7206 -0.6933 -3542.958 -242.21)"
   width="70.952"
   height="70.954"
   id="rect3270" />
<rect
   x="-2136.562"
   y="745.95"
   transform="matrix(-0.6933 -0.7206 0.7206 -0.6933 -4120.937 -190.8839)"
   width="70.954"
   height="70.955"
   id="rect3272" />
<line
   fill="none"
   stroke="#000000"
   stroke-width="0.75"
   x1="-1821.896"
   y1="632.287"
   x2="-1951.693"
   y2="632.286"
   id="line3274" />
<line
   fill="none"
   stroke="#000000"
   stroke-width="0.75"
   x1="-1693.15"
   y1="633.287"
   x2="-1822.947"
   y2="633.287"
   id="line3276" />
<line
   fill="none"
   stroke="#000000"
   stroke-width="0.75"
   x1="-1822.049"
   y1="502.715"
   x2="-1822.049"
   y2="632.512"
   id="line3278" />
<line
   fill="none"
   stroke="#000000"
   stroke-width="0.75"
   x1="-1967.524"
   y1="1055.061"
   x2="-1837.728"
   y2="1055.061"
   id="line3280" />
<line
   fill="none"
   stroke="#000000"
   stroke-width="0.75"
   x1="-2096.271"
   y1="1054.062"
   x2="-1966.475"
   y2="1054.061"
   id="line3282" />
<line
   fill="none"
   stroke="#000000"
   stroke-width="0.75"
   x1="-1967.373"
   y1="1184.631"
   x2="-1967.373"
   y2="1054.834"
   id="line3284" />
<line
   fill="none"
   stroke="#000000"
   stroke-width="0.75"
   x1="-2102.084"
   y1="780.902"
   x2="-2102.084"
   y2="910.701"
   id="line3286" />
<line
   fill="none"
   stroke="#000000"
   stroke-width="0.75"
   x1="-2101.084"
   y1="652.155"
   x2="-2101.084"
   y2="781.953"
   id="line3288" />
<line
   fill="none"
   stroke="#000000"
   stroke-width="0.75"
   x1="-2231.654"
   y1="781.055"
   x2="-2101.857"
   y2="781.055"
   id="line3290" />
<polygon
   points="-1664.814,894.682 -1683.621,965.592 -1735.628,913.854 "
   id="polygon3292" />
<polygon
   points="-1718.375,588.893 -1692.668,633.156 -1743.854,633.287 "
   id="polygon3294" />
<polygon
   points="-1926.068,676.68 -1951.775,632.417 -1900.59,632.287 "
   id="polygon3296" />
<polygon
   points="-1866.489,528.422 -1822.226,502.715 -1822.096,553.902 "
   id="polygon3298" />
<polygon
   points="-2071.322,1098.453 -2097.029,1054.191 -2045.841,1054.061 "
   id="polygon3300" />
<polygon
   points="-1863.628,1010.666 -1837.92,1054.932 -1889.107,1055.061 "
   id="polygon3302" />
<polygon
   points="-1923.206,1158.924 -1967.471,1184.631 -1967.602,1133.445 "
   id="polygon3304" />
<rect
   x="-2100.832"
   y="652.156"
   width="42.709"
   height="42.709"
   id="rect3306" />
<rect
   x="-2144.793"
   y="867.99"
   width="42.709"
   height="42.711"
   id="rect3308" />
<rect
   x="-2231.654"
   y="738.193"
   width="42.709"
   height="42.709"
   id="rect3310" />
<polygon
   points="1009.142,1116.451 944.298,1153.735 879.586,1116.222 879.72,1041.423 944.564,1004.14 1009.275,1041.652 "
   id="polygon3312" />
<line
   fill="none"
   stroke="#000000"
   stroke-width="0.75"
   x1="1008.829"
   y1="1222.956"
   x2="1008.829"
   y2="1042.461"
   id="line3314" />
<line
   fill="none"
   stroke="#000000"
   stroke-width="0.75"
   x1="879.79"
   y1="1040.816"
   x2="1420.299"
   y2="731.193"
   id="line3316" />
<line
   fill="none"
   stroke="#000000"
   stroke-width="0.75"
   x1="338.536"
   y1="807.466"
   x2="944.528"
   y2="1153.909"
   id="line3318" />
<line
   fill="none"
   stroke="#000000"
   stroke-width="0.75"
   x1="880.703"
   y1="389.925"
   x2="880.174"
   y2="1115.956"
   id="line3320" />
<circle
   cx="1008.829"
   cy="1222.956"
   r="35"
   id="circle3322" />
<polygon
   fill="#509F25"
   points="1421.995,731.146 1467.294,772.791 1441.685,828.74 1380.562,821.676 1368.392,761.358 "
   id="polygon3324" />
<polygon
   fill="#E3006A"
   points="881.023,391.323 939.533,372.27 975.731,422.028 939.598,471.831 881.063,452.854 "
   id="polygon3326" />
<polygon
   fill="#0086C5"
   points="338.188,806.376 350.682,746.123 411.844,739.388 437.151,795.473 391.63,836.875 "
   id="polygon3328" />
<line
   stroke="#008855"
   stroke-width="0.75"
   x1="1368.753"
   y1="764.869"
   x2="1416.53"
   y2="1013.778"
   id="line3330" />
<line
   stroke="#008855"
   stroke-width="0.75"
   x1="1379.578"
   y1="821.484"
   x2="1630.897"
   y2="854.312"
   id="line3332" />
<line
   stroke="#008855"
   stroke-width="0.75"
   x1="1441.761"
   y1="828.547"
   x2="1547.659"
   y2="598.277"
   id="line3334" />
<line
   stroke="#D10019"
   stroke-width="0.75"
   x1="882.977"
   y1="451.639"
   x2="1121.954"
   y2="536.073"
   id="line3336" />
<line
   stroke="#D10019"
   stroke-width="0.75"
   x1="937.312"
   y1="470.88"
   x2="1092.539"
   y2="270.521"
   id="line3338" />
<line
   stroke="#D10019"
   stroke-width="0.75"
   x1="974.804"
   y1="420.771"
   x2="829.508"
   y2="213.099"
   id="line3340" />
<line
   stroke="#006F9F"
   stroke-width="0.75"
   x1="394.46"
   y1="834.348"
   x2="582.881"
   y2="664.829"
   id="line3342" />
<line
   stroke="#006F9F"
   stroke-width="0.75"
   x1="437.339"
   y1="795.824"
   x2="335.588"
   y2="563.692"
   id="line3344" />
<line
   stroke="#006F9F"
   stroke-width="0.75"
   x1="411.255"
   y1="738.938"
   x2="159.388"
   y2="767.252"
   id="line3346" />
<polygon
   fill="#82BCDF"
   points="207.818,762.134 228.382,807.418 191.668,840.97 148.414,816.42 158.396,767.696 "
   id="polygon3348" />
<polygon
   fill="#82BCDF"
   points="355.267,609.869 317.789,642.563 275.112,617.022 286.217,568.542 335.755,564.123 "
   id="polygon3350" />
<polygon
   fill="#F19FBB"
   points="857.924,254.475 827.934,294.149 780.932,277.888 781.875,228.161 829.459,213.692 "
   id="polygon3352" />
<polygon
   fill="#F19FBB"
   points="1061.202,309.987 1014.577,292.677 1016.63,242.984 1064.525,229.583 1092.072,270.993 "
   id="polygon3354" />
<polygon
   fill="#F19FBB"
   points="1076.05,519.369 1077.325,469.651 1125.004,455.499 1153.196,496.472 1122.939,535.946 "
   id="polygon3356" />
<polygon
   fill="#B1CE93"
   points="1526.132,643.02 1476.753,637.078 1467.143,588.281 1510.585,564.062 1547.04,597.895 "
   id="polygon3358" />
<polygon
   fill="#B1CE93"
   points="1631.132,854.032 1581.753,848.091 1572.143,799.293 1615.585,775.075 1652.04,808.907 "
   id="polygon3360" />
<polygon
   fill="#B1CE93"
   points="1466.132,1020.362 1416.753,1014.421 1407.143,965.624 1450.585,941.405 1487.04,975.237 "
   id="polygon3362" />
<polygon
   fill="#82BCDF"
   points="545.434,697.99 502.365,673.119 512.709,624.471 562.173,619.278 582.396,664.716 "
   id="polygon3364" />
<line
   stroke="#5BBEE5"
   stroke-width="0.75"
   x1="228.785"
   y1="807.727"
   x2="105.785"
   y2="918.004"
   id="line3366" />
<line
   stroke="#5BBEE5"
   stroke-width="0.75"
   x1="190.593"
   y1="840.932"
   x2="46.874"
   y2="759.479"
   id="line3368" />
<line
   stroke="#5BBEE5"
   stroke-width="0.75"
   x1="317.902"
   y1="642.698"
   x2="176.49"
   y2="557.303"
   id="line3370" />
<line
   stroke="#5BBEE5"
   stroke-width="0.75"
   x1="274.985"
   y1="615.879"
   x2="310.873"
   y2="454.628"
   id="line3372" />
<line
   fill="#5BBEE5"
   stroke="#F19DA7"
   stroke-width="0.75"
   x1="827.687"
   y1="294.511"
   x2="671.615"
   y2="240.367"
   id="line3374" />
<line
   fill="#5BBEE5"
   stroke="#F19DA7"
   stroke-width="0.75"
   x1="781.525"
   y1="276.097"
   x2="782.481"
   y2="110.903"
   id="line3376" />
<line
   fill="#5BBEE5"
   stroke="#F19DA7"
   stroke-width="0.75"
   x1="781.081"
   y1="228.13"
   x2="938.768"
   y2="178.889"
   id="line3378" />
<line
   fill="#5BBEE5"
   stroke="#F19DA7"
   stroke-width="0.75"
   x1="1015.183"
   y1="292.074"
   x2="1024.202"
   y2="127.124"
   id="line3380" />
<line
   fill="#5BBEE5"
   stroke="#F19DA7"
   stroke-width="0.75"
   x1="1018.157"
   y1="242.625"
   x2="1177.213"
   y2="198.003"
   id="line3382" />
<line
   fill="#5BBEE5"
   stroke="#F19DA7"
   stroke-width="0.75"
   x1="1064.143"
   y1="228.974"
   x2="1154.945"
   y2="366.977"
   id="line3384" />
<line
   fill="#5BBEE5"
   stroke="#F19DA7"
   stroke-width="0.75"
   x1="1077.956"
   y1="469.632"
   x2="1236.279"
   y2="422.476"
   id="line3386" />
<line
   fill="#5BBEE5"
   stroke="#F19DA7"
   stroke-width="0.75"
   x1="1125.51"
   y1="455.75"
   x2="1221.175"
   y2="590.428"
   id="line3388" />
<line
   fill="#5BBEE5"
   stroke="#F19DA7"
   stroke-width="0.75"
   x1="1153.874"
   y1="494.435"
   x2="1054.595"
   y2="626.471"
   id="line3390" />
<line
   stroke="#5BBEE5"
   stroke-width="0.75"
   x1="676.854"
   y1="611.609"
   x2="512.191"
   y2="624.86"
   id="line3392" />
<line
   stroke="#5BBEE5"
   stroke-width="0.75"
   x1="541.094"
   y1="511.758"
   x2="501.365"
   y2="672.105"
   id="line3394" />
<line
   fill="#5BBEE5"
   stroke="#95C8AF"
   stroke-width="0.75"
   x1="1608.734"
   y1="506.845"
   x2="1465.731"
   y2="589.548"
   id="line3396" />
<line
   fill="#5BBEE5"
   stroke="#95C8AF"
   stroke-width="0.75"
   x1="1443.244"
   y1="474.998"
   x2="1476.251"
   y2="636.863"
   id="line3398" />
<line
   fill="#5BBEE5"
   stroke="#95C8AF"
   stroke-width="0.75"
   x1="1736.763"
   y1="885.061"
   x2="1614.741"
   y2="773.702"
   id="line3400" />
<line
   fill="#5BBEE5"
   stroke="#95C8AF"
   stroke-width="0.75"
   x1="1717.156"
   y1="717.678"
   x2="1572.812"
   y2="798.017"
   id="line3402" />
<line
   fill="#5BBEE5"
   stroke="#95C8AF"
   stroke-width="0.75"
   x1="1420.429"
   y1="1125.413"
   x2="1487.164"
   y2="974.296"
   id="line3404" />
<line
   fill="#5BBEE5"
   stroke="#95C8AF"
   stroke-width="0.75"
   x1="1573.868"
   y1="1053.556"
   x2="1451.77"
   y2="942.284"
   id="line3406" />
<text
   transform="matrix(1 0 0 1 983.168 1230.0459)"
   fill="#FFFFFF"
   font-family="'MyriadPro-Regular'"
   font-size="22.4606"
   id="text3408">#zero</text>






<text
   transform="matrix(1 0 0 1 884.7227 1085.2285)"
   fill="#FFFFFF"
   font-family="'MyriadPro-Regular'"
   font-size="24.2181"
   id="text3410">#pratic2012</text>






<text
   transform="matrix(1 0 0 1 358.5986 794.2051)"
   fill="#FFFFFF"
   font-family="'MyriadPro-Regular'"
   font-size="27.2672"
   id="text3412">#nul</text>






<text
   transform="matrix(1 0 0 1 155.3867 806.9619)"
   fill="#FFFFFF"
   font-family="'MyriadPro-Regular'"
   font-size="19.5898"
   id="text3414">#theme</text>






<text
   transform="matrix(1 0 0 1 785.4814 259.9619)"
   fill="#FFFFFF"
   font-family="'MyriadPro-Regular'"
   font-size="19.5898"
   id="text3416">#theme</text>






<text
   transform="matrix(1 0 0 1 1473.251 611.8691)"
   fill="#FFFFFF"
   font-family="'MyriadPro-Regular'"
   font-size="19.5898"
   id="text3418">#theme</text>






<text
   transform="matrix(1 0 0 1 281.1123 604.8477)"
   fill="#FFFFFF"
   font-family="'MyriadPro-Regular'"
   font-size="14.7958"
   id="text3420">#personne</text>






<text
   transform="matrix(1 0 0 1 1017.6924 273.0967)"
   fill="#FFFFFF"
   font-family="'MyriadPro-Regular'"
   font-size="14.7958"
   id="text3422">#personne</text>






<text
   transform="matrix(1 0 0 1 1578.6924 821.6025)"
   fill="#FFFFFF"
   font-family="'MyriadPro-Regular'"
   font-size="14.7958"
   id="text3424">#personne</text>






<text
   transform="matrix(1 0 0 1 509.1914 663.9453)"
   fill="#FFFFFF"
   font-family="'MyriadPro-Regular'"
   font-size="18.3315"
   id="text3426">#propos</text>






<text
   transform="matrix(1 0 0 1 1079.9414 500.7227)"
   fill="#FFFFFF"
   font-family="'MyriadPro-Regular'"
   font-size="18.3315"
   id="text3428">#propos</text>






<text
   transform="matrix(1 0 0 1 1412.8975 988.3896)"
   fill="#FFFFFF"
   font-family="'MyriadPro-Regular'"
   font-size="18.3315"
   id="text3430">#propos</text>






<text
   transform="matrix(1 0 0 1 886.9434 429.4321)"
   fill="#FFFFFF"
   font-family="'MyriadPro-Regular'"
   font-size="22.3602"
   id="text3432">#neutre</text>






<text
   transform="matrix(1 0 0 1 1380.9121 792.9893)"
   fill="#FFFFFF"
   font-family="'MyriadPro-Regular'"
   font-size="29.0331"
   id="text3434">#cool</text>






<circle
   fill="#DBEDF6"
   cx="105.785"
   cy="914.722"
   r="28.347"
   id="circle3436" />
<circle
   fill="#9CD2EB"
   cx="46.874"
   cy="757.847"
   r="28.347"
   id="circle3438" />
<circle
   fill="#DBEDF6"
   cx="176.49"
   cy="558.201"
   r="28.347"
   id="circle3440" />
<circle
   fill="#9CD2EB"
   cx="310.873"
   cy="457.476"
   r="28.347"
   id="circle3442" />
<circle
   fill="#9CD2EB"
   cx="676.854"
   cy="611.609"
   r="28.347"
   id="circle3444" />
<circle
   fill="#DBEDF6"
   cx="541.094"
   cy="511.758"
   r="28.347"
   id="circle3446" />
<text
   transform="matrix(1 0 0 1 93.3564 924.0166)"
   font-family="'MyriadPro-Regular'"
   font-size="27.9558"
   id="#pratic2012#null#theme#-"
   style="cursor: pointer;"
   onclick="vote_click(evt)">#-</text>






<text
   transform="matrix(1 0 0 1 165.3877 568.0171)"
   font-family="'MyriadPro-Regular'"
   font-size="27.9558"
   id="#pratic2012#null#personne#-"
   style="cursor: pointer;"
   onclick="vote_click(evt)">#-</text>






<text
   transform="matrix(1 0 0 1 527.7217 521.3506)"
   font-family="'MyriadPro-Regular'"
   font-size="27.9558"
   id="#pratic2012#null#propos#-"
   style="cursor: pointer;"
   onclick="vote_click(evt)">#-</text>






<text
   transform="matrix(1 0 0 1 29.8281 767.0029)"
   font-family="'MyriadPro-Regular'"
   font-size="27.9558"
   id="#pratic2012#null#theme#--"
   style="cursor: pointer;"
   onclick="vote_click(evt)">#--</text>






<text
   transform="matrix(1 0 0 1 292.9287 466.3369)"
   font-family="'MyriadPro-Regular'"
   font-size="27.9558"
   id="#pratic2012#null#personne#--"
   style="cursor: pointer;"
   onclick="vote_click(evt)">#--</text>






<text
   transform="matrix(1 0 0 1 660.9287 620.2783)"
   font-family="'MyriadPro-Regular'"
   font-size="27.9558"
   id="#pratic2012#null#propos#--"
   style="cursor: pointer;"
   onclick="vote_click(evt)">#--</text>






<circle
   fill="#FBE5E7"
   cx="671.615"
   cy="240.367"
   r="28.347"
   id="circle3460" />
<circle
   fill="#F9D1D4"
   cx="781.081"
   cy="110.903"
   r="28.347"
   id="circle3462" />
<circle
   fill="#F19DA7"
   cx="937.312"
   cy="178.889"
   r="28.347"
   id="circle3464" />
<circle
   fill="#FBE5E7"
   cx="1024.202"
   cy="133.891"
   r="28.347"
   id="circle3466" />
<circle
   fill="#F9D1D4"
   cx="1177.213"
   cy="198.003"
   r="28.347"
   id="circle3468" />
<circle
   fill="#F19DA7"
   cx="1157.118"
   cy="366.977"
   r="28.347"
   id="circle3470" />
<circle
   fill="#FBE5E7"
   cx="1236.279"
   cy="420.771"
   r="28.347"
   id="circle3472" />
<circle
   fill="#F9D1D4"
   cx="1221.175"
   cy="591.932"
   r="28.347"
   id="circle3474" />
<circle
   fill="#F19DA7"
   cx="1054.595"
   cy="624.86"
   r="28.347"
   id="circle3476" />
<text
   transform="matrix(1 0 0 1 659.7217 249.6836)"
   font-family="'MyriadPro-Regular'"
   font-size="27.9558"
   id="#pratic2012#neutre#theme#-"
   style="cursor: pointer;"
   onclick="vote_click(evt)">#-</text>






<text
   transform="matrix(1 0 0 1 923.0322 186.6533)"
   font-family="'MyriadPro-Regular'"
   font-size="27.9558"
   id="#pratic2012#neutre#theme#+"
   style="cursor: pointer;"
   onclick="vote_click(evt)">#+</text>






<text
   transform="matrix(1 0 0 1 1141.0322 375.3193)"
   font-family="'MyriadPro-Regular'"
   font-size="27.9558"
   id="#pratic2012#neutre#personne#+"
   style="cursor: pointer;"
   onclick="vote_click(evt)">#+</text>






<text
   transform="matrix(1 0 0 1 1039.0322 634.6533)"
   font-family="'MyriadPro-Regular'"
   font-size="27.9558"
   id="#pratic2012#neutre#propos#+"
   style="cursor: pointer;"
   onclick="vote_click(evt)">#+</text>






<text
   transform="matrix(1 0 0 1 765.7217 119.0166)"
   font-family="'MyriadPro-Regular'"
   font-size="27.9558"
   id="#pratic2012#neutre#theme#="
   style="cursor: pointer;"
   onclick="vote_click(evt)">#=</text>






<text
   transform="matrix(1 0 0 1 1161.7217 207.2354)"
   font-family="'MyriadPro-Regular'"
   font-size="27.9558"
   id="#pratic2012#neutre#personne#="
   style="cursor: pointer;"
   onclick="vote_click(evt)">#=</text>






<text
   transform="matrix(1 0 0 1 1206.5596 601.3428)"
   font-family="'MyriadPro-Regular'"
   font-size="27.9558"
   id="#pratic2012#neutre#propos#="
   style="cursor: pointer;"
   onclick="vote_click(evt)">#=</text>






<text
   transform="matrix(1 0 0 1 1013.0557 141.25)"
   font-family="'MyriadPro-Regular'"
   font-size="27.9558"
   id="#pratic2012#neutre#personne#-"
   style="cursor: pointer;"
   onclick="vote_click(evt)">#-</text>






<text
   transform="matrix(1 0 0 1 1224.1748 429.1289)"
   font-family="'MyriadPro-Regular'"
   font-size="27.9558"
   id="#pratic2012#neutre#propos#-"
   style="cursor: pointer;"
   onclick="vote_click(evt)">#-</text>






<circle
   fill="#D3E4C9"
   cx="1443.244"
   cy="475.432"
   r="28.347"
   id="circle3496" />
<circle
   fill="#BBD6B2"
   cx="1608.734"
   cy="506.845"
   r="28.347"
   id="circle3498" />
<circle
   fill="#D3E4C9"
   cx="1717.156"
   cy="717.705"
   r="28.347"
   id="circle3500" />
<circle
   fill="#BBD6B2"
   cx="1736.763"
   cy="885.062"
   r="28.347"
   id="circle3502" />
<circle
   fill="#D3E4C9"
   cx="1572.143"
   cy="1053.557"
   r="28.347"
   id="circle3504" />
<circle
   fill="#BBD6B2"
   cx="1420.299"
   cy="1125.413"
   r="28.347"
   id="circle3506" />
<text
   transform="matrix(1 0 0 1 1426.3652 483.4111)"
   font-family="'MyriadPro-Regular'"
   font-size="27.9558"
   id="#pratic2012#cool#theme#+"
   style="cursor: pointer;"
   onclick="vote_click(evt)">#+</text>






<text
   transform="matrix(1 0 0 1 1703.0322 727.4116)"
   font-family="'MyriadPro-Regular'"
   font-size="27.9558"
   id="#pratic2012#cool#personne#+"
   style="cursor: pointer;"
   onclick="vote_click(evt)">#+</text>






<text
   transform="matrix(1 0 0 1 1558.3652 1062.7451)"
   font-family="'MyriadPro-Regular'"
   font-size="27.9558"
   id="#pratic2012#cool#propos#+"
   style="cursor: pointer;"
   onclick="vote_click(evt)">#+</text>






<text
   transform="matrix(1 0 0 1 1586.0312 514.7451)"
   font-family="'MyriadPro-Regular'"
   font-size="27.9558"
   id="#pratic2012#cool#theme#++"
   style="cursor: pointer;"
   onclick="vote_click(evt)">#++</text>






<text
   transform="matrix(1 0 0 1 1713.0312 893.7451)"
   font-family="'MyriadPro-Regular'"
   font-size="27.9558"
   id="#pratic2012#cool#personne#++"
   style="cursor: pointer;"
   onclick="vote_click(evt)">#++</text>






<text
   id="#pratic2012#cool#propos#++"
   onclick="vote_click(evt)"
   style="cursor: pointer;"
   transform="matrix(1 0 0 1 1396.3643 1133.7451)"
   font-family="'MyriadPro-Regular'"
   font-size="27.9558">#++</text>






</svg>